<?xml version="1.0" encoding="UTF-8" standalone="no"?>
<!-- Generator: Adobe Illustrator 27.5.0, SVG Export Plug-In . SVG Version: 6.00 Build 0)  -->

<svg
   version="1.1"
   id="Layer_1"
   x="0px"
   y="0px"
   viewBox="0 0 63.999998 63.999999"
   xml:space="preserve"
   sodipodi:docname="folder-sign.svg"
   inkscape:version="1.4.3 (unknown)"
   width="64"
   height="64"
   xmlns:inkscape="http://www.inkscape.org/namespaces/inkscape"
   xmlns:sodipodi="http://sodipodi.sourceforge.net/DTD/sodipodi-0.dtd"
   xmlns="http://www.w3.org/2000/svg"
   xmlns:svg="http://www.w3.org/2000/svg"><defs
   id="defs762">
	
		<radialGradient
   id="SVGID_00000022534578410790736700000013999825567828354183_"
   cx="422.99371"
   cy="288.32251"
   r="28.502399"
   gradientTransform="matrix(0.98379286,0,0,0.98236136,-385.19832,-251.34342)"
   gradientUnits="userSpaceOnUse">
		<stop
   offset="0"
   style="stop-color:#A0866A"
   id="stop74" />
		<stop
   offset="0.2596"
   style="stop-color:#9C8268"
   id="stop75" />
		<stop
   offset="0.5301"
   style="stop-color:#8F7861"
   id="stop76" />
		<stop
   offset="0.8045"
   style="stop-color:#7B6656"
   id="stop77" />
		<stop
   offset="1"
   style="stop-color:#67554B"
   id="stop78" />
	</radialGradient>
	
	
	
	
		<radialGradient
   id="SVGID_00000125562367361927050560000001190537805866180488_"
   cx="417.22159"
   cy="288.32251"
   r="27.744699"
   gradientTransform="matrix(1.0074039,0,0,0.98236136,-390.24016,-251.34342)"
   gradientUnits="userSpaceOnUse">
		<stop
   offset="0"
   style="stop-color:#A0866A"
   id="stop85" />
		<stop
   offset="0.2596"
   style="stop-color:#9C8268"
   id="stop86" />
		<stop
   offset="0.5301"
   style="stop-color:#8F7861"
   id="stop87" />
		<stop
   offset="0.8045"
   style="stop-color:#7B6656"
   id="stop88" />
		<stop
   offset="1"
   style="stop-color:#67554B"
   id="stop89" />
	</radialGradient>
	
	
		<radialGradient
   id="SVGID_00000097500425902151924180000002286946989435723681_"
   cx="405.16061"
   cy="259.82541"
   r="73.946198"
   gradientTransform="matrix(0.94060435,0,0,0.98236136,-375.80615,-251.34342)"
   gradientUnits="userSpaceOnUse">
		<stop
   offset="0"
   style="stop-color:#535d6c;stop-opacity:1"
   id="stop90" />
		<stop
   offset="0.2284"
   style="stop-color:#373e48;stop-opacity:1"
   id="stop91" />
		<stop
   offset="0.4664"
   style="stop-color:#373e48;stop-opacity:1"
   id="stop92" />
		<stop
   offset="0.70889997"
   style="stop-color:#48515e;stop-opacity:1;"
   id="stop93" />
		<stop
   offset="0.95289999"
   style="stop-color:#373e48;stop-opacity:1"
   id="stop94" />
		<stop
   offset="1"
   style="stop-color:#373e48;stop-opacity:1"
   id="stop95" />
	</radialGradient>
	
	
		<radialGradient
   id="SVGID_00000119082666600208423750000005907981173642057379_"
   cx="425.73099"
   cy="288.43094"
   r="67.4496"
   gradientTransform="matrix(0.82943576,0,0,0.98236136,-350.11651,-251.34342)"
   gradientUnits="userSpaceOnUse"
   fx="425.73099"
   fy="288.43094">
		<stop
   offset="0"
   style="stop-color:#939dac;stop-opacity:1"
   id="stop96" />
		<stop
   offset="0.25960001"
   style="stop-color:#535d6c;stop-opacity:1"
   id="stop97" />
		<stop
   offset="0.5301"
   style="stop-color:#535d6c;stop-opacity:1"
   id="stop98" />
		<stop
   offset="0.8045"
   style="stop-color:#373e48;stop-opacity:1"
   id="stop99" />
		<stop
   offset="1"
   style="stop-color:#373e48;stop-opacity:1"
   id="stop100" />
	</radialGradient>
	
	
		<radialGradient
   id="SVGID_00000165928333602235411140000014852226284911233709_"
   cx="-1556.7609"
   cy="1310.3918"
   r="1.7343"
   gradientTransform="matrix(0.62323278,0,0,0.68421469,985.97188,-887.64613)"
   gradientUnits="userSpaceOnUse">
		<stop
   offset="0"
   style="stop-color:#E1CEC0"
   id="stop101" />
		<stop
   offset="0.761"
   style="stop-color:#E0CDBE"
   id="stop102" />
		<stop
   offset="1"
   style="stop-color:#DCC9B9"
   id="stop103" />
	</radialGradient>
	
	
		<radialGradient
   id="SVGID_00000023271670121255412580000014745766858599489424_"
   cx="-1556.7609"
   cy="1306.0997"
   r="1.7342"
   gradientTransform="matrix(0.62323278,0,0,0.68421469,985.97188,-880.11982)"
   gradientUnits="userSpaceOnUse">
		<stop
   offset="0"
   style="stop-color:#E1CEC0"
   id="stop104" />
		<stop
   offset="0.761"
   style="stop-color:#E0CDBE"
   id="stop105" />
		<stop
   offset="1"
   style="stop-color:#DCC9B9"
   id="stop106" />
	</radialGradient>
	
	
		<radialGradient
   id="SVGID_00000093146561591346411050000017874754504161969285_"
   cx="-1556.7609"
   cy="1301.8096"
   r="1.733"
   gradientTransform="matrix(0.62323278,0,0,0.68421469,985.97188,-872.59405)"
   gradientUnits="userSpaceOnUse">
		<stop
   offset="0"
   style="stop-color:#E1CEC0"
   id="stop107" />
		<stop
   offset="0.761"
   style="stop-color:#E0CDBE"
   id="stop108" />
		<stop
   offset="1"
   style="stop-color:#DCC9B9"
   id="stop109" />
	</radialGradient>
	
	
		<radialGradient
   id="SVGID_00000124154437391672708990000002450479196596738238_"
   cx="-1556.7609"
   cy="1297.5177"
   r="1.7336"
   gradientTransform="matrix(0.62323278,0,0,0.68421469,985.97188,-865.06833)"
   gradientUnits="userSpaceOnUse">
		<stop
   offset="0"
   style="stop-color:#E1CEC0"
   id="stop110" />
		<stop
   offset="0.761"
   style="stop-color:#E0CDBE"
   id="stop111" />
		<stop
   offset="1"
   style="stop-color:#DCC9B9"
   id="stop112" />
	</radialGradient>
	
	
		<radialGradient
   id="SVGID_00000034058293124216951570000006641406590055667894_"
   cx="-1556.7609"
   cy="1293.2249"
   r="1.7339"
   gradientTransform="matrix(0.62323278,0,0,0.68421469,985.97188,-857.54231)"
   gradientUnits="userSpaceOnUse">
		<stop
   offset="0"
   style="stop-color:#E1CEC0"
   id="stop113" />
		<stop
   offset="0.761"
   style="stop-color:#E0CDBE"
   id="stop114" />
		<stop
   offset="1"
   style="stop-color:#DCC9B9"
   id="stop115" />
	</radialGradient>
	
	
		<radialGradient
   id="SVGID_00000042694802152741533360000006474553379895889032_"
   cx="-1556.7609"
   cy="1288.9327"
   r="1.7342"
   gradientTransform="matrix(0.62323278,0,0,0.68421469,985.97188,-850.01604)"
   gradientUnits="userSpaceOnUse">
		<stop
   offset="0"
   style="stop-color:#E1CEC0"
   id="stop116" />
		<stop
   offset="0.761"
   style="stop-color:#E0CDBE"
   id="stop117" />
		<stop
   offset="1"
   style="stop-color:#DCC9B9"
   id="stop118" />
	</radialGradient>
	
	
		<radialGradient
   id="SVGID_00000111901877872900564700000014159718068513697190_"
   cx="-1556.7609"
   cy="1284.642"
   r="1.7334"
   gradientTransform="matrix(0.62323278,0,0,0.68421469,985.97188,-842.49032)"
   gradientUnits="userSpaceOnUse">
		<stop
   offset="0"
   style="stop-color:#E1CEC0"
   id="stop119" />
		<stop
   offset="0.761"
   style="stop-color:#E0CDBE"
   id="stop120" />
		<stop
   offset="1"
   style="stop-color:#DCC9B9"
   id="stop121" />
	</radialGradient>
	
	
		<radialGradient
   id="SVGID_00000022538754652405687830000005864690060167237006_"
   cx="-1556.7609"
   cy="1280.3497"
   r="1.7334"
   gradientTransform="matrix(0.62323278,0,0,0.68421469,985.97188,-834.96406)"
   gradientUnits="userSpaceOnUse">
		<stop
   offset="0"
   style="stop-color:#E1CEC0"
   id="stop122" />
		<stop
   offset="0.761"
   style="stop-color:#E0CDBE"
   id="stop123" />
		<stop
   offset="1"
   style="stop-color:#DCC9B9"
   id="stop124" />
	</radialGradient>
	
	
		<radialGradient
   id="SVGID_00000059309292910592828090000012283058363263137190_"
   cx="-1556.7609"
   cy="1276.0603"
   r="1.7339"
   gradientTransform="matrix(0.62323278,0,0,0.68421469,985.97188,-827.43829)"
   gradientUnits="userSpaceOnUse">
		<stop
   offset="0"
   style="stop-color:#E1CEC0"
   id="stop125" />
		<stop
   offset="0.761"
   style="stop-color:#E0CDBE"
   id="stop126" />
		<stop
   offset="1"
   style="stop-color:#DCC9B9"
   id="stop127" />
	</radialGradient>
	
	
		<radialGradient
   id="SVGID_00000164515357396027012420000009309048799111497121_"
   cx="-1556.7609"
   cy="1271.7668"
   r="1.7334"
   gradientTransform="matrix(0.62323278,0,0,0.68421469,985.97188,-819.91212)"
   gradientUnits="userSpaceOnUse">
		<stop
   offset="0"
   style="stop-color:#E1CEC0"
   id="stop128" />
		<stop
   offset="0.761"
   style="stop-color:#E0CDBE"
   id="stop129" />
		<stop
   offset="1"
   style="stop-color:#DCC9B9"
   id="stop130" />
	</radialGradient>
	
	
		<radialGradient
   id="SVGID_00000078021694386518579320000000195962685941464961_"
   cx="-1556.7609"
   cy="1267.4753"
   r="1.733"
   gradientTransform="matrix(0.62323278,0,0,0.68421469,985.97188,-812.3863)"
   gradientUnits="userSpaceOnUse">
		<stop
   offset="0"
   style="stop-color:#E1CEC0"
   id="stop131" />
		<stop
   offset="0.761"
   style="stop-color:#E0CDBE"
   id="stop132" />
		<stop
   offset="1"
   style="stop-color:#DCC9B9"
   id="stop133" />
	</radialGradient>
	
	
	
		<radialGradient
   id="SVGID_00000179631901819502847670000002313046964360062115_"
   cx="465.28549"
   cy="269.20731"
   r="33.883701"
   gradientTransform="matrix(0.7608654,0,0,0.98236136,-334.59177,-251.34342)"
   gradientUnits="userSpaceOnUse">
		<stop
   offset="0"
   style="stop-color:#5599ff;stop-opacity:1"
   id="stop145" />
		<stop
   offset="0.31479999"
   style="stop-color:#267dff;stop-opacity:1;"
   id="stop146" />
		<stop
   offset="0.7586"
   style="stop-color:#2a7fff;stop-opacity:1"
   id="stop147" />
		<stop
   offset="1"
   style="stop-color:#0053d0;stop-opacity:1;"
   id="stop148" />
	</radialGradient>
	
	
		<radialGradient
   id="SVGID_00000110451134532301891090000001961278411554218625_"
   cx="422.12851"
   cy="271.23071"
   r="41.8508"
   gradientTransform="matrix(0.91866577,0,0,0.98236136,-370.25146,-251.34342)"
   gradientUnits="userSpaceOnUse">
		<stop
   offset="0.1067"
   style="stop-color:#8d5fd3;stop-opacity:1"
   id="stop149" />
		<stop
   offset="0.5118"
   style="stop-color:#8d5fd3;stop-opacity:1"
   id="stop150" />
		<stop
   offset="1"
   style="stop-color:#8d5fd3;stop-opacity:1"
   id="stop151" />
	</radialGradient>
	

		
		
		
		
		
		
	
		
			<radialGradient
   id="SVGID_00000052091378501920612200000006059691176872464570_"
   cx="-498.31311"
   cy="565.55511"
   r="5.8572001"
   gradientTransform="matrix(1.1015529,0,0,1.1486751,623.04374,-631.95324)"
   gradientUnits="userSpaceOnUse">
			<stop
   offset="0"
   style="stop-color:#A0866A"
   id="stop134" />
			<stop
   offset="0.2596"
   style="stop-color:#9C8268"
   id="stop135" />
			<stop
   offset="0.5301"
   style="stop-color:#8F7861"
   id="stop136" />
			<stop
   offset="0.8045"
   style="stop-color:#7B6656"
   id="stop137" />
			<stop
   offset="1"
   style="stop-color:#67554B"
   id="stop138" />
		</radialGradient>
		
		
		
		
	
			
				<radialGradient
   id="SVGID_00000044889807405124194260000009933868313778631062_"
   cx="-498.314"
   cy="580.81989"
   r="7.6585999"
   gradientTransform="matrix(1.1015529,0,0,1.1486751,623.04374,-631.95324)"
   gradientUnits="userSpaceOnUse">
				<stop
   offset="0"
   style="stop-color:#A0866A"
   id="stop139" />
				<stop
   offset="0.2596"
   style="stop-color:#9C8268"
   id="stop140" />
				<stop
   offset="0.5301"
   style="stop-color:#8F7861"
   id="stop141" />
				<stop
   offset="0.8045"
   style="stop-color:#7B6656"
   id="stop142" />
				<stop
   offset="1"
   style="stop-color:#67554B"
   id="stop143" />
			</radialGradient>
			
		</defs><sodipodi:namedview
   id="namedview762"
   pagecolor="#ffffff"
   bordercolor="#000000"
   borderopacity="0.25"
   inkscape:showpageshadow="2"
   inkscape:pageopacity="0.0"
   inkscape:pagecheckerboard="0"
   inkscape:deskcolor="#d1d1d1"
   inkscape:zoom="8"
   inkscape:cx="25.375"
   inkscape:cy="26.375"
   inkscape:window-width="1920"
   inkscape:window-height="994"
   inkscape:window-x="0"
   inkscape:window-y="0"
   inkscape:window-maximized="1"
   inkscape:current-layer="Layer_1"
   showgrid="false"><inkscape:grid
     id="grid1"
     units="px"
     originx="0"
     originy="0"
     spacingx="0.99999997"
     spacingy="0.99999998"
     empcolor="#0099e5"
     empopacity="0.30196078"
     color="#0099e5"
     opacity="0.14901961"
     empspacing="5"
     enabled="true"
     visible="false" /></sodipodi:namedview>


<g
   id="g1"><path
     d="m 59.081109,50.189861 c 0,5.81014 -4.176201,9.110139 -9.326848,9.110139 H 12.324878 C 7.1752139,59.3 2.999997,55.219763 2.999997,50.189861 V 13.810139 c 0,-5.0303802 4.1752169,-9.1101391 9.324881,-9.1101391 h 37.429383 c 5.150647,0 9.326848,3.0998612 9.326848,8.9100001 z"
     id="path78"
     style="fill:#b7bec8;fill-opacity:1;stroke-width:0.987421"
     sodipodi:nodetypes="sssssssss" /><path
     style="fill:#b7bec8;stroke-width:0.485356;fill-opacity:1"
     d="m 58.142571,50.189862 c 0,5.030379 -4.106352,9.110138 -9.170426,9.110138 H 12.169438 C 7.1063484,59.3 2.999997,55.219763 2.999997,50.189862 V 13.810138 c 0,-5.0303792 4.1063514,-9.1101381 9.169441,-9.1101381 h 36.802707 c 5.064074,0 9.170426,4.0802377 9.170426,9.1101381 z"
     id="path79" /><g
     id="g2"><path
       style="fill:#ffaaaa;stroke-width:0.491538;fill-opacity:1"
       d="m 60.742243,43.740446 v 3.41518 c 0,1.767268 -1.339434,3.202989 -3.005979,3.247195 0.02509,0 0.05116,0.0039 0.07674,0.0039 h 0.10379 c 1.702454,0 3.083207,-1.455369 3.083207,-3.251125 v -3.41518 c 0,-1.794774 -1.380753,-3.251125 -3.083207,-3.251125 H 57.813 c -0.02607,0 -0.05165,0.0039 -0.07674,0.0039 1.666545,0.04371 3.005979,1.478945 3.005979,3.247195 z"
       id="path80" /><path
       style="fill:#d35f8d;stroke-width:0.491538"
       d="m 57.284703,50.356159 c 0.147077,0.02701 0.297598,0.04224 0.451561,0.04715 1.667037,-0.04421 3.005979,-1.480418 3.005979,-3.247195 v -3.415179 c 0,-1.768251 -1.339434,-3.20299 -3.005979,-3.247196 -0.153963,0.0039 -0.304484,0.02112 -0.451561,0.04814 z"
       id="path81" /></g><path
     style="fill:#ffeeaa;stroke-width:0.491538;fill-opacity:1"
     d="m 60.742243,29.923043 v 3.413214 c 0,1.769233 -1.339434,3.203972 -3.005979,3.248178 0.02509,0 0.05116,0.0039 0.07674,0.0039 h 0.10379 c 1.702454,0 3.083207,-1.45635 3.083207,-3.252107 v -3.413214 c 0,-1.795757 -1.380753,-3.252108 -3.083207,-3.252108 H 57.813 c -0.02607,0 -0.05165,0.0039 -0.07674,0.0039 1.666545,0.04224 3.005979,1.477962 3.005979,3.248178 z"
     id="path82" /><path
     style="fill:#ffd42a;stroke-width:0.491538;fill-opacity:1"
     d="m 57.284703,36.537773 c 0.147077,0.02603 0.297598,0.04322 0.451561,0.04715 1.667037,-0.04421 3.005979,-1.479436 3.005979,-3.248178 v -3.413214 c 0,-1.770215 -1.339434,-3.205936 -3.005979,-3.248178 -0.153963,0.0039 -0.304484,0.02112 -0.451561,0.04814 z"
     id="path83" /><path
     style="fill:#a1ffff;stroke-width:0.491538;fill-opacity:1"
     d="m 60.742243,16.104657 v 3.413214 c 0,1.770215 -1.339434,3.203972 -3.005979,3.24916 0.02509,0 0.05116,0.0029 0.07674,0.0029 h 0.10379 c 1.702454,0 3.083207,-1.455368 3.083207,-3.252107 V 16.10461 c 0,-1.795757 -1.380753,-3.252108 -3.083207,-3.252108 H 57.813 c -0.02607,0 -0.05165,0.0029 -0.07674,0.0049 1.666545,0.04322 3.005979,1.478454 3.005979,3.247196 z"
     id="path84" /><path
     style="fill:#00cccc;stroke-width:0.491538;fill-opacity:1"
     d="m 57.284703,22.719387 c 0.147077,0.02701 0.297598,0.04322 0.451561,0.04814 1.667037,-0.04519 3.005979,-1.479437 3.005979,-3.249161 v -3.413214 c 0,-1.769233 -1.339434,-3.203972 -3.005979,-3.247196 -0.153963,0.0029 -0.304484,0.01817 -0.451561,0.04519 z"
     id="path85" /><path
     style="fill:#939dac;fill-opacity:1;stroke-width:0.488898"
     d="m 57.333893,50.456382 c 0,5.104082 -4.045848,9.243618 -9.035646,9.243618 H 12.035151 C 7.0458451,59.7 3.0004889,55.559979 3.0004889,50.456382 V 13.543618 c 0,-5.1040823 4.0458481,-9.2436179 9.0346621,-9.2436179 h 36.263096 c 4.99029,0 9.035646,4.1400216 9.035646,9.2436179 z"
     id="path89" /><path
     style="fill:url(#SVGID_00000097500425902151924180000002286946989435723681_);stroke-width:0.491538"
     d="M 56.620643,52.656 C 56.620643,57.000001 52.999998,60 48.004,60 H 11.91562 C 6.9917365,60 2.999997,55.815141 2.999997,50.65627 V 12.144 c 0,-1.144 4.0000028,-8.1440001 8.915623,-8.1440001 H 47.504 c 5.495998,0 9.116643,3.0000002 9.116643,8.0440001 z"
     id="path95"
     sodipodi:nodetypes="sssssssss" /><path
     style="fill:url(#SVGID_00000119082666600208423750000005907981173642057379_);stroke-width:0.491538"
     d="m 17.733771,60 v 0 H 11 C 5.9999998,60 2.999997,57.000001 2.999997,52 V 12 C 2.999997,7.0000001 5.9999998,3.9999999 11,3.9999999 h 6.891178 v 0 z"
     id="path100"
     sodipodi:nodetypes="ccssssccc" /><path
     style="fill:#80b3ff;stroke-width:0.491538;fill-opacity:1"
     d="m 16.347607,9.8961328 c 0,0.3782092 -0.278414,0.6832322 -0.621757,0.6832322 v 0 c -0.343836,0 -0.622741,-0.305023 -0.622741,-0.6832322 V 8.1991036 c 0,-0.3782092 0.278413,-0.6842147 0.622741,-0.6842147 v 0 c 0.342851,0 0.621757,0.3060055 0.621757,0.6842147 z"
     id="path103" /><path
     style="fill:#80b3ff;stroke-width:0.491538;fill-opacity:1"
     d="m 16.347607,14.485234 c 0,0.377718 -0.278414,0.683232 -0.621757,0.683232 v 0 c -0.343836,0 -0.622741,-0.305023 -0.622741,-0.683232 v -1.698012 c 0,-0.378209 0.278413,-0.683232 0.622741,-0.683232 v 0 c 0.342851,0 0.621757,0.305023 0.621757,0.683232 z"
     id="path106" /><path
     style="fill:#80b3ff;stroke-width:0.491538;fill-opacity:1"
     d="m 16.347607,19.074826 c 0,0.378209 -0.278414,0.683232 -0.621757,0.683232 v 0 c -0.343836,0 -0.622741,-0.305023 -0.622741,-0.683232 v -1.698011 c 0,-0.376245 0.278413,-0.681268 0.622741,-0.681268 v 0 c 0.342851,0 0.621757,0.305023 0.621757,0.681268 z"
     id="path109" /><path
     style="fill:#80b3ff;stroke-width:0.491538;fill-opacity:1"
     d="m 16.347607,23.664418 c 0,0.376245 -0.278414,0.683233 -0.621757,0.683233 v 0 c -0.343836,0 -0.622741,-0.306988 -0.622741,-0.683233 v -1.698011 c 0,-0.377227 0.278413,-0.683232 0.622741,-0.683232 v 0 c 0.342851,0 0.621757,0.306005 0.621757,0.683232 z"
     id="path112" /><path
     style="fill:#80b3ff;stroke-width:0.491538;fill-opacity:1"
     d="m 16.347607,28.254011 c 0,0.376244 -0.278414,0.683232 -0.621757,0.683232 v 0 c -0.343836,0 -0.622741,-0.306988 -0.622741,-0.683232 v -1.696047 c 0,-0.378209 0.278413,-0.685197 0.622741,-0.685197 v 0 c 0.342851,0 0.621757,0.306988 0.621757,0.685197 z"
     id="path115" /><path
     style="fill:#80b3ff;stroke-width:0.491538;fill-opacity:1"
     d="m 16.347607,32.843112 c 0,0.377227 -0.278414,0.683232 -0.621757,0.683232 v 0 c -0.343836,0 -0.622741,-0.306005 -0.622741,-0.683232 v -1.697029 c 0,-0.377227 0.278413,-0.684215 0.622741,-0.684215 v 0 c 0.342851,0 0.621757,0.306988 0.621757,0.684215 z"
     id="path118" /><path
     style="fill:#80b3ff;stroke-width:0.491538;fill-opacity:1"
     d="m 16.347607,37.432704 c 0,0.377227 -0.278414,0.683232 -0.621757,0.683232 v 0 c -0.343836,0 -0.622741,-0.306005 -0.622741,-0.683232 v -1.697029 c 0,-0.377227 0.278413,-0.683232 0.622741,-0.683232 v 0 c 0.342851,0 0.621757,0.306005 0.621757,0.683232 z"
     id="path121" /><path
     style="fill:#80b3ff;stroke-width:0.491538;fill-opacity:1"
     d="m 16.347607,42.022296 c 0,0.377718 -0.278414,0.683233 -0.621757,0.683233 v 0 c -0.343836,0 -0.622741,-0.305024 -0.622741,-0.683233 v -1.696047 c 0,-0.378209 0.278413,-0.684214 0.622741,-0.684214 v 0 c 0.342851,0 0.621757,0.306005 0.621757,0.684214 z"
     id="path124" /><path
     style="fill:#80b3ff;stroke-width:0.491538;fill-opacity:1"
     d="m 16.347607,46.61238 c 0,0.377227 -0.278414,0.684214 -0.621757,0.684214 v 0 c -0.343836,0 -0.622741,-0.306987 -0.622741,-0.684214 v -1.696047 c 0,-0.3787 0.278413,-0.684215 0.622741,-0.684215 v 0 c 0.342851,0 0.621757,0.305023 0.621757,0.684215 z"
     id="path127" /><path
     style="fill:#80b3ff;stroke-width:0.491538;fill-opacity:1"
     d="m 16.347607,51.202954 c 0,0.376245 -0.278414,0.681268 -0.621757,0.681268 v 0 c -0.343836,0 -0.622741,-0.305023 -0.622741,-0.681268 v -1.698011 c 0,-0.378209 0.278413,-0.683232 0.622741,-0.683232 v 0 c 0.342851,0 0.621757,0.305023 0.621757,0.683232 z"
     id="path130" /><path
     style="fill:#80b3ff;stroke-width:0.491538;fill-opacity:1"
     d="m 16.347607,55.791564 c 0,0.378209 -0.278414,0.68225 -0.621757,0.68225 v 0 c -0.343836,0 -0.622741,-0.304041 -0.622741,-0.68225 v -1.698011 c 0,-0.377227 0.278413,-0.68225 0.622741,-0.68225 v 0 c 0.342851,0 0.621757,0.305023 0.621757,0.68225 z"
     id="path133" /></g>

















<path
   d="m 45.728104,20.004997 c -0.119962,-0.01526 -0.246388,0.0043 -0.370407,0.06045 -0.06756,0.03051 -0.373198,0.317057 -0.678334,0.629879 l -0.556314,0.574342 -0.159847,-0.136636 c -0.224763,-0.184888 -0.455615,-0.246319 -0.686621,-0.174766 -0.159575,0.05157 -0.568571,0.454923 -3.26276,3.207351 -1.700045,1.734766 -3.085358,3.169969 -3.084753,3.194669 0.0015,0.01818 0.542738,0.543672 1.201268,1.155587 l 1.203861,1.119743 2.009287,-2.056444 c 1.105731,-1.131182 2.022357,-2.044273 2.039747,-2.028147 0.05748,0.05306 0.05144,1.039739 -0.0082,1.350514 -0.03389,0.169083 -0.130963,0.469823 -0.224474,0.665624 -0.165287,0.350674 -0.180428,0.37058 -2.672402,2.927873 -1.378169,1.413757 -2.528813,2.617025 -2.552813,2.667065 -0.06698,0.137724 -0.04052,0.413124 0.04951,0.579616 0.155056,0.281393 0.606044,0.415921 0.8899,0.261393 0.196219,-0.107604 5.137057,-5.214725 5.30793,-5.491022 0.496567,-0.787131 0.70716,-1.843899 0.582876,-2.92205 -0.04828,-0.427913 -0.130184,-0.842911 -0.222171,-1.141951 -0.02939,-0.08055 0.04391,-0.174676 0.507888,-0.651045 0.437172,-0.455375 0.540481,-0.586209 0.562872,-0.714283 0.04782,-0.27353 -0.0189,-0.436265 -0.271253,-0.677976 l -0.234042,-0.225722 0.592991,-0.61159 c 0.486552,-0.506156 0.59488,-0.640662 0.617,-0.769226 0.06774,-0.410118 -0.221127,-0.749249 -0.579687,-0.794465 z m -9.748534,8.306405 c -0.0132,9.49e-4 -1.824314,1.849545 -4.027399,4.103471 -3.544269,3.629957 -4.050983,4.169403 -4.394669,4.643411 -0.682852,0.944039 -1.479222,2.41165 -2.054352,3.769835 -0.371803,0.870892 -0.375037,0.787812 0.01547,0.638515 1.202678,-0.465005 2.796309,-1.261655 3.741542,-1.873516 0.924371,-0.598898 1.088788,-0.759361 5.206332,-4.971814 l 3.96039,-4.056442 -1.213197,-1.127167 C 36.546498,28.817823 35.992835,28.31121 35.980054,28.311498 Z M 35.122338,38.66335 C 34.955676,38.63437 34.78165,38.62204 34.666649,38.63092 l -3.13e-4,0.0028 c -0.545327,0.04422 -1.191958,0.429722 -1.540596,0.914317 -0.09212,0.126077 -0.252882,0.415974 -0.356776,0.637143 -0.09827,0.22586 -0.190528,0.412969 -0.196291,0.41719 -0.0472,0.04026 -1.093487,0.166325 -1.70375,0.197479 -1.434921,0.07798 -1.829777,0.123189 -1.982785,0.232007 -0.300189,0.213056 -0.12103,0.48235 0.277211,0.417252 0.10484,-0.01773 0.550505,-0.05558 0.977951,-0.07454 0.42816,-0.01818 1.082541,-0.07791 1.45461,-0.11562 0.373729,-0.03973 0.687771,-0.06355 0.701316,-0.04222 0.01245,0.01423 -0.07988,0.293869 -0.218471,0.616466 l -0.246365,0.578805 -0.404635,0.120205 c -0.220955,0.06692 -0.540358,0.18523 -0.711584,0.27239 -0.518044,0.253885 -0.657662,0.631331 -0.349992,0.919167 0.167952,0.155756 0.679888,0.209113 1.013415,0.108792 0.296028,-0.09168 0.475186,-0.247784 0.750153,-0.67623 0.146163,-0.221299 0.253157,-0.334252 0.326065,-0.341477 0.05942,-0.0072 0.578237,-0.05245 1.154162,-0.100053 0.576219,-0.04131 1.099746,-0.09123 1.167525,-0.09873 0.109491,-0.01094 0.120263,-0.0015 0.07857,0.08976 -0.02718,0.05953 -0.142422,0.222534 -0.257893,0.365423 -0.11502,0.143906 -0.214812,0.317893 -0.223775,0.392722 -0.01871,0.154724 0.09654,0.32464 0.208535,0.296674 0.04236,-0.0088 0.09965,-0.01773 0.12591,-0.01526 0.02423,0.0029 0.148502,-0.06428 0.272711,-0.150209 0.232179,-0.160085 0.847491,-1.005455 0.870339,-1.195022 0.01099,-0.09421 0.08992,-0.109731 0.127095,-0.02557 0.01246,0.02358 0.123324,0.08464 0.247538,0.128247 0.1738,0.06504 0.22153,0.105209 0.21195,0.184983 -0.01871,0.154722 0.21569,0.410273 0.440938,0.480777 0.17529,0.0544 0.410199,0.03545 0.666909,-0.02557 0.09246,-0.02358 0.09603,-0.01094 0.05036,0.11075 -0.02931,0.07794 -0.20982,0.315193 -0.396645,0.53161 -0.396502,0.450006 -0.898986,1.180196 -1.047639,1.511976 -0.123329,0.28403 -0.112047,0.50825 0.03183,0.63064 0.132213,0.10728 0.372233,0.0902 0.51039,-0.0228 0.120237,-0.10244 0.849654,-1.23574 1.129974,-1.75893 0.199654,-0.366347 0.283388,-0.463235 0.674634,-0.782602 0.321712,-0.261298 0.423564,-0.320649 0.348055,-0.213339 -0.127203,0.203463 -0.142286,0.367182 -0.04304,0.479794 0.214178,0.242531 0.586959,0.07557 0.954741,-0.431198 0.217541,-0.298054 0.362189,-0.376715 1.063967,-0.605457 l 0.365043,-0.115307 -0.05837,0.179782 c -0.03111,0.09659 -0.184959,0.368458 -0.336765,0.598192 -0.300232,0.465545 -0.38281,0.774885 -0.272014,1.060335 0.07383,0.19575 0.175853,0.21378 0.665533,0.10918 0.6805,-0.13905 1.59412,-0.536027 1.850298,-0.794308 0.349725,-0.36453 0.488536,-0.737154 0.320796,-0.887795 -0.173179,-0.1562 -0.286874,-0.114343 -0.569087,0.20278 -0.378776,0.431697 -0.821075,0.750539 -1.227325,0.891037 -0.190083,0.06994 -0.355643,0.10973 -0.369288,0.09287 -0.01747,-0.0191 0.519706,-1.047294 0.799823,-1.525742 0.05783,-0.09842 0.112812,-0.22484 0.119479,-0.278598 0.01726,-0.139337 -0.143632,-0.319367 -0.296986,-0.336564 -0.07066,-0.0072 -0.426657,0.08674 -0.784786,0.21717 -0.741806,0.258154 -0.698852,0.293822 -0.442829,-0.323944 0.15398,-0.38143 0.130624,-0.490501 -0.111001,-0.543671 -0.232623,-0.0531 -0.333101,0.01094 -0.593282,0.361924 -0.168667,0.237962 -0.377497,0.427127 -0.768973,0.705586 -0.515672,0.364775 -0.538353,0.376863 -0.637382,0.290726 -0.149792,-0.134184 -0.244133,-0.127832 -0.665857,0.01773 -0.411881,0.145047 -0.543244,0.155372 -0.626113,0.02557 -0.0708,-0.104115 0.06344,-0.139004 0.791748,-0.191773 0.706291,-0.05195 0.796565,-0.07649 0.813376,-0.2158 0.02729,-0.224889 -0.136757,-0.459948 -0.457085,-0.643094 -0.552894,-0.321397 -0.615839,-0.344435 -0.878924,-0.309753 -0.284242,0.03342 -0.740382,0.37451 -0.825018,0.608099 -0.0877,0.243269 -0.251958,0.147799 -0.219032,-0.125706 0.01256,-0.115329 -0.09518,-0.42015 -0.171369,-0.4797 -0.160059,-0.135275 -0.470695,0.08254 -0.740953,0.51705 l -0.211777,0.334559 -0.387798,0.03296 c -0.503536,0.04268 -1.964016,0.162732 -2.157794,0.176785 -0.124813,0.0053 -0.144412,-0.0031 -0.110352,-0.07515 0.02562,-0.04177 0.113384,-0.258307 0.201588,-0.476017 0.232942,-0.599872 0.2898,-0.675232 0.528925,-0.728152 0.28725,-0.06213 1.266196,-0.345022 1.520476,-0.436944 0.119595,-0.03928 0.368703,-0.184895 0.555546,-0.314807 0.573078,-0.409486 0.706519,-0.834163 0.376467,-1.195526 -0.09088,-0.09731 -0.214455,-0.201115 -0.272247,-0.233484 -0.09035,-0.04276 -0.249676,-0.08964 -0.416838,-0.116376 z m -0.585726,0.523053 c 0.07092,0.0019 0.155256,0.0137 0.260174,0.03388 0.269109,0.04131 0.374096,0.08361 0.440768,0.170741 0.0894,0.109969 0.08858,0.115242 -0.02155,0.29525 -0.07714,0.112298 -0.235499,0.236338 -0.429042,0.335834 -0.33715,0.174034 -1.361193,0.444369 -1.383587,0.3718 -0.02699,-0.119549 0.368469,-0.766984 0.594647,-0.963747 0.225814,-0.197423 0.32759,-0.257906 0.542071,-0.24533 z m -3.129225,3.872672 c 0.03961,0.0084 0.03632,0.03728 -0.001,0.09798 -0.08299,0.116754 -0.267126,0.186713 -0.359721,0.140179 -0.10742,-0.05888 -0.06952,-0.112389 0.11979,-0.183319 0.125456,-0.04131 0.205776,-0.06497 0.244493,-0.05915 z"
   class="ColorScheme-Text"
   id="path14466-5-6-3-8"
   style="fill:#ffffff;fill-opacity:0.501961;stroke-width:1.44005" /><path
   d="m 47.134352,20.004997 c -0.119963,-0.01526 -0.246389,0.0043 -0.370408,0.06045 -0.06756,0.03051 -0.373197,0.317057 -0.678333,0.629879 l -0.556315,0.574342 -0.159846,-0.136636 c -0.224763,-0.184888 -0.455615,-0.246319 -0.686622,-0.174766 -0.159574,0.05157 -0.568571,0.454923 -3.262759,3.207351 -1.700045,1.734766 -3.085359,3.169969 -3.084753,3.194669 0.0015,0.01818 0.542738,0.543672 1.201268,1.155587 l 1.203861,1.119743 2.009287,-2.056444 c 1.10573,-1.131182 2.022357,-2.044273 2.039746,-2.028147 0.05749,0.05306 0.05144,1.039739 -0.0082,1.350514 -0.03389,0.169083 -0.130963,0.469823 -0.224474,0.665624 -0.165288,0.350674 -0.180429,0.37058 -2.672402,2.927873 -1.37817,1.413757 -2.528814,2.617025 -2.552814,2.667065 -0.06698,0.137724 -0.04052,0.413124 0.04951,0.579616 0.155056,0.281393 0.606044,0.415921 0.8899,0.261393 0.196219,-0.107604 5.137056,-5.214725 5.30793,-5.491022 0.496567,-0.787131 0.707159,-1.843899 0.582876,-2.92205 -0.04828,-0.427913 -0.130184,-0.842911 -0.222171,-1.141951 -0.02939,-0.08055 0.04391,-0.174676 0.507888,-0.651045 0.437171,-0.455375 0.540481,-0.586209 0.562872,-0.714283 0.04782,-0.27353 -0.0189,-0.436265 -0.271253,-0.677976 l -0.234042,-0.225722 0.59299,-0.61159 c 0.486552,-0.506156 0.594881,-0.640662 0.617,-0.769226 0.06774,-0.410118 -0.221127,-0.749249 -0.579686,-0.794465 z m -9.748535,8.306405 c -0.0132,9.49e-4 -1.824314,1.849545 -4.027399,4.103471 -3.544268,3.629957 -4.050982,4.169403 -4.394668,4.643411 -0.682853,0.944039 -1.479222,2.41165 -2.054352,3.769835 -0.371804,0.870892 -0.375038,0.787812 0.01547,0.638515 1.202678,-0.465005 2.796307,-1.261655 3.741542,-1.873516 0.924369,-0.598898 1.088788,-0.759361 5.206332,-4.971814 l 3.96039,-4.056442 -1.213198,-1.127167 C 37.952746,28.817823 37.399083,28.31121 37.386301,28.311498 Z M 36.528585,38.66335 c -0.166661,-0.02898 -0.340688,-0.04131 -0.455689,-0.03243 l -3.13e-4,0.0028 c -0.545326,0.04422 -1.191958,0.429722 -1.540595,0.914317 -0.09212,0.126077 -0.252882,0.415974 -0.356778,0.637143 -0.09827,0.22586 -0.190526,0.412969 -0.196289,0.41719 -0.0472,0.04026 -1.093488,0.166325 -1.703751,0.197479 -1.43492,0.07798 -1.829776,0.123189 -1.982785,0.232007 -0.300188,0.213056 -0.121029,0.48235 0.277212,0.417252 0.10484,-0.01773 0.550505,-0.05558 0.977951,-0.07454 0.42816,-0.01818 1.08254,-0.07791 1.45461,-0.11562 0.373729,-0.03973 0.687771,-0.06355 0.701316,-0.04222 0.01245,0.01423 -0.07988,0.293869 -0.218472,0.616466 l -0.246364,0.578805 -0.404636,0.120205 c -0.220954,0.06692 -0.540358,0.18523 -0.711583,0.27239 -0.518045,0.253885 -0.657663,0.631331 -0.349992,0.919167 0.167952,0.155756 0.679887,0.209113 1.013415,0.108792 0.296028,-0.09168 0.475185,-0.247784 0.750152,-0.67623 0.146164,-0.221299 0.253158,-0.334252 0.326066,-0.341477 0.05942,-0.0072 0.578237,-0.05245 1.154162,-0.100053 0.576219,-0.04131 1.099745,-0.09123 1.167525,-0.09873 0.109491,-0.01094 0.120262,-0.0015 0.07857,0.08976 -0.02718,0.05953 -0.142423,0.222534 -0.257893,0.365423 -0.11502,0.143906 -0.214812,0.317893 -0.223776,0.392722 -0.01871,0.154724 0.09654,0.32464 0.208536,0.296674 0.04236,-0.0088 0.09965,-0.01773 0.125909,-0.01526 0.02423,0.0029 0.148503,-0.06428 0.272712,-0.150209 0.232179,-0.160085 0.84749,-1.005455 0.870339,-1.195022 0.01099,-0.09421 0.08992,-0.109731 0.127094,-0.02557 0.01246,0.02358 0.123325,0.08464 0.247539,0.128247 0.1738,0.06504 0.221529,0.105209 0.21195,0.184983 -0.01871,0.154722 0.215689,0.410273 0.440937,0.480777 0.17529,0.0544 0.410199,0.03545 0.666909,-0.02557 0.09246,-0.02358 0.09603,-0.01094 0.05036,0.11075 -0.02931,0.07794 -0.20982,0.315193 -0.396647,0.53161 -0.3965,0.450006 -0.898984,1.180196 -1.047638,1.511976 -0.123329,0.28403 -0.112047,0.50825 0.03183,0.63064 0.132212,0.10728 0.372232,0.0902 0.51039,-0.0228 0.120237,-0.10244 0.849653,-1.23574 1.129973,-1.75893 0.199654,-0.366347 0.283389,-0.463235 0.674633,-0.782602 0.321714,-0.261298 0.423566,-0.320649 0.348057,-0.213339 -0.127203,0.203463 -0.142286,0.367182 -0.04304,0.479794 0.214178,0.242531 0.586959,0.07557 0.95474,-0.431198 0.217542,-0.298054 0.36219,-0.376715 1.063968,-0.605457 l 0.365043,-0.115307 -0.05837,0.179782 c -0.03111,0.09659 -0.184959,0.368458 -0.336765,0.598192 -0.300232,0.465545 -0.382811,0.774885 -0.272014,1.060335 0.07383,0.19575 0.175853,0.21378 0.665533,0.10918 0.6805,-0.13905 1.59412,-0.536027 1.850298,-0.794308 0.349724,-0.36453 0.488535,-0.737154 0.320796,-0.887795 -0.173179,-0.1562 -0.286874,-0.114343 -0.569087,0.20278 -0.378777,0.431697 -0.821075,0.750539 -1.227325,0.891037 -0.190084,0.06994 -0.355643,0.10973 -0.369288,0.09287 -0.01747,-0.0191 0.519705,-1.047294 0.799823,-1.525742 0.05783,-0.09842 0.112812,-0.22484 0.119479,-0.278598 0.01726,-0.139337 -0.143632,-0.319367 -0.296986,-0.336564 -0.07066,-0.0072 -0.426658,0.08674 -0.784787,0.21717 -0.741805,0.258154 -0.698851,0.293822 -0.442828,-0.323944 0.15398,-0.38143 0.130624,-0.490501 -0.111003,-0.543671 -0.232621,-0.0531 -0.333099,0.01094 -0.59328,0.361924 -0.168668,0.237962 -0.377497,0.427127 -0.768974,0.705586 -0.515672,0.364775 -0.538352,0.376863 -0.637383,0.290726 -0.14979,-0.134184 -0.244132,-0.127832 -0.665856,0.01773 -0.41188,0.145047 -0.543244,0.155372 -0.626113,0.02557 -0.0708,-0.104115 0.06344,-0.139004 0.791748,-0.191773 0.706292,-0.05195 0.796565,-0.07649 0.813377,-0.2158 0.02729,-0.224889 -0.136758,-0.459948 -0.457085,-0.643094 -0.552894,-0.321397 -0.615839,-0.344435 -0.878924,-0.309753 -0.284244,0.03342 -0.740382,0.37451 -0.825019,0.608099 -0.0877,0.243269 -0.251957,0.147799 -0.219032,-0.125706 0.01256,-0.115329 -0.09518,-0.42015 -0.171368,-0.4797 -0.160059,-0.135275 -0.470695,0.08254 -0.740953,0.51705 l -0.211778,0.334559 -0.387797,0.03296 c -0.503537,0.04268 -1.964016,0.162732 -2.157796,0.176785 -0.124811,0.0053 -0.144411,-0.0031 -0.11035,-0.07515 0.02562,-0.04177 0.113383,-0.258307 0.201588,-0.476017 0.232942,-0.599872 0.2898,-0.675232 0.528923,-0.728152 0.287252,-0.06213 1.266197,-0.345022 1.520478,-0.436944 0.119594,-0.03928 0.368702,-0.184895 0.555546,-0.314807 0.573077,-0.409486 0.706519,-0.834163 0.376467,-1.195526 -0.09088,-0.09731 -0.214455,-0.201115 -0.272247,-0.233484 -0.09035,-0.04276 -0.249678,-0.08964 -0.416838,-0.116376 z m -0.585726,0.523053 c 0.07092,0.0019 0.155255,0.0137 0.260175,0.03388 0.269109,0.04131 0.374096,0.08361 0.440768,0.170741 0.0894,0.109969 0.08858,0.115242 -0.02155,0.29525 -0.07714,0.112298 -0.235499,0.236338 -0.429042,0.335834 -0.33715,0.174034 -1.361195,0.444369 -1.383588,0.3718 -0.02699,-0.119549 0.368469,-0.766984 0.594647,-0.963747 0.225814,-0.197423 0.327591,-0.257906 0.542072,-0.24533 z m -3.129224,3.872672 c 0.03961,0.0084 0.03632,0.03728 -10e-4,0.09798 -0.08299,0.116754 -0.267127,0.186713 -0.359721,0.140179 -0.10742,-0.05888 -0.06952,-0.112389 0.119789,-0.183319 0.125457,-0.04131 0.205777,-0.06497 0.244494,-0.05915 z"
   class="ColorScheme-Text"
   id="path14466-5-6-3-4"
   style="fill:#21262b;fill-opacity:1;stroke-width:1.44005" /></svg>
