<?xml version="1.0" encoding="UTF-8" standalone="no"?>
<!-- Generator: Adobe Illustrator 27.5.0, SVG Export Plug-In . SVG Version: 6.00 Build 0)  -->

<svg
   version="1.1"
   id="Layer_1"
   x="0px"
   y="0px"
   viewBox="0 0 63.999998 63.999999"
   xml:space="preserve"
   sodipodi:docname="folder-KDE.svg"
   inkscape:version="1.4.3 (unknown)"
   width="64"
   height="64"
   xmlns:inkscape="http://www.inkscape.org/namespaces/inkscape"
   xmlns:sodipodi="http://sodipodi.sourceforge.net/DTD/sodipodi-0.dtd"
   xmlns="http://www.w3.org/2000/svg"
   xmlns:svg="http://www.w3.org/2000/svg"><defs
   id="defs762">
	
		<radialGradient
   id="SVGID_00000022534578410790736700000013999825567828354183_"
   cx="422.99371"
   cy="288.32251"
   r="28.502399"
   gradientTransform="matrix(0.98379286,0,0,0.98236136,-385.19832,-251.34342)"
   gradientUnits="userSpaceOnUse">
		<stop
   offset="0"
   style="stop-color:#A0866A"
   id="stop74" />
		<stop
   offset="0.2596"
   style="stop-color:#9C8268"
   id="stop75" />
		<stop
   offset="0.5301"
   style="stop-color:#8F7861"
   id="stop76" />
		<stop
   offset="0.8045"
   style="stop-color:#7B6656"
   id="stop77" />
		<stop
   offset="1"
   style="stop-color:#67554B"
   id="stop78" />
	</radialGradient>
	
	
	
	
		<radialGradient
   id="SVGID_00000125562367361927050560000001190537805866180488_"
   cx="417.22159"
   cy="288.32251"
   r="27.744699"
   gradientTransform="matrix(1.0074039,0,0,0.98236136,-390.24016,-251.34342)"
   gradientUnits="userSpaceOnUse">
		<stop
   offset="0"
   style="stop-color:#A0866A"
   id="stop85" />
		<stop
   offset="0.2596"
   style="stop-color:#9C8268"
   id="stop86" />
		<stop
   offset="0.5301"
   style="stop-color:#8F7861"
   id="stop87" />
		<stop
   offset="0.8045"
   style="stop-color:#7B6656"
   id="stop88" />
		<stop
   offset="1"
   style="stop-color:#67554B"
   id="stop89" />
	</radialGradient>
	
	
		<radialGradient
   id="SVGID_00000097500425902151924180000002286946989435723681_"
   cx="405.16061"
   cy="259.82541"
   r="73.946198"
   gradientTransform="matrix(0.94060435,0,0,0.98236136,-375.80615,-251.34342)"
   gradientUnits="userSpaceOnUse">
		<stop
   offset="0"
   style="stop-color:#535d6c;stop-opacity:1"
   id="stop90" />
		<stop
   offset="0.2284"
   style="stop-color:#373e48;stop-opacity:1"
   id="stop91" />
		<stop
   offset="0.4664"
   style="stop-color:#373e48;stop-opacity:1"
   id="stop92" />
		<stop
   offset="0.70889997"
   style="stop-color:#48515e;stop-opacity:1;"
   id="stop93" />
		<stop
   offset="0.95289999"
   style="stop-color:#373e48;stop-opacity:1"
   id="stop94" />
		<stop
   offset="1"
   style="stop-color:#373e48;stop-opacity:1"
   id="stop95" />
	</radialGradient>
	
	
		<radialGradient
   id="SVGID_00000119082666600208423750000005907981173642057379_"
   cx="425.73099"
   cy="288.43094"
   r="67.4496"
   gradientTransform="matrix(0.82943576,0,0,0.98236136,-350.11651,-251.34342)"
   gradientUnits="userSpaceOnUse"
   fx="425.73099"
   fy="288.43094">
		<stop
   offset="0"
   style="stop-color:#939dac;stop-opacity:1"
   id="stop96" />
		<stop
   offset="0.25960001"
   style="stop-color:#535d6c;stop-opacity:1"
   id="stop97" />
		<stop
   offset="0.5301"
   style="stop-color:#535d6c;stop-opacity:1"
   id="stop98" />
		<stop
   offset="0.8045"
   style="stop-color:#373e48;stop-opacity:1"
   id="stop99" />
		<stop
   offset="1"
   style="stop-color:#373e48;stop-opacity:1"
   id="stop100" />
	</radialGradient>
	
	
		<radialGradient
   id="SVGID_00000165928333602235411140000014852226284911233709_"
   cx="-1556.7609"
   cy="1310.3918"
   r="1.7343"
   gradientTransform="matrix(0.62323278,0,0,0.68421469,985.97188,-887.64613)"
   gradientUnits="userSpaceOnUse">
		<stop
   offset="0"
   style="stop-color:#E1CEC0"
   id="stop101" />
		<stop
   offset="0.761"
   style="stop-color:#E0CDBE"
   id="stop102" />
		<stop
   offset="1"
   style="stop-color:#DCC9B9"
   id="stop103" />
	</radialGradient>
	
	
		<radialGradient
   id="SVGID_00000023271670121255412580000014745766858599489424_"
   cx="-1556.7609"
   cy="1306.0997"
   r="1.7342"
   gradientTransform="matrix(0.62323278,0,0,0.68421469,985.97188,-880.11982)"
   gradientUnits="userSpaceOnUse">
		<stop
   offset="0"
   style="stop-color:#E1CEC0"
   id="stop104" />
		<stop
   offset="0.761"
   style="stop-color:#E0CDBE"
   id="stop105" />
		<stop
   offset="1"
   style="stop-color:#DCC9B9"
   id="stop106" />
	</radialGradient>
	
	
		<radialGradient
   id="SVGID_00000093146561591346411050000017874754504161969285_"
   cx="-1556.7609"
   cy="1301.8096"
   r="1.733"
   gradientTransform="matrix(0.62323278,0,0,0.68421469,985.97188,-872.59405)"
   gradientUnits="userSpaceOnUse">
		<stop
   offset="0"
   style="stop-color:#E1CEC0"
   id="stop107" />
		<stop
   offset="0.761"
   style="stop-color:#E0CDBE"
   id="stop108" />
		<stop
   offset="1"
   style="stop-color:#DCC9B9"
   id="stop109" />
	</radialGradient>
	
	
		<radialGradient
   id="SVGID_00000124154437391672708990000002450479196596738238_"
   cx="-1556.7609"
   cy="1297.5177"
   r="1.7336"
   gradientTransform="matrix(0.62323278,0,0,0.68421469,985.97188,-865.06833)"
   gradientUnits="userSpaceOnUse">
		<stop
   offset="0"
   style="stop-color:#E1CEC0"
   id="stop110" />
		<stop
   offset="0.761"
   style="stop-color:#E0CDBE"
   id="stop111" />
		<stop
   offset="1"
   style="stop-color:#DCC9B9"
   id="stop112" />
	</radialGradient>
	
	
		<radialGradient
   id="SVGID_00000034058293124216951570000006641406590055667894_"
   cx="-1556.7609"
   cy="1293.2249"
   r="1.7339"
   gradientTransform="matrix(0.62323278,0,0,0.68421469,985.97188,-857.54231)"
   gradientUnits="userSpaceOnUse">
		<stop
   offset="0"
   style="stop-color:#E1CEC0"
   id="stop113" />
		<stop
   offset="0.761"
   style="stop-color:#E0CDBE"
   id="stop114" />
		<stop
   offset="1"
   style="stop-color:#DCC9B9"
   id="stop115" />
	</radialGradient>
	
	
		<radialGradient
   id="SVGID_00000042694802152741533360000006474553379895889032_"
   cx="-1556.7609"
   cy="1288.9327"
   r="1.7342"
   gradientTransform="matrix(0.62323278,0,0,0.68421469,985.97188,-850.01604)"
   gradientUnits="userSpaceOnUse">
		<stop
   offset="0"
   style="stop-color:#E1CEC0"
   id="stop116" />
		<stop
   offset="0.761"
   style="stop-color:#E0CDBE"
   id="stop117" />
		<stop
   offset="1"
   style="stop-color:#DCC9B9"
   id="stop118" />
	</radialGradient>
	
	
		<radialGradient
   id="SVGID_00000111901877872900564700000014159718068513697190_"
   cx="-1556.7609"
   cy="1284.642"
   r="1.7334"
   gradientTransform="matrix(0.62323278,0,0,0.68421469,985.97188,-842.49032)"
   gradientUnits="userSpaceOnUse">
		<stop
   offset="0"
   style="stop-color:#E1CEC0"
   id="stop119" />
		<stop
   offset="0.761"
   style="stop-color:#E0CDBE"
   id="stop120" />
		<stop
   offset="1"
   style="stop-color:#DCC9B9"
   id="stop121" />
	</radialGradient>
	
	
		<radialGradient
   id="SVGID_00000022538754652405687830000005864690060167237006_"
   cx="-1556.7609"
   cy="1280.3497"
   r="1.7334"
   gradientTransform="matrix(0.62323278,0,0,0.68421469,985.97188,-834.96406)"
   gradientUnits="userSpaceOnUse">
		<stop
   offset="0"
   style="stop-color:#E1CEC0"
   id="stop122" />
		<stop
   offset="0.761"
   style="stop-color:#E0CDBE"
   id="stop123" />
		<stop
   offset="1"
   style="stop-color:#DCC9B9"
   id="stop124" />
	</radialGradient>
	
	
		<radialGradient
   id="SVGID_00000059309292910592828090000012283058363263137190_"
   cx="-1556.7609"
   cy="1276.0603"
   r="1.7339"
   gradientTransform="matrix(0.62323278,0,0,0.68421469,985.97188,-827.43829)"
   gradientUnits="userSpaceOnUse">
		<stop
   offset="0"
   style="stop-color:#E1CEC0"
   id="stop125" />
		<stop
   offset="0.761"
   style="stop-color:#E0CDBE"
   id="stop126" />
		<stop
   offset="1"
   style="stop-color:#DCC9B9"
   id="stop127" />
	</radialGradient>
	
	
		<radialGradient
   id="SVGID_00000164515357396027012420000009309048799111497121_"
   cx="-1556.7609"
   cy="1271.7668"
   r="1.7334"
   gradientTransform="matrix(0.62323278,0,0,0.68421469,985.97188,-819.91212)"
   gradientUnits="userSpaceOnUse">
		<stop
   offset="0"
   style="stop-color:#E1CEC0"
   id="stop128" />
		<stop
   offset="0.761"
   style="stop-color:#E0CDBE"
   id="stop129" />
		<stop
   offset="1"
   style="stop-color:#DCC9B9"
   id="stop130" />
	</radialGradient>
	
	
		<radialGradient
   id="SVGID_00000078021694386518579320000000195962685941464961_"
   cx="-1556.7609"
   cy="1267.4753"
   r="1.733"
   gradientTransform="matrix(0.62323278,0,0,0.68421469,985.97188,-812.3863)"
   gradientUnits="userSpaceOnUse">
		<stop
   offset="0"
   style="stop-color:#E1CEC0"
   id="stop131" />
		<stop
   offset="0.761"
   style="stop-color:#E0CDBE"
   id="stop132" />
		<stop
   offset="1"
   style="stop-color:#DCC9B9"
   id="stop133" />
	</radialGradient>
	
	
	
		<radialGradient
   id="SVGID_00000179631901819502847670000002313046964360062115_"
   cx="465.28549"
   cy="269.20731"
   r="33.883701"
   gradientTransform="matrix(0.7608654,0,0,0.98236136,-334.59177,-251.34342)"
   gradientUnits="userSpaceOnUse">
		<stop
   offset="0"
   style="stop-color:#5599ff;stop-opacity:1"
   id="stop145" />
		<stop
   offset="0.31479999"
   style="stop-color:#267dff;stop-opacity:1;"
   id="stop146" />
		<stop
   offset="0.7586"
   style="stop-color:#2a7fff;stop-opacity:1"
   id="stop147" />
		<stop
   offset="1"
   style="stop-color:#0053d0;stop-opacity:1;"
   id="stop148" />
	</radialGradient>
	
	
		<radialGradient
   id="SVGID_00000110451134532301891090000001961278411554218625_"
   cx="422.12851"
   cy="271.23071"
   r="41.8508"
   gradientTransform="matrix(0.91866577,0,0,0.98236136,-370.25146,-251.34342)"
   gradientUnits="userSpaceOnUse">
		<stop
   offset="0.1067"
   style="stop-color:#8d5fd3;stop-opacity:1"
   id="stop149" />
		<stop
   offset="0.5118"
   style="stop-color:#8d5fd3;stop-opacity:1"
   id="stop150" />
		<stop
   offset="1"
   style="stop-color:#8d5fd3;stop-opacity:1"
   id="stop151" />
	</radialGradient>
	

		
		
		
		
		
		
	
		
			<radialGradient
   id="SVGID_00000052091378501920612200000006059691176872464570_"
   cx="-498.31311"
   cy="565.55511"
   r="5.8572001"
   gradientTransform="matrix(1.1015529,0,0,1.1486751,623.04374,-631.95324)"
   gradientUnits="userSpaceOnUse">
			<stop
   offset="0"
   style="stop-color:#A0866A"
   id="stop134" />
			<stop
   offset="0.2596"
   style="stop-color:#9C8268"
   id="stop135" />
			<stop
   offset="0.5301"
   style="stop-color:#8F7861"
   id="stop136" />
			<stop
   offset="0.8045"
   style="stop-color:#7B6656"
   id="stop137" />
			<stop
   offset="1"
   style="stop-color:#67554B"
   id="stop138" />
		</radialGradient>
		
		
		
		
	
			
				<radialGradient
   id="SVGID_00000044889807405124194260000009933868313778631062_"
   cx="-498.314"
   cy="580.81989"
   r="7.6585999"
   gradientTransform="matrix(1.1015529,0,0,1.1486751,623.04374,-631.95324)"
   gradientUnits="userSpaceOnUse">
				<stop
   offset="0"
   style="stop-color:#A0866A"
   id="stop139" />
				<stop
   offset="0.2596"
   style="stop-color:#9C8268"
   id="stop140" />
				<stop
   offset="0.5301"
   style="stop-color:#8F7861"
   id="stop141" />
				<stop
   offset="0.8045"
   style="stop-color:#7B6656"
   id="stop142" />
				<stop
   offset="1"
   style="stop-color:#67554B"
   id="stop143" />
			</radialGradient>
			
		<radialGradient
   id="SVGID_00000097500425902151924180000002286946989435723681_-4"
   cx="405.16061"
   cy="259.82541"
   r="73.946198"
   gradientTransform="matrix(0.94060435,0,0,0.98236136,-375.80615,-251.34342)"
   gradientUnits="userSpaceOnUse">
		<stop
   offset="0"
   style="stop-color:#535d6c;stop-opacity:1"
   id="stop90-8" />
		<stop
   offset="0.2284"
   style="stop-color:#373e48;stop-opacity:1"
   id="stop91-1" />
		<stop
   offset="0.4664"
   style="stop-color:#373e48;stop-opacity:1"
   id="stop92-2" />
		<stop
   offset="0.70889997"
   style="stop-color:#48515e;stop-opacity:1;"
   id="stop93-8" />
		<stop
   offset="0.95289999"
   style="stop-color:#373e48;stop-opacity:1"
   id="stop94-9" />
		<stop
   offset="1"
   style="stop-color:#373e48;stop-opacity:1"
   id="stop95-3" />
	</radialGradient><radialGradient
   id="SVGID_00000119082666600208423750000005907981173642057379_-6"
   cx="425.73099"
   cy="288.43094"
   r="67.4496"
   gradientTransform="matrix(0.82943576,0,0,0.98236136,-350.11651,-251.34342)"
   gradientUnits="userSpaceOnUse"
   fx="425.73099"
   fy="288.43094">
		<stop
   offset="0"
   style="stop-color:#939dac;stop-opacity:1"
   id="stop96-8" />
		<stop
   offset="0.25960001"
   style="stop-color:#535d6c;stop-opacity:1"
   id="stop97-0" />
		<stop
   offset="0.5301"
   style="stop-color:#535d6c;stop-opacity:1"
   id="stop98-2" />
		<stop
   offset="0.8045"
   style="stop-color:#373e48;stop-opacity:1"
   id="stop99-1" />
		<stop
   offset="1"
   style="stop-color:#373e48;stop-opacity:1"
   id="stop100-0" />
	</radialGradient></defs><sodipodi:namedview
   id="namedview762"
   pagecolor="#ffffff"
   bordercolor="#000000"
   borderopacity="0.25"
   inkscape:showpageshadow="2"
   inkscape:pageopacity="0.0"
   inkscape:pagecheckerboard="0"
   inkscape:deskcolor="#d1d1d1"
   inkscape:zoom="8"
   inkscape:cx="21.5625"
   inkscape:cy="30.9375"
   inkscape:window-width="1920"
   inkscape:window-height="994"
   inkscape:window-x="0"
   inkscape:window-y="0"
   inkscape:window-maximized="1"
   inkscape:current-layer="Layer_1"
   showgrid="false"><inkscape:grid
     id="grid1"
     units="px"
     originx="0"
     originy="0"
     spacingx="0.99999997"
     spacingy="0.99999998"
     empcolor="#0099e5"
     empopacity="0.30196078"
     color="#0099e5"
     opacity="0.14901961"
     empspacing="5"
     enabled="true"
     visible="false" /></sodipodi:namedview>




















<g
   id="g1"><path
     d="m 59.081109,50.189861 c 0,5.81014 -4.176201,9.110139 -9.326848,9.110139 H 12.324878 C 7.1752139,59.3 2.999997,55.219763 2.999997,50.189861 V 13.810139 c 0,-5.0303802 4.1752169,-9.1101391 9.324881,-9.1101391 h 37.429383 c 5.150647,0 9.326848,3.0998612 9.326848,8.9100001 z"
     id="path78"
     style="fill:#b7bec8;fill-opacity:1;stroke-width:0.987421"
     sodipodi:nodetypes="sssssssss" /><path
     style="fill:#b7bec8;fill-opacity:1;stroke-width:0.485356"
     d="m 58.142571,50.189862 c 0,5.030379 -4.106352,9.110138 -9.170426,9.110138 H 12.169438 C 7.1063484,59.3 2.999997,55.219763 2.999997,50.189862 V 13.810138 c 0,-5.0303792 4.1063514,-9.1101381 9.169441,-9.1101381 h 36.802707 c 5.064074,0 9.170426,4.0802377 9.170426,9.1101381 z"
     id="path79" /><g
     id="g2"><path
       style="fill:#ffaaaa;fill-opacity:1;stroke-width:0.491538"
       d="m 60.742243,43.740446 v 3.41518 c 0,1.767268 -1.339434,3.202989 -3.005979,3.247195 0.02509,0 0.05116,0.0039 0.07674,0.0039 h 0.10379 c 1.702454,0 3.083207,-1.455369 3.083207,-3.251125 v -3.41518 c 0,-1.794774 -1.380753,-3.251125 -3.083207,-3.251125 H 57.813 c -0.02607,0 -0.05165,0.0039 -0.07674,0.0039 1.666545,0.04371 3.005979,1.478945 3.005979,3.247195 z"
       id="path80" /><path
       style="fill:#d35f8d;stroke-width:0.491538"
       d="m 57.284703,50.356159 c 0.147077,0.02701 0.297598,0.04224 0.451561,0.04715 1.667037,-0.04421 3.005979,-1.480418 3.005979,-3.247195 v -3.415179 c 0,-1.768251 -1.339434,-3.20299 -3.005979,-3.247196 -0.153963,0.0039 -0.304484,0.02112 -0.451561,0.04814 z"
       id="path81" /></g><path
     style="fill:#ffeeaa;fill-opacity:1;stroke-width:0.491538"
     d="m 60.742243,29.923043 v 3.413214 c 0,1.769233 -1.339434,3.203972 -3.005979,3.248178 0.02509,0 0.05116,0.0039 0.07674,0.0039 h 0.10379 c 1.702454,0 3.083207,-1.45635 3.083207,-3.252107 v -3.413214 c 0,-1.795757 -1.380753,-3.252108 -3.083207,-3.252108 H 57.813 c -0.02607,0 -0.05165,0.0039 -0.07674,0.0039 1.666545,0.04224 3.005979,1.477962 3.005979,3.248178 z"
     id="path82" /><path
     style="fill:#ffd42a;fill-opacity:1;stroke-width:0.491538"
     d="m 57.284703,36.537773 c 0.147077,0.02603 0.297598,0.04322 0.451561,0.04715 1.667037,-0.04421 3.005979,-1.479436 3.005979,-3.248178 v -3.413214 c 0,-1.770215 -1.339434,-3.205936 -3.005979,-3.248178 -0.153963,0.0039 -0.304484,0.02112 -0.451561,0.04814 z"
     id="path83" /><path
     style="fill:#a1ffff;fill-opacity:1;stroke-width:0.491538"
     d="m 60.742243,16.104657 v 3.413214 c 0,1.770215 -1.339434,3.203972 -3.005979,3.24916 0.02509,0 0.05116,0.0029 0.07674,0.0029 h 0.10379 c 1.702454,0 3.083207,-1.455368 3.083207,-3.252107 V 16.10461 c 0,-1.795757 -1.380753,-3.252108 -3.083207,-3.252108 H 57.813 c -0.02607,0 -0.05165,0.0029 -0.07674,0.0049 1.666545,0.04322 3.005979,1.478454 3.005979,3.247196 z"
     id="path84" /><path
     style="fill:#00cccc;fill-opacity:1;stroke-width:0.491538"
     d="m 57.284703,22.719387 c 0.147077,0.02701 0.297598,0.04322 0.451561,0.04814 1.667037,-0.04519 3.005979,-1.479437 3.005979,-3.249161 v -3.413214 c 0,-1.769233 -1.339434,-3.203972 -3.005979,-3.247196 -0.153963,0.0029 -0.304484,0.01817 -0.451561,0.04519 z"
     id="path85" /><path
     style="fill:#939dac;fill-opacity:1;stroke-width:0.488898"
     d="m 57.333893,50.456382 c 0,5.104082 -4.045848,9.243618 -9.035646,9.243618 H 12.035151 C 7.0458451,59.7 3.0004889,55.559979 3.0004889,50.456382 V 13.543618 c 0,-5.1040823 4.0458481,-9.2436179 9.0346621,-9.2436179 h 36.263096 c 4.99029,0 9.035646,4.1400216 9.035646,9.2436179 z"
     id="path89" /><path
     style="fill:url(#SVGID_00000097500425902151924180000002286946989435723681_-4);stroke-width:0.491538"
     d="M 56.620643,52.656 C 56.620643,57.000001 52.999998,60 48.004,60 H 11.91562 C 6.9917365,60 2.999997,55.815141 2.999997,50.65627 V 12.144 c 0,-1.144 4.0000028,-8.1440001 8.915623,-8.1440001 H 47.504 c 5.495998,0 9.116643,3.0000002 9.116643,8.0440001 z"
     id="path95"
     sodipodi:nodetypes="sssssssss" /><path
     style="fill:url(#SVGID_00000119082666600208423750000005907981173642057379_-6);stroke-width:0.491538"
     d="m 17.733771,60 v 0 H 11 C 5.9999998,60 2.999997,57.000001 2.999997,52 V 12 C 2.999997,7.0000001 5.9999998,3.9999999 11,3.9999999 h 6.891178 v 0 z"
     id="path100"
     sodipodi:nodetypes="ccssssccc" /><path
     style="fill:#80b3ff;fill-opacity:1;stroke-width:0.491538"
     d="m 16.347607,9.8961328 c 0,0.3782092 -0.278414,0.6832322 -0.621757,0.6832322 v 0 c -0.343836,0 -0.622741,-0.305023 -0.622741,-0.6832322 V 8.1991036 c 0,-0.3782092 0.278413,-0.6842147 0.622741,-0.6842147 v 0 c 0.342851,0 0.621757,0.3060055 0.621757,0.6842147 z"
     id="path103" /><path
     style="fill:#80b3ff;fill-opacity:1;stroke-width:0.491538"
     d="m 16.347607,14.485234 c 0,0.377718 -0.278414,0.683232 -0.621757,0.683232 v 0 c -0.343836,0 -0.622741,-0.305023 -0.622741,-0.683232 v -1.698012 c 0,-0.378209 0.278413,-0.683232 0.622741,-0.683232 v 0 c 0.342851,0 0.621757,0.305023 0.621757,0.683232 z"
     id="path106" /><path
     style="fill:#80b3ff;fill-opacity:1;stroke-width:0.491538"
     d="m 16.347607,19.074826 c 0,0.378209 -0.278414,0.683232 -0.621757,0.683232 v 0 c -0.343836,0 -0.622741,-0.305023 -0.622741,-0.683232 v -1.698011 c 0,-0.376245 0.278413,-0.681268 0.622741,-0.681268 v 0 c 0.342851,0 0.621757,0.305023 0.621757,0.681268 z"
     id="path109" /><path
     style="fill:#80b3ff;fill-opacity:1;stroke-width:0.491538"
     d="m 16.347607,23.664418 c 0,0.376245 -0.278414,0.683233 -0.621757,0.683233 v 0 c -0.343836,0 -0.622741,-0.306988 -0.622741,-0.683233 v -1.698011 c 0,-0.377227 0.278413,-0.683232 0.622741,-0.683232 v 0 c 0.342851,0 0.621757,0.306005 0.621757,0.683232 z"
     id="path112" /><path
     style="fill:#80b3ff;fill-opacity:1;stroke-width:0.491538"
     d="m 16.347607,28.254011 c 0,0.376244 -0.278414,0.683232 -0.621757,0.683232 v 0 c -0.343836,0 -0.622741,-0.306988 -0.622741,-0.683232 v -1.696047 c 0,-0.378209 0.278413,-0.685197 0.622741,-0.685197 v 0 c 0.342851,0 0.621757,0.306988 0.621757,0.685197 z"
     id="path115" /><path
     style="fill:#80b3ff;fill-opacity:1;stroke-width:0.491538"
     d="m 16.347607,32.843112 c 0,0.377227 -0.278414,0.683232 -0.621757,0.683232 v 0 c -0.343836,0 -0.622741,-0.306005 -0.622741,-0.683232 v -1.697029 c 0,-0.377227 0.278413,-0.684215 0.622741,-0.684215 v 0 c 0.342851,0 0.621757,0.306988 0.621757,0.684215 z"
     id="path118" /><path
     style="fill:#80b3ff;fill-opacity:1;stroke-width:0.491538"
     d="m 16.347607,37.432704 c 0,0.377227 -0.278414,0.683232 -0.621757,0.683232 v 0 c -0.343836,0 -0.622741,-0.306005 -0.622741,-0.683232 v -1.697029 c 0,-0.377227 0.278413,-0.683232 0.622741,-0.683232 v 0 c 0.342851,0 0.621757,0.306005 0.621757,0.683232 z"
     id="path121" /><path
     style="fill:#80b3ff;fill-opacity:1;stroke-width:0.491538"
     d="m 16.347607,42.022296 c 0,0.377718 -0.278414,0.683233 -0.621757,0.683233 v 0 c -0.343836,0 -0.622741,-0.305024 -0.622741,-0.683233 v -1.696047 c 0,-0.378209 0.278413,-0.684214 0.622741,-0.684214 v 0 c 0.342851,0 0.621757,0.306005 0.621757,0.684214 z"
     id="path124" /><path
     style="fill:#80b3ff;fill-opacity:1;stroke-width:0.491538"
     d="m 16.347607,46.61238 c 0,0.377227 -0.278414,0.684214 -0.621757,0.684214 v 0 c -0.343836,0 -0.622741,-0.306987 -0.622741,-0.684214 v -1.696047 c 0,-0.3787 0.278413,-0.684215 0.622741,-0.684215 v 0 c 0.342851,0 0.621757,0.305023 0.621757,0.684215 z"
     id="path127" /><path
     style="fill:#80b3ff;fill-opacity:1;stroke-width:0.491538"
     d="m 16.347607,51.202954 c 0,0.376245 -0.278414,0.681268 -0.621757,0.681268 v 0 c -0.343836,0 -0.622741,-0.305023 -0.622741,-0.681268 v -1.698011 c 0,-0.378209 0.278413,-0.683232 0.622741,-0.683232 v 0 c 0.342851,0 0.621757,0.305023 0.621757,0.683232 z"
     id="path130" /><path
     style="fill:#80b3ff;fill-opacity:1;stroke-width:0.491538"
     d="m 16.347607,55.791564 c 0,0.378209 -0.278414,0.68225 -0.621757,0.68225 v 0 c -0.343836,0 -0.622741,-0.304041 -0.622741,-0.68225 v -1.698011 c 0,-0.377227 0.278413,-0.68225 0.622741,-0.68225 v 0 c 0.342851,0 0.621757,0.305023 0.621757,0.68225 z"
     id="path133" /></g><g
   id="g3"
   transform="translate(1)"><path
     d="m 37.801943,19.000025 -5.09768,0.749747 v 17.91167 l 5.09768,-1.329918 v -6.919961 l 5.097794,8.158088 5.097869,-1.857266 L 41.625398,28.284808 48,20.24053 43.053996,19.000026 37.801943,27.119455 Z m -10.37967,4.857557 c -0.119992,0 -0.241237,0.04422 -0.333612,0.13645 L 25.085074,25.9406 c -0.184198,0.178595 -0.141178,0.436067 0,0.650292 l 2.073361,3.162692 c -0.152519,0.309737 -0.286527,0.62885 -0.39818,0.955041 -0.01088,0.02852 -0.02636,0.03097 -0.02636,0.0433 l -3.761104,0.811674 C 22.717647,31.620599 22.5,31.768295 22.5,32.023146 v 1.216227 1.216116 c 0,0.253528 0.218395,0.404228 0.472789,0.459201 l 3.761035,0.812455 c 0.01633,0.02852 0.0264,0.0476 0.03216,0.06833 0.110717,0.317162 0.237257,0.627296 0.385886,0.928736 l -2.073567,3.15974 c -0.141334,0.214963 -0.184199,0.470743 0,0.65039 l 2.003894,1.946374 c 0.184189,0.178849 0.482167,0.178849 0.666831,0 l 3.250985,-2.012085 c 0.319499,0.150008 0.64855,0.281879 0.985522,0.391732 0.0264,0.01675 0.04108,0.02852 0.06644,0.02944 l 0.833929,3.650967 c 0,0.253482 0.211137,0.459204 0.472913,0.459204 h 2.830054 c 0.261533,0 0.416313,-0.212067 0.472962,-0.459204 l 0.833895,-3.762985 c 0.383053,-0.141565 0.754876,-0.307873 1.112447,-0.500678 l 3.173714,2.204935 c 0.183982,0.178896 0.48216,0.178896 0.66722,0 l 2.003523,-1.946616 c 0.183957,-0.178708 0.141007,-0.436411 0,-0.650765 l -1.207052,-1.779291 -0.125352,0.04625 c -0.287098,0.104786 -0.610331,-0.0092 -0.769105,-0.259183 l -1.269627,-2.034421 c -1.057834,2.457608 -3.55578,4.18533 -6.46937,4.18533 -3.871047,0 -7.009363,-3.048392 -7.009363,-6.808983 0,-2.885595 1.851463,-5.345734 4.460529,-6.336972 v -1.356613 l -0.02155,0.04177 c -0.02989,0.01818 -0.05488,0.02557 -0.08376,0.03489 -0.332356,0.109222 -0.657387,0.234998 -0.973182,0.381917 l -3.245824,-2.00898 c -0.0932,-0.08932 -0.21304,-0.136356 -0.333523,-0.136356 z"
     id="path10-7-1"
     style="fill:#ffffff;fill-opacity:0.501961;stroke-width:1.43437" /><path
     d="m 39.301943,19.000026 -5.09768,0.749747 v 17.911669 l 5.09768,-1.329917 v -6.919962 l 5.097793,8.158088 5.097869,-1.857265 L 43.125397,28.284809 49.5,20.240531 44.553996,19.000027 39.301943,27.119455 Z m -10.37967,4.857557 c -0.119992,0 -0.241238,0.04422 -0.333612,0.13645 l -2.003588,1.946568 c -0.184197,0.178595 -0.141177,0.436066 0,0.650291 l 2.073362,3.162693 c -0.15252,0.309736 -0.286527,0.62885 -0.39818,0.95504 -0.01088,0.02852 -0.02636,0.03097 -0.02636,0.0433 L 24.472791,31.5636 C 24.217647,31.6206 24,31.768296 24,32.023147 v 1.216226 1.216116 c 0,0.253529 0.218395,0.404229 0.472788,0.459201 l 3.761035,0.812455 c 0.01633,0.02852 0.0264,0.0476 0.03216,0.06833 0.110716,0.317162 0.237256,0.627296 0.385885,0.928736 l -2.073567,3.15974 c -0.141334,0.214962 -0.184199,0.470742 0,0.65039 l 2.003894,1.946374 c 0.184189,0.178849 0.482167,0.178849 0.666831,0 l 3.250985,-2.012085 c 0.319499,0.150008 0.64855,0.281878 0.985522,0.391731 0.0264,0.01675 0.04108,0.02852 0.06644,0.02944 l 0.833929,3.650967 c 0,0.253482 0.211137,0.459204 0.472913,0.459204 h 2.830054 c 0.261533,0 0.416313,-0.212067 0.472962,-0.459204 l 0.833895,-3.762985 c 0.383053,-0.141565 0.754876,-0.307873 1.112447,-0.500678 l 3.173714,2.204934 c 0.183982,0.178897 0.48216,0.178897 0.66722,0 l 2.003524,-1.946615 c 0.183957,-0.178708 0.141007,-0.436411 0,-0.650765 l -1.207052,-1.779291 -0.125352,0.04625 c -0.287098,0.104785 -0.610331,-0.0092 -0.769105,-0.259183 l -1.269627,-2.034422 c -1.057834,2.457609 -3.55578,4.185331 -6.46937,4.185331 -3.871047,0 -7.009363,-3.048393 -7.009363,-6.808983 0,-2.885596 1.851463,-5.345735 4.460529,-6.336973 v -1.356613 l -0.02155,0.04177 c -0.02989,0.01818 -0.05488,0.02557 -0.08376,0.03489 -0.332356,0.109222 -0.657387,0.234999 -0.973182,0.381918 l -3.245824,-2.00898 c -0.0932,-0.08932 -0.21304,-0.136356 -0.333523,-0.136356 z"
     id="path10-7-0-0"
     style="fill:#21252b;fill-opacity:1;stroke-width:1.43437" /></g></svg>
