<?xml version="1.0" encoding="UTF-8" standalone="no"?>
<!-- Generator: Adobe Illustrator 27.5.0, SVG Export Plug-In . SVG Version: 6.00 Build 0)  -->

<svg
   version="1.1"
   id="Layer_1"
   x="0px"
   y="0px"
   viewBox="0 0 63.999998 63.999999"
   xml:space="preserve"
   sodipodi:docname="folder-github.svg"
   inkscape:version="1.4.3 (unknown)"
   width="64"
   height="64"
   xmlns:inkscape="http://www.inkscape.org/namespaces/inkscape"
   xmlns:sodipodi="http://sodipodi.sourceforge.net/DTD/sodipodi-0.dtd"
   xmlns="http://www.w3.org/2000/svg"
   xmlns:svg="http://www.w3.org/2000/svg"><defs
   id="defs762">
	
		<radialGradient
   id="SVGID_00000022534578410790736700000013999825567828354183_"
   cx="422.99371"
   cy="288.32251"
   r="28.502399"
   gradientTransform="matrix(0.98379286,0,0,0.98236136,-385.19832,-251.34342)"
   gradientUnits="userSpaceOnUse">
		<stop
   offset="0"
   style="stop-color:#A0866A"
   id="stop74" />
		<stop
   offset="0.2596"
   style="stop-color:#9C8268"
   id="stop75" />
		<stop
   offset="0.5301"
   style="stop-color:#8F7861"
   id="stop76" />
		<stop
   offset="0.8045"
   style="stop-color:#7B6656"
   id="stop77" />
		<stop
   offset="1"
   style="stop-color:#67554B"
   id="stop78" />
	</radialGradient>
	
	
	
	
		<radialGradient
   id="SVGID_00000125562367361927050560000001190537805866180488_"
   cx="417.22159"
   cy="288.32251"
   r="27.744699"
   gradientTransform="matrix(1.0074039,0,0,0.98236136,-390.24016,-251.34342)"
   gradientUnits="userSpaceOnUse">
		<stop
   offset="0"
   style="stop-color:#A0866A"
   id="stop85" />
		<stop
   offset="0.2596"
   style="stop-color:#9C8268"
   id="stop86" />
		<stop
   offset="0.5301"
   style="stop-color:#8F7861"
   id="stop87" />
		<stop
   offset="0.8045"
   style="stop-color:#7B6656"
   id="stop88" />
		<stop
   offset="1"
   style="stop-color:#67554B"
   id="stop89" />
	</radialGradient>
	
	
		<radialGradient
   id="SVGID_00000097500425902151924180000002286946989435723681_"
   cx="405.16061"
   cy="259.82541"
   r="73.946198"
   gradientTransform="matrix(0.94060435,0,0,0.98236136,-375.80615,-251.34342)"
   gradientUnits="userSpaceOnUse">
		<stop
   offset="0"
   style="stop-color:#535d6c;stop-opacity:1"
   id="stop90" />
		<stop
   offset="0.2284"
   style="stop-color:#373e48;stop-opacity:1"
   id="stop91" />
		<stop
   offset="0.4664"
   style="stop-color:#373e48;stop-opacity:1"
   id="stop92" />
		<stop
   offset="0.70889997"
   style="stop-color:#48515e;stop-opacity:1;"
   id="stop93" />
		<stop
   offset="0.95289999"
   style="stop-color:#373e48;stop-opacity:1"
   id="stop94" />
		<stop
   offset="1"
   style="stop-color:#373e48;stop-opacity:1"
   id="stop95" />
	</radialGradient>
	
	
		<radialGradient
   id="SVGID_00000119082666600208423750000005907981173642057379_"
   cx="425.73099"
   cy="288.43094"
   r="67.4496"
   gradientTransform="matrix(0.82943576,0,0,0.98236136,-350.11651,-251.34342)"
   gradientUnits="userSpaceOnUse"
   fx="425.73099"
   fy="288.43094">
		<stop
   offset="0"
   style="stop-color:#939dac;stop-opacity:1"
   id="stop96" />
		<stop
   offset="0.25960001"
   style="stop-color:#535d6c;stop-opacity:1"
   id="stop97" />
		<stop
   offset="0.5301"
   style="stop-color:#535d6c;stop-opacity:1"
   id="stop98" />
		<stop
   offset="0.8045"
   style="stop-color:#373e48;stop-opacity:1"
   id="stop99" />
		<stop
   offset="1"
   style="stop-color:#373e48;stop-opacity:1"
   id="stop100" />
	</radialGradient>
	
	
		<radialGradient
   id="SVGID_00000165928333602235411140000014852226284911233709_"
   cx="-1556.7609"
   cy="1310.3918"
   r="1.7343"
   gradientTransform="matrix(0.62323278,0,0,0.68421469,985.97188,-887.64613)"
   gradientUnits="userSpaceOnUse">
		<stop
   offset="0"
   style="stop-color:#E1CEC0"
   id="stop101" />
		<stop
   offset="0.761"
   style="stop-color:#E0CDBE"
   id="stop102" />
		<stop
   offset="1"
   style="stop-color:#DCC9B9"
   id="stop103" />
	</radialGradient>
	
	
		<radialGradient
   id="SVGID_00000023271670121255412580000014745766858599489424_"
   cx="-1556.7609"
   cy="1306.0997"
   r="1.7342"
   gradientTransform="matrix(0.62323278,0,0,0.68421469,985.97188,-880.11982)"
   gradientUnits="userSpaceOnUse">
		<stop
   offset="0"
   style="stop-color:#E1CEC0"
   id="stop104" />
		<stop
   offset="0.761"
   style="stop-color:#E0CDBE"
   id="stop105" />
		<stop
   offset="1"
   style="stop-color:#DCC9B9"
   id="stop106" />
	</radialGradient>
	
	
		<radialGradient
   id="SVGID_00000093146561591346411050000017874754504161969285_"
   cx="-1556.7609"
   cy="1301.8096"
   r="1.733"
   gradientTransform="matrix(0.62323278,0,0,0.68421469,985.97188,-872.59405)"
   gradientUnits="userSpaceOnUse">
		<stop
   offset="0"
   style="stop-color:#E1CEC0"
   id="stop107" />
		<stop
   offset="0.761"
   style="stop-color:#E0CDBE"
   id="stop108" />
		<stop
   offset="1"
   style="stop-color:#DCC9B9"
   id="stop109" />
	</radialGradient>
	
	
		<radialGradient
   id="SVGID_00000124154437391672708990000002450479196596738238_"
   cx="-1556.7609"
   cy="1297.5177"
   r="1.7336"
   gradientTransform="matrix(0.62323278,0,0,0.68421469,985.97188,-865.06833)"
   gradientUnits="userSpaceOnUse">
		<stop
   offset="0"
   style="stop-color:#E1CEC0"
   id="stop110" />
		<stop
   offset="0.761"
   style="stop-color:#E0CDBE"
   id="stop111" />
		<stop
   offset="1"
   style="stop-color:#DCC9B9"
   id="stop112" />
	</radialGradient>
	
	
		<radialGradient
   id="SVGID_00000034058293124216951570000006641406590055667894_"
   cx="-1556.7609"
   cy="1293.2249"
   r="1.7339"
   gradientTransform="matrix(0.62323278,0,0,0.68421469,985.97188,-857.54231)"
   gradientUnits="userSpaceOnUse">
		<stop
   offset="0"
   style="stop-color:#E1CEC0"
   id="stop113" />
		<stop
   offset="0.761"
   style="stop-color:#E0CDBE"
   id="stop114" />
		<stop
   offset="1"
   style="stop-color:#DCC9B9"
   id="stop115" />
	</radialGradient>
	
	
		<radialGradient
   id="SVGID_00000042694802152741533360000006474553379895889032_"
   cx="-1556.7609"
   cy="1288.9327"
   r="1.7342"
   gradientTransform="matrix(0.62323278,0,0,0.68421469,985.97188,-850.01604)"
   gradientUnits="userSpaceOnUse">
		<stop
   offset="0"
   style="stop-color:#E1CEC0"
   id="stop116" />
		<stop
   offset="0.761"
   style="stop-color:#E0CDBE"
   id="stop117" />
		<stop
   offset="1"
   style="stop-color:#DCC9B9"
   id="stop118" />
	</radialGradient>
	
	
		<radialGradient
   id="SVGID_00000111901877872900564700000014159718068513697190_"
   cx="-1556.7609"
   cy="1284.642"
   r="1.7334"
   gradientTransform="matrix(0.62323278,0,0,0.68421469,985.97188,-842.49032)"
   gradientUnits="userSpaceOnUse">
		<stop
   offset="0"
   style="stop-color:#E1CEC0"
   id="stop119" />
		<stop
   offset="0.761"
   style="stop-color:#E0CDBE"
   id="stop120" />
		<stop
   offset="1"
   style="stop-color:#DCC9B9"
   id="stop121" />
	</radialGradient>
	
	
		<radialGradient
   id="SVGID_00000022538754652405687830000005864690060167237006_"
   cx="-1556.7609"
   cy="1280.3497"
   r="1.7334"
   gradientTransform="matrix(0.62323278,0,0,0.68421469,985.97188,-834.96406)"
   gradientUnits="userSpaceOnUse">
		<stop
   offset="0"
   style="stop-color:#E1CEC0"
   id="stop122" />
		<stop
   offset="0.761"
   style="stop-color:#E0CDBE"
   id="stop123" />
		<stop
   offset="1"
   style="stop-color:#DCC9B9"
   id="stop124" />
	</radialGradient>
	
	
		<radialGradient
   id="SVGID_00000059309292910592828090000012283058363263137190_"
   cx="-1556.7609"
   cy="1276.0603"
   r="1.7339"
   gradientTransform="matrix(0.62323278,0,0,0.68421469,985.97188,-827.43829)"
   gradientUnits="userSpaceOnUse">
		<stop
   offset="0"
   style="stop-color:#E1CEC0"
   id="stop125" />
		<stop
   offset="0.761"
   style="stop-color:#E0CDBE"
   id="stop126" />
		<stop
   offset="1"
   style="stop-color:#DCC9B9"
   id="stop127" />
	</radialGradient>
	
	
		<radialGradient
   id="SVGID_00000164515357396027012420000009309048799111497121_"
   cx="-1556.7609"
   cy="1271.7668"
   r="1.7334"
   gradientTransform="matrix(0.62323278,0,0,0.68421469,985.97188,-819.91212)"
   gradientUnits="userSpaceOnUse">
		<stop
   offset="0"
   style="stop-color:#E1CEC0"
   id="stop128" />
		<stop
   offset="0.761"
   style="stop-color:#E0CDBE"
   id="stop129" />
		<stop
   offset="1"
   style="stop-color:#DCC9B9"
   id="stop130" />
	</radialGradient>
	
	
		<radialGradient
   id="SVGID_00000078021694386518579320000000195962685941464961_"
   cx="-1556.7609"
   cy="1267.4753"
   r="1.733"
   gradientTransform="matrix(0.62323278,0,0,0.68421469,985.97188,-812.3863)"
   gradientUnits="userSpaceOnUse">
		<stop
   offset="0"
   style="stop-color:#E1CEC0"
   id="stop131" />
		<stop
   offset="0.761"
   style="stop-color:#E0CDBE"
   id="stop132" />
		<stop
   offset="1"
   style="stop-color:#DCC9B9"
   id="stop133" />
	</radialGradient>
	
	
	
		<radialGradient
   id="SVGID_00000179631901819502847670000002313046964360062115_"
   cx="465.28549"
   cy="269.20731"
   r="33.883701"
   gradientTransform="matrix(0.7608654,0,0,0.98236136,-334.59177,-251.34342)"
   gradientUnits="userSpaceOnUse">
		<stop
   offset="0"
   style="stop-color:#5599ff;stop-opacity:1"
   id="stop145" />
		<stop
   offset="0.31479999"
   style="stop-color:#267dff;stop-opacity:1;"
   id="stop146" />
		<stop
   offset="0.7586"
   style="stop-color:#2a7fff;stop-opacity:1"
   id="stop147" />
		<stop
   offset="1"
   style="stop-color:#0053d0;stop-opacity:1;"
   id="stop148" />
	</radialGradient>
	
	
		<radialGradient
   id="SVGID_00000110451134532301891090000001961278411554218625_"
   cx="422.12851"
   cy="271.23071"
   r="41.8508"
   gradientTransform="matrix(0.91866577,0,0,0.98236136,-370.25146,-251.34342)"
   gradientUnits="userSpaceOnUse">
		<stop
   offset="0.1067"
   style="stop-color:#8d5fd3;stop-opacity:1"
   id="stop149" />
		<stop
   offset="0.5118"
   style="stop-color:#8d5fd3;stop-opacity:1"
   id="stop150" />
		<stop
   offset="1"
   style="stop-color:#8d5fd3;stop-opacity:1"
   id="stop151" />
	</radialGradient>
	

		
		
		
		
		
		
	
		
			<radialGradient
   id="SVGID_00000052091378501920612200000006059691176872464570_"
   cx="-498.31311"
   cy="565.55511"
   r="5.8572001"
   gradientTransform="matrix(1.1015529,0,0,1.1486751,623.04374,-631.95324)"
   gradientUnits="userSpaceOnUse">
			<stop
   offset="0"
   style="stop-color:#A0866A"
   id="stop134" />
			<stop
   offset="0.2596"
   style="stop-color:#9C8268"
   id="stop135" />
			<stop
   offset="0.5301"
   style="stop-color:#8F7861"
   id="stop136" />
			<stop
   offset="0.8045"
   style="stop-color:#7B6656"
   id="stop137" />
			<stop
   offset="1"
   style="stop-color:#67554B"
   id="stop138" />
		</radialGradient>
		
		
		
		
	
			
				<radialGradient
   id="SVGID_00000044889807405124194260000009933868313778631062_"
   cx="-498.314"
   cy="580.81989"
   r="7.6585999"
   gradientTransform="matrix(1.1015529,0,0,1.1486751,623.04374,-631.95324)"
   gradientUnits="userSpaceOnUse">
				<stop
   offset="0"
   style="stop-color:#A0866A"
   id="stop139" />
				<stop
   offset="0.2596"
   style="stop-color:#9C8268"
   id="stop140" />
				<stop
   offset="0.5301"
   style="stop-color:#8F7861"
   id="stop141" />
				<stop
   offset="0.8045"
   style="stop-color:#7B6656"
   id="stop142" />
				<stop
   offset="1"
   style="stop-color:#67554B"
   id="stop143" />
			</radialGradient>
			
		<radialGradient
   id="SVGID_00000097500425902151924180000002286946989435723681_-6"
   cx="405.16061"
   cy="259.82541"
   r="73.946198"
   gradientTransform="matrix(0.94060435,0,0,0.98236136,-375.80615,-251.34342)"
   gradientUnits="userSpaceOnUse">
		<stop
   offset="0"
   style="stop-color:#535d6c;stop-opacity:1"
   id="stop90-4" />
		<stop
   offset="0.2284"
   style="stop-color:#373e48;stop-opacity:1"
   id="stop91-3" />
		<stop
   offset="0.4664"
   style="stop-color:#373e48;stop-opacity:1"
   id="stop92-3" />
		<stop
   offset="0.70889997"
   style="stop-color:#48515e;stop-opacity:1;"
   id="stop93-3" />
		<stop
   offset="0.95289999"
   style="stop-color:#373e48;stop-opacity:1"
   id="stop94-8" />
		<stop
   offset="1"
   style="stop-color:#373e48;stop-opacity:1"
   id="stop95-6" />
	</radialGradient><radialGradient
   id="SVGID_00000119082666600208423750000005907981173642057379_-0"
   cx="425.73099"
   cy="288.43094"
   r="67.4496"
   gradientTransform="matrix(0.82943576,0,0,0.98236136,-350.11651,-251.34342)"
   gradientUnits="userSpaceOnUse"
   fx="425.73099"
   fy="288.43094">
		<stop
   offset="0"
   style="stop-color:#939dac;stop-opacity:1"
   id="stop96-4" />
		<stop
   offset="0.25960001"
   style="stop-color:#535d6c;stop-opacity:1"
   id="stop97-8" />
		<stop
   offset="0.5301"
   style="stop-color:#535d6c;stop-opacity:1"
   id="stop98-8" />
		<stop
   offset="0.8045"
   style="stop-color:#373e48;stop-opacity:1"
   id="stop99-8" />
		<stop
   offset="1"
   style="stop-color:#373e48;stop-opacity:1"
   id="stop100-9" />
	</radialGradient></defs><sodipodi:namedview
   id="namedview762"
   pagecolor="#ffffff"
   bordercolor="#000000"
   borderopacity="0.25"
   inkscape:showpageshadow="2"
   inkscape:pageopacity="0.0"
   inkscape:pagecheckerboard="0"
   inkscape:deskcolor="#d1d1d1"
   inkscape:zoom="4"
   inkscape:cx="22.375"
   inkscape:cy="51.625"
   inkscape:window-width="1920"
   inkscape:window-height="994"
   inkscape:window-x="0"
   inkscape:window-y="0"
   inkscape:window-maximized="1"
   inkscape:current-layer="Layer_1"
   showgrid="false"><inkscape:grid
     id="grid1"
     units="px"
     originx="0"
     originy="0"
     spacingx="0.99999997"
     spacingy="0.99999998"
     empcolor="#0099e5"
     empopacity="0.30196078"
     color="#0099e5"
     opacity="0.14901961"
     empspacing="5"
     enabled="true"
     visible="false" /></sodipodi:namedview>




















<g
   id="g1"><path
     d="m 59.081109,50.189861 c 0,5.81014 -4.176201,9.110139 -9.326848,9.110139 H 12.324878 C 7.1752139,59.3 2.999997,55.219763 2.999997,50.189861 V 13.810139 c 0,-5.0303802 4.1752169,-9.1101391 9.324881,-9.1101391 h 37.429383 c 5.150647,0 9.326848,3.0998612 9.326848,8.9100001 z"
     id="path78"
     style="fill:#b7bec8;fill-opacity:1;stroke-width:0.987421"
     sodipodi:nodetypes="sssssssss" /><path
     style="fill:#b7bec8;fill-opacity:1;stroke-width:0.485356"
     d="m 58.142571,50.189862 c 0,5.030379 -4.106352,9.110138 -9.170426,9.110138 H 12.169438 C 7.1063484,59.3 2.999997,55.219763 2.999997,50.189862 V 13.810138 c 0,-5.0303792 4.1063514,-9.1101381 9.169441,-9.1101381 h 36.802707 c 5.064074,0 9.170426,4.0802377 9.170426,9.1101381 z"
     id="path79" /><g
     id="g2"><path
       style="fill:#ffaaaa;fill-opacity:1;stroke-width:0.491538"
       d="m 60.742243,43.740446 v 3.41518 c 0,1.767268 -1.339434,3.202989 -3.005979,3.247195 0.02509,0 0.05116,0.0039 0.07674,0.0039 h 0.10379 c 1.702454,0 3.083207,-1.455369 3.083207,-3.251125 v -3.41518 c 0,-1.794774 -1.380753,-3.251125 -3.083207,-3.251125 H 57.813 c -0.02607,0 -0.05165,0.0039 -0.07674,0.0039 1.666545,0.04371 3.005979,1.478945 3.005979,3.247195 z"
       id="path80" /><path
       style="fill:#d35f8d;stroke-width:0.491538"
       d="m 57.284703,50.356159 c 0.147077,0.02701 0.297598,0.04224 0.451561,0.04715 1.667037,-0.04421 3.005979,-1.480418 3.005979,-3.247195 v -3.415179 c 0,-1.768251 -1.339434,-3.20299 -3.005979,-3.247196 -0.153963,0.0039 -0.304484,0.02112 -0.451561,0.04814 z"
       id="path81" /></g><path
     style="fill:#ffeeaa;fill-opacity:1;stroke-width:0.491538"
     d="m 60.742243,29.923043 v 3.413214 c 0,1.769233 -1.339434,3.203972 -3.005979,3.248178 0.02509,0 0.05116,0.0039 0.07674,0.0039 h 0.10379 c 1.702454,0 3.083207,-1.45635 3.083207,-3.252107 v -3.413214 c 0,-1.795757 -1.380753,-3.252108 -3.083207,-3.252108 H 57.813 c -0.02607,0 -0.05165,0.0039 -0.07674,0.0039 1.666545,0.04224 3.005979,1.477962 3.005979,3.248178 z"
     id="path82" /><path
     style="fill:#ffd42a;fill-opacity:1;stroke-width:0.491538"
     d="m 57.284703,36.537773 c 0.147077,0.02603 0.297598,0.04322 0.451561,0.04715 1.667037,-0.04421 3.005979,-1.479436 3.005979,-3.248178 v -3.413214 c 0,-1.770215 -1.339434,-3.205936 -3.005979,-3.248178 -0.153963,0.0039 -0.304484,0.02112 -0.451561,0.04814 z"
     id="path83" /><path
     style="fill:#a1ffff;fill-opacity:1;stroke-width:0.491538"
     d="m 60.742243,16.104657 v 3.413214 c 0,1.770215 -1.339434,3.203972 -3.005979,3.24916 0.02509,0 0.05116,0.0029 0.07674,0.0029 h 0.10379 c 1.702454,0 3.083207,-1.455368 3.083207,-3.252107 V 16.10461 c 0,-1.795757 -1.380753,-3.252108 -3.083207,-3.252108 H 57.813 c -0.02607,0 -0.05165,0.0029 -0.07674,0.0049 1.666545,0.04322 3.005979,1.478454 3.005979,3.247196 z"
     id="path84" /><path
     style="fill:#00cccc;fill-opacity:1;stroke-width:0.491538"
     d="m 57.284703,22.719387 c 0.147077,0.02701 0.297598,0.04322 0.451561,0.04814 1.667037,-0.04519 3.005979,-1.479437 3.005979,-3.249161 v -3.413214 c 0,-1.769233 -1.339434,-3.203972 -3.005979,-3.247196 -0.153963,0.0029 -0.304484,0.01817 -0.451561,0.04519 z"
     id="path85" /><path
     style="fill:#939dac;fill-opacity:1;stroke-width:0.488898"
     d="m 57.333893,50.456382 c 0,5.104082 -4.045848,9.243618 -9.035646,9.243618 H 12.035151 C 7.0458451,59.7 3.0004889,55.559979 3.0004889,50.456382 V 13.543618 c 0,-5.1040823 4.0458481,-9.2436179 9.0346621,-9.2436179 h 36.263096 c 4.99029,0 9.035646,4.1400216 9.035646,9.2436179 z"
     id="path89" /><path
     style="fill:url(#SVGID_00000097500425902151924180000002286946989435723681_-6);stroke-width:0.491538"
     d="M 56.620643,52.656 C 56.620643,57.000001 52.999998,60 48.004,60 H 11.91562 C 6.9917365,60 2.999997,55.815141 2.999997,50.65627 V 12.144 c 0,-1.144 4.0000028,-8.1440001 8.915623,-8.1440001 H 47.504 c 5.495998,0 9.116643,3.0000002 9.116643,8.0440001 z"
     id="path95"
     sodipodi:nodetypes="sssssssss" /><path
     style="fill:url(#SVGID_00000119082666600208423750000005907981173642057379_-0);stroke-width:0.491538"
     d="m 17.733771,60 v 0 H 11 C 5.9999998,60 2.999997,57.000001 2.999997,52 V 12 C 2.999997,7.0000001 5.9999998,3.9999999 11,3.9999999 h 6.891178 v 0 z"
     id="path100"
     sodipodi:nodetypes="ccssssccc" /><path
     style="fill:#80b3ff;fill-opacity:1;stroke-width:0.491538"
     d="m 16.347607,9.8961328 c 0,0.3782092 -0.278414,0.6832322 -0.621757,0.6832322 v 0 c -0.343836,0 -0.622741,-0.305023 -0.622741,-0.6832322 V 8.1991036 c 0,-0.3782092 0.278413,-0.6842147 0.622741,-0.6842147 v 0 c 0.342851,0 0.621757,0.3060055 0.621757,0.6842147 z"
     id="path103" /><path
     style="fill:#80b3ff;fill-opacity:1;stroke-width:0.491538"
     d="m 16.347607,14.485234 c 0,0.377718 -0.278414,0.683232 -0.621757,0.683232 v 0 c -0.343836,0 -0.622741,-0.305023 -0.622741,-0.683232 v -1.698012 c 0,-0.378209 0.278413,-0.683232 0.622741,-0.683232 v 0 c 0.342851,0 0.621757,0.305023 0.621757,0.683232 z"
     id="path106" /><path
     style="fill:#80b3ff;fill-opacity:1;stroke-width:0.491538"
     d="m 16.347607,19.074826 c 0,0.378209 -0.278414,0.683232 -0.621757,0.683232 v 0 c -0.343836,0 -0.622741,-0.305023 -0.622741,-0.683232 v -1.698011 c 0,-0.376245 0.278413,-0.681268 0.622741,-0.681268 v 0 c 0.342851,0 0.621757,0.305023 0.621757,0.681268 z"
     id="path109" /><path
     style="fill:#80b3ff;fill-opacity:1;stroke-width:0.491538"
     d="m 16.347607,23.664418 c 0,0.376245 -0.278414,0.683233 -0.621757,0.683233 v 0 c -0.343836,0 -0.622741,-0.306988 -0.622741,-0.683233 v -1.698011 c 0,-0.377227 0.278413,-0.683232 0.622741,-0.683232 v 0 c 0.342851,0 0.621757,0.306005 0.621757,0.683232 z"
     id="path112" /><path
     style="fill:#80b3ff;fill-opacity:1;stroke-width:0.491538"
     d="m 16.347607,28.254011 c 0,0.376244 -0.278414,0.683232 -0.621757,0.683232 v 0 c -0.343836,0 -0.622741,-0.306988 -0.622741,-0.683232 v -1.696047 c 0,-0.378209 0.278413,-0.685197 0.622741,-0.685197 v 0 c 0.342851,0 0.621757,0.306988 0.621757,0.685197 z"
     id="path115" /><path
     style="fill:#80b3ff;fill-opacity:1;stroke-width:0.491538"
     d="m 16.347607,32.843112 c 0,0.377227 -0.278414,0.683232 -0.621757,0.683232 v 0 c -0.343836,0 -0.622741,-0.306005 -0.622741,-0.683232 v -1.697029 c 0,-0.377227 0.278413,-0.684215 0.622741,-0.684215 v 0 c 0.342851,0 0.621757,0.306988 0.621757,0.684215 z"
     id="path118" /><path
     style="fill:#80b3ff;fill-opacity:1;stroke-width:0.491538"
     d="m 16.347607,37.432704 c 0,0.377227 -0.278414,0.683232 -0.621757,0.683232 v 0 c -0.343836,0 -0.622741,-0.306005 -0.622741,-0.683232 v -1.697029 c 0,-0.377227 0.278413,-0.683232 0.622741,-0.683232 v 0 c 0.342851,0 0.621757,0.306005 0.621757,0.683232 z"
     id="path121" /><path
     style="fill:#80b3ff;fill-opacity:1;stroke-width:0.491538"
     d="m 16.347607,42.022296 c 0,0.377718 -0.278414,0.683233 -0.621757,0.683233 v 0 c -0.343836,0 -0.622741,-0.305024 -0.622741,-0.683233 v -1.696047 c 0,-0.378209 0.278413,-0.684214 0.622741,-0.684214 v 0 c 0.342851,0 0.621757,0.306005 0.621757,0.684214 z"
     id="path124" /><path
     style="fill:#80b3ff;fill-opacity:1;stroke-width:0.491538"
     d="m 16.347607,46.61238 c 0,0.377227 -0.278414,0.684214 -0.621757,0.684214 v 0 c -0.343836,0 -0.622741,-0.306987 -0.622741,-0.684214 v -1.696047 c 0,-0.3787 0.278413,-0.684215 0.622741,-0.684215 v 0 c 0.342851,0 0.621757,0.305023 0.621757,0.684215 z"
     id="path127" /><path
     style="fill:#80b3ff;fill-opacity:1;stroke-width:0.491538"
     d="m 16.347607,51.202954 c 0,0.376245 -0.278414,0.681268 -0.621757,0.681268 v 0 c -0.343836,0 -0.622741,-0.305023 -0.622741,-0.681268 v -1.698011 c 0,-0.378209 0.278413,-0.683232 0.622741,-0.683232 v 0 c 0.342851,0 0.621757,0.305023 0.621757,0.683232 z"
     id="path130" /><path
     style="fill:#80b3ff;fill-opacity:1;stroke-width:0.491538"
     d="m 16.347607,55.791564 c 0,0.378209 -0.278414,0.68225 -0.621757,0.68225 v 0 c -0.343836,0 -0.622741,-0.304041 -0.622741,-0.68225 v -1.698011 c 0,-0.377227 0.278413,-0.68225 0.622741,-0.68225 v 0 c 0.342851,0 0.621757,0.305023 0.621757,0.68225 z"
     id="path133" /></g><g
   id="g1-6-6"
   transform="matrix(0.90768497,0,0,0.89695802,3.3189742,2.3712925)"><path
     d="m 31.334472,46.472081 a 1.1769655,1.1861765 0 0 0 0.717359,-0.346387 1.159783,1.1688597 0 0 0 0.322152,-0.601681 c 0.02571,-0.129868 0.03026,-0.2728 0.02571,-1.558552 v -1.268317 l -0.850504,-0.0011 a 47.263352,47.63322 0 0 1 -1.0395,-0.02249 7.7576651,7.8183791 0 0 1 -0.841924,-0.10843 c -0.97079,-0.187142 -1.731098,-0.550801 -2.27663,-1.087592 a 3.028324,3.0520237 0 0 1 -0.73883,-1.217016 5.2662761,5.3074883 0 0 0 -1.305834,-2.05194 9.1966507,9.2686232 0 0 0 -0.902035,-0.79222 c -0.446689,-0.364339 -0.558367,-0.489925 -0.558367,-0.602436 0,-0.07382 0.0517,-0.129827 0.20188,-0.199119 a 1.3401947,1.3506821 0 0 1 0.661517,-0.134162 2.1477481,2.1645558 0 0 1 0.927829,0.264052 c 0.395183,0.203483 0.803251,0.515179 1.232813,0.939433 0.262014,0.259746 0.451009,0.471812 0.747398,0.844123 0.902058,1.125597 1.473363,1.549917 2.293792,1.688336 0.240564,0.04411 0.343648,0.05288 0.764598,0.05288 a 4.7250448,4.7620217 0 0 0 0.743127,-0.03842 3.1013468,3.125617 0 0 0 0.867697,-0.216347 l 0.07293,-0.03418 0.0029,-0.147165 a 3.0240283,3.0476941 0 0 1 1.323119,-2.463373 c 0,0 -0.0169,-0.0011 -0.04307,-0.0011 a 19.518731,19.671489 0 0 1 -0.665806,-0.121869 11.408837,11.498112 0 0 1 -3.986196,-1.53676 7.1949511,7.2512603 0 0 1 -1.688136,-1.506563 6.9071593,6.9612172 0 0 1 -1.464763,-3.619154 10.966398,11.052223 0 0 1 -0.01712,-2.294375 c 0.163228,-1.74467 0.717337,-3.246806 1.666649,-4.545607 0.01708,-0.02203 0.01708,-0.02203 -0.02571,-0.186126 a 9.1150373,9.1863694 0 0 1 0.08586,-4.944197 l 0.01711,-0.06498 h 0.154652 c 0.644317,0.0029 1.481946,0.19914 2.285197,0.523825 a 9.3512888,9.4244673 0 0 1 2.332452,1.376651 15.416534,15.537182 0 0 1 3.34192,-0.640682 c 0.506848,-0.04322 0.876281,-0.05617 1.477623,-0.05617 a 16.108101,16.23417 0 0 1 4.682068,0.649333 l 0.14178,0.04327 0.128798,-0.09515 c 0.176137,-0.142835 0.300713,-0.233738 0.524082,-0.380963 1.271456,-0.857155 2.740506,-1.385304 3.951824,-1.424258 l 0.16391,-0.0061 0.01293,0.04755 0.0472,0.186146 a 9.2868581,9.3595409 0 0 1 0.02129,4.8529 8.34615,8.4114601 0 0 1 1.447527,2.887493 c 0.231942,0.809585 0.352277,1.623378 0.382444,2.588916 0.02715,0.969603 -0.0821,1.887403 -0.317892,2.709953 a 6.5764,6.6278697 0 0 1 -1.975956,3.155966 c -1.073889,0.952319 -2.44412,1.636324 -4.1795,2.086586 a 17.113253,17.247176 0 0 1 -1.54633,0.320189 c -0.0011,5.48e-4 0.03033,0.03403 0.07728,0.07396 a 3.1786656,3.2035407 0 0 1 0.816146,0.909071 c 0.171792,0.302984 0.309275,0.670968 0.365098,1.025953 0.0472,0.27705 0.04265,0.0287 0.0518,3.168955 0,2.684022 0,2.878745 0.01694,2.943768 a 1.2199206,1.2294675 0 0 0 0.188985,0.467611 1.2242159,1.2337963 0 0 0 0.880542,0.519571 c 0.03448,5.49e-4 -2.611689,9.98e-4 -5.884819,9.98e-4 -4.875419,0 -5.927809,0 -5.859084,-0.01308 z"
     id="path6-6-3-6-4"
     style="fill:#ffffff;fill-opacity:0.5;stroke-width:1.38805" /><path
     d="m 32.543406,47.513339 a 1.1303513,1.1884462 0 0 0 0.688948,-0.347049 1.1138493,1.1710962 0 0 0 0.309393,-0.602833 c 0.02469,-0.130116 0.02906,-0.273322 0.02469,-1.561534 v -1.270744 l -0.816819,-0.0011 a 45.391468,47.724362 0 0 1 -0.99833,-0.02253 7.4504196,7.8333389 0 0 1 -0.808579,-0.108637 c -0.932342,-0.1875 -1.662538,-0.551854 -2.186464,-1.089672 A 2.908386,3.0578635 0 0 1 28.046677,41.289895 5.0577031,5.3176437 0 0 0 26.792561,39.234028 8.8324136,9.2863579 0 0 0 25.926252,38.440292 C 25.497255,38.075256 25.39,37.949431 25.39,37.836704 c 0,-0.07396 0.04965,-0.130075 0.193884,-0.1995 a 1.2871157,1.3532666 0 0 1 0.635318,-0.134419 2.0626857,2.1686975 0 0 1 0.891082,0.264557 c 0.379531,0.203873 0.771438,0.516165 1.183987,0.941231 0.251637,0.260243 0.433146,0.472715 0.717797,0.845738 0.866331,1.127751 1.41501,1.552883 2.202945,1.691566 0.231037,0.0442 0.330038,0.05298 0.734316,0.05298 a 4.5379075,4.7711334 0 0 0 0.713695,-0.03849 2.9785167,3.1315976 0 0 0 0.833332,-0.216761 l 0.07004,-0.03425 0.0028,-0.147446 a 2.9042604,3.0535256 0 0 1 1.270717,-2.468087 c 0,0 -0.01623,-0.0011 -0.04137,-0.0011 a 18.745684,19.709129 0 0 1 -0.639436,-0.122103 10.956985,11.520112 0 0 1 -3.828321,-1.5397 6.9099921,7.2651349 0 0 1 -1.621277,-1.509446 6.6335985,6.9745369 0 0 1 -1.40675,-3.626079 10.532069,11.07337 0 0 1 -0.01644,-2.298764 c 0.156763,-1.748008 0.688926,-3.253019 1.60064,-4.554305 0.0164,-0.02207 0.0164,-0.02207 -0.02469,-0.186482 a 8.7540326,9.2039467 0 0 1 0.08246,-4.953657 l 0.01643,-0.06511 h 0.148526 c 0.618799,0.0029 1.423253,0.199521 2.194691,0.524827 a 8.9809272,9.4425002 0 0 1 2.240075,1.379285 14.805956,15.566911 0 0 1 3.209562,-0.641907 c 0.486774,-0.0433 0.841575,-0.05628 1.419101,-0.05628 a 15.470133,16.265233 0 0 1 4.496632,0.650575 l 0.136165,0.04335 0.123697,-0.09534 c 0.169161,-0.143108 0.288803,-0.234185 0.503326,-0.381692 1.221099,-0.858795 2.631967,-1.387954 3.79531,-1.426983 l 0.157418,-0.0061 0.01242,0.04764 0.04533,0.186502 a 8.9190483,9.3774495 0 0 1 0.02045,4.862185 8.0155973,8.4275547 0 0 1 1.390197,2.893019 c 0.222756,0.811133 0.338325,1.626483 0.367297,2.593869 0.02607,0.971458 -0.07885,1.891015 -0.305302,2.715138 a 6.315939,6.6405516 0 0 1 -1.897697,3.162005 c -1.031357,0.954141 -2.34732,1.639455 -4.01397,2.090578 a 16.435476,17.280177 0 0 1 -1.485086,0.320802 c -0.0011,5.49e-4 0.02913,0.0341 0.07422,0.0741 a 3.0527733,3.2096704 0 0 1 0.783822,0.91081 c 0.164988,0.303565 0.297026,0.672252 0.350638,1.027916 0.04533,0.277581 0.04096,0.02876 0.04975,3.175019 0,2.689159 0,2.884253 0.01627,2.949401 a 1.1716051,1.23182 0 0 0 0.1815,0.468506 1.1757303,1.2361571 0 0 0 0.845668,0.520565 c 0.03311,5.5e-4 -2.508252,10e-4 -5.651749,10e-4 -4.682326,0 -5.693035,0 -5.627032,-0.0131 z"
     id="path6-6-3-5-3"
     style="fill:#21252b;fill-opacity:1;stroke-width:1.36159" /></g></svg>
