<?xml version="1.0" encoding="UTF-8" standalone="no"?>
<!-- Generator: Adobe Illustrator 27.5.0, SVG Export Plug-In . SVG Version: 6.00 Build 0)  -->

<svg
   version="1.1"
   id="Layer_1"
   x="0px"
   y="0px"
   viewBox="0 0 63.999998 63.999999"
   xml:space="preserve"
   sodipodi:docname="folder-build.svg"
   inkscape:version="1.4.3 (unknown)"
   width="64"
   height="64"
   xmlns:inkscape="http://www.inkscape.org/namespaces/inkscape"
   xmlns:sodipodi="http://sodipodi.sourceforge.net/DTD/sodipodi-0.dtd"
   xmlns="http://www.w3.org/2000/svg"
   xmlns:svg="http://www.w3.org/2000/svg"><defs
   id="defs762">
	
		<radialGradient
   id="SVGID_00000022534578410790736700000013999825567828354183_"
   cx="422.99371"
   cy="288.32251"
   r="28.502399"
   gradientTransform="matrix(0.98379286,0,0,0.98236136,-385.19832,-251.34342)"
   gradientUnits="userSpaceOnUse">
		<stop
   offset="0"
   style="stop-color:#A0866A"
   id="stop74" />
		<stop
   offset="0.2596"
   style="stop-color:#9C8268"
   id="stop75" />
		<stop
   offset="0.5301"
   style="stop-color:#8F7861"
   id="stop76" />
		<stop
   offset="0.8045"
   style="stop-color:#7B6656"
   id="stop77" />
		<stop
   offset="1"
   style="stop-color:#67554B"
   id="stop78" />
	</radialGradient>
	
	
	
	
		<radialGradient
   id="SVGID_00000125562367361927050560000001190537805866180488_"
   cx="417.22159"
   cy="288.32251"
   r="27.744699"
   gradientTransform="matrix(1.0074039,0,0,0.98236136,-390.24016,-251.34342)"
   gradientUnits="userSpaceOnUse">
		<stop
   offset="0"
   style="stop-color:#A0866A"
   id="stop85" />
		<stop
   offset="0.2596"
   style="stop-color:#9C8268"
   id="stop86" />
		<stop
   offset="0.5301"
   style="stop-color:#8F7861"
   id="stop87" />
		<stop
   offset="0.8045"
   style="stop-color:#7B6656"
   id="stop88" />
		<stop
   offset="1"
   style="stop-color:#67554B"
   id="stop89" />
	</radialGradient>
	
	
		<radialGradient
   id="SVGID_00000097500425902151924180000002286946989435723681_"
   cx="405.16061"
   cy="259.82541"
   r="73.946198"
   gradientTransform="matrix(0.94060435,0,0,0.98236136,-375.80615,-251.34342)"
   gradientUnits="userSpaceOnUse">
		<stop
   offset="0"
   style="stop-color:#535d6c;stop-opacity:1"
   id="stop90" />
		<stop
   offset="0.2284"
   style="stop-color:#373e48;stop-opacity:1"
   id="stop91" />
		<stop
   offset="0.4664"
   style="stop-color:#373e48;stop-opacity:1"
   id="stop92" />
		<stop
   offset="0.70889997"
   style="stop-color:#48515e;stop-opacity:1;"
   id="stop93" />
		<stop
   offset="0.95289999"
   style="stop-color:#373e48;stop-opacity:1"
   id="stop94" />
		<stop
   offset="1"
   style="stop-color:#373e48;stop-opacity:1"
   id="stop95" />
	</radialGradient>
	
	
		<radialGradient
   id="SVGID_00000119082666600208423750000005907981173642057379_"
   cx="425.73099"
   cy="288.43094"
   r="67.4496"
   gradientTransform="matrix(0.82943576,0,0,0.98236136,-350.11651,-251.34342)"
   gradientUnits="userSpaceOnUse"
   fx="425.73099"
   fy="288.43094">
		<stop
   offset="0"
   style="stop-color:#939dac;stop-opacity:1"
   id="stop96" />
		<stop
   offset="0.25960001"
   style="stop-color:#535d6c;stop-opacity:1"
   id="stop97" />
		<stop
   offset="0.5301"
   style="stop-color:#535d6c;stop-opacity:1"
   id="stop98" />
		<stop
   offset="0.8045"
   style="stop-color:#373e48;stop-opacity:1"
   id="stop99" />
		<stop
   offset="1"
   style="stop-color:#373e48;stop-opacity:1"
   id="stop100" />
	</radialGradient>
	
	
		<radialGradient
   id="SVGID_00000165928333602235411140000014852226284911233709_"
   cx="-1556.7609"
   cy="1310.3918"
   r="1.7343"
   gradientTransform="matrix(0.62323278,0,0,0.68421469,985.97188,-887.64613)"
   gradientUnits="userSpaceOnUse">
		<stop
   offset="0"
   style="stop-color:#E1CEC0"
   id="stop101" />
		<stop
   offset="0.761"
   style="stop-color:#E0CDBE"
   id="stop102" />
		<stop
   offset="1"
   style="stop-color:#DCC9B9"
   id="stop103" />
	</radialGradient>
	
	
		<radialGradient
   id="SVGID_00000023271670121255412580000014745766858599489424_"
   cx="-1556.7609"
   cy="1306.0997"
   r="1.7342"
   gradientTransform="matrix(0.62323278,0,0,0.68421469,985.97188,-880.11982)"
   gradientUnits="userSpaceOnUse">
		<stop
   offset="0"
   style="stop-color:#E1CEC0"
   id="stop104" />
		<stop
   offset="0.761"
   style="stop-color:#E0CDBE"
   id="stop105" />
		<stop
   offset="1"
   style="stop-color:#DCC9B9"
   id="stop106" />
	</radialGradient>
	
	
		<radialGradient
   id="SVGID_00000093146561591346411050000017874754504161969285_"
   cx="-1556.7609"
   cy="1301.8096"
   r="1.733"
   gradientTransform="matrix(0.62323278,0,0,0.68421469,985.97188,-872.59405)"
   gradientUnits="userSpaceOnUse">
		<stop
   offset="0"
   style="stop-color:#E1CEC0"
   id="stop107" />
		<stop
   offset="0.761"
   style="stop-color:#E0CDBE"
   id="stop108" />
		<stop
   offset="1"
   style="stop-color:#DCC9B9"
   id="stop109" />
	</radialGradient>
	
	
		<radialGradient
   id="SVGID_00000124154437391672708990000002450479196596738238_"
   cx="-1556.7609"
   cy="1297.5177"
   r="1.7336"
   gradientTransform="matrix(0.62323278,0,0,0.68421469,985.97188,-865.06833)"
   gradientUnits="userSpaceOnUse">
		<stop
   offset="0"
   style="stop-color:#E1CEC0"
   id="stop110" />
		<stop
   offset="0.761"
   style="stop-color:#E0CDBE"
   id="stop111" />
		<stop
   offset="1"
   style="stop-color:#DCC9B9"
   id="stop112" />
	</radialGradient>
	
	
		<radialGradient
   id="SVGID_00000034058293124216951570000006641406590055667894_"
   cx="-1556.7609"
   cy="1293.2249"
   r="1.7339"
   gradientTransform="matrix(0.62323278,0,0,0.68421469,985.97188,-857.54231)"
   gradientUnits="userSpaceOnUse">
		<stop
   offset="0"
   style="stop-color:#E1CEC0"
   id="stop113" />
		<stop
   offset="0.761"
   style="stop-color:#E0CDBE"
   id="stop114" />
		<stop
   offset="1"
   style="stop-color:#DCC9B9"
   id="stop115" />
	</radialGradient>
	
	
		<radialGradient
   id="SVGID_00000042694802152741533360000006474553379895889032_"
   cx="-1556.7609"
   cy="1288.9327"
   r="1.7342"
   gradientTransform="matrix(0.62323278,0,0,0.68421469,985.97188,-850.01604)"
   gradientUnits="userSpaceOnUse">
		<stop
   offset="0"
   style="stop-color:#E1CEC0"
   id="stop116" />
		<stop
   offset="0.761"
   style="stop-color:#E0CDBE"
   id="stop117" />
		<stop
   offset="1"
   style="stop-color:#DCC9B9"
   id="stop118" />
	</radialGradient>
	
	
		<radialGradient
   id="SVGID_00000111901877872900564700000014159718068513697190_"
   cx="-1556.7609"
   cy="1284.642"
   r="1.7334"
   gradientTransform="matrix(0.62323278,0,0,0.68421469,985.97188,-842.49032)"
   gradientUnits="userSpaceOnUse">
		<stop
   offset="0"
   style="stop-color:#E1CEC0"
   id="stop119" />
		<stop
   offset="0.761"
   style="stop-color:#E0CDBE"
   id="stop120" />
		<stop
   offset="1"
   style="stop-color:#DCC9B9"
   id="stop121" />
	</radialGradient>
	
	
		<radialGradient
   id="SVGID_00000022538754652405687830000005864690060167237006_"
   cx="-1556.7609"
   cy="1280.3497"
   r="1.7334"
   gradientTransform="matrix(0.62323278,0,0,0.68421469,985.97188,-834.96406)"
   gradientUnits="userSpaceOnUse">
		<stop
   offset="0"
   style="stop-color:#E1CEC0"
   id="stop122" />
		<stop
   offset="0.761"
   style="stop-color:#E0CDBE"
   id="stop123" />
		<stop
   offset="1"
   style="stop-color:#DCC9B9"
   id="stop124" />
	</radialGradient>
	
	
		<radialGradient
   id="SVGID_00000059309292910592828090000012283058363263137190_"
   cx="-1556.7609"
   cy="1276.0603"
   r="1.7339"
   gradientTransform="matrix(0.62323278,0,0,0.68421469,985.97188,-827.43829)"
   gradientUnits="userSpaceOnUse">
		<stop
   offset="0"
   style="stop-color:#E1CEC0"
   id="stop125" />
		<stop
   offset="0.761"
   style="stop-color:#E0CDBE"
   id="stop126" />
		<stop
   offset="1"
   style="stop-color:#DCC9B9"
   id="stop127" />
	</radialGradient>
	
	
		<radialGradient
   id="SVGID_00000164515357396027012420000009309048799111497121_"
   cx="-1556.7609"
   cy="1271.7668"
   r="1.7334"
   gradientTransform="matrix(0.62323278,0,0,0.68421469,985.97188,-819.91212)"
   gradientUnits="userSpaceOnUse">
		<stop
   offset="0"
   style="stop-color:#E1CEC0"
   id="stop128" />
		<stop
   offset="0.761"
   style="stop-color:#E0CDBE"
   id="stop129" />
		<stop
   offset="1"
   style="stop-color:#DCC9B9"
   id="stop130" />
	</radialGradient>
	
	
		<radialGradient
   id="SVGID_00000078021694386518579320000000195962685941464961_"
   cx="-1556.7609"
   cy="1267.4753"
   r="1.733"
   gradientTransform="matrix(0.62323278,0,0,0.68421469,985.97188,-812.3863)"
   gradientUnits="userSpaceOnUse">
		<stop
   offset="0"
   style="stop-color:#E1CEC0"
   id="stop131" />
		<stop
   offset="0.761"
   style="stop-color:#E0CDBE"
   id="stop132" />
		<stop
   offset="1"
   style="stop-color:#DCC9B9"
   id="stop133" />
	</radialGradient>
	
	
	
		<radialGradient
   id="SVGID_00000179631901819502847670000002313046964360062115_"
   cx="465.28549"
   cy="269.20731"
   r="33.883701"
   gradientTransform="matrix(0.7608654,0,0,0.98236136,-334.59177,-251.34342)"
   gradientUnits="userSpaceOnUse">
		<stop
   offset="0"
   style="stop-color:#5599ff;stop-opacity:1"
   id="stop145" />
		<stop
   offset="0.31479999"
   style="stop-color:#267dff;stop-opacity:1;"
   id="stop146" />
		<stop
   offset="0.7586"
   style="stop-color:#2a7fff;stop-opacity:1"
   id="stop147" />
		<stop
   offset="1"
   style="stop-color:#0053d0;stop-opacity:1;"
   id="stop148" />
	</radialGradient>
	
	
		<radialGradient
   id="SVGID_00000110451134532301891090000001961278411554218625_"
   cx="422.12851"
   cy="271.23071"
   r="41.8508"
   gradientTransform="matrix(0.91866577,0,0,0.98236136,-370.25146,-251.34342)"
   gradientUnits="userSpaceOnUse">
		<stop
   offset="0.1067"
   style="stop-color:#8d5fd3;stop-opacity:1"
   id="stop149" />
		<stop
   offset="0.5118"
   style="stop-color:#8d5fd3;stop-opacity:1"
   id="stop150" />
		<stop
   offset="1"
   style="stop-color:#8d5fd3;stop-opacity:1"
   id="stop151" />
	</radialGradient>
	

		
		
		
		
		
		
	
		
			<radialGradient
   id="SVGID_00000052091378501920612200000006059691176872464570_"
   cx="-498.31311"
   cy="565.55511"
   r="5.8572001"
   gradientTransform="matrix(1.1015529,0,0,1.1486751,623.04374,-631.95324)"
   gradientUnits="userSpaceOnUse">
			<stop
   offset="0"
   style="stop-color:#A0866A"
   id="stop134" />
			<stop
   offset="0.2596"
   style="stop-color:#9C8268"
   id="stop135" />
			<stop
   offset="0.5301"
   style="stop-color:#8F7861"
   id="stop136" />
			<stop
   offset="0.8045"
   style="stop-color:#7B6656"
   id="stop137" />
			<stop
   offset="1"
   style="stop-color:#67554B"
   id="stop138" />
		</radialGradient>
		
		
		
		
	
			
				<radialGradient
   id="SVGID_00000044889807405124194260000009933868313778631062_"
   cx="-498.314"
   cy="580.81989"
   r="7.6585999"
   gradientTransform="matrix(1.1015529,0,0,1.1486751,623.04374,-631.95324)"
   gradientUnits="userSpaceOnUse">
				<stop
   offset="0"
   style="stop-color:#A0866A"
   id="stop139" />
				<stop
   offset="0.2596"
   style="stop-color:#9C8268"
   id="stop140" />
				<stop
   offset="0.5301"
   style="stop-color:#8F7861"
   id="stop141" />
				<stop
   offset="0.8045"
   style="stop-color:#7B6656"
   id="stop142" />
				<stop
   offset="1"
   style="stop-color:#67554B"
   id="stop143" />
			</radialGradient>
			
		</defs><sodipodi:namedview
   id="namedview762"
   pagecolor="#ffffff"
   bordercolor="#000000"
   borderopacity="0.25"
   inkscape:showpageshadow="2"
   inkscape:pageopacity="0.0"
   inkscape:pagecheckerboard="0"
   inkscape:deskcolor="#d1d1d1"
   inkscape:zoom="8"
   inkscape:cx="25.4375"
   inkscape:cy="26.3125"
   inkscape:window-width="1920"
   inkscape:window-height="994"
   inkscape:window-x="0"
   inkscape:window-y="0"
   inkscape:window-maximized="1"
   inkscape:current-layer="Layer_1"
   showgrid="false"><inkscape:grid
     id="grid1"
     units="px"
     originx="0"
     originy="0"
     spacingx="0.99999997"
     spacingy="0.99999998"
     empcolor="#0099e5"
     empopacity="0.30196078"
     color="#0099e5"
     opacity="0.14901961"
     empspacing="5"
     enabled="true"
     visible="false" /></sodipodi:namedview>


<g
   id="g1"><path
     d="m 59.081109,50.189861 c 0,5.81014 -4.176201,9.110139 -9.326848,9.110139 H 12.324878 C 7.1752139,59.3 2.999997,55.219763 2.999997,50.189861 V 13.810139 c 0,-5.0303802 4.1752169,-9.1101391 9.324881,-9.1101391 h 37.429383 c 5.150647,0 9.326848,3.0998612 9.326848,8.9100001 z"
     id="path78"
     style="fill:#b7bec8;fill-opacity:1;stroke-width:0.987421"
     sodipodi:nodetypes="sssssssss" /><path
     style="fill:#b7bec8;stroke-width:0.485356;fill-opacity:1"
     d="m 58.142571,50.189862 c 0,5.030379 -4.106352,9.110138 -9.170426,9.110138 H 12.169438 C 7.1063484,59.3 2.999997,55.219763 2.999997,50.189862 V 13.810138 c 0,-5.0303792 4.1063514,-9.1101381 9.169441,-9.1101381 h 36.802707 c 5.064074,0 9.170426,4.0802377 9.170426,9.1101381 z"
     id="path79" /><g
     id="g2"><path
       style="fill:#ffaaaa;stroke-width:0.491538;fill-opacity:1"
       d="m 60.742243,43.740446 v 3.41518 c 0,1.767268 -1.339434,3.202989 -3.005979,3.247195 0.02509,0 0.05116,0.0039 0.07674,0.0039 h 0.10379 c 1.702454,0 3.083207,-1.455369 3.083207,-3.251125 v -3.41518 c 0,-1.794774 -1.380753,-3.251125 -3.083207,-3.251125 H 57.813 c -0.02607,0 -0.05165,0.0039 -0.07674,0.0039 1.666545,0.04371 3.005979,1.478945 3.005979,3.247195 z"
       id="path80" /><path
       style="fill:#d35f8d;stroke-width:0.491538"
       d="m 57.284703,50.356159 c 0.147077,0.02701 0.297598,0.04224 0.451561,0.04715 1.667037,-0.04421 3.005979,-1.480418 3.005979,-3.247195 v -3.415179 c 0,-1.768251 -1.339434,-3.20299 -3.005979,-3.247196 -0.153963,0.0039 -0.304484,0.02112 -0.451561,0.04814 z"
       id="path81" /></g><path
     style="fill:#ffeeaa;stroke-width:0.491538;fill-opacity:1"
     d="m 60.742243,29.923043 v 3.413214 c 0,1.769233 -1.339434,3.203972 -3.005979,3.248178 0.02509,0 0.05116,0.0039 0.07674,0.0039 h 0.10379 c 1.702454,0 3.083207,-1.45635 3.083207,-3.252107 v -3.413214 c 0,-1.795757 -1.380753,-3.252108 -3.083207,-3.252108 H 57.813 c -0.02607,0 -0.05165,0.0039 -0.07674,0.0039 1.666545,0.04224 3.005979,1.477962 3.005979,3.248178 z"
     id="path82" /><path
     style="fill:#ffd42a;stroke-width:0.491538;fill-opacity:1"
     d="m 57.284703,36.537773 c 0.147077,0.02603 0.297598,0.04322 0.451561,0.04715 1.667037,-0.04421 3.005979,-1.479436 3.005979,-3.248178 v -3.413214 c 0,-1.770215 -1.339434,-3.205936 -3.005979,-3.248178 -0.153963,0.0039 -0.304484,0.02112 -0.451561,0.04814 z"
     id="path83" /><path
     style="fill:#a1ffff;stroke-width:0.491538;fill-opacity:1"
     d="m 60.742243,16.104657 v 3.413214 c 0,1.770215 -1.339434,3.203972 -3.005979,3.24916 0.02509,0 0.05116,0.0029 0.07674,0.0029 h 0.10379 c 1.702454,0 3.083207,-1.455368 3.083207,-3.252107 V 16.10461 c 0,-1.795757 -1.380753,-3.252108 -3.083207,-3.252108 H 57.813 c -0.02607,0 -0.05165,0.0029 -0.07674,0.0049 1.666545,0.04322 3.005979,1.478454 3.005979,3.247196 z"
     id="path84" /><path
     style="fill:#00cccc;stroke-width:0.491538;fill-opacity:1"
     d="m 57.284703,22.719387 c 0.147077,0.02701 0.297598,0.04322 0.451561,0.04814 1.667037,-0.04519 3.005979,-1.479437 3.005979,-3.249161 v -3.413214 c 0,-1.769233 -1.339434,-3.203972 -3.005979,-3.247196 -0.153963,0.0029 -0.304484,0.01817 -0.451561,0.04519 z"
     id="path85" /><path
     style="fill:#939dac;fill-opacity:1;stroke-width:0.488898"
     d="m 57.333893,50.456382 c 0,5.104082 -4.045848,9.243618 -9.035646,9.243618 H 12.035151 C 7.0458451,59.7 3.0004889,55.559979 3.0004889,50.456382 V 13.543618 c 0,-5.1040823 4.0458481,-9.2436179 9.0346621,-9.2436179 h 36.263096 c 4.99029,0 9.035646,4.1400216 9.035646,9.2436179 z"
     id="path89" /><path
     style="fill:url(#SVGID_00000097500425902151924180000002286946989435723681_);stroke-width:0.491538"
     d="M 56.620643,52.656 C 56.620643,57.000001 52.999998,60 48.004,60 H 11.91562 C 6.9917365,60 2.999997,55.815141 2.999997,50.65627 V 12.144 c 0,-1.144 4.0000028,-8.1440001 8.915623,-8.1440001 H 47.504 c 5.495998,0 9.116643,3.0000002 9.116643,8.0440001 z"
     id="path95"
     sodipodi:nodetypes="sssssssss" /><path
     style="fill:url(#SVGID_00000119082666600208423750000005907981173642057379_);stroke-width:0.491538"
     d="m 17.733771,60 v 0 H 11 C 5.9999998,60 2.999997,57.000001 2.999997,52 V 12 C 2.999997,7.0000001 5.9999998,3.9999999 11,3.9999999 h 6.891178 v 0 z"
     id="path100"
     sodipodi:nodetypes="ccssssccc" /><path
     style="fill:#80b3ff;stroke-width:0.491538;fill-opacity:1"
     d="m 16.347607,9.8961328 c 0,0.3782092 -0.278414,0.6832322 -0.621757,0.6832322 v 0 c -0.343836,0 -0.622741,-0.305023 -0.622741,-0.6832322 V 8.1991036 c 0,-0.3782092 0.278413,-0.6842147 0.622741,-0.6842147 v 0 c 0.342851,0 0.621757,0.3060055 0.621757,0.6842147 z"
     id="path103" /><path
     style="fill:#80b3ff;stroke-width:0.491538;fill-opacity:1"
     d="m 16.347607,14.485234 c 0,0.377718 -0.278414,0.683232 -0.621757,0.683232 v 0 c -0.343836,0 -0.622741,-0.305023 -0.622741,-0.683232 v -1.698012 c 0,-0.378209 0.278413,-0.683232 0.622741,-0.683232 v 0 c 0.342851,0 0.621757,0.305023 0.621757,0.683232 z"
     id="path106" /><path
     style="fill:#80b3ff;stroke-width:0.491538;fill-opacity:1"
     d="m 16.347607,19.074826 c 0,0.378209 -0.278414,0.683232 -0.621757,0.683232 v 0 c -0.343836,0 -0.622741,-0.305023 -0.622741,-0.683232 v -1.698011 c 0,-0.376245 0.278413,-0.681268 0.622741,-0.681268 v 0 c 0.342851,0 0.621757,0.305023 0.621757,0.681268 z"
     id="path109" /><path
     style="fill:#80b3ff;stroke-width:0.491538;fill-opacity:1"
     d="m 16.347607,23.664418 c 0,0.376245 -0.278414,0.683233 -0.621757,0.683233 v 0 c -0.343836,0 -0.622741,-0.306988 -0.622741,-0.683233 v -1.698011 c 0,-0.377227 0.278413,-0.683232 0.622741,-0.683232 v 0 c 0.342851,0 0.621757,0.306005 0.621757,0.683232 z"
     id="path112" /><path
     style="fill:#80b3ff;stroke-width:0.491538;fill-opacity:1"
     d="m 16.347607,28.254011 c 0,0.376244 -0.278414,0.683232 -0.621757,0.683232 v 0 c -0.343836,0 -0.622741,-0.306988 -0.622741,-0.683232 v -1.696047 c 0,-0.378209 0.278413,-0.685197 0.622741,-0.685197 v 0 c 0.342851,0 0.621757,0.306988 0.621757,0.685197 z"
     id="path115" /><path
     style="fill:#80b3ff;stroke-width:0.491538;fill-opacity:1"
     d="m 16.347607,32.843112 c 0,0.377227 -0.278414,0.683232 -0.621757,0.683232 v 0 c -0.343836,0 -0.622741,-0.306005 -0.622741,-0.683232 v -1.697029 c 0,-0.377227 0.278413,-0.684215 0.622741,-0.684215 v 0 c 0.342851,0 0.621757,0.306988 0.621757,0.684215 z"
     id="path118" /><path
     style="fill:#80b3ff;stroke-width:0.491538;fill-opacity:1"
     d="m 16.347607,37.432704 c 0,0.377227 -0.278414,0.683232 -0.621757,0.683232 v 0 c -0.343836,0 -0.622741,-0.306005 -0.622741,-0.683232 v -1.697029 c 0,-0.377227 0.278413,-0.683232 0.622741,-0.683232 v 0 c 0.342851,0 0.621757,0.306005 0.621757,0.683232 z"
     id="path121" /><path
     style="fill:#80b3ff;stroke-width:0.491538;fill-opacity:1"
     d="m 16.347607,42.022296 c 0,0.377718 -0.278414,0.683233 -0.621757,0.683233 v 0 c -0.343836,0 -0.622741,-0.305024 -0.622741,-0.683233 v -1.696047 c 0,-0.378209 0.278413,-0.684214 0.622741,-0.684214 v 0 c 0.342851,0 0.621757,0.306005 0.621757,0.684214 z"
     id="path124" /><path
     style="fill:#80b3ff;stroke-width:0.491538;fill-opacity:1"
     d="m 16.347607,46.61238 c 0,0.377227 -0.278414,0.684214 -0.621757,0.684214 v 0 c -0.343836,0 -0.622741,-0.306987 -0.622741,-0.684214 v -1.696047 c 0,-0.3787 0.278413,-0.684215 0.622741,-0.684215 v 0 c 0.342851,0 0.621757,0.305023 0.621757,0.684215 z"
     id="path127" /><path
     style="fill:#80b3ff;stroke-width:0.491538;fill-opacity:1"
     d="m 16.347607,51.202954 c 0,0.376245 -0.278414,0.681268 -0.621757,0.681268 v 0 c -0.343836,0 -0.622741,-0.305023 -0.622741,-0.681268 v -1.698011 c 0,-0.378209 0.278413,-0.683232 0.622741,-0.683232 v 0 c 0.342851,0 0.621757,0.305023 0.621757,0.683232 z"
     id="path130" /><path
     style="fill:#80b3ff;stroke-width:0.491538;fill-opacity:1"
     d="m 16.347607,55.791564 c 0,0.378209 -0.278414,0.68225 -0.621757,0.68225 v 0 c -0.343836,0 -0.622741,-0.304041 -0.622741,-0.68225 v -1.698011 c 0,-0.377227 0.278413,-0.68225 0.622741,-0.68225 v 0 c 0.342851,0 0.621757,0.305023 0.621757,0.68225 z"
     id="path133" /></g>

















<g
   id="g3"
   transform="matrix(1.0077516,0,0,1,-0.38758898,0)"><path
     d="m 48.007206,34.861221 c -0.110061,0.401417 -0.243158,0.79602 -0.398017,1.182592 l 1.58334,1.261766 c -0.365676,0.813967 -0.815302,1.58834 -1.340174,2.310767 L 45.961184,38.88341 c -0.523,0.648813 -1.116908,1.236402 -1.771756,1.752854 l 0.741913,1.892655 c -0.725743,0.522643 -1.50311,0.970441 -2.320273,1.335371 l -1.279224,-1.587727 c -0.776739,0.303075 -1.585816,0.518319 -2.411066,0.641399 l -0.310323,2.015734 c -0.890552,0.08969 -1.787942,0.08844 -2.678477,-0.0041 v 0 l -0.310953,-2.011431 c -0.412929,-0.05692 -0.822757,-0.137308 -1.226982,-0.239982 -0.402991,-0.110087 -0.800378,-0.24184 -1.189058,-0.395853 l -1.268659,1.574719 c -0.818398,-0.363803 -1.597014,-0.810988 -2.32337,-1.333015 L 30.349892,40.64246 C 29.697523,40.122954 29.10674,39.532271 28.587456,38.880978 l -1.902978,0.737886 c -0.525493,-0.721803 -0.975751,-1.49495 -1.34266,-2.307662 l 1.596383,-1.272304 C 26.633484,35.266376 26.417063,34.461693 26.29393,33.640925 l -2.02674,-0.308639 c -0.09082,-0.885703 -0.08952,-1.778219 0.0036,-2.663934 l 2.022399,-0.30925 c 0.05723,-0.410699 0.138058,-0.818288 0.241294,-1.220331 0.11065,-0.401417 0.243155,-0.796018 0.39801,-1.182591 l -1.583274,-1.261768 c 0.36629,-0.813964 0.8153,-1.58834 1.34017,-2.310767 l 1.891789,0.732936 c 0.522382,-0.648812 1.116291,-1.2364 1.771767,-1.752853 l -0.742478,-1.892656 c 0.725748,-0.522641 1.503109,-0.97044 2.320895,-1.335367 l 1.278605,1.587725 c 0.776745,-0.303075 1.585822,-0.518319 2.411065,-0.641398 l 0.310323,-2.015735 c 0.890546,-0.08968 1.788553,-0.08844 2.678476,0.0041 l 0.310953,2.011401 c 0.41293,0.05692 0.822755,0.137308 1.226981,0.239982 0.403606,0.110063 0.800374,0.241838 1.189059,0.395853 l 1.268668,-1.574721 c 0.818403,0.36369 1.597016,0.810873 2.323372,1.332893 l -0.736935,1.881518 c 0.652368,0.519546 1.243161,1.110228 1.762434,1.76152 l 1.902984,-0.737883 c 0.525502,0.721802 0.975746,1.494946 1.342662,2.307673 l -1.59576,1.272293 c 0.215177,0.546767 0.386821,1.109616 0.386821,1.109616 0.06897,0.316058 -0.152989,0.573357 -0.496265,0.573357 h -0.77116 c -0.343282,0 -0.690919,-0.269051 -0.775503,-0.599952 -0.04167,-0.164526 -0.347009,-0.901797 -0.749995,-1.595766 -1.213926,-2.091189 -3.213301,-3.617062 -5.557828,-4.241756 -2.345144,-0.624697 -4.843896,-0.298127 -6.945887,0.909213 -2.102609,1.20733 -3.636805,3.195851 -4.264915,5.528261 -0.628114,2.331797 -0.299125,4.816979 0.914177,6.907554 1.213927,2.09119 3.213307,3.617058 5.55845,4.241755 2.344528,0.624701 4.843273,0.298126 6.945265,-0.909213 2.102607,-1.207337 3.636812,-3.195855 4.103843,-4.930783 0.08892,-0.329663 0.43968,-0.597482 0.78296,-0.597482 h 0.770529 c 0.343281,0 0.587685,0.151531 0.545395,0.337706 z m -16.220123,-0.571503 3.275486,3.257698 1.637441,-4.886247 z m 1.961442,-8.104988 v 0 c -0.340185,0.209056 -0.788563,0.10451 -1.000627,-0.232565 v 0 c -0.212061,-0.337086 -0.10819,-0.782417 0.231962,-0.993328 v 0 c 1.322762,-0.818301 2.84888,-1.250629 4.404232,-1.250629 1.409823,0 2.798502,0.356872 4.034816,1.034146 v 0 c 0.35012,0.193598 0.476365,0.632744 0.282337,0.980963 v 0 c -0.194027,0.348217 -0.635568,0.474402 -0.9857,0.281416 v 0 c -1.018647,-0.562836 -2.16417,-0.854774 -3.331453,-0.854774 -1.286692,0 -2.54478,0.356872 -3.635567,1.034771 z m -2.421646,9.077908 v 0 c 0.192166,0.350073 0.06222,0.788603 -0.289794,0.979097 v 0 c -0.352613,0.189889 -0.792291,0.06 -0.982589,-0.2907 v 0 c -0.663552,-1.211051 -1.007465,-2.570531 -1.007465,-3.951053 0,-1.052711 0.199,-2.094897 0.590797,-3.067819 v 0 c 0.148005,-0.37049 0.570277,-0.551101 0.942161,-0.403896 v 0 c 0.372513,0.147204 0.554108,0.567182 0.406101,0.937045 v 0 c -0.326493,0.804072 -0.489436,1.665662 -0.489436,2.53467 0,1.1393 0.286694,2.260663 0.830225,3.262656 z m 9.250608,2.804951 v 0 c 0.354477,-0.183079 0.792907,-0.04583 0.978861,0.306157 v 0 c 0.185941,0.352554 0.04973,0.788615 -0.304731,0.973547 v 0 c -1.192158,0.620369 -2.519274,0.944461 -3.867525,0.944461 -1.297888,0 -2.580852,-0.298741 -3.740667,-0.879516 v 0 C 33.285206,39.233482 33.14031,38.798672 33.32066,38.442414 v 0 c 0.179718,-0.356275 0.616915,-0.49977 0.975122,-0.321013 v 0 c 0.957084,0.479965 2.015543,0.728602 3.08831,0.728602 1.112547,0 2.207706,-0.266574 3.193395,-0.782414 z m 3.262434,-8.461246 v 0 c -0.139916,-0.372345 0.05099,-0.787376 0.42599,-0.926539 v 0 c 0.375005,-0.139792 0.793537,0.05137 0.93346,0.424914 v 0 c 0.344528,0.926538 0.521768,1.907499 0.521768,2.895264 0,1.305054 -0.30784,2.595892 -0.906095,3.760559 v 0 c -0.17973,0.35378 -0.616293,0.494182 -0.973257,0.313585 v 0 C 43.484829,35.892902 43.342412,35.45808 43.524625,35.104298 v 0 c 0.493153,-0.963024 0.746892,-2.026258 0.746892,-3.104316 0,-0.818289 -0.144899,-1.626069 -0.431596,-2.393639 z m -12.513042,7.840879 c 0,-0.397707 0.32463,-0.720569 0.725126,-0.720569 0.39988,0 0.724495,0.322862 0.724495,0.720569 0,0.398322 -0.324615,0.721186 -0.724495,0.721186 -0.400496,0 -0.725126,-0.322864 -0.725126,-0.721186 z M 42.303237,27.075381 c 0,-0.398322 0.324616,-0.721187 0.725113,-0.721187 0.399881,0 0.72451,0.322865 0.72451,0.721187 0,0.397709 -0.324629,0.721187 -0.72451,0.721187 -0.400497,0 -0.725113,-0.323478 -0.725113,-0.721187 z m -11.612544,0 c 0,0.397709 0.324617,0.721187 0.725113,0.721187 0.39988,0 0.72451,-0.323478 0.72451,-0.721187 0,-0.398322 -0.32463,-0.721187 -0.72451,-0.721187 -0.400496,0 -0.725113,0.322865 -0.725113,0.721187 z m 11.445873,10.371841 c 0,0.398322 0.324627,0.721186 0.724504,0.721186 0.4005,0 0.725118,-0.322864 0.725118,-0.721186 0,-0.397707 -0.324618,-0.720569 -0.725118,-0.720569 -0.399877,0 -0.724504,0.322862 -0.724504,0.720569 z"
     fill-rule="evenodd"
     fill="url(#_lgradient_39)"
     id="path2-5"
     style="color:#ffffff;isolation:isolate;fill:#ffffff;fill-opacity:0.501961;stroke-width:0.620199"
     class="ColorScheme-Text" /><path
     d="m 48.807206,34.861221 c -0.110061,0.40142 -0.243158,0.79602 -0.398017,1.18259 l 1.58334,1.26177 c -0.365676,0.81397 -0.815302,1.58834 -1.340174,2.31077 l -1.891171,-0.73294 c -0.523,0.64881 -1.116908,1.2364 -1.771756,1.75285 l 0.741913,1.89266 c -0.725743,0.52264 -1.50311,0.97044 -2.320273,1.33537 l -1.279224,-1.58773 c -0.776739,0.30308 -1.585816,0.51832 -2.411066,0.6414 l -0.310323,2.01574 c -0.890552,0.0897 -1.787942,0.0884 -2.678477,-0.004 v 0 l -0.310953,-2.01143 c -0.412929,-0.0569 -0.822757,-0.13731 -1.226982,-0.23999 -0.402991,-0.11008 -0.800378,-0.24184 -1.189058,-0.39585 l -1.268659,1.57472 c -0.818398,-0.3638 -1.597014,-0.81099 -2.32337,-1.33302 l 0.736936,-1.88157 c -0.652369,-0.51951 -1.243152,-1.11019 -1.762436,-1.76148 l -1.902978,0.73788 c -0.525493,-0.7218 -0.975751,-1.49495 -1.34266,-2.30766 l 1.596383,-1.2723 c -0.304717,-0.77262 -0.521138,-1.57731 -0.644271,-2.39808 l -2.02674,-0.30863 c -0.09082,-0.88571 -0.08952,-1.77822 0.0036,-2.66394 l 2.022399,-0.30925 c 0.05723,-0.4107 0.138058,-0.81829 0.241294,-1.220329 0.11065,-0.401417 0.243155,-0.796018 0.39801,-1.182591 l -1.583274,-1.261768 c 0.36629,-0.813964 0.8153,-1.58834 1.34017,-2.310767 l 1.891789,0.732936 c 0.522382,-0.648813 1.116291,-1.2364 1.771767,-1.752853 l -0.742478,-1.892657 c 0.725748,-0.52264 1.503109,-0.970439 2.320895,-1.335367 l 1.278605,1.587726 c 0.776745,-0.303076 1.585822,-0.51832 2.411065,-0.641398 l 0.310323,-2.015736 c 0.890546,-0.08968 1.788553,-0.08844 2.678476,0.0041 l 0.310953,2.011401 c 0.41293,0.05692 0.822755,0.137309 1.226981,0.239982 0.403606,0.110063 0.800374,0.241838 1.189059,0.395853 l 1.268668,-1.57472 c 0.818403,0.36369 1.597016,0.810873 2.323372,1.332893 l -0.736935,1.881518 c 0.652368,0.519546 1.243161,1.110228 1.762434,1.76152 l 1.902984,-0.737883 c 0.525502,0.721802 0.975746,1.494946 1.342662,2.307673 l -1.59576,1.272293 c 0.215177,0.546767 0.386821,1.109616 0.386821,1.109616 0.06897,0.316058 -0.152989,0.573358 -0.496265,0.573358 h -0.77116 c -0.343282,0 -0.690919,-0.269052 -0.775503,-0.599953 -0.04167,-0.164526 -0.347009,-0.901797 -0.749995,-1.595766 -1.213926,-2.091189 -3.213301,-3.617062 -5.557828,-4.241756 -2.345144,-0.624697 -4.843896,-0.298127 -6.945887,0.909213 -2.102609,1.20733 -3.636805,3.195851 -4.264915,5.528262 -0.628114,2.3318 -0.299125,4.81698 0.914177,6.90755 1.213927,2.09119 3.213307,3.61706 5.55845,4.24176 2.344528,0.6247 4.843273,0.29812 6.945265,-0.90921 2.102607,-1.20734 3.636812,-3.19586 4.103843,-4.93079 0.08892,-0.32966 0.43968,-0.59748 0.78296,-0.59748 h 0.770529 c 0.343281,0 0.587685,0.151529 0.545395,0.33771 z m -16.220123,-0.5715 3.275486,3.2577 1.637441,-4.88625 z m 1.961442,-8.10499 v 0 c -0.340185,0.209056 -0.788563,0.10451 -1.000627,-0.232565 v 0 c -0.212061,-0.337086 -0.10819,-0.782417 0.231962,-0.993328 v 0 c 1.322762,-0.818301 2.84888,-1.250629 4.404232,-1.250629 1.409823,0 2.798502,0.356872 4.034816,1.034146 v 0 c 0.35012,0.193598 0.476365,0.632744 0.282337,0.980963 v 0 c -0.194027,0.348217 -0.635568,0.474402 -0.9857,0.281416 v 0 c -1.018647,-0.562836 -2.16417,-0.854774 -3.331453,-0.854774 -1.286692,0 -2.54478,0.356872 -3.635567,1.034771 z m -2.421646,9.07791 v 0 c 0.192166,0.35007 0.06222,0.7886 -0.289794,0.97909 v 0 c -0.352613,0.18989 -0.792291,0.06 -0.982589,-0.2907 v 0 c -0.663552,-1.21105 -1.007465,-2.57053 -1.007465,-3.95105 0,-1.05271 0.199,-2.0949 0.590797,-3.067817 v 0 c 0.148005,-0.37049 0.570277,-0.551101 0.942161,-0.403896 v 0 c 0.372513,0.147204 0.554108,0.567182 0.406101,0.937045 v 0 c -0.326493,0.804068 -0.489436,1.665658 -0.489436,2.534668 0,1.1393 0.286694,2.26066 0.830225,3.26266 z m 9.250608,2.80495 v 0 c 0.354477,-0.18308 0.792907,-0.0458 0.978861,0.30616 v 0 c 0.185941,0.35255 0.04973,0.78861 -0.304731,0.97354 v 0 c -1.192158,0.62037 -2.519274,0.94446 -3.867525,0.94446 -1.297888,0 -2.580852,-0.29874 -3.740667,-0.87951 v 0 c -0.358219,-0.17876 -0.503115,-0.61357 -0.322765,-0.96983 v 0 c 0.179718,-0.35627 0.616915,-0.49977 0.975122,-0.32101 v 0 c 0.957084,0.47997 2.015543,0.7286 3.08831,0.7286 1.112547,0 2.207706,-0.26657 3.193395,-0.78241 z m 3.262434,-8.46125 v 0 c -0.139916,-0.372342 0.05099,-0.787373 0.42599,-0.926536 v 0 c 0.375005,-0.139792 0.793537,0.05137 0.93346,0.424914 v 0 c 0.344528,0.926542 0.521768,1.907502 0.521768,2.895262 0,1.30506 -0.30784,2.59589 -0.906095,3.76056 v 0 c -0.17973,0.35378 -0.616293,0.49418 -0.973257,0.31359 v 0 c -0.356958,-0.18123 -0.499375,-0.61605 -0.317162,-0.96983 v 0 c 0.493153,-0.96303 0.746892,-2.02626 0.746892,-3.10432 0,-0.81829 -0.144899,-1.62607 -0.431596,-2.39364 z m -12.513042,7.84088 c 0,-0.3977 0.32463,-0.72057 0.725126,-0.72057 0.39988,0 0.724495,0.32287 0.724495,0.72057 0,0.39832 -0.324615,0.72119 -0.724495,0.72119 -0.400496,0 -0.725126,-0.32287 -0.725126,-0.72119 z M 43.103237,27.075382 c 0,-0.398322 0.324616,-0.721187 0.725113,-0.721187 0.399881,0 0.72451,0.322865 0.72451,0.721187 0,0.397709 -0.324629,0.721187 -0.72451,0.721187 -0.400497,0 -0.725113,-0.323478 -0.725113,-0.721187 z m -11.612544,0 c 0,0.397709 0.324617,0.721187 0.725113,0.721187 0.39988,0 0.72451,-0.323478 0.72451,-0.721187 0,-0.398322 -0.32463,-0.721187 -0.72451,-0.721187 -0.400496,0 -0.725113,0.322865 -0.725113,0.721187 z m 11.445873,10.371839 c 0,0.39832 0.324627,0.72119 0.724504,0.72119 0.4005,0 0.725118,-0.32287 0.725118,-0.72119 0,-0.3977 -0.324618,-0.72057 -0.725118,-0.72057 -0.399877,0 -0.724504,0.32287 -0.724504,0.72057 z"
     fill-rule="evenodd"
     fill="url(#_lgradient_39)"
     id="path2-5-2"
     style="color:#ffffff;isolation:isolate;fill:#21262b;fill-opacity:1;stroke-width:0.620199"
     class="ColorScheme-Text" /></g></svg>
