<?xml version="1.0" encoding="UTF-8" standalone="no"?>
<!-- Generator: Adobe Illustrator 27.5.0, SVG Export Plug-In . SVG Version: 6.00 Build 0)  -->

<svg
   version="1.1"
   id="Layer_1"
   x="0px"
   y="0px"
   viewBox="0 0 63.999998 63.999999"
   xml:space="preserve"
   sodipodi:docname="folder-games.svg"
   inkscape:version="1.4.3 (unknown)"
   width="64"
   height="64"
   xmlns:inkscape="http://www.inkscape.org/namespaces/inkscape"
   xmlns:sodipodi="http://sodipodi.sourceforge.net/DTD/sodipodi-0.dtd"
   xmlns="http://www.w3.org/2000/svg"
   xmlns:svg="http://www.w3.org/2000/svg"><defs
   id="defs762">
	
		<radialGradient
   id="SVGID_00000022534578410790736700000013999825567828354183_"
   cx="422.99371"
   cy="288.32251"
   r="28.502399"
   gradientTransform="matrix(0.98379286,0,0,0.98236136,-385.19832,-251.34342)"
   gradientUnits="userSpaceOnUse">
		<stop
   offset="0"
   style="stop-color:#A0866A"
   id="stop74" />
		<stop
   offset="0.2596"
   style="stop-color:#9C8268"
   id="stop75" />
		<stop
   offset="0.5301"
   style="stop-color:#8F7861"
   id="stop76" />
		<stop
   offset="0.8045"
   style="stop-color:#7B6656"
   id="stop77" />
		<stop
   offset="1"
   style="stop-color:#67554B"
   id="stop78" />
	</radialGradient>
	
	
	
	
		<radialGradient
   id="SVGID_00000125562367361927050560000001190537805866180488_"
   cx="417.22159"
   cy="288.32251"
   r="27.744699"
   gradientTransform="matrix(1.0074039,0,0,0.98236136,-390.24016,-251.34342)"
   gradientUnits="userSpaceOnUse">
		<stop
   offset="0"
   style="stop-color:#A0866A"
   id="stop85" />
		<stop
   offset="0.2596"
   style="stop-color:#9C8268"
   id="stop86" />
		<stop
   offset="0.5301"
   style="stop-color:#8F7861"
   id="stop87" />
		<stop
   offset="0.8045"
   style="stop-color:#7B6656"
   id="stop88" />
		<stop
   offset="1"
   style="stop-color:#67554B"
   id="stop89" />
	</radialGradient>
	
	
		<radialGradient
   id="SVGID_00000097500425902151924180000002286946989435723681_"
   cx="405.16061"
   cy="259.82541"
   r="73.946198"
   gradientTransform="matrix(0.94060435,0,0,0.98236136,-375.80615,-251.34342)"
   gradientUnits="userSpaceOnUse">
		<stop
   offset="0"
   style="stop-color:#535d6c;stop-opacity:1"
   id="stop90" />
		<stop
   offset="0.2284"
   style="stop-color:#373e48;stop-opacity:1"
   id="stop91" />
		<stop
   offset="0.4664"
   style="stop-color:#373e48;stop-opacity:1"
   id="stop92" />
		<stop
   offset="0.70889997"
   style="stop-color:#48515e;stop-opacity:1;"
   id="stop93" />
		<stop
   offset="0.95289999"
   style="stop-color:#373e48;stop-opacity:1"
   id="stop94" />
		<stop
   offset="1"
   style="stop-color:#373e48;stop-opacity:1"
   id="stop95" />
	</radialGradient>
	
	
		<radialGradient
   id="SVGID_00000119082666600208423750000005907981173642057379_"
   cx="425.73099"
   cy="288.43094"
   r="67.4496"
   gradientTransform="matrix(0.82943576,0,0,0.98236136,-350.11651,-251.34342)"
   gradientUnits="userSpaceOnUse"
   fx="425.73099"
   fy="288.43094">
		<stop
   offset="0"
   style="stop-color:#939dac;stop-opacity:1"
   id="stop96" />
		<stop
   offset="0.25960001"
   style="stop-color:#535d6c;stop-opacity:1"
   id="stop97" />
		<stop
   offset="0.5301"
   style="stop-color:#535d6c;stop-opacity:1"
   id="stop98" />
		<stop
   offset="0.8045"
   style="stop-color:#373e48;stop-opacity:1"
   id="stop99" />
		<stop
   offset="1"
   style="stop-color:#373e48;stop-opacity:1"
   id="stop100" />
	</radialGradient>
	
	
		<radialGradient
   id="SVGID_00000165928333602235411140000014852226284911233709_"
   cx="-1556.7609"
   cy="1310.3918"
   r="1.7343"
   gradientTransform="matrix(0.62323278,0,0,0.68421469,985.97188,-887.64613)"
   gradientUnits="userSpaceOnUse">
		<stop
   offset="0"
   style="stop-color:#E1CEC0"
   id="stop101" />
		<stop
   offset="0.761"
   style="stop-color:#E0CDBE"
   id="stop102" />
		<stop
   offset="1"
   style="stop-color:#DCC9B9"
   id="stop103" />
	</radialGradient>
	
	
		<radialGradient
   id="SVGID_00000023271670121255412580000014745766858599489424_"
   cx="-1556.7609"
   cy="1306.0997"
   r="1.7342"
   gradientTransform="matrix(0.62323278,0,0,0.68421469,985.97188,-880.11982)"
   gradientUnits="userSpaceOnUse">
		<stop
   offset="0"
   style="stop-color:#E1CEC0"
   id="stop104" />
		<stop
   offset="0.761"
   style="stop-color:#E0CDBE"
   id="stop105" />
		<stop
   offset="1"
   style="stop-color:#DCC9B9"
   id="stop106" />
	</radialGradient>
	
	
		<radialGradient
   id="SVGID_00000093146561591346411050000017874754504161969285_"
   cx="-1556.7609"
   cy="1301.8096"
   r="1.733"
   gradientTransform="matrix(0.62323278,0,0,0.68421469,985.97188,-872.59405)"
   gradientUnits="userSpaceOnUse">
		<stop
   offset="0"
   style="stop-color:#E1CEC0"
   id="stop107" />
		<stop
   offset="0.761"
   style="stop-color:#E0CDBE"
   id="stop108" />
		<stop
   offset="1"
   style="stop-color:#DCC9B9"
   id="stop109" />
	</radialGradient>
	
	
		<radialGradient
   id="SVGID_00000124154437391672708990000002450479196596738238_"
   cx="-1556.7609"
   cy="1297.5177"
   r="1.7336"
   gradientTransform="matrix(0.62323278,0,0,0.68421469,985.97188,-865.06833)"
   gradientUnits="userSpaceOnUse">
		<stop
   offset="0"
   style="stop-color:#E1CEC0"
   id="stop110" />
		<stop
   offset="0.761"
   style="stop-color:#E0CDBE"
   id="stop111" />
		<stop
   offset="1"
   style="stop-color:#DCC9B9"
   id="stop112" />
	</radialGradient>
	
	
		<radialGradient
   id="SVGID_00000034058293124216951570000006641406590055667894_"
   cx="-1556.7609"
   cy="1293.2249"
   r="1.7339"
   gradientTransform="matrix(0.62323278,0,0,0.68421469,985.97188,-857.54231)"
   gradientUnits="userSpaceOnUse">
		<stop
   offset="0"
   style="stop-color:#E1CEC0"
   id="stop113" />
		<stop
   offset="0.761"
   style="stop-color:#E0CDBE"
   id="stop114" />
		<stop
   offset="1"
   style="stop-color:#DCC9B9"
   id="stop115" />
	</radialGradient>
	
	
		<radialGradient
   id="SVGID_00000042694802152741533360000006474553379895889032_"
   cx="-1556.7609"
   cy="1288.9327"
   r="1.7342"
   gradientTransform="matrix(0.62323278,0,0,0.68421469,985.97188,-850.01604)"
   gradientUnits="userSpaceOnUse">
		<stop
   offset="0"
   style="stop-color:#E1CEC0"
   id="stop116" />
		<stop
   offset="0.761"
   style="stop-color:#E0CDBE"
   id="stop117" />
		<stop
   offset="1"
   style="stop-color:#DCC9B9"
   id="stop118" />
	</radialGradient>
	
	
		<radialGradient
   id="SVGID_00000111901877872900564700000014159718068513697190_"
   cx="-1556.7609"
   cy="1284.642"
   r="1.7334"
   gradientTransform="matrix(0.62323278,0,0,0.68421469,985.97188,-842.49032)"
   gradientUnits="userSpaceOnUse">
		<stop
   offset="0"
   style="stop-color:#E1CEC0"
   id="stop119" />
		<stop
   offset="0.761"
   style="stop-color:#E0CDBE"
   id="stop120" />
		<stop
   offset="1"
   style="stop-color:#DCC9B9"
   id="stop121" />
	</radialGradient>
	
	
		<radialGradient
   id="SVGID_00000022538754652405687830000005864690060167237006_"
   cx="-1556.7609"
   cy="1280.3497"
   r="1.7334"
   gradientTransform="matrix(0.62323278,0,0,0.68421469,985.97188,-834.96406)"
   gradientUnits="userSpaceOnUse">
		<stop
   offset="0"
   style="stop-color:#E1CEC0"
   id="stop122" />
		<stop
   offset="0.761"
   style="stop-color:#E0CDBE"
   id="stop123" />
		<stop
   offset="1"
   style="stop-color:#DCC9B9"
   id="stop124" />
	</radialGradient>
	
	
		<radialGradient
   id="SVGID_00000059309292910592828090000012283058363263137190_"
   cx="-1556.7609"
   cy="1276.0603"
   r="1.7339"
   gradientTransform="matrix(0.62323278,0,0,0.68421469,985.97188,-827.43829)"
   gradientUnits="userSpaceOnUse">
		<stop
   offset="0"
   style="stop-color:#E1CEC0"
   id="stop125" />
		<stop
   offset="0.761"
   style="stop-color:#E0CDBE"
   id="stop126" />
		<stop
   offset="1"
   style="stop-color:#DCC9B9"
   id="stop127" />
	</radialGradient>
	
	
		<radialGradient
   id="SVGID_00000164515357396027012420000009309048799111497121_"
   cx="-1556.7609"
   cy="1271.7668"
   r="1.7334"
   gradientTransform="matrix(0.62323278,0,0,0.68421469,985.97188,-819.91212)"
   gradientUnits="userSpaceOnUse">
		<stop
   offset="0"
   style="stop-color:#E1CEC0"
   id="stop128" />
		<stop
   offset="0.761"
   style="stop-color:#E0CDBE"
   id="stop129" />
		<stop
   offset="1"
   style="stop-color:#DCC9B9"
   id="stop130" />
	</radialGradient>
	
	
		<radialGradient
   id="SVGID_00000078021694386518579320000000195962685941464961_"
   cx="-1556.7609"
   cy="1267.4753"
   r="1.733"
   gradientTransform="matrix(0.62323278,0,0,0.68421469,985.97188,-812.3863)"
   gradientUnits="userSpaceOnUse">
		<stop
   offset="0"
   style="stop-color:#E1CEC0"
   id="stop131" />
		<stop
   offset="0.761"
   style="stop-color:#E0CDBE"
   id="stop132" />
		<stop
   offset="1"
   style="stop-color:#DCC9B9"
   id="stop133" />
	</radialGradient>
	
	
	
		<radialGradient
   id="SVGID_00000179631901819502847670000002313046964360062115_"
   cx="465.28549"
   cy="269.20731"
   r="33.883701"
   gradientTransform="matrix(0.7608654,0,0,0.98236136,-334.59177,-251.34342)"
   gradientUnits="userSpaceOnUse">
		<stop
   offset="0"
   style="stop-color:#5599ff;stop-opacity:1"
   id="stop145" />
		<stop
   offset="0.31479999"
   style="stop-color:#267dff;stop-opacity:1;"
   id="stop146" />
		<stop
   offset="0.7586"
   style="stop-color:#2a7fff;stop-opacity:1"
   id="stop147" />
		<stop
   offset="1"
   style="stop-color:#0053d0;stop-opacity:1;"
   id="stop148" />
	</radialGradient>
	
	
		<radialGradient
   id="SVGID_00000110451134532301891090000001961278411554218625_"
   cx="422.12851"
   cy="271.23071"
   r="41.8508"
   gradientTransform="matrix(0.91866577,0,0,0.98236136,-370.25146,-251.34342)"
   gradientUnits="userSpaceOnUse">
		<stop
   offset="0.1067"
   style="stop-color:#8d5fd3;stop-opacity:1"
   id="stop149" />
		<stop
   offset="0.5118"
   style="stop-color:#8d5fd3;stop-opacity:1"
   id="stop150" />
		<stop
   offset="1"
   style="stop-color:#8d5fd3;stop-opacity:1"
   id="stop151" />
	</radialGradient>
	

		
		
		
		
		
		
	
		
			<radialGradient
   id="SVGID_00000052091378501920612200000006059691176872464570_"
   cx="-498.31311"
   cy="565.55511"
   r="5.8572001"
   gradientTransform="matrix(1.1015529,0,0,1.1486751,623.04374,-631.95324)"
   gradientUnits="userSpaceOnUse">
			<stop
   offset="0"
   style="stop-color:#A0866A"
   id="stop134" />
			<stop
   offset="0.2596"
   style="stop-color:#9C8268"
   id="stop135" />
			<stop
   offset="0.5301"
   style="stop-color:#8F7861"
   id="stop136" />
			<stop
   offset="0.8045"
   style="stop-color:#7B6656"
   id="stop137" />
			<stop
   offset="1"
   style="stop-color:#67554B"
   id="stop138" />
		</radialGradient>
		
		
		
		
	
			
				<radialGradient
   id="SVGID_00000044889807405124194260000009933868313778631062_"
   cx="-498.314"
   cy="580.81989"
   r="7.6585999"
   gradientTransform="matrix(1.1015529,0,0,1.1486751,623.04374,-631.95324)"
   gradientUnits="userSpaceOnUse">
				<stop
   offset="0"
   style="stop-color:#A0866A"
   id="stop139" />
				<stop
   offset="0.2596"
   style="stop-color:#9C8268"
   id="stop140" />
				<stop
   offset="0.5301"
   style="stop-color:#8F7861"
   id="stop141" />
				<stop
   offset="0.8045"
   style="stop-color:#7B6656"
   id="stop142" />
				<stop
   offset="1"
   style="stop-color:#67554B"
   id="stop143" />
			</radialGradient>
			
		</defs><sodipodi:namedview
   id="namedview762"
   pagecolor="#ffffff"
   bordercolor="#000000"
   borderopacity="0.25"
   inkscape:showpageshadow="2"
   inkscape:pageopacity="0.0"
   inkscape:pagecheckerboard="0"
   inkscape:deskcolor="#d1d1d1"
   inkscape:zoom="8"
   inkscape:cx="25.375"
   inkscape:cy="46.375"
   inkscape:window-width="1920"
   inkscape:window-height="994"
   inkscape:window-x="0"
   inkscape:window-y="0"
   inkscape:window-maximized="1"
   inkscape:current-layer="Layer_1"
   showgrid="false"><inkscape:grid
     id="grid1"
     units="px"
     originx="0"
     originy="0"
     spacingx="0.99999997"
     spacingy="0.99999998"
     empcolor="#0099e5"
     empopacity="0.30196078"
     color="#0099e5"
     opacity="0.14901961"
     empspacing="5"
     enabled="true"
     visible="false" /></sodipodi:namedview>


<g
   id="g1"><path
     d="m 59.081109,50.189861 c 0,5.81014 -4.176201,9.110139 -9.326848,9.110139 H 12.324878 C 7.1752139,59.3 2.999997,55.219763 2.999997,50.189861 V 13.810139 c 0,-5.0303802 4.1752169,-9.1101391 9.324881,-9.1101391 h 37.429383 c 5.150647,0 9.326848,3.0998612 9.326848,8.9100001 z"
     id="path78"
     style="fill:#b7bec8;fill-opacity:1;stroke-width:0.987421"
     sodipodi:nodetypes="sssssssss" /><path
     style="fill:#b7bec8;stroke-width:0.485356;fill-opacity:1"
     d="m 58.142571,50.189862 c 0,5.030379 -4.106352,9.110138 -9.170426,9.110138 H 12.169438 C 7.1063484,59.3 2.999997,55.219763 2.999997,50.189862 V 13.810138 c 0,-5.0303792 4.1063514,-9.1101381 9.169441,-9.1101381 h 36.802707 c 5.064074,0 9.170426,4.0802377 9.170426,9.1101381 z"
     id="path79" /><g
     id="g2"><path
       style="fill:#ffaaaa;stroke-width:0.491538;fill-opacity:1"
       d="m 60.742243,43.740446 v 3.41518 c 0,1.767268 -1.339434,3.202989 -3.005979,3.247195 0.02509,0 0.05116,0.0039 0.07674,0.0039 h 0.10379 c 1.702454,0 3.083207,-1.455369 3.083207,-3.251125 v -3.41518 c 0,-1.794774 -1.380753,-3.251125 -3.083207,-3.251125 H 57.813 c -0.02607,0 -0.05165,0.0039 -0.07674,0.0039 1.666545,0.04371 3.005979,1.478945 3.005979,3.247195 z"
       id="path80" /><path
       style="fill:#d35f8d;stroke-width:0.491538"
       d="m 57.284703,50.356159 c 0.147077,0.02701 0.297598,0.04224 0.451561,0.04715 1.667037,-0.04421 3.005979,-1.480418 3.005979,-3.247195 v -3.415179 c 0,-1.768251 -1.339434,-3.20299 -3.005979,-3.247196 -0.153963,0.0039 -0.304484,0.02112 -0.451561,0.04814 z"
       id="path81" /></g><path
     style="fill:#ffeeaa;stroke-width:0.491538;fill-opacity:1"
     d="m 60.742243,29.923043 v 3.413214 c 0,1.769233 -1.339434,3.203972 -3.005979,3.248178 0.02509,0 0.05116,0.0039 0.07674,0.0039 h 0.10379 c 1.702454,0 3.083207,-1.45635 3.083207,-3.252107 v -3.413214 c 0,-1.795757 -1.380753,-3.252108 -3.083207,-3.252108 H 57.813 c -0.02607,0 -0.05165,0.0039 -0.07674,0.0039 1.666545,0.04224 3.005979,1.477962 3.005979,3.248178 z"
     id="path82" /><path
     style="fill:#ffd42a;stroke-width:0.491538;fill-opacity:1"
     d="m 57.284703,36.537773 c 0.147077,0.02603 0.297598,0.04322 0.451561,0.04715 1.667037,-0.04421 3.005979,-1.479436 3.005979,-3.248178 v -3.413214 c 0,-1.770215 -1.339434,-3.205936 -3.005979,-3.248178 -0.153963,0.0039 -0.304484,0.02112 -0.451561,0.04814 z"
     id="path83" /><path
     style="fill:#a1ffff;stroke-width:0.491538;fill-opacity:1"
     d="m 60.742243,16.104657 v 3.413214 c 0,1.770215 -1.339434,3.203972 -3.005979,3.24916 0.02509,0 0.05116,0.0029 0.07674,0.0029 h 0.10379 c 1.702454,0 3.083207,-1.455368 3.083207,-3.252107 V 16.10461 c 0,-1.795757 -1.380753,-3.252108 -3.083207,-3.252108 H 57.813 c -0.02607,0 -0.05165,0.0029 -0.07674,0.0049 1.666545,0.04322 3.005979,1.478454 3.005979,3.247196 z"
     id="path84" /><path
     style="fill:#00cccc;stroke-width:0.491538;fill-opacity:1"
     d="m 57.284703,22.719387 c 0.147077,0.02701 0.297598,0.04322 0.451561,0.04814 1.667037,-0.04519 3.005979,-1.479437 3.005979,-3.249161 v -3.413214 c 0,-1.769233 -1.339434,-3.203972 -3.005979,-3.247196 -0.153963,0.0029 -0.304484,0.01817 -0.451561,0.04519 z"
     id="path85" /><path
     style="fill:#939dac;fill-opacity:1;stroke-width:0.488898"
     d="m 57.333893,50.456382 c 0,5.104082 -4.045848,9.243618 -9.035646,9.243618 H 12.035151 C 7.0458451,59.7 3.0004889,55.559979 3.0004889,50.456382 V 13.543618 c 0,-5.1040823 4.0458481,-9.2436179 9.0346621,-9.2436179 h 36.263096 c 4.99029,0 9.035646,4.1400216 9.035646,9.2436179 z"
     id="path89" /><path
     style="fill:url(#SVGID_00000097500425902151924180000002286946989435723681_);stroke-width:0.491538"
     d="M 56.620643,52.656 C 56.620643,57.000001 52.999998,60 48.004,60 H 11.91562 C 6.9917365,60 2.999997,55.815141 2.999997,50.65627 V 12.144 c 0,-1.144 4.0000028,-8.1440001 8.915623,-8.1440001 H 47.504 c 5.495998,0 9.116643,3.0000002 9.116643,8.0440001 z"
     id="path95"
     sodipodi:nodetypes="sssssssss" /><path
     style="fill:url(#SVGID_00000119082666600208423750000005907981173642057379_);stroke-width:0.491538"
     d="m 17.733771,60 v 0 H 11 C 5.9999998,60 2.999997,57.000001 2.999997,52 V 12 C 2.999997,7.0000001 5.9999998,3.9999999 11,3.9999999 h 6.891178 v 0 z"
     id="path100"
     sodipodi:nodetypes="ccssssccc" /><path
     style="fill:#80b3ff;stroke-width:0.491538;fill-opacity:1"
     d="m 16.347607,9.8961328 c 0,0.3782092 -0.278414,0.6832322 -0.621757,0.6832322 v 0 c -0.343836,0 -0.622741,-0.305023 -0.622741,-0.6832322 V 8.1991036 c 0,-0.3782092 0.278413,-0.6842147 0.622741,-0.6842147 v 0 c 0.342851,0 0.621757,0.3060055 0.621757,0.6842147 z"
     id="path103" /><path
     style="fill:#80b3ff;stroke-width:0.491538;fill-opacity:1"
     d="m 16.347607,14.485234 c 0,0.377718 -0.278414,0.683232 -0.621757,0.683232 v 0 c -0.343836,0 -0.622741,-0.305023 -0.622741,-0.683232 v -1.698012 c 0,-0.378209 0.278413,-0.683232 0.622741,-0.683232 v 0 c 0.342851,0 0.621757,0.305023 0.621757,0.683232 z"
     id="path106" /><path
     style="fill:#80b3ff;stroke-width:0.491538;fill-opacity:1"
     d="m 16.347607,19.074826 c 0,0.378209 -0.278414,0.683232 -0.621757,0.683232 v 0 c -0.343836,0 -0.622741,-0.305023 -0.622741,-0.683232 v -1.698011 c 0,-0.376245 0.278413,-0.681268 0.622741,-0.681268 v 0 c 0.342851,0 0.621757,0.305023 0.621757,0.681268 z"
     id="path109" /><path
     style="fill:#80b3ff;stroke-width:0.491538;fill-opacity:1"
     d="m 16.347607,23.664418 c 0,0.376245 -0.278414,0.683233 -0.621757,0.683233 v 0 c -0.343836,0 -0.622741,-0.306988 -0.622741,-0.683233 v -1.698011 c 0,-0.377227 0.278413,-0.683232 0.622741,-0.683232 v 0 c 0.342851,0 0.621757,0.306005 0.621757,0.683232 z"
     id="path112" /><path
     style="fill:#80b3ff;stroke-width:0.491538;fill-opacity:1"
     d="m 16.347607,28.254011 c 0,0.376244 -0.278414,0.683232 -0.621757,0.683232 v 0 c -0.343836,0 -0.622741,-0.306988 -0.622741,-0.683232 v -1.696047 c 0,-0.378209 0.278413,-0.685197 0.622741,-0.685197 v 0 c 0.342851,0 0.621757,0.306988 0.621757,0.685197 z"
     id="path115" /><path
     style="fill:#80b3ff;stroke-width:0.491538;fill-opacity:1"
     d="m 16.347607,32.843112 c 0,0.377227 -0.278414,0.683232 -0.621757,0.683232 v 0 c -0.343836,0 -0.622741,-0.306005 -0.622741,-0.683232 v -1.697029 c 0,-0.377227 0.278413,-0.684215 0.622741,-0.684215 v 0 c 0.342851,0 0.621757,0.306988 0.621757,0.684215 z"
     id="path118" /><path
     style="fill:#80b3ff;stroke-width:0.491538;fill-opacity:1"
     d="m 16.347607,37.432704 c 0,0.377227 -0.278414,0.683232 -0.621757,0.683232 v 0 c -0.343836,0 -0.622741,-0.306005 -0.622741,-0.683232 v -1.697029 c 0,-0.377227 0.278413,-0.683232 0.622741,-0.683232 v 0 c 0.342851,0 0.621757,0.306005 0.621757,0.683232 z"
     id="path121" /><path
     style="fill:#80b3ff;stroke-width:0.491538;fill-opacity:1"
     d="m 16.347607,42.022296 c 0,0.377718 -0.278414,0.683233 -0.621757,0.683233 v 0 c -0.343836,0 -0.622741,-0.305024 -0.622741,-0.683233 v -1.696047 c 0,-0.378209 0.278413,-0.684214 0.622741,-0.684214 v 0 c 0.342851,0 0.621757,0.306005 0.621757,0.684214 z"
     id="path124" /><path
     style="fill:#80b3ff;stroke-width:0.491538;fill-opacity:1"
     d="m 16.347607,46.61238 c 0,0.377227 -0.278414,0.684214 -0.621757,0.684214 v 0 c -0.343836,0 -0.622741,-0.306987 -0.622741,-0.684214 v -1.696047 c 0,-0.3787 0.278413,-0.684215 0.622741,-0.684215 v 0 c 0.342851,0 0.621757,0.305023 0.621757,0.684215 z"
     id="path127" /><path
     style="fill:#80b3ff;stroke-width:0.491538;fill-opacity:1"
     d="m 16.347607,51.202954 c 0,0.376245 -0.278414,0.681268 -0.621757,0.681268 v 0 c -0.343836,0 -0.622741,-0.305023 -0.622741,-0.681268 v -1.698011 c 0,-0.378209 0.278413,-0.683232 0.622741,-0.683232 v 0 c 0.342851,0 0.621757,0.305023 0.621757,0.683232 z"
     id="path130" /><path
     style="fill:#80b3ff;stroke-width:0.491538;fill-opacity:1"
     d="m 16.347607,55.791564 c 0,0.378209 -0.278414,0.68225 -0.621757,0.68225 v 0 c -0.343836,0 -0.622741,-0.304041 -0.622741,-0.68225 v -1.698011 c 0,-0.377227 0.278413,-0.68225 0.622741,-0.68225 v 0 c 0.342851,0 0.621757,0.305023 0.621757,0.68225 z"
     id="path133" /></g>

















<g
   id="g3"
   transform="matrix(0.99326595,0,0,0.97777787,-0.14646366,0.44444283)"><path
     fill-rule="evenodd"
     d="m 34.24883,31.459357 -0.849663,0.841592 v -1.667581 z m 12.953361,-6.557374 h 0.06297 a 0.59004006,0.58443664 0 0 1 0.44844,0.210453 c 2.647329,2.715688 4.051633,8.610706 3.744788,12.56149 a 7.8672009,7.7924887 0 0 1 -0.660833,2.774127 c -0.405055,0.829902 -0.991283,1.371495 -1.777991,1.515632 -0.999121,0.183132 -2.246087,-0.338965 -3.748733,-1.850711 L 44.668945,39.520682 A 17.307843,17.143475 0 0 1 42.607736,37.253094 H 31.695925 a 16.914481,16.753852 0 0 1 -2.065135,2.275389 q -0.306821,0.292225 -0.597907,0.584429 c -1.498707,1.515643 -2.753523,2.037751 -3.748725,1.850722 -0.786712,-0.13637 -1.376761,-0.689622 -1.781919,-1.507833 a 7.8672009,7.7924887 0 0 1 -0.660843,-2.778016 c -0.306825,-3.970272 1.105331,-9.900371 3.791983,-12.596582 a 0.59004006,0.58443664 0 0 1 0.416963,-0.175322 h 0.06287 c 1.656052,-2.255919 5.373298,-2.279305 7.029349,0 h 1.848798 c -0.145539,-3.459879 0.826058,-4.324846 2.257884,-4.422257 a 7.8672009,7.7924887 0 0 1 1.63245,0.14805 c 1.08567,0.179143 2.289356,0.374005 3.142945,-0.459762 a 0.57823915,0.57274784 0 0 1 0.826059,0 0.59004006,0.58443664 0 0 1 0,0.818209 c -1.278422,1.262424 -2.804657,1.01306 -4.157821,0.790965 a 6.6871202,6.6236146 0 0 0 -1.376752,-0.136322 c -0.770983,0.05067 -1.286282,0.693533 -1.168281,3.265036 h 3.017079 c 1.652106,-2.263687 5.373307,-2.271498 7.025421,0 z m -15.246653,3.646901 v 1.542902 h 1.553771 c 1.762253,0 1.762253,2.637769 0,2.637769 h -1.553771 v 1.539009 c 0,1.745518 -2.663047,1.745518 -2.663047,0 v -1.539009 h -1.553765 c -1.762257,0 -1.762257,-2.637769 0,-2.637769 h 1.553765 v -1.542902 c 0,-1.741648 2.663047,-1.741648 2.663047,0 m 12.162689,-1.340308 a 1.2272831,1.2156283 0 1 1 -1.738644,0 1.2194161,1.2078358 0 0 1 1.738644,0 m 0,5.306686 a 1.2272831,1.2156283 0 1 1 -1.738644,0 1.2194161,1.2078358 0 0 1 1.738644,0 m 2.950228,-2.774129 a 1.2272831,1.2156283 0 1 1 -1.738668,0 1.2312165,1.2195244 0 0 1 1.734722,0 z m -5.900427,0 a 1.2272831,1.2156283 0 1 1 -1.738644,0 1.2194161,1.2078358 0 0 1 1.738644,0 m -10.510579,-1.823442 0.849658,0.837678 h -1.687509 l 0.849652,-0.837678 z m -3.559906,3.545589 0.841789,0.837669 v -1.667581 l -0.845723,0.837675 z m 3.571707,3.533889 0.845727,-0.841602 h -1.691445 z"
     class="cls-1"
     opacity="0.15"
     id="path7"
     style="opacity:1;fill:#ffffff;fill-opacity:0.501961;stroke-width:4.16484" /><path
     fill-rule="evenodd"
     d="m 35.248832,31.959354 -0.849665,0.841593 v -1.667581 z m 12.953362,-6.557375 h 0.06297 a 0.5900402,0.58443674 0 0 1 0.448441,0.210454 c 2.647328,2.715689 4.051632,8.610708 3.744784,12.561493 a 7.8672028,7.7924901 0 0 1 -0.660834,2.774125 c -0.405053,0.829903 -0.991283,1.371496 -1.777993,1.515634 -0.999121,0.183133 -2.246085,-0.338963 -3.748733,-1.850712 l -0.601888,-0.59229 A 17.307848,17.143477 0 0 1 43.607743,37.753094 H 32.69593 a 16.914486,16.753854 0 0 1 -2.065138,2.275387 q -0.306819,0.292229 -0.597905,0.584432 c -1.498705,1.515641 -2.753524,2.03775 -3.748726,1.850719 C 25.497444,42.327264 24.9074,41.774012 24.502243,40.9558 a 7.8672028,7.7924901 0 0 1 -0.660848,-2.778019 c -0.30682,-3.970272 1.105337,-9.90037 3.791988,-12.59658 a 0.5900402,0.58443674 0 0 1 0.416961,-0.175323 h 0.06291 c 1.656052,-2.25592 5.373298,-2.279306 7.029351,0 h 1.84879 c -0.145536,-3.45988 0.826059,-4.324848 2.257888,-4.422258 a 7.8672028,7.7924901 0 0 1 1.63245,0.148049 c 1.08567,0.179145 2.289355,0.374006 3.142946,-0.459761 a 0.57823927,0.57274793 0 0 1 0.826056,0 0.5900402,0.58443674 0 0 1 0,0.818209 c -1.278419,1.262424 -2.804656,1.01306 -4.157819,0.790965 a 6.6871218,6.6236158 0 0 0 -1.376764,-0.136323 c -0.770983,0.05067 -1.286282,0.693534 -1.168286,3.265038 h 3.01708 c 1.65211,-2.263688 5.373312,-2.271499 7.025428,0 z m -15.246655,3.6469 v 1.542902 h 1.553772 c 1.762253,0 1.762253,2.63777 0,2.63777 h -1.553772 v 1.539013 c 0,1.745518 -2.663046,1.745518 -2.663046,0 v -1.539013 h -1.55377 c -1.762258,0 -1.762258,-2.63777 0,-2.63777 h 1.55377 v -1.542902 c 0,-1.741647 2.663046,-1.741647 2.663046,0 m 12.162692,-1.340306 a 1.2272834,1.2156284 0 1 1 -1.738648,0 1.2194161,1.2078359 0 0 1 1.738648,0 m 0,5.306684 a 1.2272834,1.2156284 0 1 1 -1.738648,0 1.2194161,1.2078359 0 0 1 1.738648,0 M 48.06846,30.24113 a 1.2272834,1.2156284 0 1 1 -1.738669,0 1.2312169,1.2195247 0 0 1 1.734725,0 z m -5.900428,0 a 1.2272834,1.2156284 0 1 1 -1.738647,0 1.2194161,1.2078359 0 0 1 1.738647,0 m -10.510584,-1.823442 0.84966,0.837678 h -1.687513 l 0.849657,-0.837678 z m -3.559908,3.545588 0.841791,0.837671 v -1.667581 l -0.845726,0.837674 z m 3.571712,3.533891 0.845723,-0.841602 h -1.691446 z"
     class="cls-1"
     opacity="0.15"
     id="path7-6"
     style="opacity:1;fill:#21262b;fill-opacity:1;stroke-width:4.16484" /></g></svg>
