<?xml version="1.0" encoding="UTF-8" standalone="no"?>
<!-- Generator: Adobe Illustrator 27.5.0, SVG Export Plug-In . SVG Version: 6.00 Build 0)  -->

<svg
   version="1.1"
   id="Layer_1"
   x="0px"
   y="0px"
   viewBox="0 0 63.999998 63.999999"
   xml:space="preserve"
   sodipodi:docname="folder-deb.svg"
   inkscape:version="1.4.3 (unknown)"
   width="64"
   height="64"
   xmlns:inkscape="http://www.inkscape.org/namespaces/inkscape"
   xmlns:sodipodi="http://sodipodi.sourceforge.net/DTD/sodipodi-0.dtd"
   xmlns="http://www.w3.org/2000/svg"
   xmlns:svg="http://www.w3.org/2000/svg"><defs
   id="defs762">
	
		<radialGradient
   id="SVGID_00000022534578410790736700000013999825567828354183_"
   cx="422.99371"
   cy="288.32251"
   r="28.502399"
   gradientTransform="matrix(0.98379286,0,0,0.98236136,-385.19832,-251.34342)"
   gradientUnits="userSpaceOnUse">
		<stop
   offset="0"
   style="stop-color:#A0866A"
   id="stop74" />
		<stop
   offset="0.2596"
   style="stop-color:#9C8268"
   id="stop75" />
		<stop
   offset="0.5301"
   style="stop-color:#8F7861"
   id="stop76" />
		<stop
   offset="0.8045"
   style="stop-color:#7B6656"
   id="stop77" />
		<stop
   offset="1"
   style="stop-color:#67554B"
   id="stop78" />
	</radialGradient>
	
	
	
	
		<radialGradient
   id="SVGID_00000125562367361927050560000001190537805866180488_"
   cx="417.22159"
   cy="288.32251"
   r="27.744699"
   gradientTransform="matrix(1.0074039,0,0,0.98236136,-390.24016,-251.34342)"
   gradientUnits="userSpaceOnUse">
		<stop
   offset="0"
   style="stop-color:#A0866A"
   id="stop85" />
		<stop
   offset="0.2596"
   style="stop-color:#9C8268"
   id="stop86" />
		<stop
   offset="0.5301"
   style="stop-color:#8F7861"
   id="stop87" />
		<stop
   offset="0.8045"
   style="stop-color:#7B6656"
   id="stop88" />
		<stop
   offset="1"
   style="stop-color:#67554B"
   id="stop89" />
	</radialGradient>
	
	
		<radialGradient
   id="SVGID_00000097500425902151924180000002286946989435723681_"
   cx="405.16061"
   cy="259.82541"
   r="73.946198"
   gradientTransform="matrix(0.94060435,0,0,0.98236136,-375.80615,-251.34342)"
   gradientUnits="userSpaceOnUse">
		<stop
   offset="0"
   style="stop-color:#535d6c;stop-opacity:1"
   id="stop90" />
		<stop
   offset="0.2284"
   style="stop-color:#373e48;stop-opacity:1"
   id="stop91" />
		<stop
   offset="0.4664"
   style="stop-color:#373e48;stop-opacity:1"
   id="stop92" />
		<stop
   offset="0.70889997"
   style="stop-color:#48515e;stop-opacity:1;"
   id="stop93" />
		<stop
   offset="0.95289999"
   style="stop-color:#373e48;stop-opacity:1"
   id="stop94" />
		<stop
   offset="1"
   style="stop-color:#373e48;stop-opacity:1"
   id="stop95" />
	</radialGradient>
	
	
		<radialGradient
   id="SVGID_00000119082666600208423750000005907981173642057379_"
   cx="425.73099"
   cy="288.43094"
   r="67.4496"
   gradientTransform="matrix(0.82943576,0,0,0.98236136,-350.11651,-251.34342)"
   gradientUnits="userSpaceOnUse"
   fx="425.73099"
   fy="288.43094">
		<stop
   offset="0"
   style="stop-color:#939dac;stop-opacity:1"
   id="stop96" />
		<stop
   offset="0.25960001"
   style="stop-color:#535d6c;stop-opacity:1"
   id="stop97" />
		<stop
   offset="0.5301"
   style="stop-color:#535d6c;stop-opacity:1"
   id="stop98" />
		<stop
   offset="0.8045"
   style="stop-color:#373e48;stop-opacity:1"
   id="stop99" />
		<stop
   offset="1"
   style="stop-color:#373e48;stop-opacity:1"
   id="stop100" />
	</radialGradient>
	
	
		<radialGradient
   id="SVGID_00000165928333602235411140000014852226284911233709_"
   cx="-1556.7609"
   cy="1310.3918"
   r="1.7343"
   gradientTransform="matrix(0.62323278,0,0,0.68421469,985.97188,-887.64613)"
   gradientUnits="userSpaceOnUse">
		<stop
   offset="0"
   style="stop-color:#E1CEC0"
   id="stop101" />
		<stop
   offset="0.761"
   style="stop-color:#E0CDBE"
   id="stop102" />
		<stop
   offset="1"
   style="stop-color:#DCC9B9"
   id="stop103" />
	</radialGradient>
	
	
		<radialGradient
   id="SVGID_00000023271670121255412580000014745766858599489424_"
   cx="-1556.7609"
   cy="1306.0997"
   r="1.7342"
   gradientTransform="matrix(0.62323278,0,0,0.68421469,985.97188,-880.11982)"
   gradientUnits="userSpaceOnUse">
		<stop
   offset="0"
   style="stop-color:#E1CEC0"
   id="stop104" />
		<stop
   offset="0.761"
   style="stop-color:#E0CDBE"
   id="stop105" />
		<stop
   offset="1"
   style="stop-color:#DCC9B9"
   id="stop106" />
	</radialGradient>
	
	
		<radialGradient
   id="SVGID_00000093146561591346411050000017874754504161969285_"
   cx="-1556.7609"
   cy="1301.8096"
   r="1.733"
   gradientTransform="matrix(0.62323278,0,0,0.68421469,985.97188,-872.59405)"
   gradientUnits="userSpaceOnUse">
		<stop
   offset="0"
   style="stop-color:#E1CEC0"
   id="stop107" />
		<stop
   offset="0.761"
   style="stop-color:#E0CDBE"
   id="stop108" />
		<stop
   offset="1"
   style="stop-color:#DCC9B9"
   id="stop109" />
	</radialGradient>
	
	
		<radialGradient
   id="SVGID_00000124154437391672708990000002450479196596738238_"
   cx="-1556.7609"
   cy="1297.5177"
   r="1.7336"
   gradientTransform="matrix(0.62323278,0,0,0.68421469,985.97188,-865.06833)"
   gradientUnits="userSpaceOnUse">
		<stop
   offset="0"
   style="stop-color:#E1CEC0"
   id="stop110" />
		<stop
   offset="0.761"
   style="stop-color:#E0CDBE"
   id="stop111" />
		<stop
   offset="1"
   style="stop-color:#DCC9B9"
   id="stop112" />
	</radialGradient>
	
	
		<radialGradient
   id="SVGID_00000034058293124216951570000006641406590055667894_"
   cx="-1556.7609"
   cy="1293.2249"
   r="1.7339"
   gradientTransform="matrix(0.62323278,0,0,0.68421469,985.97188,-857.54231)"
   gradientUnits="userSpaceOnUse">
		<stop
   offset="0"
   style="stop-color:#E1CEC0"
   id="stop113" />
		<stop
   offset="0.761"
   style="stop-color:#E0CDBE"
   id="stop114" />
		<stop
   offset="1"
   style="stop-color:#DCC9B9"
   id="stop115" />
	</radialGradient>
	
	
		<radialGradient
   id="SVGID_00000042694802152741533360000006474553379895889032_"
   cx="-1556.7609"
   cy="1288.9327"
   r="1.7342"
   gradientTransform="matrix(0.62323278,0,0,0.68421469,985.97188,-850.01604)"
   gradientUnits="userSpaceOnUse">
		<stop
   offset="0"
   style="stop-color:#E1CEC0"
   id="stop116" />
		<stop
   offset="0.761"
   style="stop-color:#E0CDBE"
   id="stop117" />
		<stop
   offset="1"
   style="stop-color:#DCC9B9"
   id="stop118" />
	</radialGradient>
	
	
		<radialGradient
   id="SVGID_00000111901877872900564700000014159718068513697190_"
   cx="-1556.7609"
   cy="1284.642"
   r="1.7334"
   gradientTransform="matrix(0.62323278,0,0,0.68421469,985.97188,-842.49032)"
   gradientUnits="userSpaceOnUse">
		<stop
   offset="0"
   style="stop-color:#E1CEC0"
   id="stop119" />
		<stop
   offset="0.761"
   style="stop-color:#E0CDBE"
   id="stop120" />
		<stop
   offset="1"
   style="stop-color:#DCC9B9"
   id="stop121" />
	</radialGradient>
	
	
		<radialGradient
   id="SVGID_00000022538754652405687830000005864690060167237006_"
   cx="-1556.7609"
   cy="1280.3497"
   r="1.7334"
   gradientTransform="matrix(0.62323278,0,0,0.68421469,985.97188,-834.96406)"
   gradientUnits="userSpaceOnUse">
		<stop
   offset="0"
   style="stop-color:#E1CEC0"
   id="stop122" />
		<stop
   offset="0.761"
   style="stop-color:#E0CDBE"
   id="stop123" />
		<stop
   offset="1"
   style="stop-color:#DCC9B9"
   id="stop124" />
	</radialGradient>
	
	
		<radialGradient
   id="SVGID_00000059309292910592828090000012283058363263137190_"
   cx="-1556.7609"
   cy="1276.0603"
   r="1.7339"
   gradientTransform="matrix(0.62323278,0,0,0.68421469,985.97188,-827.43829)"
   gradientUnits="userSpaceOnUse">
		<stop
   offset="0"
   style="stop-color:#E1CEC0"
   id="stop125" />
		<stop
   offset="0.761"
   style="stop-color:#E0CDBE"
   id="stop126" />
		<stop
   offset="1"
   style="stop-color:#DCC9B9"
   id="stop127" />
	</radialGradient>
	
	
		<radialGradient
   id="SVGID_00000164515357396027012420000009309048799111497121_"
   cx="-1556.7609"
   cy="1271.7668"
   r="1.7334"
   gradientTransform="matrix(0.62323278,0,0,0.68421469,985.97188,-819.91212)"
   gradientUnits="userSpaceOnUse">
		<stop
   offset="0"
   style="stop-color:#E1CEC0"
   id="stop128" />
		<stop
   offset="0.761"
   style="stop-color:#E0CDBE"
   id="stop129" />
		<stop
   offset="1"
   style="stop-color:#DCC9B9"
   id="stop130" />
	</radialGradient>
	
	
		<radialGradient
   id="SVGID_00000078021694386518579320000000195962685941464961_"
   cx="-1556.7609"
   cy="1267.4753"
   r="1.733"
   gradientTransform="matrix(0.62323278,0,0,0.68421469,985.97188,-812.3863)"
   gradientUnits="userSpaceOnUse">
		<stop
   offset="0"
   style="stop-color:#E1CEC0"
   id="stop131" />
		<stop
   offset="0.761"
   style="stop-color:#E0CDBE"
   id="stop132" />
		<stop
   offset="1"
   style="stop-color:#DCC9B9"
   id="stop133" />
	</radialGradient>
	
	
	
		<radialGradient
   id="SVGID_00000179631901819502847670000002313046964360062115_"
   cx="465.28549"
   cy="269.20731"
   r="33.883701"
   gradientTransform="matrix(0.7608654,0,0,0.98236136,-334.59177,-251.34342)"
   gradientUnits="userSpaceOnUse">
		<stop
   offset="0"
   style="stop-color:#5599ff;stop-opacity:1"
   id="stop145" />
		<stop
   offset="0.31479999"
   style="stop-color:#267dff;stop-opacity:1;"
   id="stop146" />
		<stop
   offset="0.7586"
   style="stop-color:#2a7fff;stop-opacity:1"
   id="stop147" />
		<stop
   offset="1"
   style="stop-color:#0053d0;stop-opacity:1;"
   id="stop148" />
	</radialGradient>
	
	
		<radialGradient
   id="SVGID_00000110451134532301891090000001961278411554218625_"
   cx="422.12851"
   cy="271.23071"
   r="41.8508"
   gradientTransform="matrix(0.91866577,0,0,0.98236136,-370.25146,-251.34342)"
   gradientUnits="userSpaceOnUse">
		<stop
   offset="0.1067"
   style="stop-color:#8d5fd3;stop-opacity:1"
   id="stop149" />
		<stop
   offset="0.5118"
   style="stop-color:#8d5fd3;stop-opacity:1"
   id="stop150" />
		<stop
   offset="1"
   style="stop-color:#8d5fd3;stop-opacity:1"
   id="stop151" />
	</radialGradient>
	

		
		
		
		
		
		
	
		
			<radialGradient
   id="SVGID_00000052091378501920612200000006059691176872464570_"
   cx="-498.31311"
   cy="565.55511"
   r="5.8572001"
   gradientTransform="matrix(1.1015529,0,0,1.1486751,623.04374,-631.95324)"
   gradientUnits="userSpaceOnUse">
			<stop
   offset="0"
   style="stop-color:#A0866A"
   id="stop134" />
			<stop
   offset="0.2596"
   style="stop-color:#9C8268"
   id="stop135" />
			<stop
   offset="0.5301"
   style="stop-color:#8F7861"
   id="stop136" />
			<stop
   offset="0.8045"
   style="stop-color:#7B6656"
   id="stop137" />
			<stop
   offset="1"
   style="stop-color:#67554B"
   id="stop138" />
		</radialGradient>
		
		
		
		
	
			
				<radialGradient
   id="SVGID_00000044889807405124194260000009933868313778631062_"
   cx="-498.314"
   cy="580.81989"
   r="7.6585999"
   gradientTransform="matrix(1.1015529,0,0,1.1486751,623.04374,-631.95324)"
   gradientUnits="userSpaceOnUse">
				<stop
   offset="0"
   style="stop-color:#A0866A"
   id="stop139" />
				<stop
   offset="0.2596"
   style="stop-color:#9C8268"
   id="stop140" />
				<stop
   offset="0.5301"
   style="stop-color:#8F7861"
   id="stop141" />
				<stop
   offset="0.8045"
   style="stop-color:#7B6656"
   id="stop142" />
				<stop
   offset="1"
   style="stop-color:#67554B"
   id="stop143" />
			</radialGradient>
			
		</defs><sodipodi:namedview
   id="namedview762"
   pagecolor="#ffffff"
   bordercolor="#000000"
   borderopacity="0.25"
   inkscape:showpageshadow="2"
   inkscape:pageopacity="0.0"
   inkscape:pagecheckerboard="0"
   inkscape:deskcolor="#d1d1d1"
   inkscape:zoom="8"
   inkscape:cx="25.4375"
   inkscape:cy="46.3125"
   inkscape:window-width="1920"
   inkscape:window-height="994"
   inkscape:window-x="0"
   inkscape:window-y="0"
   inkscape:window-maximized="1"
   inkscape:current-layer="Layer_1"
   showgrid="false"><inkscape:grid
     id="grid1"
     units="px"
     originx="0"
     originy="0"
     spacingx="0.99999997"
     spacingy="0.99999998"
     empcolor="#0099e5"
     empopacity="0.30196078"
     color="#0099e5"
     opacity="0.14901961"
     empspacing="5"
     enabled="true"
     visible="false" /></sodipodi:namedview>


<g
   id="g1"><path
     d="m 59.081109,50.189861 c 0,5.81014 -4.176201,9.110139 -9.326848,9.110139 H 12.324878 C 7.1752139,59.3 2.999997,55.219763 2.999997,50.189861 V 13.810139 c 0,-5.0303802 4.1752169,-9.1101391 9.324881,-9.1101391 h 37.429383 c 5.150647,0 9.326848,3.0998612 9.326848,8.9100001 z"
     id="path78"
     style="fill:#b7bec8;fill-opacity:1;stroke-width:0.987421"
     sodipodi:nodetypes="sssssssss" /><path
     style="fill:#b7bec8;stroke-width:0.485356;fill-opacity:1"
     d="m 58.142571,50.189862 c 0,5.030379 -4.106352,9.110138 -9.170426,9.110138 H 12.169438 C 7.1063484,59.3 2.999997,55.219763 2.999997,50.189862 V 13.810138 c 0,-5.0303792 4.1063514,-9.1101381 9.169441,-9.1101381 h 36.802707 c 5.064074,0 9.170426,4.0802377 9.170426,9.1101381 z"
     id="path79" /><g
     id="g2"><path
       style="fill:#ffaaaa;stroke-width:0.491538;fill-opacity:1"
       d="m 60.742243,43.740446 v 3.41518 c 0,1.767268 -1.339434,3.202989 -3.005979,3.247195 0.02509,0 0.05116,0.0039 0.07674,0.0039 h 0.10379 c 1.702454,0 3.083207,-1.455369 3.083207,-3.251125 v -3.41518 c 0,-1.794774 -1.380753,-3.251125 -3.083207,-3.251125 H 57.813 c -0.02607,0 -0.05165,0.0039 -0.07674,0.0039 1.666545,0.04371 3.005979,1.478945 3.005979,3.247195 z"
       id="path80" /><path
       style="fill:#d35f8d;stroke-width:0.491538"
       d="m 57.284703,50.356159 c 0.147077,0.02701 0.297598,0.04224 0.451561,0.04715 1.667037,-0.04421 3.005979,-1.480418 3.005979,-3.247195 v -3.415179 c 0,-1.768251 -1.339434,-3.20299 -3.005979,-3.247196 -0.153963,0.0039 -0.304484,0.02112 -0.451561,0.04814 z"
       id="path81" /></g><path
     style="fill:#ffeeaa;stroke-width:0.491538;fill-opacity:1"
     d="m 60.742243,29.923043 v 3.413214 c 0,1.769233 -1.339434,3.203972 -3.005979,3.248178 0.02509,0 0.05116,0.0039 0.07674,0.0039 h 0.10379 c 1.702454,0 3.083207,-1.45635 3.083207,-3.252107 v -3.413214 c 0,-1.795757 -1.380753,-3.252108 -3.083207,-3.252108 H 57.813 c -0.02607,0 -0.05165,0.0039 -0.07674,0.0039 1.666545,0.04224 3.005979,1.477962 3.005979,3.248178 z"
     id="path82" /><path
     style="fill:#ffd42a;stroke-width:0.491538;fill-opacity:1"
     d="m 57.284703,36.537773 c 0.147077,0.02603 0.297598,0.04322 0.451561,0.04715 1.667037,-0.04421 3.005979,-1.479436 3.005979,-3.248178 v -3.413214 c 0,-1.770215 -1.339434,-3.205936 -3.005979,-3.248178 -0.153963,0.0039 -0.304484,0.02112 -0.451561,0.04814 z"
     id="path83" /><path
     style="fill:#a1ffff;stroke-width:0.491538;fill-opacity:1"
     d="m 60.742243,16.104657 v 3.413214 c 0,1.770215 -1.339434,3.203972 -3.005979,3.24916 0.02509,0 0.05116,0.0029 0.07674,0.0029 h 0.10379 c 1.702454,0 3.083207,-1.455368 3.083207,-3.252107 V 16.10461 c 0,-1.795757 -1.380753,-3.252108 -3.083207,-3.252108 H 57.813 c -0.02607,0 -0.05165,0.0029 -0.07674,0.0049 1.666545,0.04322 3.005979,1.478454 3.005979,3.247196 z"
     id="path84" /><path
     style="fill:#00cccc;stroke-width:0.491538;fill-opacity:1"
     d="m 57.284703,22.719387 c 0.147077,0.02701 0.297598,0.04322 0.451561,0.04814 1.667037,-0.04519 3.005979,-1.479437 3.005979,-3.249161 v -3.413214 c 0,-1.769233 -1.339434,-3.203972 -3.005979,-3.247196 -0.153963,0.0029 -0.304484,0.01817 -0.451561,0.04519 z"
     id="path85" /><path
     style="fill:#939dac;fill-opacity:1;stroke-width:0.488898"
     d="m 57.333893,50.456382 c 0,5.104082 -4.045848,9.243618 -9.035646,9.243618 H 12.035151 C 7.0458451,59.7 3.0004889,55.559979 3.0004889,50.456382 V 13.543618 c 0,-5.1040823 4.0458481,-9.2436179 9.0346621,-9.2436179 h 36.263096 c 4.99029,0 9.035646,4.1400216 9.035646,9.2436179 z"
     id="path89" /><path
     style="fill:url(#SVGID_00000097500425902151924180000002286946989435723681_);stroke-width:0.491538"
     d="M 56.620643,52.656 C 56.620643,57.000001 52.999998,60 48.004,60 H 11.91562 C 6.9917365,60 2.999997,55.815141 2.999997,50.65627 V 12.144 c 0,-1.144 4.0000028,-8.1440001 8.915623,-8.1440001 H 47.504 c 5.495998,0 9.116643,3.0000002 9.116643,8.0440001 z"
     id="path95"
     sodipodi:nodetypes="sssssssss" /><path
     style="fill:url(#SVGID_00000119082666600208423750000005907981173642057379_);stroke-width:0.491538"
     d="m 17.733771,60 v 0 H 11 C 5.9999998,60 2.999997,57.000001 2.999997,52 V 12 C 2.999997,7.0000001 5.9999998,3.9999999 11,3.9999999 h 6.891178 v 0 z"
     id="path100"
     sodipodi:nodetypes="ccssssccc" /><path
     style="fill:#80b3ff;stroke-width:0.491538;fill-opacity:1"
     d="m 16.347607,9.8961328 c 0,0.3782092 -0.278414,0.6832322 -0.621757,0.6832322 v 0 c -0.343836,0 -0.622741,-0.305023 -0.622741,-0.6832322 V 8.1991036 c 0,-0.3782092 0.278413,-0.6842147 0.622741,-0.6842147 v 0 c 0.342851,0 0.621757,0.3060055 0.621757,0.6842147 z"
     id="path103" /><path
     style="fill:#80b3ff;stroke-width:0.491538;fill-opacity:1"
     d="m 16.347607,14.485234 c 0,0.377718 -0.278414,0.683232 -0.621757,0.683232 v 0 c -0.343836,0 -0.622741,-0.305023 -0.622741,-0.683232 v -1.698012 c 0,-0.378209 0.278413,-0.683232 0.622741,-0.683232 v 0 c 0.342851,0 0.621757,0.305023 0.621757,0.683232 z"
     id="path106" /><path
     style="fill:#80b3ff;stroke-width:0.491538;fill-opacity:1"
     d="m 16.347607,19.074826 c 0,0.378209 -0.278414,0.683232 -0.621757,0.683232 v 0 c -0.343836,0 -0.622741,-0.305023 -0.622741,-0.683232 v -1.698011 c 0,-0.376245 0.278413,-0.681268 0.622741,-0.681268 v 0 c 0.342851,0 0.621757,0.305023 0.621757,0.681268 z"
     id="path109" /><path
     style="fill:#80b3ff;stroke-width:0.491538;fill-opacity:1"
     d="m 16.347607,23.664418 c 0,0.376245 -0.278414,0.683233 -0.621757,0.683233 v 0 c -0.343836,0 -0.622741,-0.306988 -0.622741,-0.683233 v -1.698011 c 0,-0.377227 0.278413,-0.683232 0.622741,-0.683232 v 0 c 0.342851,0 0.621757,0.306005 0.621757,0.683232 z"
     id="path112" /><path
     style="fill:#80b3ff;stroke-width:0.491538;fill-opacity:1"
     d="m 16.347607,28.254011 c 0,0.376244 -0.278414,0.683232 -0.621757,0.683232 v 0 c -0.343836,0 -0.622741,-0.306988 -0.622741,-0.683232 v -1.696047 c 0,-0.378209 0.278413,-0.685197 0.622741,-0.685197 v 0 c 0.342851,0 0.621757,0.306988 0.621757,0.685197 z"
     id="path115" /><path
     style="fill:#80b3ff;stroke-width:0.491538;fill-opacity:1"
     d="m 16.347607,32.843112 c 0,0.377227 -0.278414,0.683232 -0.621757,0.683232 v 0 c -0.343836,0 -0.622741,-0.306005 -0.622741,-0.683232 v -1.697029 c 0,-0.377227 0.278413,-0.684215 0.622741,-0.684215 v 0 c 0.342851,0 0.621757,0.306988 0.621757,0.684215 z"
     id="path118" /><path
     style="fill:#80b3ff;stroke-width:0.491538;fill-opacity:1"
     d="m 16.347607,37.432704 c 0,0.377227 -0.278414,0.683232 -0.621757,0.683232 v 0 c -0.343836,0 -0.622741,-0.306005 -0.622741,-0.683232 v -1.697029 c 0,-0.377227 0.278413,-0.683232 0.622741,-0.683232 v 0 c 0.342851,0 0.621757,0.306005 0.621757,0.683232 z"
     id="path121" /><path
     style="fill:#80b3ff;stroke-width:0.491538;fill-opacity:1"
     d="m 16.347607,42.022296 c 0,0.377718 -0.278414,0.683233 -0.621757,0.683233 v 0 c -0.343836,0 -0.622741,-0.305024 -0.622741,-0.683233 v -1.696047 c 0,-0.378209 0.278413,-0.684214 0.622741,-0.684214 v 0 c 0.342851,0 0.621757,0.306005 0.621757,0.684214 z"
     id="path124" /><path
     style="fill:#80b3ff;stroke-width:0.491538;fill-opacity:1"
     d="m 16.347607,46.61238 c 0,0.377227 -0.278414,0.684214 -0.621757,0.684214 v 0 c -0.343836,0 -0.622741,-0.306987 -0.622741,-0.684214 v -1.696047 c 0,-0.3787 0.278413,-0.684215 0.622741,-0.684215 v 0 c 0.342851,0 0.621757,0.305023 0.621757,0.684215 z"
     id="path127" /><path
     style="fill:#80b3ff;stroke-width:0.491538;fill-opacity:1"
     d="m 16.347607,51.202954 c 0,0.376245 -0.278414,0.681268 -0.621757,0.681268 v 0 c -0.343836,0 -0.622741,-0.305023 -0.622741,-0.681268 v -1.698011 c 0,-0.378209 0.278413,-0.683232 0.622741,-0.683232 v 0 c 0.342851,0 0.621757,0.305023 0.621757,0.683232 z"
     id="path130" /><path
     style="fill:#80b3ff;stroke-width:0.491538;fill-opacity:1"
     d="m 16.347607,55.791564 c 0,0.378209 -0.278414,0.68225 -0.621757,0.68225 v 0 c -0.343836,0 -0.622741,-0.304041 -0.622741,-0.68225 v -1.698011 c 0,-0.377227 0.278413,-0.68225 0.622741,-0.68225 v 0 c 0.342851,0 0.621757,0.305023 0.621757,0.68225 z"
     id="path133" /></g>

















<g
   id="g3"
   transform="translate(1.2)"><path
     d="m 37.048718,44.862885 c -1.399973,-0.235576 -3.383274,-1.060566 -4.54983,-1.826669 -2.683308,-1.767912 -4.43947,-3.734258 -5.524956,-6.188421 -0.349975,-0.82492 -0.557673,-1.414254 -1.166564,-3.535485 -0.116568,-0.530376 -0.314709,-1.124688 -0.387669,-1.30979 -0.122438,-0.312391 -0.128647,-0.417739 -0.07449,-1.459702 0.0509,-0.94285 0.233292,-2.356997 0.349884,-2.47016 0.01659,-0.02748 0.05893,-0.03481 0.08994,-0.0122 0.110615,0.06495 0.211129,-0.238382 0.310764,-0.931762 0.05558,-0.380125 0.140638,-0.778405 0.190608,-0.885479 0.05009,-0.10768 0.135656,-0.343447 0.189233,-0.525145 0.123118,-0.418169 0.292581,-0.739619 0.814391,-1.550887 0.229475,-0.356741 0.467963,-0.745471 0.530101,-0.863526 0.07216,-0.139494 0.152896,-0.207156 0.226097,-0.193184 0.06973,0.01219 0.187034,-0.07636 0.309146,-0.239215 0.530394,-0.707299 3.029202,-2.794269 3.260442,-2.723057 0.06404,0.01864 0.326897,-0.06705 0.585992,-0.194794 0.468812,-0.228871 0.675287,-0.281669 0.675287,-0.173023 0,0.03235 -0.06674,0.10231 -0.150546,0.158213 -0.14543,0.09686 -0.142662,0.09832 0.08437,0.0456 0.128912,-0.03138 0.345757,-0.07226 0.48202,-0.09481 0.168616,-0.02796 0.236973,-0.06743 0.213745,-0.126849 -0.01962,-0.05117 0.02865,-0.102312 0.119528,-0.125984 0.23047,-0.06061 0.589379,-0.04957 0.589379,0.01424 0,0.0795 -0.205263,0.159393 -0.368167,0.143799 -0.111877,-0.01323 -0.115703,-8.5e-4 -0.0341,0.05444 0.08407,0.05603 0.0847,0.06659 0.0092,0.06659 -0.05218,4.2e-4 -0.07761,0.01715 -0.05776,0.03922 0.01982,0.01958 0.160664,-0.02305 0.31017,-0.097 0.149472,-0.07324 0.423519,-0.165972 0.608754,-0.204416 0.228052,-0.0466 0.336745,-0.102172 0.336745,-0.170426 0,-0.08845 0.106495,-0.0938 0.819717,-0.05833 0.450939,0.02305 1.131335,0.09121 1.512013,0.152092 0.69204,0.110382 0.692095,0.110382 0.950051,-0.0353 0.309301,-0.172589 0.806985,-0.195039 0.937759,-0.0412 0.0472,0.05679 0.179469,0.147964 0.292588,0.204647 0.184492,0.09172 0.19665,0.09195 0.117752,0.0016 -0.148233,-0.173128 -0.0016,-0.168764 0.570866,0.01617 1.843981,0.598666 3.347164,1.664928 4.462579,3.165337 0.264527,0.355903 0.280626,0.515854 0.03077,0.299322 l -0.143267,-0.12315 0.110137,0.207641 c 0.06119,0.115496 0.110435,0.242649 0.110435,0.285157 0,0.04169 0.177344,0.357969 0.394131,0.700642 0.488503,0.772425 0.625056,1.032511 0.592246,1.127937 -0.01233,0.03971 -0.230335,-0.231175 -0.480799,-0.604527 -0.250477,-0.373411 -0.621114,-0.876551 -0.823584,-1.117957 -0.302407,-0.360662 -0.381597,-0.422341 -0.443283,-0.345167 -0.04058,0.05138 -0.142382,0.102884 -0.224257,0.114843 l -0.149147,0.01962 0.147663,0.280353 c 0.08208,0.154251 0.158293,0.249072 0.171453,0.210828 0.06983,-0.204746 0.398332,0.06461 0.547429,0.449557 0.04777,0.124161 0.176853,0.382041 0.285598,0.57145 0.109577,0.18945 0.184108,0.357769 0.167315,0.373898 -0.0156,0.01422 -0.115707,-0.03727 -0.220369,-0.115609 l -0.18997,-0.144789 0.12978,0.215582 c 0.07051,0.117405 0.190491,0.263584 0.265034,0.322324 0.09196,0.07221 0.137713,0.189007 0.141719,0.368898 0.01145,0.332177 0.204038,0.724601 0.310644,0.621173 0.166367,-0.161258 0.200479,-0.06111 0.158712,0.4675 -0.03176,0.388956 -0.01313,0.645229 0.05915,0.917339 0.111887,0.413271 0.088,0.51518 -0.07482,0.322074 -0.103438,-0.12255 -0.104632,-0.122125 -0.05889,0.007 0.09842,0.273296 0.173207,0.681847 0.152621,0.842284 -0.03808,0.299374 -0.154363,0.174935 -0.19418,-0.20848 l -0.03842,-0.374371 -0.01244,0.398216 c -0.0092,0.21907 -0.06002,0.642455 -0.117146,0.94074 -0.06002,0.301389 -0.09009,0.66634 -0.06669,0.821383 0.03952,0.291728 0.01244,0.303052 -0.239608,0.09286 -0.102119,-0.0857 -0.119386,-0.06689 -0.190272,0.185284 -0.05982,0.212936 -0.05925,0.334088 0.003,0.512461 0.04301,0.128429 0.06849,0.302812 0.05765,0.387209 -0.03004,0.195054 -0.190437,0.255874 -0.190437,0.0708 0,-0.231238 -0.09033,-0.148928 -0.367936,0.333816 -0.74886,1.30346 -1.933776,2.312354 -3.274713,2.788246 -0.790698,0.280641 -1.320924,0.384643 -2.212545,0.434089 l -0.803004,0.04351 0.396699,0.117753 c 0.319993,0.0948 0.507736,0.110508 0.970231,0.07265 0.605972,-0.0464 1.317432,-0.174814 1.64003,-0.293824 0.128922,-0.0464 0.215721,-0.049 0.260259,-0.01 0.10534,0.101088 -0.82701,0.501348 -1.380284,0.591938 -0.941476,0.154287 -2.201438,-0.01377 -3.313705,-0.438061 -0.754631,-0.288834 -1.874515,-1.041146 -1.702902,-1.143861 0.03274,-0.01826 0.245543,0.07923 0.473475,0.218522 0.291208,0.178585 0.414287,0.225587 0.414287,0.158308 0,-0.126705 0.04218,-0.120458 0.274559,0.03872 0.208967,0.144117 0.8518,0.412225 1.314806,0.5479 0.504616,0.14798 0.308907,-0.03263 -0.368074,-0.337422 -2.140741,-0.96775 -3.029432,-1.935471 -3.47231,-3.781245 -0.162431,-0.676882 0.01313,-2.160779 0.307783,-2.625482 0.07473,-0.117118 0.136905,-0.262603 0.136905,-0.321832 0,-0.25706 0.442253,-0.936359 0.895969,-1.376258 0.79963,-0.775116 1.63089,-1.09695 2.71004,-1.049033 0.521662,0.02256 0.744471,0.06652 1.178619,0.23524 0.492365,0.190137 1.112501,0.588118 0.922597,0.592188 -0.04357,8.61e-4 -0.240504,-0.06347 -0.435028,-0.141401 -0.295804,-0.11849 -0.485418,-0.143561 -1.156692,-0.146015 -0.942739,-0.005 -1.403578,0.125661 -2.074563,0.583756 -0.951111,0.648847 -1.480096,1.396161 -1.667428,2.355918 -0.12533,0.643946 -0.12968,0.822446 -0.03272,1.461219 0.05766,0.368116 0.09591,0.476174 0.167341,0.449898 0.06012,-0.02107 0.09182,0.01219 0.09182,0.08992 0,0.228194 0.512055,1.1536 0.867243,1.567279 0.854665,0.995774 2.237374,1.631232 3.549239,1.631232 0.680941,0 1.231353,-0.126156 1.737943,-0.400022 0.203483,-0.110588 0.460277,-0.243978 0.570714,-0.298274 0.389584,-0.191478 0.631268,-0.41005 0.913836,-0.826796 0.157039,-0.231638 0.32793,-0.421119 0.379549,-0.421119 0.07624,0 0.07212,0.03427 -0.01707,0.178493 -0.298628,0.477823 0.402381,-0.391134 0.765325,-0.94872 l 0.406571,-0.624509 -0.0434,-0.410231 c -0.04147,-0.394198 -0.03695,-0.418274 0.158272,-0.616222 0.187405,-0.190725 0.204168,-0.247158 0.225818,-0.756884 0.01893,-0.456123 0.0093,-0.550884 -0.07713,-0.551384 -0.07713,-4.26e-4 -0.111074,-0.119854 -0.143444,-0.519639 -0.04332,-0.52808 -0.487572,-2.305045 -0.590818,-2.366876 -0.03179,-0.01814 -0.116926,-0.189548 -0.192173,-0.379686 -0.251765,-0.642121 -0.693006,-1.259199 -1.380828,-1.931474 -0.989792,-0.967272 -2.236583,-1.714196 -3.414367,-2.045443 -1.001782,-0.281675 -2.702927,-0.179448 -3.914605,0.235347 -0.591431,0.202392 -1.174081,0.470437 -1.272404,0.585274 -0.0435,0.05196 -0.109993,0.07791 -0.143691,0.05833 -0.03699,-0.02058 -0.02651,-0.08038 0.02317,-0.138758 0.223203,-0.26074 -0.517545,0.216465 -0.994402,0.640632 -0.288282,0.256423 -0.534657,0.474016 -0.547517,0.483583 -0.01244,0.01323 0.04243,4.24e-4 0.124179,-0.01959 0.135816,-0.0353 0.141097,-0.02499 0.06678,0.108865 -0.04615,0.08606 -0.292395,0.238726 -0.593099,0.37096 -0.505159,0.222155 -0.831975,0.466371 -1.09163,0.815656 -0.103692,0.139833 -0.110295,0.169591 -0.02802,0.139344 0.05885,-0.02057 0.105047,-0.01142 0.105047,0.03039 0,0.185329 -0.173504,0.392135 -0.43074,0.513222 -0.569798,0.268485 -1.570969,1.702079 -2.107277,3.01786 -0.238982,0.586308 -0.235057,0.565939 -0.105983,0.565939 0.137423,0 0.127301,0.150865 -0.06167,0.960763 -0.273949,1.179854 -0.274322,1.142059 0.02355,2.801923 0.3636,2.022437 0.576073,2.69799 0.97988,3.116562 0.09384,0.0972 0.186902,0.307076 0.227955,0.516976 0.04851,0.250585 0.131652,0.415928 0.285351,0.573338 0.140381,0.143599 0.187234,0.231434 0.133577,0.250534 -0.106377,0.03852 0.225461,0.516287 0.527702,0.76286 0.152041,0.123661 0.264806,0.165713 0.386881,0.14313 0.267516,-0.0491 0.539923,0.09919 0.958523,0.525678 0.435036,0.442591 0.478605,0.561552 0.190732,0.520598 -0.185661,-0.02684 -0.189944,-0.02066 -0.09779,0.114699 0.05277,0.07784 0.246446,0.264715 0.430969,0.415429 0.259049,0.211816 0.325783,0.303354 0.29313,0.402616 -0.04601,0.14293 0.08778,0.2762 0.388293,0.387996 0.18708,0.06836 0.247452,0.218821 0.107368,0.264355 -0.04144,0.01307 0.22089,0.27663 0.585549,0.584235 0.410825,0.346503 0.68709,0.536515 0.726574,0.499363 0.104301,-0.0973 0.237223,-0.06726 0.239676,0.05379 0.003,0.133161 0.120227,0.272409 0.545656,0.644618 0.268472,0.235237 0.335421,0.264854 0.499945,0.220947 0.1508,-0.04002 0.245654,-0.01247 0.457842,0.124089 0.423375,0.277518 0.68014,0.388256 0.900128,0.388256 0.216243,0 0.247058,0.06117 0.134999,0.263827 -0.06032,0.108352 -0.04598,0.125097 0.09009,0.125097 0.08839,0 0.334213,0.05918 0.548214,0.129788 0.486339,0.16225 0.689245,0.173267 0.567433,0.03183 -0.180123,-0.210309 0.01244,-0.152849 0.654356,0.196997 0.899173,0.488905 1.354033,0.544638 3.144578,0.3861 0.265005,-0.02275 0.35125,-0.01257 0.35125,0.05688 0,0.05738 -0.23004,0.141184 -0.652445,0.239867 -0.555266,0.130436 -0.851648,0.155564 -1.990733,0.169295 -0.897575,0.01307 -1.510771,-0.01317 -1.861701,-0.07105 z m -0.915336,-9.725204 c 0,-0.01387 -0.08362,-0.07285 -0.184079,-0.133639 l -0.183998,-0.10978 0.157932,0.133739 c 0.154139,0.130557 0.210123,0.159286 0.210123,0.109401 z m 9.213382,-6.798856 c -0.02016,-0.05159 -0.03773,-0.03727 -0.0394,0.03872 -0.0047,0.06722 0.01313,0.107518 0.03622,0.08606 0.02155,-0.02057 0.02436,-0.07741 0.0066,-0.123637 z m -15.185707,-6.80385 c 0.08394,-0.102557 0.08174,-0.105441 -0.02527,-0.02404 -0.06428,0.04854 -0.1165,0.09929 -0.1165,0.114703 0,0.05331 0.056,0.01864 0.142388,-0.08939 z m 0.760948,-0.600141 c 0.06662,-0.07081 0.106628,-0.129789 0.089,-0.129789 -0.01784,0 -0.089,0.05926 -0.154633,0.129789 -0.06556,0.07081 -0.106656,0.12973 -0.08821,0.12973 0.01785,0 0.089,-0.0591 0.154547,-0.12973 z m 0.842381,-0.455988 c 0.220684,-0.07134 0.346024,-0.08606 0.392464,-0.04022 0.04586,0.04462 0.219032,0.01765 0.540333,-0.08441 0.259612,-0.08366 0.460115,-0.1616 0.445687,-0.175712 -0.01312,-0.01219 -0.228369,0.03922 -0.475061,0.118485 -0.338828,0.110404 -0.460801,0.125686 -0.498485,0.06606 -0.06403,-0.09944 -0.672729,0.09658 -0.934529,0.303004 l -0.178899,0.140962 0.19227,-0.112684 c 0.106321,-0.06268 0.338086,-0.159786 0.516267,-0.218279 z m 1.929129,-0.164789 c 0.194438,-0.05699 0.341773,-0.114045 0.327784,-0.126264 -0.03242,-0.03138 -0.723569,0.161991 -0.723569,0.200967 0,0.03922 0.0092,0.03781 0.395781,-0.07345 z m 1.109712,-0.35355 0.267734,-0.04658 -0.234236,-0.0091 c -0.128912,-0.005 -0.309413,0.03872 -0.40141,0.09268 -0.109114,0.06445 -0.119507,0.08424 -0.0341,0.05311 0.07265,-0.02548 0.254278,-0.06641 0.401498,-0.09225 z m 0.531496,-0.121994 c 0.0197,-0.03282 -0.02212,-0.04268 -0.09566,-0.02499 -0.156292,0.03971 -0.176156,0.08442 -0.03804,0.08442 0.05344,0 0.113831,-0.02697 0.13418,-0.05992 z m 2.160583,0.01913 c -0.02155,-0.02058 -0.08035,-0.02305 -0.128224,-0.007 -0.05366,0.01961 -0.03773,0.03679 0.04031,0.03922 0.06973,0.0035 0.110737,-0.01323 0.08789,-0.0353 z m -0.400071,-0.06966 c -0.06441,-0.01423 -0.169839,-0.01423 -0.234256,0 -0.06441,0.0142 -0.01244,0.03039 0.116787,0.03039 0.128919,0 0.181479,-0.01323 0.11627,-0.03039 z m -0.667347,-0.066 c -0.13748,-0.01323 -0.377975,-0.01323 -0.535449,-4.22e-4 -0.157295,0.01219 -0.04431,0.025 0.249175,0.02548 0.294514,1.97e-4 0.423242,-0.01219 0.286268,-0.025 z m -0.873129,-0.05825 c -0.02155,-0.02058 -0.08036,-0.02305 -0.128211,-0.007 -0.05365,0.01961 -0.03807,0.03727 0.03965,0.03872 0.06973,0.0034 0.111038,-0.01323 0.0885,-0.03529 z m -0.452995,15.592952 c -0.68157,-0.473417 -0.934097,-0.718364 -0.934097,-0.90588 0,-0.09859 0.02247,-0.180881 0.05128,-0.180881 0.09543,0 1.236034,1.153251 1.211015,1.225719 -0.01244,0.04012 -0.151917,-0.01387 -0.32844,-0.139088 z m -0.350719,-1.201999 c -0.353964,-0.346933 -0.46745,-0.533461 -0.324317,-0.533461 0.08705,0 0.744644,0.731156 0.744644,0.826736 0,0.04381 -0.01146,0.08273 -0.01809,0.08273 -0.01313,0 -0.19095,-0.168646 -0.401416,-0.374834 z m 3.916791,-1.419703 c -0.186898,-0.07168 -0.06957,-0.208746 0.234209,-0.271828 0.174803,-0.03826 0.452565,-0.124029 0.617289,-0.196315 0.164786,-0.07062 0.31149,-0.11781 0.325955,-0.104655 0.01334,0.01246 -0.06108,0.158263 -0.16563,0.32032 -0.190958,0.292993 -0.194343,0.294804 -0.560115,0.289837 -0.202462,-0.0029 -0.405699,-0.0182 -0.451724,-0.03786 z m 2.00747,-1.451277 c -0.180588,-0.06965 -0.188153,-0.190086 -0.03776,-0.597954 0.12966,-0.350365 0.263876,-0.419548 0.18912,-0.09689 -0.0276,0.115992 -0.06293,0.28398 -0.08021,0.373068 l -0.03193,0.162235 0.134037,-0.14763 c 0.07972,-0.08844 0.152353,-0.292458 0.179394,-0.502134 0.02519,-0.194952 0.07144,-0.338307 0.105657,-0.31889 0.08362,0.04907 0.07326,0.562602 -0.01313,0.907468 -0.07852,0.30119 -0.148596,0.3364 -0.443824,0.221273 z M 24.839746,30.369313 C 24.818285,30.311749 24.8,30.091509 24.8,29.877415 c 0,-0.282558 0.022,-0.381988 0.08462,-0.362617 0.09851,0.03282 0.157844,0.957126 0.06146,0.957126 -0.03572,0 -0.08193,-0.0456 -0.103484,-0.102391 z m 16.098479,-1.517338 c -0.104173,-0.136541 -0.136282,-0.243963 -0.107364,-0.357861 0.06165,-0.234017 0.218989,-0.200781 0.33594,0.06965 0.181743,0.421711 0.02355,0.619524 -0.229412,0.287264 z M 24.826058,27.822289 c -0.007,-0.367869 -4e-5,-0.379295 0.167848,-0.373068 0.142531,0.007 0.176825,0.04071 0.193181,0.204508 0.01785,0.183564 -0.187483,0.547948 -0.309749,0.547948 -0.02523,0 -0.04795,-0.170866 -0.05124,-0.379392 z m 17.34575,-7.97521 c 0.01313,-0.580569 0.111038,-0.777236 0.188875,-0.37081 0.05588,0.283293 -0.01244,0.783377 -0.12065,0.869015 -0.05867,0.04555 -0.07451,-0.0807 -0.06675,-0.498174 z m -8.792789,-0.347773 c 0.02731,-0.07835 0.949958,-0.444893 1.120215,-0.444893 0.200119,0 -0.158744,0.237501 -0.572718,0.379342 -0.461639,0.157826 -0.584462,0.172437 -0.547492,0.06565 z"
     id="path7225-4-2-3"
     style="fill:#ffffff;fill-opacity:0.501961;stroke-width:1.43467" /><path
     d="m 38.065887,44.808472 c -1.399971,-0.235576 -3.383272,-1.060566 -4.549829,-1.826669 -2.683308,-1.767912 -4.43947,-3.734258 -5.524954,-6.188421 -0.349977,-0.82492 -0.557675,-1.414254 -1.166566,-3.535485 -0.116568,-0.530376 -0.314709,-1.124688 -0.387669,-1.30979 -0.122438,-0.312391 -0.128647,-0.417739 -0.07449,-1.459702 0.0509,-0.94285 0.233294,-2.356997 0.349886,-2.47016 0.0166,-0.02748 0.05893,-0.03481 0.08994,-0.01219 0.110613,0.06495 0.211129,-0.238382 0.310763,-0.931763 0.05558,-0.380125 0.14064,-0.778405 0.190608,-0.885479 0.0501,-0.10768 0.135657,-0.343447 0.189234,-0.525145 0.123118,-0.418169 0.292581,-0.739619 0.814392,-1.550887 0.229472,-0.356741 0.467963,-0.745471 0.530099,-0.863526 0.07216,-0.139493 0.152897,-0.207156 0.2261,-0.193184 0.06973,0.0122 0.187031,-0.07636 0.309144,-0.239215 0.530393,-0.707299 3.029201,-2.794269 3.260443,-2.723057 0.06404,0.01864 0.326896,-0.06705 0.58599,-0.194793 0.468814,-0.228871 0.675289,-0.28167 0.675289,-0.173024 0,0.03235 -0.06674,0.10231 -0.150547,0.158214 -0.145429,0.09686 -0.142663,0.09832 0.08437,0.04559 0.128909,-0.03138 0.345756,-0.07226 0.482019,-0.09481 0.168617,-0.02796 0.236972,-0.06743 0.213745,-0.126849 -0.01962,-0.05117 0.02865,-0.102312 0.119528,-0.125984 0.23047,-0.06061 0.58938,-0.04957 0.58938,0.01424 0,0.0795 -0.205265,0.159393 -0.368169,0.1438 -0.111875,-0.01323 -0.115703,-8.51e-4 -0.0341,0.05443 0.08407,0.05603 0.0847,0.06659 0.0092,0.06659 -0.05218,4.2e-4 -0.07761,0.01715 -0.05776,0.03922 0.01982,0.01958 0.160664,-0.02305 0.310171,-0.097 0.149471,-0.07324 0.423519,-0.165972 0.608752,-0.204416 0.228052,-0.0466 0.336747,-0.102172 0.336747,-0.170426 0,-0.08845 0.106493,-0.0938 0.819716,-0.05833 0.450938,0.02305 1.131335,0.09121 1.512014,0.152092 0.692039,0.110382 0.692095,0.110382 0.950051,-0.0353 0.309299,-0.172589 0.806983,-0.195038 0.937758,-0.0412 0.0472,0.05679 0.179469,0.147965 0.292588,0.204647 0.184492,0.09172 0.196651,0.09195 0.117754,0.0016 -0.148236,-0.173128 -0.0016,-0.168764 0.570864,0.01617 1.843981,0.598666 3.347166,1.664929 4.462579,3.165337 0.264526,0.355903 0.280626,0.515854 0.03078,0.299322 l -0.143267,-0.12315 0.110136,0.207641 c 0.06119,0.115497 0.110436,0.242649 0.110436,0.285157 0,0.04169 0.177342,0.357969 0.39413,0.700642 0.488503,0.772425 0.625055,1.032511 0.592246,1.127937 -0.01233,0.03971 -0.230333,-0.231175 -0.480798,-0.604526 -0.250476,-0.373412 -0.621115,-0.876552 -0.823585,-1.117958 -0.302407,-0.360662 -0.381597,-0.422341 -0.443282,-0.345167 -0.04058,0.05138 -0.142381,0.102884 -0.224256,0.114843 l -0.149147,0.01962 0.147661,0.280353 c 0.08208,0.154251 0.158295,0.249072 0.171454,0.210828 0.06983,-0.204746 0.398333,0.06461 0.54743,0.449557 0.04777,0.124161 0.176851,0.382041 0.285596,0.571451 0.109577,0.189449 0.184108,0.357768 0.167314,0.373897 -0.0156,0.01422 -0.115706,-0.03727 -0.220365,-0.115609 l -0.189972,-0.144788 0.129782,0.215581 c 0.07051,0.117405 0.190489,0.263585 0.265031,0.322324 0.09196,0.07221 0.137714,0.189007 0.14172,0.368898 0.01145,0.332177 0.204037,0.724601 0.310645,0.621173 0.166366,-0.161258 0.200478,-0.06111 0.158711,0.4675 -0.03176,0.388956 -0.01313,0.645229 0.05915,0.91734 0.111886,0.41327 0.08799,0.515179 -0.07482,0.322073 -0.103439,-0.12255 -0.104632,-0.122125 -0.05889,0.007 0.09842,0.273296 0.173207,0.681847 0.152619,0.842284 -0.03808,0.299374 -0.154361,0.174935 -0.194178,-0.20848 l -0.03841,-0.374371 -0.01244,0.398216 c -0.0092,0.219071 -0.06002,0.642455 -0.117144,0.94074 -0.06003,0.301389 -0.09009,0.666341 -0.06669,0.821383 0.03952,0.291729 0.01244,0.303052 -0.23961,0.09286 -0.102118,-0.0857 -0.119385,-0.06689 -0.190269,0.185283 -0.05982,0.212936 -0.05925,0.334088 0.003,0.512461 0.04301,0.128429 0.06849,0.302812 0.05765,0.387209 -0.03004,0.195054 -0.190436,0.255874 -0.190436,0.0708 0,-0.231238 -0.09034,-0.148928 -0.367938,0.333817 -0.748858,1.303459 -1.933774,2.312353 -3.274713,2.788245 -0.790697,0.280641 -1.320924,0.384643 -2.212544,0.434089 l -0.803004,0.04351 0.396699,0.117753 c 0.319995,0.0948 0.507738,0.110508 0.970231,0.07265 0.605973,-0.0464 1.317432,-0.174814 1.640029,-0.293824 0.128925,-0.0464 0.215723,-0.049 0.26026,-0.01 0.105341,0.101088 -0.82701,0.501348 -1.380283,0.591938 -0.941476,0.154287 -2.201439,-0.01377 -3.313704,-0.438061 -0.754634,-0.288834 -1.874519,-1.041146 -1.702903,-1.143861 0.03274,-0.01826 0.245542,0.07923 0.473475,0.218522 0.291207,0.178585 0.414287,0.225587 0.414287,0.158308 0,-0.126704 0.04218,-0.120457 0.27456,0.03872 0.208963,0.144117 0.851797,0.412225 1.314805,0.547901 0.504614,0.147979 0.308906,-0.03263 -0.368075,-0.337423 -2.140739,-0.96775 -3.029432,-1.935471 -3.47231,-3.781245 -0.162432,-0.676882 0.01313,-2.160779 0.307781,-2.625482 0.07473,-0.117118 0.136908,-0.262603 0.136908,-0.321832 0,-0.25706 0.442251,-0.936359 0.895968,-1.376257 0.799629,-0.775117 1.63089,-1.096951 2.71004,-1.049034 0.521663,0.02256 0.744471,0.06652 1.17862,0.23524 0.492363,0.190138 1.112501,0.588118 0.922596,0.592188 -0.04357,8.61e-4 -0.240504,-0.06347 -0.435028,-0.141401 -0.295803,-0.11849 -0.485419,-0.143561 -1.156692,-0.146015 -0.942738,-0.005 -1.403578,0.125662 -2.074562,0.583756 -0.951111,0.648847 -1.480097,1.396162 -1.667428,2.355918 -0.125329,0.643946 -0.12968,0.822446 -0.03272,1.461219 0.05766,0.368116 0.09591,0.476174 0.167338,0.449898 0.06012,-0.02107 0.09182,0.01219 0.09182,0.08992 0,0.228194 0.512057,1.1536 0.867242,1.567279 0.854667,0.995774 2.237377,1.631232 3.549241,1.631232 0.680941,0 1.231353,-0.126156 1.737944,-0.400021 0.203481,-0.110588 0.460276,-0.243979 0.570714,-0.298275 0.389583,-0.191478 0.631267,-0.41005 0.913834,-0.826796 0.15704,-0.231638 0.32793,-0.421119 0.37955,-0.421119 0.07624,0 0.07212,0.03427 -0.01707,0.178493 -0.298628,0.477823 0.40238,-0.391134 0.765325,-0.94872 l 0.406571,-0.624509 -0.0434,-0.410231 c -0.04148,-0.394198 -0.03695,-0.418274 0.158272,-0.616222 0.187402,-0.190725 0.204167,-0.247158 0.225818,-0.756884 0.01893,-0.456123 0.0093,-0.550884 -0.07713,-0.551384 -0.07713,-4.26e-4 -0.111072,-0.119853 -0.143442,-0.519639 -0.04332,-0.52808 -0.487572,-2.305045 -0.590821,-2.366876 -0.03179,-0.01814 -0.116923,-0.189548 -0.19217,-0.379686 -0.251767,-0.642121 -0.693008,-1.259199 -1.380829,-1.931474 -0.989792,-0.967272 -2.236583,-1.714195 -3.414366,-2.045443 -1.001782,-0.281675 -2.702929,-0.179448 -3.914607,0.235347 -0.591431,0.202392 -1.174079,0.470437 -1.272403,0.585274 -0.0435,0.05196 -0.109995,0.07791 -0.143692,0.05833 -0.03699,-0.02058 -0.02651,-0.08038 0.02319,-0.138758 0.223205,-0.26074 -0.517545,0.216465 -0.994401,0.640632 -0.288282,0.256423 -0.534658,0.474016 -0.547519,0.483583 -0.01244,0.01323 0.04243,4.24e-4 0.124181,-0.01959 0.135815,-0.0353 0.141096,-0.02499 0.06678,0.108865 -0.04615,0.08606 -0.292396,0.238726 -0.5931,0.37096 -0.505159,0.222155 -0.831973,0.466371 -1.091629,0.815656 -0.103694,0.139833 -0.110297,0.169591 -0.02802,0.139344 0.05885,-0.02057 0.105048,-0.01142 0.105048,0.03039 0,0.185329 -0.173503,0.392135 -0.430737,0.513222 -0.569802,0.268485 -1.570971,1.702079 -2.10728,3.01786 -0.238982,0.586308 -0.235055,0.565939 -0.105983,0.565939 0.137424,0 0.127302,0.150865 -0.06167,0.960763 -0.273949,1.179854 -0.274324,1.142059 0.02355,2.801923 0.3636,2.022437 0.576074,2.69799 0.979879,3.116563 0.09384,0.0972 0.186903,0.307076 0.227955,0.516975 0.04851,0.250585 0.131652,0.415928 0.285351,0.573338 0.140381,0.143599 0.187234,0.231434 0.133576,0.250534 -0.106376,0.03852 0.225463,0.516288 0.527703,0.76286 0.152041,0.123661 0.264806,0.165713 0.38688,0.14313 0.267518,-0.0491 0.539924,0.09919 0.958524,0.525678 0.435037,0.442591 0.478605,0.561552 0.190732,0.520598 -0.18566,-0.02684 -0.189944,-0.02066 -0.09777,0.114699 0.05277,0.07784 0.246446,0.264715 0.430967,0.415429 0.259051,0.211816 0.325785,0.303354 0.293131,0.402616 -0.04601,0.14293 0.08778,0.2762 0.388293,0.387996 0.187079,0.06836 0.247451,0.218821 0.107368,0.264355 -0.04144,0.01307 0.22089,0.27663 0.585549,0.584235 0.410826,0.346503 0.68709,0.536515 0.726574,0.499363 0.104301,-0.0973 0.237224,-0.06726 0.239676,0.05379 0.003,0.133161 0.120227,0.272409 0.545656,0.644618 0.268471,0.235237 0.33542,0.264855 0.499945,0.220947 0.1508,-0.04002 0.245655,-0.01247 0.457841,0.124089 0.423376,0.277518 0.680143,0.388256 0.900128,0.388256 0.216245,0 0.247058,0.06117 0.135,0.263827 -0.06032,0.108353 -0.04598,0.125097 0.09009,0.125097 0.08838,0 0.334213,0.05918 0.548215,0.129788 0.486339,0.16225 0.689245,0.173267 0.567433,0.03183 -0.180123,-0.210308 0.01244,-0.152849 0.654357,0.196997 0.899172,0.488905 1.354032,0.544638 3.144577,0.386101 0.265004,-0.02275 0.35125,-0.01257 0.35125,0.05688 0,0.05738 -0.230041,0.141184 -0.652446,0.239867 -0.555266,0.130437 -0.851648,0.155564 -1.990731,0.169295 -0.897575,0.01307 -1.510771,-0.01317 -1.861704,-0.07105 z m -0.915335,-9.725204 c 0,-0.01387 -0.08362,-0.07285 -0.184077,-0.133639 l -0.184,-0.10978 0.157931,0.133739 c 0.15414,0.130557 0.210124,0.159286 0.210124,0.109401 z m 9.213383,-6.798856 c -0.02016,-0.05159 -0.03773,-0.03727 -0.0394,0.03872 -0.0047,0.06722 0.01313,0.107517 0.03622,0.08606 0.02154,-0.02057 0.02436,-0.07741 0.0066,-0.123637 z M 31.178226,21.480563 c 0.08394,-0.102557 0.08174,-0.105442 -0.02528,-0.02404 -0.06428,0.04854 -0.1165,0.09929 -0.1165,0.114703 0,0.05331 0.056,0.01864 0.142389,-0.08939 z m 0.760948,-0.600142 c 0.06662,-0.07081 0.10663,-0.129789 0.089,-0.129789 -0.01784,0 -0.089,0.05926 -0.154632,0.129789 -0.06556,0.07081 -0.106658,0.12973 -0.08822,0.12973 0.01785,0 0.089,-0.0591 0.154547,-0.12973 z m 0.842383,-0.455987 c 0.220684,-0.07134 0.346025,-0.08606 0.392464,-0.04022 0.04586,0.04462 0.219031,0.01765 0.540334,-0.08441 0.259609,-0.08366 0.460112,-0.1616 0.445685,-0.175712 -0.01312,-0.01219 -0.228369,0.03922 -0.47506,0.118485 -0.33883,0.110404 -0.460802,0.125686 -0.498487,0.06606 -0.06402,-0.09944 -0.672728,0.09658 -0.934527,0.303004 l -0.1789,0.140962 0.192272,-0.112683 c 0.106317,-0.06268 0.338085,-0.159787 0.516266,-0.21828 z m 1.929128,-0.16479 c 0.194438,-0.05699 0.341773,-0.114045 0.327783,-0.126264 -0.03242,-0.03138 -0.723567,0.161991 -0.723567,0.200967 0,0.03922 0.0092,0.03781 0.39578,-0.07344 z m 1.109712,-0.35355 0.267735,-0.04658 -0.234238,-0.0091 c -0.128912,-0.005 -0.309413,0.03872 -0.40141,0.09268 -0.109113,0.06445 -0.119506,0.08424 -0.0341,0.05311 0.07265,-0.02548 0.254278,-0.06641 0.401499,-0.09225 z m 0.531495,-0.121993 c 0.01969,-0.03282 -0.02212,-0.04268 -0.09566,-0.02499 -0.15629,0.03971 -0.176154,0.08442 -0.03804,0.08442 0.05344,0 0.113833,-0.02697 0.134179,-0.05992 z m 2.160584,0.01913 c -0.02154,-0.02058 -0.08035,-0.02305 -0.128224,-0.007 -0.05367,0.01961 -0.03773,0.03679 0.04031,0.03922 0.06973,0.0035 0.110737,-0.01323 0.08789,-0.0353 z m -0.400072,-0.06966 c -0.06441,-0.01423 -0.16984,-0.01423 -0.234256,0 -0.0644,0.0142 -0.01244,0.03039 0.116788,0.03039 0.128919,0 0.181479,-0.01323 0.116269,-0.03039 z m -0.667346,-0.066 c -0.137482,-0.01323 -0.377975,-0.01323 -0.535448,-4.22e-4 -0.157296,0.01219 -0.04432,0.025 0.249173,0.02548 0.294515,1.97e-4 0.423243,-0.01219 0.286269,-0.025 z m -0.87313,-0.05825 c -0.02154,-0.02058 -0.08036,-0.02305 -0.12821,-0.007 -0.05365,0.01961 -0.03806,0.03727 0.03965,0.03872 0.06973,0.0034 0.111037,-0.01323 0.0885,-0.03529 z m -0.452993,15.592952 c -0.681569,-0.473417 -0.934097,-0.718363 -0.934097,-0.90588 0,-0.09859 0.02247,-0.180881 0.05128,-0.180881 0.09543,0 1.236032,1.153251 1.211015,1.225719 -0.01244,0.04012 -0.151916,-0.01387 -0.328439,-0.139088 z m -0.350719,-1.201999 c -0.353966,-0.346933 -0.467451,-0.533461 -0.324319,-0.533461 0.08705,0 0.744644,0.731156 0.744644,0.826736 0,0.04381 -0.01146,0.08273 -0.01809,0.08273 -0.01313,0 -0.19095,-0.168646 -0.401417,-0.374834 z m 3.91679,-1.419703 c -0.186899,-0.07168 -0.06957,-0.208746 0.23421,-0.271827 0.174802,-0.03826 0.452564,-0.12403 0.617289,-0.196316 0.164785,-0.07062 0.311489,-0.11781 0.325953,-0.104655 0.01334,0.01246 -0.06108,0.158263 -0.165629,0.32032 -0.190958,0.292993 -0.194344,0.294804 -0.560116,0.289837 -0.20246,-0.0029 -0.405699,-0.0182 -0.451723,-0.03786 z m 2.007471,-1.451281 c -0.180589,-0.06965 -0.188152,-0.190086 -0.03776,-0.597954 0.129659,-0.350365 0.263873,-0.419548 0.189117,-0.09689 -0.02759,0.115992 -0.06293,0.28398 -0.08021,0.373068 l -0.03194,0.162235 0.134039,-0.14763 c 0.07972,-0.08844 0.152352,-0.292458 0.179393,-0.502133 0.02518,-0.194953 0.07144,-0.338308 0.105657,-0.318891 0.08362,0.04907 0.07326,0.562602 -0.01313,0.907468 -0.07851,0.30119 -0.148597,0.336401 -0.443823,0.221273 z M 25.856915,30.3149 c -0.02147,-0.05756 -0.03975,-0.277804 -0.03975,-0.491898 0,-0.282558 0.022,-0.381988 0.08462,-0.362617 0.09851,0.03282 0.157843,0.957126 0.06146,0.957126 -0.03572,0 -0.08193,-0.04559 -0.103486,-0.102391 z m 16.09848,-1.517337 c -0.104173,-0.136542 -0.136282,-0.243964 -0.107363,-0.357862 0.06165,-0.234017 0.218986,-0.200781 0.335938,0.06965 0.181744,0.421712 0.02355,0.619524 -0.229411,0.287264 z M 25.843228,27.767876 c -0.007,-0.367868 -4e-5,-0.379294 0.167847,-0.373067 0.142532,0.007 0.176826,0.0407 0.193181,0.204508 0.01785,0.183564 -0.187483,0.547947 -0.309749,0.547947 -0.02522,0 -0.04795,-0.170866 -0.05124,-0.379392 z m 17.34575,-7.975209 c 0.01313,-0.58057 0.111039,-0.777237 0.188875,-0.370811 0.05588,0.283293 -0.01244,0.783377 -0.12065,0.869015 -0.05867,0.04555 -0.07451,-0.0807 -0.06675,-0.498174 z M 34.396191,19.444893 C 34.423491,19.366543 35.346148,19 35.516402,19 c 0.20012,0 -0.158742,0.237501 -0.572716,0.379342 -0.461639,0.157826 -0.584461,0.172437 -0.54749,0.06565 z"
     id="path7225-4-2-3-9"
     style="fill:#ff2a2a;fill-opacity:1;stroke-width:1.43467" /></g></svg>
