<?xml version="1.0" encoding="UTF-8" standalone="no"?>
<!-- Generator: Adobe Illustrator 27.5.0, SVG Export Plug-In . SVG Version: 6.00 Build 0)  -->

<svg
   version="1.1"
   id="Layer_1"
   x="0px"
   y="0px"
   viewBox="0 0 63.999998 63.999999"
   xml:space="preserve"
   sodipodi:docname="folder-projects.svg"
   inkscape:version="1.4.3 (unknown)"
   width="64"
   height="64"
   xmlns:inkscape="http://www.inkscape.org/namespaces/inkscape"
   xmlns:sodipodi="http://sodipodi.sourceforge.net/DTD/sodipodi-0.dtd"
   xmlns="http://www.w3.org/2000/svg"
   xmlns:svg="http://www.w3.org/2000/svg"><defs
   id="defs762">
	
		<radialGradient
   id="SVGID_00000022534578410790736700000013999825567828354183_"
   cx="422.99371"
   cy="288.32251"
   r="28.502399"
   gradientTransform="matrix(0.98379286,0,0,0.98236136,-385.19832,-251.34342)"
   gradientUnits="userSpaceOnUse">
		<stop
   offset="0"
   style="stop-color:#A0866A"
   id="stop74" />
		<stop
   offset="0.2596"
   style="stop-color:#9C8268"
   id="stop75" />
		<stop
   offset="0.5301"
   style="stop-color:#8F7861"
   id="stop76" />
		<stop
   offset="0.8045"
   style="stop-color:#7B6656"
   id="stop77" />
		<stop
   offset="1"
   style="stop-color:#67554B"
   id="stop78" />
	</radialGradient>
	
	
	
	
		<radialGradient
   id="SVGID_00000125562367361927050560000001190537805866180488_"
   cx="417.22159"
   cy="288.32251"
   r="27.744699"
   gradientTransform="matrix(1.0074039,0,0,0.98236136,-390.24016,-251.34342)"
   gradientUnits="userSpaceOnUse">
		<stop
   offset="0"
   style="stop-color:#A0866A"
   id="stop85" />
		<stop
   offset="0.2596"
   style="stop-color:#9C8268"
   id="stop86" />
		<stop
   offset="0.5301"
   style="stop-color:#8F7861"
   id="stop87" />
		<stop
   offset="0.8045"
   style="stop-color:#7B6656"
   id="stop88" />
		<stop
   offset="1"
   style="stop-color:#67554B"
   id="stop89" />
	</radialGradient>
	
	
		<radialGradient
   id="SVGID_00000097500425902151924180000002286946989435723681_"
   cx="405.16061"
   cy="259.82541"
   r="73.946198"
   gradientTransform="matrix(0.94060435,0,0,0.98236136,-375.80615,-251.34342)"
   gradientUnits="userSpaceOnUse">
		<stop
   offset="0"
   style="stop-color:#535d6c;stop-opacity:1"
   id="stop90" />
		<stop
   offset="0.2284"
   style="stop-color:#373e48;stop-opacity:1"
   id="stop91" />
		<stop
   offset="0.4664"
   style="stop-color:#373e48;stop-opacity:1"
   id="stop92" />
		<stop
   offset="0.70889997"
   style="stop-color:#48515e;stop-opacity:1;"
   id="stop93" />
		<stop
   offset="0.95289999"
   style="stop-color:#373e48;stop-opacity:1"
   id="stop94" />
		<stop
   offset="1"
   style="stop-color:#373e48;stop-opacity:1"
   id="stop95" />
	</radialGradient>
	
	
		<radialGradient
   id="SVGID_00000119082666600208423750000005907981173642057379_"
   cx="425.73099"
   cy="288.43094"
   r="67.4496"
   gradientTransform="matrix(0.82943576,0,0,0.98236136,-350.11651,-251.34342)"
   gradientUnits="userSpaceOnUse"
   fx="425.73099"
   fy="288.43094">
		<stop
   offset="0"
   style="stop-color:#939dac;stop-opacity:1"
   id="stop96" />
		<stop
   offset="0.25960001"
   style="stop-color:#535d6c;stop-opacity:1"
   id="stop97" />
		<stop
   offset="0.5301"
   style="stop-color:#535d6c;stop-opacity:1"
   id="stop98" />
		<stop
   offset="0.8045"
   style="stop-color:#373e48;stop-opacity:1"
   id="stop99" />
		<stop
   offset="1"
   style="stop-color:#373e48;stop-opacity:1"
   id="stop100" />
	</radialGradient>
	
	
		<radialGradient
   id="SVGID_00000165928333602235411140000014852226284911233709_"
   cx="-1556.7609"
   cy="1310.3918"
   r="1.7343"
   gradientTransform="matrix(0.62323278,0,0,0.68421469,985.97188,-887.64613)"
   gradientUnits="userSpaceOnUse">
		<stop
   offset="0"
   style="stop-color:#E1CEC0"
   id="stop101" />
		<stop
   offset="0.761"
   style="stop-color:#E0CDBE"
   id="stop102" />
		<stop
   offset="1"
   style="stop-color:#DCC9B9"
   id="stop103" />
	</radialGradient>
	
	
		<radialGradient
   id="SVGID_00000023271670121255412580000014745766858599489424_"
   cx="-1556.7609"
   cy="1306.0997"
   r="1.7342"
   gradientTransform="matrix(0.62323278,0,0,0.68421469,985.97188,-880.11982)"
   gradientUnits="userSpaceOnUse">
		<stop
   offset="0"
   style="stop-color:#E1CEC0"
   id="stop104" />
		<stop
   offset="0.761"
   style="stop-color:#E0CDBE"
   id="stop105" />
		<stop
   offset="1"
   style="stop-color:#DCC9B9"
   id="stop106" />
	</radialGradient>
	
	
		<radialGradient
   id="SVGID_00000093146561591346411050000017874754504161969285_"
   cx="-1556.7609"
   cy="1301.8096"
   r="1.733"
   gradientTransform="matrix(0.62323278,0,0,0.68421469,985.97188,-872.59405)"
   gradientUnits="userSpaceOnUse">
		<stop
   offset="0"
   style="stop-color:#E1CEC0"
   id="stop107" />
		<stop
   offset="0.761"
   style="stop-color:#E0CDBE"
   id="stop108" />
		<stop
   offset="1"
   style="stop-color:#DCC9B9"
   id="stop109" />
	</radialGradient>
	
	
		<radialGradient
   id="SVGID_00000124154437391672708990000002450479196596738238_"
   cx="-1556.7609"
   cy="1297.5177"
   r="1.7336"
   gradientTransform="matrix(0.62323278,0,0,0.68421469,985.97188,-865.06833)"
   gradientUnits="userSpaceOnUse">
		<stop
   offset="0"
   style="stop-color:#E1CEC0"
   id="stop110" />
		<stop
   offset="0.761"
   style="stop-color:#E0CDBE"
   id="stop111" />
		<stop
   offset="1"
   style="stop-color:#DCC9B9"
   id="stop112" />
	</radialGradient>
	
	
		<radialGradient
   id="SVGID_00000034058293124216951570000006641406590055667894_"
   cx="-1556.7609"
   cy="1293.2249"
   r="1.7339"
   gradientTransform="matrix(0.62323278,0,0,0.68421469,985.97188,-857.54231)"
   gradientUnits="userSpaceOnUse">
		<stop
   offset="0"
   style="stop-color:#E1CEC0"
   id="stop113" />
		<stop
   offset="0.761"
   style="stop-color:#E0CDBE"
   id="stop114" />
		<stop
   offset="1"
   style="stop-color:#DCC9B9"
   id="stop115" />
	</radialGradient>
	
	
		<radialGradient
   id="SVGID_00000042694802152741533360000006474553379895889032_"
   cx="-1556.7609"
   cy="1288.9327"
   r="1.7342"
   gradientTransform="matrix(0.62323278,0,0,0.68421469,985.97188,-850.01604)"
   gradientUnits="userSpaceOnUse">
		<stop
   offset="0"
   style="stop-color:#E1CEC0"
   id="stop116" />
		<stop
   offset="0.761"
   style="stop-color:#E0CDBE"
   id="stop117" />
		<stop
   offset="1"
   style="stop-color:#DCC9B9"
   id="stop118" />
	</radialGradient>
	
	
		<radialGradient
   id="SVGID_00000111901877872900564700000014159718068513697190_"
   cx="-1556.7609"
   cy="1284.642"
   r="1.7334"
   gradientTransform="matrix(0.62323278,0,0,0.68421469,985.97188,-842.49032)"
   gradientUnits="userSpaceOnUse">
		<stop
   offset="0"
   style="stop-color:#E1CEC0"
   id="stop119" />
		<stop
   offset="0.761"
   style="stop-color:#E0CDBE"
   id="stop120" />
		<stop
   offset="1"
   style="stop-color:#DCC9B9"
   id="stop121" />
	</radialGradient>
	
	
		<radialGradient
   id="SVGID_00000022538754652405687830000005864690060167237006_"
   cx="-1556.7609"
   cy="1280.3497"
   r="1.7334"
   gradientTransform="matrix(0.62323278,0,0,0.68421469,985.97188,-834.96406)"
   gradientUnits="userSpaceOnUse">
		<stop
   offset="0"
   style="stop-color:#E1CEC0"
   id="stop122" />
		<stop
   offset="0.761"
   style="stop-color:#E0CDBE"
   id="stop123" />
		<stop
   offset="1"
   style="stop-color:#DCC9B9"
   id="stop124" />
	</radialGradient>
	
	
		<radialGradient
   id="SVGID_00000059309292910592828090000012283058363263137190_"
   cx="-1556.7609"
   cy="1276.0603"
   r="1.7339"
   gradientTransform="matrix(0.62323278,0,0,0.68421469,985.97188,-827.43829)"
   gradientUnits="userSpaceOnUse">
		<stop
   offset="0"
   style="stop-color:#E1CEC0"
   id="stop125" />
		<stop
   offset="0.761"
   style="stop-color:#E0CDBE"
   id="stop126" />
		<stop
   offset="1"
   style="stop-color:#DCC9B9"
   id="stop127" />
	</radialGradient>
	
	
		<radialGradient
   id="SVGID_00000164515357396027012420000009309048799111497121_"
   cx="-1556.7609"
   cy="1271.7668"
   r="1.7334"
   gradientTransform="matrix(0.62323278,0,0,0.68421469,985.97188,-819.91212)"
   gradientUnits="userSpaceOnUse">
		<stop
   offset="0"
   style="stop-color:#E1CEC0"
   id="stop128" />
		<stop
   offset="0.761"
   style="stop-color:#E0CDBE"
   id="stop129" />
		<stop
   offset="1"
   style="stop-color:#DCC9B9"
   id="stop130" />
	</radialGradient>
	
	
		<radialGradient
   id="SVGID_00000078021694386518579320000000195962685941464961_"
   cx="-1556.7609"
   cy="1267.4753"
   r="1.733"
   gradientTransform="matrix(0.62323278,0,0,0.68421469,985.97188,-812.3863)"
   gradientUnits="userSpaceOnUse">
		<stop
   offset="0"
   style="stop-color:#E1CEC0"
   id="stop131" />
		<stop
   offset="0.761"
   style="stop-color:#E0CDBE"
   id="stop132" />
		<stop
   offset="1"
   style="stop-color:#DCC9B9"
   id="stop133" />
	</radialGradient>
	
	
	
		<radialGradient
   id="SVGID_00000179631901819502847670000002313046964360062115_"
   cx="465.28549"
   cy="269.20731"
   r="33.883701"
   gradientTransform="matrix(0.7608654,0,0,0.98236136,-334.59177,-251.34342)"
   gradientUnits="userSpaceOnUse">
		<stop
   offset="0"
   style="stop-color:#5599ff;stop-opacity:1"
   id="stop145" />
		<stop
   offset="0.31479999"
   style="stop-color:#267dff;stop-opacity:1;"
   id="stop146" />
		<stop
   offset="0.7586"
   style="stop-color:#2a7fff;stop-opacity:1"
   id="stop147" />
		<stop
   offset="1"
   style="stop-color:#0053d0;stop-opacity:1;"
   id="stop148" />
	</radialGradient>
	
	
		<radialGradient
   id="SVGID_00000110451134532301891090000001961278411554218625_"
   cx="422.12851"
   cy="271.23071"
   r="41.8508"
   gradientTransform="matrix(0.91866577,0,0,0.98236136,-370.25146,-251.34342)"
   gradientUnits="userSpaceOnUse">
		<stop
   offset="0.1067"
   style="stop-color:#8d5fd3;stop-opacity:1"
   id="stop149" />
		<stop
   offset="0.5118"
   style="stop-color:#8d5fd3;stop-opacity:1"
   id="stop150" />
		<stop
   offset="1"
   style="stop-color:#8d5fd3;stop-opacity:1"
   id="stop151" />
	</radialGradient>
	

		
		
		
		
		
		
	
		
			<radialGradient
   id="SVGID_00000052091378501920612200000006059691176872464570_"
   cx="-498.31311"
   cy="565.55511"
   r="5.8572001"
   gradientTransform="matrix(1.1015529,0,0,1.1486751,623.04374,-631.95324)"
   gradientUnits="userSpaceOnUse">
			<stop
   offset="0"
   style="stop-color:#A0866A"
   id="stop134" />
			<stop
   offset="0.2596"
   style="stop-color:#9C8268"
   id="stop135" />
			<stop
   offset="0.5301"
   style="stop-color:#8F7861"
   id="stop136" />
			<stop
   offset="0.8045"
   style="stop-color:#7B6656"
   id="stop137" />
			<stop
   offset="1"
   style="stop-color:#67554B"
   id="stop138" />
		</radialGradient>
		
		
		
		
	
			
				<radialGradient
   id="SVGID_00000044889807405124194260000009933868313778631062_"
   cx="-498.314"
   cy="580.81989"
   r="7.6585999"
   gradientTransform="matrix(1.1015529,0,0,1.1486751,623.04374,-631.95324)"
   gradientUnits="userSpaceOnUse">
				<stop
   offset="0"
   style="stop-color:#A0866A"
   id="stop139" />
				<stop
   offset="0.2596"
   style="stop-color:#9C8268"
   id="stop140" />
				<stop
   offset="0.5301"
   style="stop-color:#8F7861"
   id="stop141" />
				<stop
   offset="0.8045"
   style="stop-color:#7B6656"
   id="stop142" />
				<stop
   offset="1"
   style="stop-color:#67554B"
   id="stop143" />
			</radialGradient>
			
		<radialGradient
   id="SVGID_00000097500425902151924180000002286946989435723681_-3"
   cx="405.16061"
   cy="259.82541"
   r="73.946198"
   gradientTransform="matrix(0.94060435,0,0,0.98236136,-375.80615,-251.34342)"
   gradientUnits="userSpaceOnUse">
		<stop
   offset="0"
   style="stop-color:#535d6c;stop-opacity:1"
   id="stop90-5" />
		<stop
   offset="0.2284"
   style="stop-color:#373e48;stop-opacity:1"
   id="stop91-1" />
		<stop
   offset="0.4664"
   style="stop-color:#373e48;stop-opacity:1"
   id="stop92-7" />
		<stop
   offset="0.70889997"
   style="stop-color:#48515e;stop-opacity:1;"
   id="stop93-4" />
		<stop
   offset="0.95289999"
   style="stop-color:#373e48;stop-opacity:1"
   id="stop94-3" />
		<stop
   offset="1"
   style="stop-color:#373e48;stop-opacity:1"
   id="stop95-1" />
	</radialGradient><radialGradient
   id="SVGID_00000119082666600208423750000005907981173642057379_-4"
   cx="425.73099"
   cy="288.43094"
   r="67.4496"
   gradientTransform="matrix(0.82943576,0,0,0.98236136,-350.11651,-251.34342)"
   gradientUnits="userSpaceOnUse"
   fx="425.73099"
   fy="288.43094">
		<stop
   offset="0"
   style="stop-color:#939dac;stop-opacity:1"
   id="stop96-6" />
		<stop
   offset="0.25960001"
   style="stop-color:#535d6c;stop-opacity:1"
   id="stop97-9" />
		<stop
   offset="0.5301"
   style="stop-color:#535d6c;stop-opacity:1"
   id="stop98-4" />
		<stop
   offset="0.8045"
   style="stop-color:#373e48;stop-opacity:1"
   id="stop99-2" />
		<stop
   offset="1"
   style="stop-color:#373e48;stop-opacity:1"
   id="stop100-2" />
	</radialGradient></defs><sodipodi:namedview
   id="namedview762"
   pagecolor="#ffffff"
   bordercolor="#000000"
   borderopacity="0.25"
   inkscape:showpageshadow="2"
   inkscape:pageopacity="0.0"
   inkscape:pagecheckerboard="0"
   inkscape:deskcolor="#d1d1d1"
   inkscape:zoom="8"
   inkscape:cx="21.4375"
   inkscape:cy="29.6875"
   inkscape:window-width="1920"
   inkscape:window-height="994"
   inkscape:window-x="0"
   inkscape:window-y="0"
   inkscape:window-maximized="1"
   inkscape:current-layer="Layer_1"
   showgrid="false"><inkscape:grid
     id="grid1"
     units="px"
     originx="0"
     originy="0"
     spacingx="0.99999997"
     spacingy="0.99999998"
     empcolor="#0099e5"
     empopacity="0.30196078"
     color="#0099e5"
     opacity="0.14901961"
     empspacing="5"
     enabled="true"
     visible="false" /></sodipodi:namedview>




















<g
   id="g1"><path
     d="m 59.081109,50.189861 c 0,5.81014 -4.176201,9.110139 -9.326848,9.110139 H 12.324878 C 7.1752139,59.3 2.999997,55.219763 2.999997,50.189861 V 13.810139 c 0,-5.0303802 4.1752169,-9.1101391 9.324881,-9.1101391 h 37.429383 c 5.150647,0 9.326848,3.0998612 9.326848,8.9100001 z"
     id="path78"
     style="fill:#b7bec8;fill-opacity:1;stroke-width:0.987421"
     sodipodi:nodetypes="sssssssss" /><path
     style="fill:#b7bec8;fill-opacity:1;stroke-width:0.485356"
     d="m 58.142571,50.189862 c 0,5.030379 -4.106352,9.110138 -9.170426,9.110138 H 12.169438 C 7.1063484,59.3 2.999997,55.219763 2.999997,50.189862 V 13.810138 c 0,-5.0303792 4.1063514,-9.1101381 9.169441,-9.1101381 h 36.802707 c 5.064074,0 9.170426,4.0802377 9.170426,9.1101381 z"
     id="path79" /><g
     id="g2"><path
       style="fill:#ffaaaa;fill-opacity:1;stroke-width:0.491538"
       d="m 60.742243,43.740446 v 3.41518 c 0,1.767268 -1.339434,3.202989 -3.005979,3.247195 0.02509,0 0.05116,0.0039 0.07674,0.0039 h 0.10379 c 1.702454,0 3.083207,-1.455369 3.083207,-3.251125 v -3.41518 c 0,-1.794774 -1.380753,-3.251125 -3.083207,-3.251125 H 57.813 c -0.02607,0 -0.05165,0.0039 -0.07674,0.0039 1.666545,0.04371 3.005979,1.478945 3.005979,3.247195 z"
       id="path80" /><path
       style="fill:#d35f8d;stroke-width:0.491538"
       d="m 57.284703,50.356159 c 0.147077,0.02701 0.297598,0.04224 0.451561,0.04715 1.667037,-0.04421 3.005979,-1.480418 3.005979,-3.247195 v -3.415179 c 0,-1.768251 -1.339434,-3.20299 -3.005979,-3.247196 -0.153963,0.0039 -0.304484,0.02112 -0.451561,0.04814 z"
       id="path81" /></g><path
     style="fill:#ffeeaa;fill-opacity:1;stroke-width:0.491538"
     d="m 60.742243,29.923043 v 3.413214 c 0,1.769233 -1.339434,3.203972 -3.005979,3.248178 0.02509,0 0.05116,0.0039 0.07674,0.0039 h 0.10379 c 1.702454,0 3.083207,-1.45635 3.083207,-3.252107 v -3.413214 c 0,-1.795757 -1.380753,-3.252108 -3.083207,-3.252108 H 57.813 c -0.02607,0 -0.05165,0.0039 -0.07674,0.0039 1.666545,0.04224 3.005979,1.477962 3.005979,3.248178 z"
     id="path82" /><path
     style="fill:#ffd42a;fill-opacity:1;stroke-width:0.491538"
     d="m 57.284703,36.537773 c 0.147077,0.02603 0.297598,0.04322 0.451561,0.04715 1.667037,-0.04421 3.005979,-1.479436 3.005979,-3.248178 v -3.413214 c 0,-1.770215 -1.339434,-3.205936 -3.005979,-3.248178 -0.153963,0.0039 -0.304484,0.02112 -0.451561,0.04814 z"
     id="path83" /><path
     style="fill:#a1ffff;fill-opacity:1;stroke-width:0.491538"
     d="m 60.742243,16.104657 v 3.413214 c 0,1.770215 -1.339434,3.203972 -3.005979,3.24916 0.02509,0 0.05116,0.0029 0.07674,0.0029 h 0.10379 c 1.702454,0 3.083207,-1.455368 3.083207,-3.252107 V 16.10461 c 0,-1.795757 -1.380753,-3.252108 -3.083207,-3.252108 H 57.813 c -0.02607,0 -0.05165,0.0029 -0.07674,0.0049 1.666545,0.04322 3.005979,1.478454 3.005979,3.247196 z"
     id="path84" /><path
     style="fill:#00cccc;fill-opacity:1;stroke-width:0.491538"
     d="m 57.284703,22.719387 c 0.147077,0.02701 0.297598,0.04322 0.451561,0.04814 1.667037,-0.04519 3.005979,-1.479437 3.005979,-3.249161 v -3.413214 c 0,-1.769233 -1.339434,-3.203972 -3.005979,-3.247196 -0.153963,0.0029 -0.304484,0.01817 -0.451561,0.04519 z"
     id="path85" /><path
     style="fill:#939dac;fill-opacity:1;stroke-width:0.488898"
     d="m 57.333893,50.456382 c 0,5.104082 -4.045848,9.243618 -9.035646,9.243618 H 12.035151 C 7.0458451,59.7 3.0004889,55.559979 3.0004889,50.456382 V 13.543618 c 0,-5.1040823 4.0458481,-9.2436179 9.0346621,-9.2436179 h 36.263096 c 4.99029,0 9.035646,4.1400216 9.035646,9.2436179 z"
     id="path89" /><path
     style="fill:url(#SVGID_00000097500425902151924180000002286946989435723681_-3);stroke-width:0.491538"
     d="M 56.620643,52.656 C 56.620643,57.000001 52.999998,60 48.004,60 H 11.91562 C 6.9917365,60 2.999997,55.815141 2.999997,50.65627 V 12.144 c 0,-1.144 4.0000028,-8.1440001 8.915623,-8.1440001 H 47.504 c 5.495998,0 9.116643,3.0000002 9.116643,8.0440001 z"
     id="path95"
     sodipodi:nodetypes="sssssssss" /><path
     style="fill:url(#SVGID_00000119082666600208423750000005907981173642057379_-4);stroke-width:0.491538"
     d="m 17.733771,60 v 0 H 11 C 5.9999998,60 2.999997,57.000001 2.999997,52 V 12 C 2.999997,7.0000001 5.9999998,3.9999999 11,3.9999999 h 6.891178 v 0 z"
     id="path100"
     sodipodi:nodetypes="ccssssccc" /><path
     style="fill:#80b3ff;fill-opacity:1;stroke-width:0.491538"
     d="m 16.347607,9.8961328 c 0,0.3782092 -0.278414,0.6832322 -0.621757,0.6832322 v 0 c -0.343836,0 -0.622741,-0.305023 -0.622741,-0.6832322 V 8.1991036 c 0,-0.3782092 0.278413,-0.6842147 0.622741,-0.6842147 v 0 c 0.342851,0 0.621757,0.3060055 0.621757,0.6842147 z"
     id="path103" /><path
     style="fill:#80b3ff;fill-opacity:1;stroke-width:0.491538"
     d="m 16.347607,14.485234 c 0,0.377718 -0.278414,0.683232 -0.621757,0.683232 v 0 c -0.343836,0 -0.622741,-0.305023 -0.622741,-0.683232 v -1.698012 c 0,-0.378209 0.278413,-0.683232 0.622741,-0.683232 v 0 c 0.342851,0 0.621757,0.305023 0.621757,0.683232 z"
     id="path106" /><path
     style="fill:#80b3ff;fill-opacity:1;stroke-width:0.491538"
     d="m 16.347607,19.074826 c 0,0.378209 -0.278414,0.683232 -0.621757,0.683232 v 0 c -0.343836,0 -0.622741,-0.305023 -0.622741,-0.683232 v -1.698011 c 0,-0.376245 0.278413,-0.681268 0.622741,-0.681268 v 0 c 0.342851,0 0.621757,0.305023 0.621757,0.681268 z"
     id="path109" /><path
     style="fill:#80b3ff;fill-opacity:1;stroke-width:0.491538"
     d="m 16.347607,23.664418 c 0,0.376245 -0.278414,0.683233 -0.621757,0.683233 v 0 c -0.343836,0 -0.622741,-0.306988 -0.622741,-0.683233 v -1.698011 c 0,-0.377227 0.278413,-0.683232 0.622741,-0.683232 v 0 c 0.342851,0 0.621757,0.306005 0.621757,0.683232 z"
     id="path112" /><path
     style="fill:#80b3ff;fill-opacity:1;stroke-width:0.491538"
     d="m 16.347607,28.254011 c 0,0.376244 -0.278414,0.683232 -0.621757,0.683232 v 0 c -0.343836,0 -0.622741,-0.306988 -0.622741,-0.683232 v -1.696047 c 0,-0.378209 0.278413,-0.685197 0.622741,-0.685197 v 0 c 0.342851,0 0.621757,0.306988 0.621757,0.685197 z"
     id="path115" /><path
     style="fill:#80b3ff;fill-opacity:1;stroke-width:0.491538"
     d="m 16.347607,32.843112 c 0,0.377227 -0.278414,0.683232 -0.621757,0.683232 v 0 c -0.343836,0 -0.622741,-0.306005 -0.622741,-0.683232 v -1.697029 c 0,-0.377227 0.278413,-0.684215 0.622741,-0.684215 v 0 c 0.342851,0 0.621757,0.306988 0.621757,0.684215 z"
     id="path118" /><path
     style="fill:#80b3ff;fill-opacity:1;stroke-width:0.491538"
     d="m 16.347607,37.432704 c 0,0.377227 -0.278414,0.683232 -0.621757,0.683232 v 0 c -0.343836,0 -0.622741,-0.306005 -0.622741,-0.683232 v -1.697029 c 0,-0.377227 0.278413,-0.683232 0.622741,-0.683232 v 0 c 0.342851,0 0.621757,0.306005 0.621757,0.683232 z"
     id="path121" /><path
     style="fill:#80b3ff;fill-opacity:1;stroke-width:0.491538"
     d="m 16.347607,42.022296 c 0,0.377718 -0.278414,0.683233 -0.621757,0.683233 v 0 c -0.343836,0 -0.622741,-0.305024 -0.622741,-0.683233 v -1.696047 c 0,-0.378209 0.278413,-0.684214 0.622741,-0.684214 v 0 c 0.342851,0 0.621757,0.306005 0.621757,0.684214 z"
     id="path124" /><path
     style="fill:#80b3ff;fill-opacity:1;stroke-width:0.491538"
     d="m 16.347607,46.61238 c 0,0.377227 -0.278414,0.684214 -0.621757,0.684214 v 0 c -0.343836,0 -0.622741,-0.306987 -0.622741,-0.684214 v -1.696047 c 0,-0.3787 0.278413,-0.684215 0.622741,-0.684215 v 0 c 0.342851,0 0.621757,0.305023 0.621757,0.684215 z"
     id="path127" /><path
     style="fill:#80b3ff;fill-opacity:1;stroke-width:0.491538"
     d="m 16.347607,51.202954 c 0,0.376245 -0.278414,0.681268 -0.621757,0.681268 v 0 c -0.343836,0 -0.622741,-0.305023 -0.622741,-0.681268 v -1.698011 c 0,-0.378209 0.278413,-0.683232 0.622741,-0.683232 v 0 c 0.342851,0 0.621757,0.305023 0.621757,0.683232 z"
     id="path130" /><path
     style="fill:#80b3ff;fill-opacity:1;stroke-width:0.491538"
     d="m 16.347607,55.791564 c 0,0.378209 -0.278414,0.68225 -0.621757,0.68225 v 0 c -0.343836,0 -0.622741,-0.304041 -0.622741,-0.68225 v -1.698011 c 0,-0.377227 0.278413,-0.68225 0.622741,-0.68225 v 0 c 0.342851,0 0.621757,0.305023 0.621757,0.68225 z"
     id="path133" /></g><g
   id="g4"
   transform="translate(0.5,-0.758058)"><path
     d="m 45.035585,35.280124 c -0.19319,-0.548031 -0.488832,-1.062149 -0.885857,-1.542255 -0.397755,-0.479633 -0.891686,-0.905648 -1.482234,-1.277857 -0.590851,-0.371859 -1.283476,-0.665542 -2.078312,-0.881264 -0.318555,-0.078 -0.878868,-0.200601 -1.616912,-0.367204 -0.52751,-0.118724 -1.022026,-0.240394 -1.579505,-0.364306 v -6.049781 c 0.557455,0.137148 0.944727,0.354856 1.358105,0.596841 0.884466,0.51728 1.43905,1.402266 1.601497,2.603928 h 4.284742 c -0.04086,-1.030065 -0.288052,-1.874659 -0.743055,-2.633431 -0.499846,-0.832177 -1.175422,-1.546386 -2.027346,-2.114727 -0.851688,-0.567786 -1.87217,-1.000826 -2.99652,-1.284964 -0.488357,-0.123209 -0.919899,-0.226761 -1.477361,-0.296603 v -1.910443 h -3.964226 v 1.897903 c -0.433644,0.05984 -0.938303,0.139823 -1.389118,0.243207 -1.06798,0.245016 -2.006144,0.621889 -2.846234,1.130945 -0.840645,0.50956 -1.508439,1.150872 -2.01957,1.924238 -0.511252,0.773794 -0.762593,1.689224 -0.762593,2.746708 0,0.548483 0.08698,1.086814 0.257233,1.615722 0.170312,0.528831 0.460911,1.028091 0.869824,1.498102 0.409001,0.470048 0.959772,0.896025 1.653016,1.277904 0.692675,0.382057 1.530258,0.690324 2.575251,0.925326 0.575211,0.134095 1.166341,0.259269 1.661867,0.376124 v 6.843109 C 32.747071,40.070413 32.072602,39.814063 31.52818,39.466183 30.960214,39.104026 30.53303,38.667733 30.215141,38.099428 29.919332,37.571299 29.776854,36.924857 29.756345,36.238203 H 25.5 c 0.04278,1.201719 0.325159,2.259978 0.846842,3.16855 0.544979,0.950018 1.271877,1.714321 2.180571,2.320987 0.90822,0.607372 1.944561,1.050367 3.171312,1.3442 0.550152,0.131568 1.172289,0.226954 1.729743,0.299195 v 2.022617 h 3.964265 v -1.976447 c 0.619416,-0.06138 1.174219,-0.153815 1.767003,-0.27903 1.158358,-0.244668 2.20791,-0.631528 3.116636,-1.160203 0.908188,-0.528843 1.64892,-1.209029 2.205755,-2.041866 0.556243,-0.832099 0.839021,-1.835972 0.839021,-3.010953 4e-5,-0.54808 -0.09305,-1.096626 -0.285708,-1.645067 z m -11.606984,-5.35362 c -0.743314,-0.214248 -1.481144,-0.52004 -1.985257,-0.918301 -0.533966,-0.420808 -0.785055,-1.00333 -0.785055,-1.747876 0,-0.528796 0.14961,-0.969341 0.433885,-1.321973 0.283779,-0.352532 0.613976,-0.631619 1.045551,-0.837224 0.382867,-0.18243 0.857282,-0.31843 1.290875,-0.408436 z m 7.364928,8.570406 c -0.182073,0.382122 -0.476894,0.71958 -0.885959,1.013443 -0.408986,0.294014 -0.975188,0.53374 -1.633801,0.719673 -0.278798,0.07895 -0.509408,0.140073 -0.881004,0.18531 v -6.129119 c 0.619397,0.150115 1.126096,0.305193 1.630681,0.465246 0.499337,0.157268 0.975466,0.42586 1.395962,0.807751 0.420266,0.38219 0.638541,0.974499 0.638541,1.777332 5.2e-5,0.392087 -0.08286,0.778512 -0.264392,1.160441 z"
     id="path25907-1-3-1"
     style="fill:#ffffff;fill-opacity:0.501961;stroke-width:1.43158" /><path
     d="m 46.714437,35.64443 c -0.19319,-0.548033 -0.488832,-1.062149 -0.885858,-1.542255 -0.397754,-0.479632 -0.891686,-0.905648 -1.482233,-1.277857 -0.590852,-0.371861 -1.283478,-0.665542 -2.078314,-0.881264 -0.318553,-0.078 -0.878868,-0.2006 -1.61691,-0.367204 -0.527511,-0.118724 -1.022027,-0.240394 -1.579508,-0.364306 v -6.049781 c 0.557457,0.137148 0.944727,0.354857 1.358108,0.596842 0.884465,0.517277 1.43905,1.402265 1.601497,2.603927 H 46.31596 C 46.27509,27.332468 46.027908,26.487873 45.572905,25.7291 45.07306,24.896924 44.397483,24.182716 43.545559,23.614374 42.693871,23.046588 41.673389,22.613546 40.54904,22.32941 40.060683,22.206201 39.629141,22.102647 39.071677,22.032807 v -1.910443 h -3.964225 v 1.897903 c -0.433644,0.05984 -0.938304,0.139821 -1.389118,0.243207 -1.067979,0.245014 -2.006144,0.62189 -2.846234,1.130946 -0.840646,0.509559 -1.508439,1.150871 -2.01957,1.924237 -0.511253,0.773794 -0.762592,1.689224 -0.762592,2.746709 0,0.548482 0.08697,1.086813 0.257233,1.615721 0.170312,0.528831 0.460911,1.028091 0.869823,1.498102 0.409002,0.470049 0.959771,0.896024 1.653017,1.277904 0.692674,0.382057 1.530258,0.690322 2.57525,0.925327 0.575211,0.134094 1.166341,0.259267 1.661868,0.376123 v 6.843107 c -0.681206,-0.166933 -1.355676,-0.423282 -1.900098,-0.771163 -0.567965,-0.362155 -0.995149,-0.798448 -1.313039,-1.366753 -0.29581,-0.52813 -0.438286,-1.174571 -0.458797,-1.861225 h -4.256343 c 0.04278,1.201719 0.325159,2.259977 0.846839,3.168551 0.544981,0.950017 1.271878,1.714318 2.180573,2.320986 0.908219,0.607372 1.944561,1.050368 3.171313,1.3442 0.55015,0.131569 1.172289,0.226954 1.729743,0.299195 v 2.022617 h 3.964265 v -1.976447 c 0.619416,-0.06138 1.174217,-0.153815 1.767003,-0.27903 1.158357,-0.244668 2.20791,-0.631527 3.116633,-1.160203 0.90819,-0.528842 1.648922,-1.209031 2.205758,-2.041866 C 46.717222,39.468413 47,38.46454 47,37.289559 47.000039,36.74148 46.90695,36.192933 46.714291,35.64449 Z M 35.107452,30.290808 C 34.364139,30.07656 33.626308,29.77077 33.122196,29.372507 32.58823,28.951701 32.33714,28.369179 32.33714,27.624633 c 0,-0.528795 0.14961,-0.969341 0.433886,-1.321974 0.283779,-0.352533 0.613975,-0.631618 1.045551,-0.837222 0.382866,-0.18243 0.85728,-0.31843 1.290874,-0.408439 z m 7.364928,8.570408 c -0.182072,0.382122 -0.476895,0.719581 -0.885958,1.013442 -0.408986,0.294015 -0.975188,0.533741 -1.633802,0.719672 -0.278797,0.07896 -0.509408,0.140075 -0.881006,0.185312 v -6.129118 c 0.6194,0.150114 1.126097,0.30519 1.630683,0.465245 0.499337,0.157269 0.975467,0.42586 1.395962,0.807751 0.420265,0.38219 0.638542,0.974499 0.638542,1.777333 5.2e-5,0.392086 -0.08286,0.778512 -0.264393,1.16044 z"
     id="path25907-1-3-9-2"
     style="fill:#21252b;fill-opacity:1;stroke-width:1.43158" /></g></svg>
