<?xml version="1.0" encoding="UTF-8" standalone="no"?>
<!-- Generator: Adobe Illustrator 27.5.0, SVG Export Plug-In . SVG Version: 6.00 Build 0)  -->

<svg
   version="1.1"
   id="Layer_1"
   x="0px"
   y="0px"
   viewBox="0 0 63.999998 63.999999"
   xml:space="preserve"
   sodipodi:docname="folder-neon.svg"
   inkscape:version="1.4.3 (unknown)"
   width="64"
   height="64"
   xmlns:inkscape="http://www.inkscape.org/namespaces/inkscape"
   xmlns:sodipodi="http://sodipodi.sourceforge.net/DTD/sodipodi-0.dtd"
   xmlns="http://www.w3.org/2000/svg"
   xmlns:svg="http://www.w3.org/2000/svg"><defs
   id="defs762">
	
		<radialGradient
   id="SVGID_00000022534578410790736700000013999825567828354183_"
   cx="422.99371"
   cy="288.32251"
   r="28.502399"
   gradientTransform="matrix(0.98379286,0,0,0.98236136,-385.19832,-251.34342)"
   gradientUnits="userSpaceOnUse">
		<stop
   offset="0"
   style="stop-color:#A0866A"
   id="stop74" />
		<stop
   offset="0.2596"
   style="stop-color:#9C8268"
   id="stop75" />
		<stop
   offset="0.5301"
   style="stop-color:#8F7861"
   id="stop76" />
		<stop
   offset="0.8045"
   style="stop-color:#7B6656"
   id="stop77" />
		<stop
   offset="1"
   style="stop-color:#67554B"
   id="stop78" />
	</radialGradient>
	
	
	
	
		<radialGradient
   id="SVGID_00000125562367361927050560000001190537805866180488_"
   cx="417.22159"
   cy="288.32251"
   r="27.744699"
   gradientTransform="matrix(1.0074039,0,0,0.98236136,-390.24016,-251.34342)"
   gradientUnits="userSpaceOnUse">
		<stop
   offset="0"
   style="stop-color:#A0866A"
   id="stop85" />
		<stop
   offset="0.2596"
   style="stop-color:#9C8268"
   id="stop86" />
		<stop
   offset="0.5301"
   style="stop-color:#8F7861"
   id="stop87" />
		<stop
   offset="0.8045"
   style="stop-color:#7B6656"
   id="stop88" />
		<stop
   offset="1"
   style="stop-color:#67554B"
   id="stop89" />
	</radialGradient>
	
	
		<radialGradient
   id="SVGID_00000097500425902151924180000002286946989435723681_"
   cx="405.16061"
   cy="259.82541"
   r="73.946198"
   gradientTransform="matrix(0.94060435,0,0,0.98236136,-375.80615,-251.34342)"
   gradientUnits="userSpaceOnUse">
		<stop
   offset="0"
   style="stop-color:#535d6c;stop-opacity:1"
   id="stop90" />
		<stop
   offset="0.2284"
   style="stop-color:#373e48;stop-opacity:1"
   id="stop91" />
		<stop
   offset="0.4664"
   style="stop-color:#373e48;stop-opacity:1"
   id="stop92" />
		<stop
   offset="0.70889997"
   style="stop-color:#48515e;stop-opacity:1;"
   id="stop93" />
		<stop
   offset="0.95289999"
   style="stop-color:#373e48;stop-opacity:1"
   id="stop94" />
		<stop
   offset="1"
   style="stop-color:#373e48;stop-opacity:1"
   id="stop95" />
	</radialGradient>
	
	
		<radialGradient
   id="SVGID_00000119082666600208423750000005907981173642057379_"
   cx="425.73099"
   cy="288.43094"
   r="67.4496"
   gradientTransform="matrix(0.82943576,0,0,0.98236136,-350.11651,-251.34342)"
   gradientUnits="userSpaceOnUse"
   fx="425.73099"
   fy="288.43094">
		<stop
   offset="0"
   style="stop-color:#939dac;stop-opacity:1"
   id="stop96" />
		<stop
   offset="0.25960001"
   style="stop-color:#535d6c;stop-opacity:1"
   id="stop97" />
		<stop
   offset="0.5301"
   style="stop-color:#535d6c;stop-opacity:1"
   id="stop98" />
		<stop
   offset="0.8045"
   style="stop-color:#373e48;stop-opacity:1"
   id="stop99" />
		<stop
   offset="1"
   style="stop-color:#373e48;stop-opacity:1"
   id="stop100" />
	</radialGradient>
	
	
		<radialGradient
   id="SVGID_00000165928333602235411140000014852226284911233709_"
   cx="-1556.7609"
   cy="1310.3918"
   r="1.7343"
   gradientTransform="matrix(0.62323278,0,0,0.68421469,985.97188,-887.64613)"
   gradientUnits="userSpaceOnUse">
		<stop
   offset="0"
   style="stop-color:#E1CEC0"
   id="stop101" />
		<stop
   offset="0.761"
   style="stop-color:#E0CDBE"
   id="stop102" />
		<stop
   offset="1"
   style="stop-color:#DCC9B9"
   id="stop103" />
	</radialGradient>
	
	
		<radialGradient
   id="SVGID_00000023271670121255412580000014745766858599489424_"
   cx="-1556.7609"
   cy="1306.0997"
   r="1.7342"
   gradientTransform="matrix(0.62323278,0,0,0.68421469,985.97188,-880.11982)"
   gradientUnits="userSpaceOnUse">
		<stop
   offset="0"
   style="stop-color:#E1CEC0"
   id="stop104" />
		<stop
   offset="0.761"
   style="stop-color:#E0CDBE"
   id="stop105" />
		<stop
   offset="1"
   style="stop-color:#DCC9B9"
   id="stop106" />
	</radialGradient>
	
	
		<radialGradient
   id="SVGID_00000093146561591346411050000017874754504161969285_"
   cx="-1556.7609"
   cy="1301.8096"
   r="1.733"
   gradientTransform="matrix(0.62323278,0,0,0.68421469,985.97188,-872.59405)"
   gradientUnits="userSpaceOnUse">
		<stop
   offset="0"
   style="stop-color:#E1CEC0"
   id="stop107" />
		<stop
   offset="0.761"
   style="stop-color:#E0CDBE"
   id="stop108" />
		<stop
   offset="1"
   style="stop-color:#DCC9B9"
   id="stop109" />
	</radialGradient>
	
	
		<radialGradient
   id="SVGID_00000124154437391672708990000002450479196596738238_"
   cx="-1556.7609"
   cy="1297.5177"
   r="1.7336"
   gradientTransform="matrix(0.62323278,0,0,0.68421469,985.97188,-865.06833)"
   gradientUnits="userSpaceOnUse">
		<stop
   offset="0"
   style="stop-color:#E1CEC0"
   id="stop110" />
		<stop
   offset="0.761"
   style="stop-color:#E0CDBE"
   id="stop111" />
		<stop
   offset="1"
   style="stop-color:#DCC9B9"
   id="stop112" />
	</radialGradient>
	
	
		<radialGradient
   id="SVGID_00000034058293124216951570000006641406590055667894_"
   cx="-1556.7609"
   cy="1293.2249"
   r="1.7339"
   gradientTransform="matrix(0.62323278,0,0,0.68421469,985.97188,-857.54231)"
   gradientUnits="userSpaceOnUse">
		<stop
   offset="0"
   style="stop-color:#E1CEC0"
   id="stop113" />
		<stop
   offset="0.761"
   style="stop-color:#E0CDBE"
   id="stop114" />
		<stop
   offset="1"
   style="stop-color:#DCC9B9"
   id="stop115" />
	</radialGradient>
	
	
		<radialGradient
   id="SVGID_00000042694802152741533360000006474553379895889032_"
   cx="-1556.7609"
   cy="1288.9327"
   r="1.7342"
   gradientTransform="matrix(0.62323278,0,0,0.68421469,985.97188,-850.01604)"
   gradientUnits="userSpaceOnUse">
		<stop
   offset="0"
   style="stop-color:#E1CEC0"
   id="stop116" />
		<stop
   offset="0.761"
   style="stop-color:#E0CDBE"
   id="stop117" />
		<stop
   offset="1"
   style="stop-color:#DCC9B9"
   id="stop118" />
	</radialGradient>
	
	
		<radialGradient
   id="SVGID_00000111901877872900564700000014159718068513697190_"
   cx="-1556.7609"
   cy="1284.642"
   r="1.7334"
   gradientTransform="matrix(0.62323278,0,0,0.68421469,985.97188,-842.49032)"
   gradientUnits="userSpaceOnUse">
		<stop
   offset="0"
   style="stop-color:#E1CEC0"
   id="stop119" />
		<stop
   offset="0.761"
   style="stop-color:#E0CDBE"
   id="stop120" />
		<stop
   offset="1"
   style="stop-color:#DCC9B9"
   id="stop121" />
	</radialGradient>
	
	
		<radialGradient
   id="SVGID_00000022538754652405687830000005864690060167237006_"
   cx="-1556.7609"
   cy="1280.3497"
   r="1.7334"
   gradientTransform="matrix(0.62323278,0,0,0.68421469,985.97188,-834.96406)"
   gradientUnits="userSpaceOnUse">
		<stop
   offset="0"
   style="stop-color:#E1CEC0"
   id="stop122" />
		<stop
   offset="0.761"
   style="stop-color:#E0CDBE"
   id="stop123" />
		<stop
   offset="1"
   style="stop-color:#DCC9B9"
   id="stop124" />
	</radialGradient>
	
	
		<radialGradient
   id="SVGID_00000059309292910592828090000012283058363263137190_"
   cx="-1556.7609"
   cy="1276.0603"
   r="1.7339"
   gradientTransform="matrix(0.62323278,0,0,0.68421469,985.97188,-827.43829)"
   gradientUnits="userSpaceOnUse">
		<stop
   offset="0"
   style="stop-color:#E1CEC0"
   id="stop125" />
		<stop
   offset="0.761"
   style="stop-color:#E0CDBE"
   id="stop126" />
		<stop
   offset="1"
   style="stop-color:#DCC9B9"
   id="stop127" />
	</radialGradient>
	
	
		<radialGradient
   id="SVGID_00000164515357396027012420000009309048799111497121_"
   cx="-1556.7609"
   cy="1271.7668"
   r="1.7334"
   gradientTransform="matrix(0.62323278,0,0,0.68421469,985.97188,-819.91212)"
   gradientUnits="userSpaceOnUse">
		<stop
   offset="0"
   style="stop-color:#E1CEC0"
   id="stop128" />
		<stop
   offset="0.761"
   style="stop-color:#E0CDBE"
   id="stop129" />
		<stop
   offset="1"
   style="stop-color:#DCC9B9"
   id="stop130" />
	</radialGradient>
	
	
		<radialGradient
   id="SVGID_00000078021694386518579320000000195962685941464961_"
   cx="-1556.7609"
   cy="1267.4753"
   r="1.733"
   gradientTransform="matrix(0.62323278,0,0,0.68421469,985.97188,-812.3863)"
   gradientUnits="userSpaceOnUse">
		<stop
   offset="0"
   style="stop-color:#E1CEC0"
   id="stop131" />
		<stop
   offset="0.761"
   style="stop-color:#E0CDBE"
   id="stop132" />
		<stop
   offset="1"
   style="stop-color:#DCC9B9"
   id="stop133" />
	</radialGradient>
	
	
	
		<radialGradient
   id="SVGID_00000179631901819502847670000002313046964360062115_"
   cx="465.28549"
   cy="269.20731"
   r="33.883701"
   gradientTransform="matrix(0.7608654,0,0,0.98236136,-334.59177,-251.34342)"
   gradientUnits="userSpaceOnUse">
		<stop
   offset="0"
   style="stop-color:#5599ff;stop-opacity:1"
   id="stop145" />
		<stop
   offset="0.31479999"
   style="stop-color:#267dff;stop-opacity:1;"
   id="stop146" />
		<stop
   offset="0.7586"
   style="stop-color:#2a7fff;stop-opacity:1"
   id="stop147" />
		<stop
   offset="1"
   style="stop-color:#0053d0;stop-opacity:1;"
   id="stop148" />
	</radialGradient>
	
	
		<radialGradient
   id="SVGID_00000110451134532301891090000001961278411554218625_"
   cx="422.12851"
   cy="271.23071"
   r="41.8508"
   gradientTransform="matrix(0.91866577,0,0,0.98236136,-370.25146,-251.34342)"
   gradientUnits="userSpaceOnUse">
		<stop
   offset="0.1067"
   style="stop-color:#8d5fd3;stop-opacity:1"
   id="stop149" />
		<stop
   offset="0.5118"
   style="stop-color:#8d5fd3;stop-opacity:1"
   id="stop150" />
		<stop
   offset="1"
   style="stop-color:#8d5fd3;stop-opacity:1"
   id="stop151" />
	</radialGradient>
	

		
		
		
		
		
		
	
		
			<radialGradient
   id="SVGID_00000052091378501920612200000006059691176872464570_"
   cx="-498.31311"
   cy="565.55511"
   r="5.8572001"
   gradientTransform="matrix(1.1015529,0,0,1.1486751,623.04374,-631.95324)"
   gradientUnits="userSpaceOnUse">
			<stop
   offset="0"
   style="stop-color:#A0866A"
   id="stop134" />
			<stop
   offset="0.2596"
   style="stop-color:#9C8268"
   id="stop135" />
			<stop
   offset="0.5301"
   style="stop-color:#8F7861"
   id="stop136" />
			<stop
   offset="0.8045"
   style="stop-color:#7B6656"
   id="stop137" />
			<stop
   offset="1"
   style="stop-color:#67554B"
   id="stop138" />
		</radialGradient>
		
		
		
		
	
			
				<radialGradient
   id="SVGID_00000044889807405124194260000009933868313778631062_"
   cx="-498.314"
   cy="580.81989"
   r="7.6585999"
   gradientTransform="matrix(1.1015529,0,0,1.1486751,623.04374,-631.95324)"
   gradientUnits="userSpaceOnUse">
				<stop
   offset="0"
   style="stop-color:#A0866A"
   id="stop139" />
				<stop
   offset="0.2596"
   style="stop-color:#9C8268"
   id="stop140" />
				<stop
   offset="0.5301"
   style="stop-color:#8F7861"
   id="stop141" />
				<stop
   offset="0.8045"
   style="stop-color:#7B6656"
   id="stop142" />
				<stop
   offset="1"
   style="stop-color:#67554B"
   id="stop143" />
			</radialGradient>
			
		<radialGradient
   id="SVGID_00000097500425902151924180000002286946989435723681_-1"
   cx="405.16061"
   cy="259.82541"
   r="73.946198"
   gradientTransform="matrix(0.94060435,0,0,0.98236136,-375.80615,-251.34342)"
   gradientUnits="userSpaceOnUse">
		<stop
   offset="0"
   style="stop-color:#535d6c;stop-opacity:1"
   id="stop90-3" />
		<stop
   offset="0.2284"
   style="stop-color:#373e48;stop-opacity:1"
   id="stop91-2" />
		<stop
   offset="0.4664"
   style="stop-color:#373e48;stop-opacity:1"
   id="stop92-1" />
		<stop
   offset="0.70889997"
   style="stop-color:#48515e;stop-opacity:1;"
   id="stop93-5" />
		<stop
   offset="0.95289999"
   style="stop-color:#373e48;stop-opacity:1"
   id="stop94-9" />
		<stop
   offset="1"
   style="stop-color:#373e48;stop-opacity:1"
   id="stop95-9" />
	</radialGradient><radialGradient
   id="SVGID_00000119082666600208423750000005907981173642057379_-1"
   cx="425.73099"
   cy="288.43094"
   r="67.4496"
   gradientTransform="matrix(0.82943576,0,0,0.98236136,-350.11651,-251.34342)"
   gradientUnits="userSpaceOnUse"
   fx="425.73099"
   fy="288.43094">
		<stop
   offset="0"
   style="stop-color:#939dac;stop-opacity:1"
   id="stop96-4" />
		<stop
   offset="0.25960001"
   style="stop-color:#535d6c;stop-opacity:1"
   id="stop97-9" />
		<stop
   offset="0.5301"
   style="stop-color:#535d6c;stop-opacity:1"
   id="stop98-1" />
		<stop
   offset="0.8045"
   style="stop-color:#373e48;stop-opacity:1"
   id="stop99-0" />
		<stop
   offset="1"
   style="stop-color:#373e48;stop-opacity:1"
   id="stop100-7" />
	</radialGradient></defs><sodipodi:namedview
   id="namedview762"
   pagecolor="#ffffff"
   bordercolor="#000000"
   borderopacity="0.25"
   inkscape:showpageshadow="2"
   inkscape:pageopacity="0.0"
   inkscape:pagecheckerboard="0"
   inkscape:deskcolor="#d1d1d1"
   inkscape:zoom="8"
   inkscape:cx="33.6875"
   inkscape:cy="59.6875"
   inkscape:window-width="1920"
   inkscape:window-height="994"
   inkscape:window-x="0"
   inkscape:window-y="0"
   inkscape:window-maximized="1"
   inkscape:current-layer="Layer_1"
   showgrid="false"><inkscape:grid
     id="grid1"
     units="px"
     originx="0"
     originy="0"
     spacingx="0.99999997"
     spacingy="0.99999998"
     empcolor="#0099e5"
     empopacity="0.30196078"
     color="#0099e5"
     opacity="0.14901961"
     empspacing="5"
     enabled="true"
     visible="false" /></sodipodi:namedview>




















<g
   id="g1"><path
     d="m 59.081109,50.189861 c 0,5.81014 -4.176201,9.110139 -9.326848,9.110139 H 12.324878 C 7.1752139,59.3 2.999997,55.219763 2.999997,50.189861 V 13.810139 c 0,-5.0303802 4.1752169,-9.1101391 9.324881,-9.1101391 h 37.429383 c 5.150647,0 9.326848,3.0998612 9.326848,8.9100001 z"
     id="path78"
     style="fill:#b7bec8;fill-opacity:1;stroke-width:0.987421"
     sodipodi:nodetypes="sssssssss" /><path
     style="fill:#b7bec8;fill-opacity:1;stroke-width:0.485356"
     d="m 58.142571,50.189862 c 0,5.030379 -4.106352,9.110138 -9.170426,9.110138 H 12.169438 C 7.1063484,59.3 2.999997,55.219763 2.999997,50.189862 V 13.810138 c 0,-5.0303792 4.1063514,-9.1101381 9.169441,-9.1101381 h 36.802707 c 5.064074,0 9.170426,4.0802377 9.170426,9.1101381 z"
     id="path79" /><g
     id="g2"><path
       style="fill:#ffaaaa;fill-opacity:1;stroke-width:0.491538"
       d="m 60.742243,43.740446 v 3.41518 c 0,1.767268 -1.339434,3.202989 -3.005979,3.247195 0.02509,0 0.05116,0.0039 0.07674,0.0039 h 0.10379 c 1.702454,0 3.083207,-1.455369 3.083207,-3.251125 v -3.41518 c 0,-1.794774 -1.380753,-3.251125 -3.083207,-3.251125 H 57.813 c -0.02607,0 -0.05165,0.0039 -0.07674,0.0039 1.666545,0.04371 3.005979,1.478945 3.005979,3.247195 z"
       id="path80" /><path
       style="fill:#d35f8d;stroke-width:0.491538"
       d="m 57.284703,50.356159 c 0.147077,0.02701 0.297598,0.04224 0.451561,0.04715 1.667037,-0.04421 3.005979,-1.480418 3.005979,-3.247195 v -3.415179 c 0,-1.768251 -1.339434,-3.20299 -3.005979,-3.247196 -0.153963,0.0039 -0.304484,0.02112 -0.451561,0.04814 z"
       id="path81" /></g><path
     style="fill:#ffeeaa;fill-opacity:1;stroke-width:0.491538"
     d="m 60.742243,29.923043 v 3.413214 c 0,1.769233 -1.339434,3.203972 -3.005979,3.248178 0.02509,0 0.05116,0.0039 0.07674,0.0039 h 0.10379 c 1.702454,0 3.083207,-1.45635 3.083207,-3.252107 v -3.413214 c 0,-1.795757 -1.380753,-3.252108 -3.083207,-3.252108 H 57.813 c -0.02607,0 -0.05165,0.0039 -0.07674,0.0039 1.666545,0.04224 3.005979,1.477962 3.005979,3.248178 z"
     id="path82" /><path
     style="fill:#ffd42a;fill-opacity:1;stroke-width:0.491538"
     d="m 57.284703,36.537773 c 0.147077,0.02603 0.297598,0.04322 0.451561,0.04715 1.667037,-0.04421 3.005979,-1.479436 3.005979,-3.248178 v -3.413214 c 0,-1.770215 -1.339434,-3.205936 -3.005979,-3.248178 -0.153963,0.0039 -0.304484,0.02112 -0.451561,0.04814 z"
     id="path83" /><path
     style="fill:#a1ffff;fill-opacity:1;stroke-width:0.491538"
     d="m 60.742243,16.104657 v 3.413214 c 0,1.770215 -1.339434,3.203972 -3.005979,3.24916 0.02509,0 0.05116,0.0029 0.07674,0.0029 h 0.10379 c 1.702454,0 3.083207,-1.455368 3.083207,-3.252107 V 16.10461 c 0,-1.795757 -1.380753,-3.252108 -3.083207,-3.252108 H 57.813 c -0.02607,0 -0.05165,0.0029 -0.07674,0.0049 1.666545,0.04322 3.005979,1.478454 3.005979,3.247196 z"
     id="path84" /><path
     style="fill:#00cccc;fill-opacity:1;stroke-width:0.491538"
     d="m 57.284703,22.719387 c 0.147077,0.02701 0.297598,0.04322 0.451561,0.04814 1.667037,-0.04519 3.005979,-1.479437 3.005979,-3.249161 v -3.413214 c 0,-1.769233 -1.339434,-3.203972 -3.005979,-3.247196 -0.153963,0.0029 -0.304484,0.01817 -0.451561,0.04519 z"
     id="path85" /><path
     style="fill:#939dac;fill-opacity:1;stroke-width:0.488898"
     d="m 57.333893,50.456382 c 0,5.104082 -4.045848,9.243618 -9.035646,9.243618 H 12.035151 C 7.0458451,59.7 3.0004889,55.559979 3.0004889,50.456382 V 13.543618 c 0,-5.1040823 4.0458481,-9.2436179 9.0346621,-9.2436179 h 36.263096 c 4.99029,0 9.035646,4.1400216 9.035646,9.2436179 z"
     id="path89" /><path
     style="fill:url(#SVGID_00000097500425902151924180000002286946989435723681_-1);stroke-width:0.491538"
     d="M 56.620643,52.656 C 56.620643,57.000001 52.999998,60 48.004,60 H 11.91562 C 6.9917365,60 2.999997,55.815141 2.999997,50.65627 V 12.144 c 0,-1.144 4.0000028,-8.1440001 8.915623,-8.1440001 H 47.504 c 5.495998,0 9.116643,3.0000002 9.116643,8.0440001 z"
     id="path95"
     sodipodi:nodetypes="sssssssss" /><path
     style="fill:url(#SVGID_00000119082666600208423750000005907981173642057379_-1);stroke-width:0.491538"
     d="m 17.733771,60 v 0 H 11 C 5.9999998,60 2.999997,57.000001 2.999997,52 V 12 C 2.999997,7.0000001 5.9999998,3.9999999 11,3.9999999 h 6.891178 v 0 z"
     id="path100"
     sodipodi:nodetypes="ccssssccc" /><path
     style="fill:#80b3ff;fill-opacity:1;stroke-width:0.491538"
     d="m 16.347607,9.8961328 c 0,0.3782092 -0.278414,0.6832322 -0.621757,0.6832322 v 0 c -0.343836,0 -0.622741,-0.305023 -0.622741,-0.6832322 V 8.1991036 c 0,-0.3782092 0.278413,-0.6842147 0.622741,-0.6842147 v 0 c 0.342851,0 0.621757,0.3060055 0.621757,0.6842147 z"
     id="path103" /><path
     style="fill:#80b3ff;fill-opacity:1;stroke-width:0.491538"
     d="m 16.347607,14.485234 c 0,0.377718 -0.278414,0.683232 -0.621757,0.683232 v 0 c -0.343836,0 -0.622741,-0.305023 -0.622741,-0.683232 v -1.698012 c 0,-0.378209 0.278413,-0.683232 0.622741,-0.683232 v 0 c 0.342851,0 0.621757,0.305023 0.621757,0.683232 z"
     id="path106" /><path
     style="fill:#80b3ff;fill-opacity:1;stroke-width:0.491538"
     d="m 16.347607,19.074826 c 0,0.378209 -0.278414,0.683232 -0.621757,0.683232 v 0 c -0.343836,0 -0.622741,-0.305023 -0.622741,-0.683232 v -1.698011 c 0,-0.376245 0.278413,-0.681268 0.622741,-0.681268 v 0 c 0.342851,0 0.621757,0.305023 0.621757,0.681268 z"
     id="path109" /><path
     style="fill:#80b3ff;fill-opacity:1;stroke-width:0.491538"
     d="m 16.347607,23.664418 c 0,0.376245 -0.278414,0.683233 -0.621757,0.683233 v 0 c -0.343836,0 -0.622741,-0.306988 -0.622741,-0.683233 v -1.698011 c 0,-0.377227 0.278413,-0.683232 0.622741,-0.683232 v 0 c 0.342851,0 0.621757,0.306005 0.621757,0.683232 z"
     id="path112" /><path
     style="fill:#80b3ff;fill-opacity:1;stroke-width:0.491538"
     d="m 16.347607,28.254011 c 0,0.376244 -0.278414,0.683232 -0.621757,0.683232 v 0 c -0.343836,0 -0.622741,-0.306988 -0.622741,-0.683232 v -1.696047 c 0,-0.378209 0.278413,-0.685197 0.622741,-0.685197 v 0 c 0.342851,0 0.621757,0.306988 0.621757,0.685197 z"
     id="path115" /><path
     style="fill:#80b3ff;fill-opacity:1;stroke-width:0.491538"
     d="m 16.347607,32.843112 c 0,0.377227 -0.278414,0.683232 -0.621757,0.683232 v 0 c -0.343836,0 -0.622741,-0.306005 -0.622741,-0.683232 v -1.697029 c 0,-0.377227 0.278413,-0.684215 0.622741,-0.684215 v 0 c 0.342851,0 0.621757,0.306988 0.621757,0.684215 z"
     id="path118" /><path
     style="fill:#80b3ff;fill-opacity:1;stroke-width:0.491538"
     d="m 16.347607,37.432704 c 0,0.377227 -0.278414,0.683232 -0.621757,0.683232 v 0 c -0.343836,0 -0.622741,-0.306005 -0.622741,-0.683232 v -1.697029 c 0,-0.377227 0.278413,-0.683232 0.622741,-0.683232 v 0 c 0.342851,0 0.621757,0.306005 0.621757,0.683232 z"
     id="path121" /><path
     style="fill:#80b3ff;fill-opacity:1;stroke-width:0.491538"
     d="m 16.347607,42.022296 c 0,0.377718 -0.278414,0.683233 -0.621757,0.683233 v 0 c -0.343836,0 -0.622741,-0.305024 -0.622741,-0.683233 v -1.696047 c 0,-0.378209 0.278413,-0.684214 0.622741,-0.684214 v 0 c 0.342851,0 0.621757,0.306005 0.621757,0.684214 z"
     id="path124" /><path
     style="fill:#80b3ff;fill-opacity:1;stroke-width:0.491538"
     d="m 16.347607,46.61238 c 0,0.377227 -0.278414,0.684214 -0.621757,0.684214 v 0 c -0.343836,0 -0.622741,-0.306987 -0.622741,-0.684214 v -1.696047 c 0,-0.3787 0.278413,-0.684215 0.622741,-0.684215 v 0 c 0.342851,0 0.621757,0.305023 0.621757,0.684215 z"
     id="path127" /><path
     style="fill:#80b3ff;fill-opacity:1;stroke-width:0.491538"
     d="m 16.347607,51.202954 c 0,0.376245 -0.278414,0.681268 -0.621757,0.681268 v 0 c -0.343836,0 -0.622741,-0.305023 -0.622741,-0.681268 v -1.698011 c 0,-0.378209 0.278413,-0.683232 0.622741,-0.683232 v 0 c 0.342851,0 0.621757,0.305023 0.621757,0.683232 z"
     id="path130" /><path
     style="fill:#80b3ff;fill-opacity:1;stroke-width:0.491538"
     d="m 16.347607,55.791564 c 0,0.378209 -0.278414,0.68225 -0.621757,0.68225 v 0 c -0.343836,0 -0.622741,-0.304041 -0.622741,-0.68225 v -1.698011 c 0,-0.377227 0.278413,-0.68225 0.622741,-0.68225 v 0 c 0.342851,0 0.621757,0.305023 0.621757,0.68225 z"
     id="path133" /></g><g
   id="g3"
   transform="translate(0.18384511)"><g
     id="g2-7-7"
     style="fill:#ffffff;fill-opacity:0.501961;stroke-width:1.2"
     transform="matrix(4.1200413,0,0,4.0944844,4.7300483,-14.583302)"><path
       d="m 7.6861442,8.2020832 c -0.1302524,0 -0.2422544,0.07352 -0.2975177,0.181569 -0.6093405,0.0597 -1.1644081,0.299 -1.6114273,0.665588 -0.1149629,-0.036 -0.2447217,-0.0084 -0.3360049,0.08289 -0.091275,0.09129 -0.118902,0.221041 -0.082887,0.336005 -0.3665937,0.447014 -0.6063822,1.0020828 -0.6655905,1.6114218 -0.1080525,0.05526 -0.1815711,0.167276 -0.1815711,0.297525 0,0.130245 0.073518,0.242264 0.1815711,0.297524 0.0597,0.609331 0.2989968,1.16441 0.6655905,1.61141 -0.036016,0.114975 -0.00835,0.244738 0.082887,0.336006 0.091282,0.09127 0.2210414,0.11892 0.3360049,0.08291 0.4470192,0.366588 1.0020868,0.60587 1.6114273,0.665566 0.055263,0.10806 0.1672645,0.181591 0.2975177,0.181591 0.1302585,0 0.2422556,-0.07402 0.297518,-0.181591 0.6093446,-0.0597 1.1644156,-0.298978 1.6114216,-0.665566 0.114971,0.03601 0.244729,0.0084 0.336006,-0.08291 0.09128,-0.09126 0.1189082,-0.221031 0.0829,-0.336006 0.36658,-0.447 0.606381,-1.002079 0.665583,-1.61141 0.107565,-0.05526 0.181571,-0.167276 0.181571,-0.297524 0,-0.130245 -0.07401,-0.242265 -0.181571,-0.297525 -0.05921,-0.609339 -0.299003,-1.1644078 -0.665583,-1.6114218 0.03601,-0.11496 0.0084,-0.244722 -0.0829,-0.336005 -0.09128,-0.09127 -0.221035,-0.118905 -0.336006,-0.08289 -0.447006,-0.366588 -1.002077,-0.605886 -1.6114216,-0.665588 -0.055262,-0.108055 -0.1672601,-0.181569 -0.297518,-0.181569 z m 0,0.167261 c 0.092759,0 0.1672609,0.07451 0.1672609,0.16726 0,0.09226 -0.074502,0.166769 -0.1672609,0.166769 -0.092758,0 -0.1672589,-0.0745 -0.1672589,-0.166769 0,-0.09276 0.074501,-0.16726 0.1672589,-0.16726 z m -0.2807361,0.348829 c 0.059203,0.09177 0.1628167,0.15246 0.2807361,0.15246 0.117921,0 0.2215367,-0.06069 0.2807417,-0.15246 0.5289209,0.05476 1.0109719,0.261996 1.4012529,0.577764 -0.02371,0.107565 0.0064,0.224496 0.09029,0.308869 0.08437,0.08388 0.201301,0.11397 0.308861,0.09028 0.3157692,0.3902728 0.5229942,0.8723228 0.5777672,1.4012478 -0.09178,0.05919 -0.152465,0.162816 -0.152465,0.280739 0,0.11793 0.06069,0.221542 0.152465,0.280734 -0.05477,0.528916 -0.261998,1.010962 -0.5777672,1.401258 -0.10756,-0.0237 -0.224492,0.0064 -0.308861,0.09028 -0.08388,0.08438 -0.113973,0.2013 -0.09029,0.308855 -0.390281,0.315775 -0.872332,0.523002 -1.4012529,0.577773 -0.059205,-0.09177 -0.1628207,-0.152471 -0.2807417,-0.152471 -0.1179194,0 -0.221532,0.06071 -0.2807361,0.152471 -0.5289254,-0.05476 -1.010972,-0.261998 -1.4012489,-0.577773 0.023697,-0.10755 -0.00638,-0.224481 -0.090291,-0.308855 -0.084366,-0.08388 -0.2013027,-0.114 -0.3088638,-0.09028 -0.3157722,-0.39029 -0.5229965,-0.872336 -0.5777684,-1.401252 0.091771,-0.05919 0.1524622,-0.16281 0.1524622,-0.280734 0,-0.117915 -0.060691,-0.221541 -0.1524622,-0.280739 0.054772,-0.528925 0.2619962,-1.010975 0.5777684,-1.4012478 0.1075605,0.0237 0.2244979,-0.0065 0.3088638,-0.09029 0.083877,-0.08437 0.113976,-0.201304 0.090291,-0.308869 0.3902769,-0.315768 0.8723235,-0.522991 1.4012489,-0.577764 z m -1.7278753,0.483038 c 0.042925,0 0.085361,0.01627 0.117921,0.04884 0.065622,0.06563 0.065622,0.171209 0,0.23634 -0.06513,0.06563 -0.1707109,0.06563 -0.2363405,0 -0.065118,-0.06513 -0.065118,-0.170712 0,-0.23634 0.033055,-0.03256 0.075495,-0.04884 0.1184195,-0.04884 z m 4.017218,0 c 0.04294,0 0.08537,0.01627 0.118421,0.04884 0.06512,0.06563 0.06512,0.171209 0,0.23634 -0.06562,0.06563 -0.171209,0.06563 -0.23634,0 -0.06562,-0.06513 -0.06562,-0.170712 0,-0.23634 0.03258,-0.03256 0.075,-0.04884 0.117919,-0.04884 z m -2.0086066,0.0034 c -0.1332209,0 -0.2476877,0.07746 -0.3014618,0.18946 -0.9670557,0.14457 -1.7036975,0.9744578 -1.7036975,1.9829668 0,1.008493 0.7366418,1.838387 1.7036975,1.982959 0.053774,0.11199 0.1682416,0.189451 0.3014618,0.189451 0.133221,0 0.2476852,-0.07746 0.3014677,-0.189451 0.9670509,-0.14457 1.7036919,-0.974461 1.7036919,-1.982959 0,-1.008508 -0.736641,-1.8383988 -1.7036919,-1.9829658 -0.053782,-0.111988 -0.1682463,-0.189448 -0.3014677,-0.189448 z m 0,0.16726 c 0.092759,0 0.1672609,0.0745 0.1672609,0.167262 0,0.09226 -0.074502,0.166765 -0.1672609,0.166765 -0.092758,0 -0.1672589,-0.0745 -0.1672589,-0.166765 0,-0.09276 0.074501,-0.167262 0.1672589,-0.167262 z M 7.410338,9.7285932 c 0.060196,0.08733 0.1613396,0.14457 0.2758062,0.14457 0.114468,0 0.2156158,-0.05722 0.2758061,-0.14457 0.7933805,0.130755 1.3953255,0.8165738 1.3953255,1.6484448 0,0.831853 -0.601945,1.517664 -1.3953255,1.648438 -0.06019,-0.08734 -0.1613375,-0.144585 -0.2758061,-0.144585 -0.1144664,0 -0.2156097,0.05722 -0.2758062,0.144585 -0.7933818,-0.13077 -1.3953223,-0.816585 -1.3953223,-1.648436 0,-0.831873 0.6019405,-1.5176958 1.3953223,-1.6484448 z M 4.8456662,11.209828 c 0.092265,0 0.1667696,0.0745 0.1667696,0.167256 0,0.09276 -0.074505,0.167248 -0.1667696,0.167248 -0.092755,0 -0.1672597,-0.07449 -0.1672597,-0.167248 0,-0.09276 0.074505,-0.167256 0.1672597,-0.167256 z m 5.6809498,0 c 0.09276,0 0.167268,0.0745 0.167268,0.167256 0,0.09276 -0.07451,0.167248 -0.167268,0.167248 -0.09226,0 -0.166761,-0.07449 -0.166761,-0.167248 0,-0.09276 0.0745,-0.167256 0.166761,-0.167256 z M 7.6861442,13.04821 c 0.092759,0 0.1672609,0.07449 0.1672609,0.16676 0,0.09275 -0.074502,0.167263 -0.1672609,0.167263 -0.092758,0 -0.1672589,-0.07452 -0.1672589,-0.167263 0,-0.09227 0.074501,-0.16676 0.1672589,-0.16676 z m -2.0086114,0.170223 c 0.042925,0 0.085361,0.01625 0.117921,0.04932 0.065622,0.06513 0.065622,0.170733 0,0.236352 -0.06513,0.06512 -0.1707113,0.06512 -0.2363405,0 -0.065118,-0.06562 -0.065118,-0.171219 0,-0.236352 0.033055,-0.03304 0.075495,-0.04932 0.1184195,-0.04932 z m 4.017218,0 c 0.04294,0 0.08537,0.01625 0.118421,0.04932 0.06512,0.06513 0.06512,0.170733 0,0.236352 -0.06562,0.06512 -0.171209,0.06512 -0.23634,0 -0.06562,-0.06562 -0.06562,-0.171219 0,-0.236352 0.03258,-0.03304 0.075,-0.04932 0.117919,-0.04932 z m -2.0086066,0.832344 c 0.092759,0 0.1672609,0.07454 0.1672609,0.16677 0,0.09276 -0.074502,0.167269 -0.1672609,0.167269 -0.092758,0 -0.1672589,-0.0745 -0.1672589,-0.167269 0,-0.09223 0.074501,-0.16677 0.1672589,-0.16677 z m 0,0"
       id="path3-3-2-0"
       style="fill:#ffffff;fill-opacity:0.501961;stroke-width:0.349245" /><path
       d="m 7.6169209,10.298077 c 0.5915725,0 1.0716599,0.480073 1.0716599,1.071652 0,0.591595 -0.4800874,1.071675 -1.0716599,1.071675 -0.5915725,0 -1.0716609,-0.48008 -1.0716609,-1.071675 0,-0.591579 0.4800884,-1.071652 1.0716609,-1.071652 z m 0,0"
       id="path2-6-4"
       style="fill:#ffffff;fill-opacity:0.501961;stroke-width:0.349245" /></g><g
     id="g2-7-9-8"
     style="fill:#21252b;fill-opacity:1;stroke-width:1.2"
     transform="matrix(4.1200413,0,0,4.0944844,5.567794,-14.583302)"><path
       d="m 7.6861442,8.2020832 c -0.1302524,0 -0.2422544,0.07352 -0.2975177,0.181569 -0.6093405,0.0597 -1.1644081,0.299 -1.6114273,0.665588 -0.1149629,-0.036 -0.2447217,-0.0084 -0.3360049,0.08289 -0.091275,0.09129 -0.118902,0.221041 -0.082887,0.336005 -0.3665937,0.447014 -0.6063822,1.0020828 -0.6655905,1.6114218 -0.1080525,0.05526 -0.1815711,0.167276 -0.1815711,0.297525 0,0.130245 0.073518,0.242264 0.1815711,0.297524 0.0597,0.609331 0.2989968,1.16441 0.6655905,1.61141 -0.036016,0.114975 -0.00835,0.244738 0.082887,0.336006 0.091282,0.09127 0.2210414,0.11892 0.3360049,0.08291 0.4470192,0.366588 1.0020868,0.60587 1.6114273,0.665566 0.055263,0.10806 0.1672645,0.181591 0.2975177,0.181591 0.1302585,0 0.2422556,-0.07402 0.297518,-0.181591 0.6093446,-0.0597 1.1644156,-0.298978 1.6114216,-0.665566 0.114971,0.03601 0.244729,0.0084 0.336006,-0.08291 0.09128,-0.09126 0.1189082,-0.221031 0.0829,-0.336006 0.36658,-0.447 0.606381,-1.002079 0.665583,-1.61141 0.107565,-0.05526 0.181571,-0.167276 0.181571,-0.297524 0,-0.130245 -0.07401,-0.242265 -0.181571,-0.297525 -0.05921,-0.609339 -0.299003,-1.1644078 -0.665583,-1.6114218 0.03601,-0.11496 0.0084,-0.244722 -0.0829,-0.336005 -0.09128,-0.09127 -0.221035,-0.118905 -0.336006,-0.08289 -0.447006,-0.366588 -1.002077,-0.605886 -1.6114216,-0.665588 -0.055262,-0.108055 -0.1672601,-0.181569 -0.297518,-0.181569 z m 0,0.167261 c 0.092759,0 0.1672609,0.07451 0.1672609,0.16726 0,0.09226 -0.074502,0.166769 -0.1672609,0.166769 -0.092758,0 -0.1672589,-0.0745 -0.1672589,-0.166769 0,-0.09276 0.074501,-0.16726 0.1672589,-0.16726 z m -0.2807361,0.348829 c 0.059203,0.09177 0.1628167,0.15246 0.2807361,0.15246 0.117921,0 0.2215367,-0.06069 0.2807417,-0.15246 0.5289209,0.05476 1.0109719,0.261996 1.4012529,0.577764 -0.02371,0.107565 0.0064,0.224496 0.09029,0.308869 0.08437,0.08388 0.201301,0.11397 0.308861,0.09028 0.3157692,0.3902728 0.5229942,0.8723228 0.5777672,1.4012478 -0.09178,0.05919 -0.152465,0.162816 -0.152465,0.280739 0,0.11793 0.06069,0.221542 0.152465,0.280734 -0.05477,0.528916 -0.261998,1.010962 -0.5777672,1.401258 -0.10756,-0.0237 -0.224492,0.0064 -0.308861,0.09028 -0.08388,0.08438 -0.113973,0.2013 -0.09029,0.308855 -0.390281,0.315775 -0.872332,0.523002 -1.4012529,0.577773 -0.059205,-0.09177 -0.1628207,-0.152471 -0.2807417,-0.152471 -0.1179194,0 -0.221532,0.06071 -0.2807361,0.152471 -0.5289254,-0.05476 -1.010972,-0.261998 -1.4012489,-0.577773 0.023697,-0.10755 -0.00638,-0.224481 -0.090291,-0.308855 -0.084366,-0.08388 -0.2013027,-0.114 -0.3088638,-0.09028 -0.3157722,-0.39029 -0.5229965,-0.872336 -0.5777684,-1.401252 0.091771,-0.05919 0.1524622,-0.16281 0.1524622,-0.280734 0,-0.117915 -0.060691,-0.221541 -0.1524622,-0.280739 0.054772,-0.528925 0.2619962,-1.010975 0.5777684,-1.4012478 0.1075605,0.0237 0.2244979,-0.0065 0.3088638,-0.09029 0.083877,-0.08437 0.113976,-0.201304 0.090291,-0.308869 0.3902769,-0.315768 0.8723235,-0.522991 1.4012489,-0.577764 z m -1.7278753,0.483038 c 0.042925,0 0.085361,0.01627 0.117921,0.04884 0.065622,0.06563 0.065622,0.171209 0,0.23634 -0.06513,0.06563 -0.1707109,0.06563 -0.2363405,0 -0.065118,-0.06513 -0.065118,-0.170712 0,-0.23634 0.033055,-0.03256 0.075495,-0.04884 0.1184195,-0.04884 z m 4.017218,0 c 0.04294,0 0.08537,0.01627 0.118421,0.04884 0.06512,0.06563 0.06512,0.171209 0,0.23634 -0.06562,0.06563 -0.171209,0.06563 -0.23634,0 -0.06562,-0.06513 -0.06562,-0.170712 0,-0.23634 0.03258,-0.03256 0.075,-0.04884 0.117919,-0.04884 z m -2.0086066,0.0034 c -0.1332209,0 -0.2476877,0.07746 -0.3014618,0.18946 -0.9670557,0.14457 -1.7036975,0.9744578 -1.7036975,1.9829668 0,1.008493 0.7366418,1.838387 1.7036975,1.982959 0.053774,0.11199 0.1682416,0.189451 0.3014618,0.189451 0.133221,0 0.2476852,-0.07746 0.3014677,-0.189451 0.9670509,-0.14457 1.7036919,-0.974461 1.7036919,-1.982959 0,-1.008508 -0.736641,-1.8383988 -1.7036919,-1.9829658 -0.053782,-0.111988 -0.1682463,-0.189448 -0.3014677,-0.189448 z m 0,0.16726 c 0.092759,0 0.1672609,0.0745 0.1672609,0.167262 0,0.09226 -0.074502,0.166765 -0.1672609,0.166765 -0.092758,0 -0.1672589,-0.0745 -0.1672589,-0.166765 0,-0.09276 0.074501,-0.167262 0.1672589,-0.167262 z M 7.410338,9.7285932 c 0.060196,0.08733 0.1613396,0.14457 0.2758062,0.14457 0.114468,0 0.2156158,-0.05722 0.2758061,-0.14457 0.7933805,0.130755 1.3953255,0.8165738 1.3953255,1.6484448 0,0.831853 -0.601945,1.517664 -1.3953255,1.648438 -0.06019,-0.08734 -0.1613375,-0.144585 -0.2758061,-0.144585 -0.1144664,0 -0.2156097,0.05722 -0.2758062,0.144585 -0.7933818,-0.13077 -1.3953223,-0.816585 -1.3953223,-1.648436 0,-0.831873 0.6019405,-1.5176958 1.3953223,-1.6484448 z M 4.8456662,11.209828 c 0.092265,0 0.1667696,0.0745 0.1667696,0.167256 0,0.09276 -0.074505,0.167248 -0.1667696,0.167248 -0.092755,0 -0.1672597,-0.07449 -0.1672597,-0.167248 0,-0.09276 0.074505,-0.167256 0.1672597,-0.167256 z m 5.6809498,0 c 0.09276,0 0.167268,0.0745 0.167268,0.167256 0,0.09276 -0.07451,0.167248 -0.167268,0.167248 -0.09226,0 -0.166761,-0.07449 -0.166761,-0.167248 0,-0.09276 0.0745,-0.167256 0.166761,-0.167256 z M 7.6861442,13.04821 c 0.092759,0 0.1672609,0.07449 0.1672609,0.16676 0,0.09275 -0.074502,0.167263 -0.1672609,0.167263 -0.092758,0 -0.1672589,-0.07452 -0.1672589,-0.167263 0,-0.09227 0.074501,-0.16676 0.1672589,-0.16676 z m -2.0086114,0.170223 c 0.042925,0 0.085361,0.01625 0.117921,0.04932 0.065622,0.06513 0.065622,0.170733 0,0.236352 -0.06513,0.06512 -0.1707113,0.06512 -0.2363405,0 -0.065118,-0.06562 -0.065118,-0.171219 0,-0.236352 0.033055,-0.03304 0.075495,-0.04932 0.1184195,-0.04932 z m 4.017218,0 c 0.04294,0 0.08537,0.01625 0.118421,0.04932 0.06512,0.06513 0.06512,0.170733 0,0.236352 -0.06562,0.06512 -0.171209,0.06512 -0.23634,0 -0.06562,-0.06562 -0.06562,-0.171219 0,-0.236352 0.03258,-0.03304 0.075,-0.04932 0.117919,-0.04932 z m -2.0086066,0.832344 c 0.092759,0 0.1672609,0.07454 0.1672609,0.16677 0,0.09276 -0.074502,0.167269 -0.1672609,0.167269 -0.092758,0 -0.1672589,-0.0745 -0.1672589,-0.167269 0,-0.09223 0.074501,-0.16677 0.1672589,-0.16677 z m 0,0"
       id="path3-3-2-2-0"
       style="fill:#21252b;fill-opacity:1;stroke-width:0.349245" /><path
       d="m 7.6169209,10.298077 c 0.5915725,0 1.0716599,0.480073 1.0716599,1.071652 0,0.591595 -0.4800874,1.071675 -1.0716599,1.071675 -0.5915725,0 -1.0716609,-0.48008 -1.0716609,-1.071675 0,-0.591579 0.4800884,-1.071652 1.0716609,-1.071652 z m 0,0"
       id="path2-6-2-4"
       style="fill:#21252b;fill-opacity:1;stroke-width:0.349245" /></g></g></svg>
