<?xml version="1.0" encoding="UTF-8" standalone="no"?>
<!-- Generator: Adobe Illustrator 27.5.0, SVG Export Plug-In . SVG Version: 6.00 Build 0)  -->

<svg
   version="1.1"
   id="Layer_1"
   x="0px"
   y="0px"
   viewBox="0 0 63.999998 63.999999"
   xml:space="preserve"
   sodipodi:docname="folder-java.svg"
   inkscape:version="1.4.3 (unknown)"
   width="64"
   height="64"
   xmlns:inkscape="http://www.inkscape.org/namespaces/inkscape"
   xmlns:sodipodi="http://sodipodi.sourceforge.net/DTD/sodipodi-0.dtd"
   xmlns="http://www.w3.org/2000/svg"
   xmlns:svg="http://www.w3.org/2000/svg"><defs
   id="defs762">
	
		<radialGradient
   id="SVGID_00000022534578410790736700000013999825567828354183_"
   cx="422.99371"
   cy="288.32251"
   r="28.502399"
   gradientTransform="matrix(0.98379286,0,0,0.98236136,-385.19832,-251.34342)"
   gradientUnits="userSpaceOnUse">
		<stop
   offset="0"
   style="stop-color:#A0866A"
   id="stop74" />
		<stop
   offset="0.2596"
   style="stop-color:#9C8268"
   id="stop75" />
		<stop
   offset="0.5301"
   style="stop-color:#8F7861"
   id="stop76" />
		<stop
   offset="0.8045"
   style="stop-color:#7B6656"
   id="stop77" />
		<stop
   offset="1"
   style="stop-color:#67554B"
   id="stop78" />
	</radialGradient>
	
	
	
	
		<radialGradient
   id="SVGID_00000125562367361927050560000001190537805866180488_"
   cx="417.22159"
   cy="288.32251"
   r="27.744699"
   gradientTransform="matrix(1.0074039,0,0,0.98236136,-390.24016,-251.34342)"
   gradientUnits="userSpaceOnUse">
		<stop
   offset="0"
   style="stop-color:#A0866A"
   id="stop85" />
		<stop
   offset="0.2596"
   style="stop-color:#9C8268"
   id="stop86" />
		<stop
   offset="0.5301"
   style="stop-color:#8F7861"
   id="stop87" />
		<stop
   offset="0.8045"
   style="stop-color:#7B6656"
   id="stop88" />
		<stop
   offset="1"
   style="stop-color:#67554B"
   id="stop89" />
	</radialGradient>
	
	
		<radialGradient
   id="SVGID_00000097500425902151924180000002286946989435723681_"
   cx="405.16061"
   cy="259.82541"
   r="73.946198"
   gradientTransform="matrix(0.94060435,0,0,0.98236136,-375.80615,-251.34342)"
   gradientUnits="userSpaceOnUse">
		<stop
   offset="0"
   style="stop-color:#535d6c;stop-opacity:1"
   id="stop90" />
		<stop
   offset="0.2284"
   style="stop-color:#373e48;stop-opacity:1"
   id="stop91" />
		<stop
   offset="0.4664"
   style="stop-color:#373e48;stop-opacity:1"
   id="stop92" />
		<stop
   offset="0.70889997"
   style="stop-color:#48515e;stop-opacity:1;"
   id="stop93" />
		<stop
   offset="0.95289999"
   style="stop-color:#373e48;stop-opacity:1"
   id="stop94" />
		<stop
   offset="1"
   style="stop-color:#373e48;stop-opacity:1"
   id="stop95" />
	</radialGradient>
	
	
		<radialGradient
   id="SVGID_00000119082666600208423750000005907981173642057379_"
   cx="425.73099"
   cy="288.43094"
   r="67.4496"
   gradientTransform="matrix(0.82943576,0,0,0.98236136,-350.11651,-251.34342)"
   gradientUnits="userSpaceOnUse"
   fx="425.73099"
   fy="288.43094">
		<stop
   offset="0"
   style="stop-color:#939dac;stop-opacity:1"
   id="stop96" />
		<stop
   offset="0.25960001"
   style="stop-color:#535d6c;stop-opacity:1"
   id="stop97" />
		<stop
   offset="0.5301"
   style="stop-color:#535d6c;stop-opacity:1"
   id="stop98" />
		<stop
   offset="0.8045"
   style="stop-color:#373e48;stop-opacity:1"
   id="stop99" />
		<stop
   offset="1"
   style="stop-color:#373e48;stop-opacity:1"
   id="stop100" />
	</radialGradient>
	
	
		<radialGradient
   id="SVGID_00000165928333602235411140000014852226284911233709_"
   cx="-1556.7609"
   cy="1310.3918"
   r="1.7343"
   gradientTransform="matrix(0.62323278,0,0,0.68421469,985.97188,-887.64613)"
   gradientUnits="userSpaceOnUse">
		<stop
   offset="0"
   style="stop-color:#E1CEC0"
   id="stop101" />
		<stop
   offset="0.761"
   style="stop-color:#E0CDBE"
   id="stop102" />
		<stop
   offset="1"
   style="stop-color:#DCC9B9"
   id="stop103" />
	</radialGradient>
	
	
		<radialGradient
   id="SVGID_00000023271670121255412580000014745766858599489424_"
   cx="-1556.7609"
   cy="1306.0997"
   r="1.7342"
   gradientTransform="matrix(0.62323278,0,0,0.68421469,985.97188,-880.11982)"
   gradientUnits="userSpaceOnUse">
		<stop
   offset="0"
   style="stop-color:#E1CEC0"
   id="stop104" />
		<stop
   offset="0.761"
   style="stop-color:#E0CDBE"
   id="stop105" />
		<stop
   offset="1"
   style="stop-color:#DCC9B9"
   id="stop106" />
	</radialGradient>
	
	
		<radialGradient
   id="SVGID_00000093146561591346411050000017874754504161969285_"
   cx="-1556.7609"
   cy="1301.8096"
   r="1.733"
   gradientTransform="matrix(0.62323278,0,0,0.68421469,985.97188,-872.59405)"
   gradientUnits="userSpaceOnUse">
		<stop
   offset="0"
   style="stop-color:#E1CEC0"
   id="stop107" />
		<stop
   offset="0.761"
   style="stop-color:#E0CDBE"
   id="stop108" />
		<stop
   offset="1"
   style="stop-color:#DCC9B9"
   id="stop109" />
	</radialGradient>
	
	
		<radialGradient
   id="SVGID_00000124154437391672708990000002450479196596738238_"
   cx="-1556.7609"
   cy="1297.5177"
   r="1.7336"
   gradientTransform="matrix(0.62323278,0,0,0.68421469,985.97188,-865.06833)"
   gradientUnits="userSpaceOnUse">
		<stop
   offset="0"
   style="stop-color:#E1CEC0"
   id="stop110" />
		<stop
   offset="0.761"
   style="stop-color:#E0CDBE"
   id="stop111" />
		<stop
   offset="1"
   style="stop-color:#DCC9B9"
   id="stop112" />
	</radialGradient>
	
	
		<radialGradient
   id="SVGID_00000034058293124216951570000006641406590055667894_"
   cx="-1556.7609"
   cy="1293.2249"
   r="1.7339"
   gradientTransform="matrix(0.62323278,0,0,0.68421469,985.97188,-857.54231)"
   gradientUnits="userSpaceOnUse">
		<stop
   offset="0"
   style="stop-color:#E1CEC0"
   id="stop113" />
		<stop
   offset="0.761"
   style="stop-color:#E0CDBE"
   id="stop114" />
		<stop
   offset="1"
   style="stop-color:#DCC9B9"
   id="stop115" />
	</radialGradient>
	
	
		<radialGradient
   id="SVGID_00000042694802152741533360000006474553379895889032_"
   cx="-1556.7609"
   cy="1288.9327"
   r="1.7342"
   gradientTransform="matrix(0.62323278,0,0,0.68421469,985.97188,-850.01604)"
   gradientUnits="userSpaceOnUse">
		<stop
   offset="0"
   style="stop-color:#E1CEC0"
   id="stop116" />
		<stop
   offset="0.761"
   style="stop-color:#E0CDBE"
   id="stop117" />
		<stop
   offset="1"
   style="stop-color:#DCC9B9"
   id="stop118" />
	</radialGradient>
	
	
		<radialGradient
   id="SVGID_00000111901877872900564700000014159718068513697190_"
   cx="-1556.7609"
   cy="1284.642"
   r="1.7334"
   gradientTransform="matrix(0.62323278,0,0,0.68421469,985.97188,-842.49032)"
   gradientUnits="userSpaceOnUse">
		<stop
   offset="0"
   style="stop-color:#E1CEC0"
   id="stop119" />
		<stop
   offset="0.761"
   style="stop-color:#E0CDBE"
   id="stop120" />
		<stop
   offset="1"
   style="stop-color:#DCC9B9"
   id="stop121" />
	</radialGradient>
	
	
		<radialGradient
   id="SVGID_00000022538754652405687830000005864690060167237006_"
   cx="-1556.7609"
   cy="1280.3497"
   r="1.7334"
   gradientTransform="matrix(0.62323278,0,0,0.68421469,985.97188,-834.96406)"
   gradientUnits="userSpaceOnUse">
		<stop
   offset="0"
   style="stop-color:#E1CEC0"
   id="stop122" />
		<stop
   offset="0.761"
   style="stop-color:#E0CDBE"
   id="stop123" />
		<stop
   offset="1"
   style="stop-color:#DCC9B9"
   id="stop124" />
	</radialGradient>
	
	
		<radialGradient
   id="SVGID_00000059309292910592828090000012283058363263137190_"
   cx="-1556.7609"
   cy="1276.0603"
   r="1.7339"
   gradientTransform="matrix(0.62323278,0,0,0.68421469,985.97188,-827.43829)"
   gradientUnits="userSpaceOnUse">
		<stop
   offset="0"
   style="stop-color:#E1CEC0"
   id="stop125" />
		<stop
   offset="0.761"
   style="stop-color:#E0CDBE"
   id="stop126" />
		<stop
   offset="1"
   style="stop-color:#DCC9B9"
   id="stop127" />
	</radialGradient>
	
	
		<radialGradient
   id="SVGID_00000164515357396027012420000009309048799111497121_"
   cx="-1556.7609"
   cy="1271.7668"
   r="1.7334"
   gradientTransform="matrix(0.62323278,0,0,0.68421469,985.97188,-819.91212)"
   gradientUnits="userSpaceOnUse">
		<stop
   offset="0"
   style="stop-color:#E1CEC0"
   id="stop128" />
		<stop
   offset="0.761"
   style="stop-color:#E0CDBE"
   id="stop129" />
		<stop
   offset="1"
   style="stop-color:#DCC9B9"
   id="stop130" />
	</radialGradient>
	
	
		<radialGradient
   id="SVGID_00000078021694386518579320000000195962685941464961_"
   cx="-1556.7609"
   cy="1267.4753"
   r="1.733"
   gradientTransform="matrix(0.62323278,0,0,0.68421469,985.97188,-812.3863)"
   gradientUnits="userSpaceOnUse">
		<stop
   offset="0"
   style="stop-color:#E1CEC0"
   id="stop131" />
		<stop
   offset="0.761"
   style="stop-color:#E0CDBE"
   id="stop132" />
		<stop
   offset="1"
   style="stop-color:#DCC9B9"
   id="stop133" />
	</radialGradient>
	
	
	
		<radialGradient
   id="SVGID_00000179631901819502847670000002313046964360062115_"
   cx="465.28549"
   cy="269.20731"
   r="33.883701"
   gradientTransform="matrix(0.7608654,0,0,0.98236136,-334.59177,-251.34342)"
   gradientUnits="userSpaceOnUse">
		<stop
   offset="0"
   style="stop-color:#5599ff;stop-opacity:1"
   id="stop145" />
		<stop
   offset="0.31479999"
   style="stop-color:#267dff;stop-opacity:1;"
   id="stop146" />
		<stop
   offset="0.7586"
   style="stop-color:#2a7fff;stop-opacity:1"
   id="stop147" />
		<stop
   offset="1"
   style="stop-color:#0053d0;stop-opacity:1;"
   id="stop148" />
	</radialGradient>
	
	
		<radialGradient
   id="SVGID_00000110451134532301891090000001961278411554218625_"
   cx="422.12851"
   cy="271.23071"
   r="41.8508"
   gradientTransform="matrix(0.91866577,0,0,0.98236136,-370.25146,-251.34342)"
   gradientUnits="userSpaceOnUse">
		<stop
   offset="0.1067"
   style="stop-color:#8d5fd3;stop-opacity:1"
   id="stop149" />
		<stop
   offset="0.5118"
   style="stop-color:#8d5fd3;stop-opacity:1"
   id="stop150" />
		<stop
   offset="1"
   style="stop-color:#8d5fd3;stop-opacity:1"
   id="stop151" />
	</radialGradient>
	

		
		
		
		
		
		
	
		
			<radialGradient
   id="SVGID_00000052091378501920612200000006059691176872464570_"
   cx="-498.31311"
   cy="565.55511"
   r="5.8572001"
   gradientTransform="matrix(1.1015529,0,0,1.1486751,623.04374,-631.95324)"
   gradientUnits="userSpaceOnUse">
			<stop
   offset="0"
   style="stop-color:#A0866A"
   id="stop134" />
			<stop
   offset="0.2596"
   style="stop-color:#9C8268"
   id="stop135" />
			<stop
   offset="0.5301"
   style="stop-color:#8F7861"
   id="stop136" />
			<stop
   offset="0.8045"
   style="stop-color:#7B6656"
   id="stop137" />
			<stop
   offset="1"
   style="stop-color:#67554B"
   id="stop138" />
		</radialGradient>
		
		
		
		
	
			
				<radialGradient
   id="SVGID_00000044889807405124194260000009933868313778631062_"
   cx="-498.314"
   cy="580.81989"
   r="7.6585999"
   gradientTransform="matrix(1.1015529,0,0,1.1486751,623.04374,-631.95324)"
   gradientUnits="userSpaceOnUse">
				<stop
   offset="0"
   style="stop-color:#A0866A"
   id="stop139" />
				<stop
   offset="0.2596"
   style="stop-color:#9C8268"
   id="stop140" />
				<stop
   offset="0.5301"
   style="stop-color:#8F7861"
   id="stop141" />
				<stop
   offset="0.8045"
   style="stop-color:#7B6656"
   id="stop142" />
				<stop
   offset="1"
   style="stop-color:#67554B"
   id="stop143" />
			</radialGradient>
			
		</defs><sodipodi:namedview
   id="namedview762"
   pagecolor="#ffffff"
   bordercolor="#000000"
   borderopacity="0.25"
   inkscape:showpageshadow="2"
   inkscape:pageopacity="0.0"
   inkscape:pagecheckerboard="0"
   inkscape:deskcolor="#d1d1d1"
   inkscape:zoom="8"
   inkscape:cx="25.375"
   inkscape:cy="36.375"
   inkscape:window-width="1920"
   inkscape:window-height="994"
   inkscape:window-x="0"
   inkscape:window-y="0"
   inkscape:window-maximized="1"
   inkscape:current-layer="Layer_1"
   showgrid="false"><inkscape:grid
     id="grid1"
     units="px"
     originx="0"
     originy="0"
     spacingx="0.99999997"
     spacingy="0.99999998"
     empcolor="#0099e5"
     empopacity="0.30196078"
     color="#0099e5"
     opacity="0.14901961"
     empspacing="5"
     enabled="true"
     visible="false" /></sodipodi:namedview>


<g
   id="g1"><path
     d="m 59.081109,50.189861 c 0,5.81014 -4.176201,9.110139 -9.326848,9.110139 H 12.324878 C 7.1752139,59.3 2.999997,55.219763 2.999997,50.189861 V 13.810139 c 0,-5.0303802 4.1752169,-9.1101391 9.324881,-9.1101391 h 37.429383 c 5.150647,0 9.326848,3.0998612 9.326848,8.9100001 z"
     id="path78"
     style="fill:#b7bec8;fill-opacity:1;stroke-width:0.987421"
     sodipodi:nodetypes="sssssssss" /><path
     style="fill:#b7bec8;stroke-width:0.485356;fill-opacity:1"
     d="m 58.142571,50.189862 c 0,5.030379 -4.106352,9.110138 -9.170426,9.110138 H 12.169438 C 7.1063484,59.3 2.999997,55.219763 2.999997,50.189862 V 13.810138 c 0,-5.0303792 4.1063514,-9.1101381 9.169441,-9.1101381 h 36.802707 c 5.064074,0 9.170426,4.0802377 9.170426,9.1101381 z"
     id="path79" /><g
     id="g2"><path
       style="fill:#ffaaaa;stroke-width:0.491538;fill-opacity:1"
       d="m 60.742243,43.740446 v 3.41518 c 0,1.767268 -1.339434,3.202989 -3.005979,3.247195 0.02509,0 0.05116,0.0039 0.07674,0.0039 h 0.10379 c 1.702454,0 3.083207,-1.455369 3.083207,-3.251125 v -3.41518 c 0,-1.794774 -1.380753,-3.251125 -3.083207,-3.251125 H 57.813 c -0.02607,0 -0.05165,0.0039 -0.07674,0.0039 1.666545,0.04371 3.005979,1.478945 3.005979,3.247195 z"
       id="path80" /><path
       style="fill:#d35f8d;stroke-width:0.491538"
       d="m 57.284703,50.356159 c 0.147077,0.02701 0.297598,0.04224 0.451561,0.04715 1.667037,-0.04421 3.005979,-1.480418 3.005979,-3.247195 v -3.415179 c 0,-1.768251 -1.339434,-3.20299 -3.005979,-3.247196 -0.153963,0.0039 -0.304484,0.02112 -0.451561,0.04814 z"
       id="path81" /></g><path
     style="fill:#ffeeaa;stroke-width:0.491538;fill-opacity:1"
     d="m 60.742243,29.923043 v 3.413214 c 0,1.769233 -1.339434,3.203972 -3.005979,3.248178 0.02509,0 0.05116,0.0039 0.07674,0.0039 h 0.10379 c 1.702454,0 3.083207,-1.45635 3.083207,-3.252107 v -3.413214 c 0,-1.795757 -1.380753,-3.252108 -3.083207,-3.252108 H 57.813 c -0.02607,0 -0.05165,0.0039 -0.07674,0.0039 1.666545,0.04224 3.005979,1.477962 3.005979,3.248178 z"
     id="path82" /><path
     style="fill:#ffd42a;stroke-width:0.491538;fill-opacity:1"
     d="m 57.284703,36.537773 c 0.147077,0.02603 0.297598,0.04322 0.451561,0.04715 1.667037,-0.04421 3.005979,-1.479436 3.005979,-3.248178 v -3.413214 c 0,-1.770215 -1.339434,-3.205936 -3.005979,-3.248178 -0.153963,0.0039 -0.304484,0.02112 -0.451561,0.04814 z"
     id="path83" /><path
     style="fill:#a1ffff;stroke-width:0.491538;fill-opacity:1"
     d="m 60.742243,16.104657 v 3.413214 c 0,1.770215 -1.339434,3.203972 -3.005979,3.24916 0.02509,0 0.05116,0.0029 0.07674,0.0029 h 0.10379 c 1.702454,0 3.083207,-1.455368 3.083207,-3.252107 V 16.10461 c 0,-1.795757 -1.380753,-3.252108 -3.083207,-3.252108 H 57.813 c -0.02607,0 -0.05165,0.0029 -0.07674,0.0049 1.666545,0.04322 3.005979,1.478454 3.005979,3.247196 z"
     id="path84" /><path
     style="fill:#00cccc;stroke-width:0.491538;fill-opacity:1"
     d="m 57.284703,22.719387 c 0.147077,0.02701 0.297598,0.04322 0.451561,0.04814 1.667037,-0.04519 3.005979,-1.479437 3.005979,-3.249161 v -3.413214 c 0,-1.769233 -1.339434,-3.203972 -3.005979,-3.247196 -0.153963,0.0029 -0.304484,0.01817 -0.451561,0.04519 z"
     id="path85" /><path
     style="fill:#939dac;fill-opacity:1;stroke-width:0.488898"
     d="m 57.333893,50.456382 c 0,5.104082 -4.045848,9.243618 -9.035646,9.243618 H 12.035151 C 7.0458451,59.7 3.0004889,55.559979 3.0004889,50.456382 V 13.543618 c 0,-5.1040823 4.0458481,-9.2436179 9.0346621,-9.2436179 h 36.263096 c 4.99029,0 9.035646,4.1400216 9.035646,9.2436179 z"
     id="path89" /><path
     style="fill:url(#SVGID_00000097500425902151924180000002286946989435723681_);stroke-width:0.491538"
     d="M 56.620643,52.656 C 56.620643,57.000001 52.999998,60 48.004,60 H 11.91562 C 6.9917365,60 2.999997,55.815141 2.999997,50.65627 V 12.144 c 0,-1.144 4.0000028,-8.1440001 8.915623,-8.1440001 H 47.504 c 5.495998,0 9.116643,3.0000002 9.116643,8.0440001 z"
     id="path95"
     sodipodi:nodetypes="sssssssss" /><path
     style="fill:url(#SVGID_00000119082666600208423750000005907981173642057379_);stroke-width:0.491538"
     d="m 17.733771,60 v 0 H 11 C 5.9999998,60 2.999997,57.000001 2.999997,52 V 12 C 2.999997,7.0000001 5.9999998,3.9999999 11,3.9999999 h 6.891178 v 0 z"
     id="path100"
     sodipodi:nodetypes="ccssssccc" /><path
     style="fill:#80b3ff;stroke-width:0.491538;fill-opacity:1"
     d="m 16.347607,9.8961328 c 0,0.3782092 -0.278414,0.6832322 -0.621757,0.6832322 v 0 c -0.343836,0 -0.622741,-0.305023 -0.622741,-0.6832322 V 8.1991036 c 0,-0.3782092 0.278413,-0.6842147 0.622741,-0.6842147 v 0 c 0.342851,0 0.621757,0.3060055 0.621757,0.6842147 z"
     id="path103" /><path
     style="fill:#80b3ff;stroke-width:0.491538;fill-opacity:1"
     d="m 16.347607,14.485234 c 0,0.377718 -0.278414,0.683232 -0.621757,0.683232 v 0 c -0.343836,0 -0.622741,-0.305023 -0.622741,-0.683232 v -1.698012 c 0,-0.378209 0.278413,-0.683232 0.622741,-0.683232 v 0 c 0.342851,0 0.621757,0.305023 0.621757,0.683232 z"
     id="path106" /><path
     style="fill:#80b3ff;stroke-width:0.491538;fill-opacity:1"
     d="m 16.347607,19.074826 c 0,0.378209 -0.278414,0.683232 -0.621757,0.683232 v 0 c -0.343836,0 -0.622741,-0.305023 -0.622741,-0.683232 v -1.698011 c 0,-0.376245 0.278413,-0.681268 0.622741,-0.681268 v 0 c 0.342851,0 0.621757,0.305023 0.621757,0.681268 z"
     id="path109" /><path
     style="fill:#80b3ff;stroke-width:0.491538;fill-opacity:1"
     d="m 16.347607,23.664418 c 0,0.376245 -0.278414,0.683233 -0.621757,0.683233 v 0 c -0.343836,0 -0.622741,-0.306988 -0.622741,-0.683233 v -1.698011 c 0,-0.377227 0.278413,-0.683232 0.622741,-0.683232 v 0 c 0.342851,0 0.621757,0.306005 0.621757,0.683232 z"
     id="path112" /><path
     style="fill:#80b3ff;stroke-width:0.491538;fill-opacity:1"
     d="m 16.347607,28.254011 c 0,0.376244 -0.278414,0.683232 -0.621757,0.683232 v 0 c -0.343836,0 -0.622741,-0.306988 -0.622741,-0.683232 v -1.696047 c 0,-0.378209 0.278413,-0.685197 0.622741,-0.685197 v 0 c 0.342851,0 0.621757,0.306988 0.621757,0.685197 z"
     id="path115" /><path
     style="fill:#80b3ff;stroke-width:0.491538;fill-opacity:1"
     d="m 16.347607,32.843112 c 0,0.377227 -0.278414,0.683232 -0.621757,0.683232 v 0 c -0.343836,0 -0.622741,-0.306005 -0.622741,-0.683232 v -1.697029 c 0,-0.377227 0.278413,-0.684215 0.622741,-0.684215 v 0 c 0.342851,0 0.621757,0.306988 0.621757,0.684215 z"
     id="path118" /><path
     style="fill:#80b3ff;stroke-width:0.491538;fill-opacity:1"
     d="m 16.347607,37.432704 c 0,0.377227 -0.278414,0.683232 -0.621757,0.683232 v 0 c -0.343836,0 -0.622741,-0.306005 -0.622741,-0.683232 v -1.697029 c 0,-0.377227 0.278413,-0.683232 0.622741,-0.683232 v 0 c 0.342851,0 0.621757,0.306005 0.621757,0.683232 z"
     id="path121" /><path
     style="fill:#80b3ff;stroke-width:0.491538;fill-opacity:1"
     d="m 16.347607,42.022296 c 0,0.377718 -0.278414,0.683233 -0.621757,0.683233 v 0 c -0.343836,0 -0.622741,-0.305024 -0.622741,-0.683233 v -1.696047 c 0,-0.378209 0.278413,-0.684214 0.622741,-0.684214 v 0 c 0.342851,0 0.621757,0.306005 0.621757,0.684214 z"
     id="path124" /><path
     style="fill:#80b3ff;stroke-width:0.491538;fill-opacity:1"
     d="m 16.347607,46.61238 c 0,0.377227 -0.278414,0.684214 -0.621757,0.684214 v 0 c -0.343836,0 -0.622741,-0.306987 -0.622741,-0.684214 v -1.696047 c 0,-0.3787 0.278413,-0.684215 0.622741,-0.684215 v 0 c 0.342851,0 0.621757,0.305023 0.621757,0.684215 z"
     id="path127" /><path
     style="fill:#80b3ff;stroke-width:0.491538;fill-opacity:1"
     d="m 16.347607,51.202954 c 0,0.376245 -0.278414,0.681268 -0.621757,0.681268 v 0 c -0.343836,0 -0.622741,-0.305023 -0.622741,-0.681268 v -1.698011 c 0,-0.378209 0.278413,-0.683232 0.622741,-0.683232 v 0 c 0.342851,0 0.621757,0.305023 0.621757,0.683232 z"
     id="path130" /><path
     style="fill:#80b3ff;stroke-width:0.491538;fill-opacity:1"
     d="m 16.347607,55.791564 c 0,0.378209 -0.278414,0.68225 -0.621757,0.68225 v 0 c -0.343836,0 -0.622741,-0.304041 -0.622741,-0.68225 v -1.698011 c 0,-0.377227 0.278413,-0.68225 0.622741,-0.68225 v 0 c 0.342851,0 0.621757,0.305023 0.621757,0.68225 z"
     id="path133" /></g>

















<g
   id="surface1"
   transform="matrix(0.46113189,0,0,0.42039478,21.999999,18.159403)"
   style="fill:#ffffff;fill-opacity:0.501961;stroke-width:2.88793"><path
     style="fill:#ffffff;fill-opacity:0.501961;fill-rule:evenodd;stroke:none;stroke-width:2.88793"
     d="m 31.703125,13.117188 c -2.769531,1.949218 -5.910156,4.160156 -7.59375,7.816406 -2.925781,6.378906 5.980469,13.339844 6.359375,13.628906 0.08984,0.07031 0.195312,0.105469 0.300781,0.105469 0.109375,0 0.226563,-0.03906 0.316407,-0.117188 0.175781,-0.148437 0.226562,-0.398437 0.117187,-0.601562 -0.03125,-0.06641 -3.226563,-6.273438 -3.105469,-10.730469 0.04297,-1.550781 2.210938,-3.3125 4.511719,-5.175781 2.101563,-1.707031 4.492187,-3.644531 5.886719,-5.90625 3.0625,-4.980469 -0.34375,-9.878907 -0.375,-9.929688 C 37.984375,2.015625 37.730469,1.949219 37.519531,2.039062 37.308594,2.136719 37.1875,2.367188 37.234375,2.597656 c 0.0078,0.03125 0.671875,3.269532 -1.171875,6.605469 -0.757812,1.382813 -2.425781,2.558594 -4.359375,3.914063 z m 11.675781,2.199218 c 0.195313,-0.148437 0.253906,-0.417968 0.136719,-0.632812 -0.121094,-0.214844 -0.375,-0.308594 -0.609375,-0.21875 -0.464844,0.175781 -11.527344,4.4375 -11.527344,9.589844 0,3.554687 1.515625,5.429687 2.625,6.800781 0.4375,0.535156 0.808594,1 0.933594,1.398437 0.347656,1.140625 -0.476562,3.207032 -0.824219,3.902344 -0.09766,0.203125 -0.05078,0.445312 0.117188,0.589844 0.09375,0.08203 0.210937,0.121094 0.324219,0.121094 0.09766,0 0.199218,-0.02734 0.28125,-0.08594 0.1875,-0.132812 4.644531,-3.285156 3.847656,-7.085938 -0.300782,-1.4375 -1.007813,-2.496093 -1.632813,-3.425781 -0.972656,-1.441406 -1.671875,-2.484375 -0.605469,-4.410156 1.242188,-2.242187 6.878907,-6.503906 6.933594,-6.542969 z m -28.78125,21.632813 c -0.195312,0.566406 -0.101562,1.128906 0.253906,1.628906 1.199219,1.664063 5.445313,2.582031 11.957032,2.582031 0.0039,0 0.0039,0 0.0039,0 0.878906,0 1.8125,-0.01563 2.765625,-0.05078 10.414063,-0.375 14.273437,-3.617187 14.433594,-3.757813 0.171875,-0.148437 0.21875,-0.398437 0.113281,-0.597656 -0.109375,-0.207031 -0.339844,-0.304687 -0.566406,-0.246094 -3.667969,1 -10.511719,1.355469 -15.261719,1.355469 -5.3125,0 -8.019531,-0.382812 -8.683594,-0.664062 0.339844,-0.46875 2.4375,-1.304688 5.035157,-1.8125 0.246093,-0.05078 0.417968,-0.277344 0.394531,-0.53125 -0.02344,-0.25 -0.234375,-0.445313 -0.488281,-0.445313 -1.523438,0 -9.164063,0.125 -9.957032,2.539063 z m 34.835938,-3.339844 c -2.148438,0 -4.1875,1.074219 -4.269532,1.117187 -0.199218,0.109376 -0.300781,0.335938 -0.242187,0.558594 0.05078,0.214844 0.246094,0.371094 0.472656,0.371094 0.04687,0 4.582031,0.03516 4.992188,2.628906 0.367187,2.234375 -4.289063,5.859375 -6.113281,7.066406 -0.199219,0.132813 -0.277344,0.382813 -0.183594,0.601563 0.07813,0.183594 0.257812,0.300781 0.453125,0.300781 0.03125,0 0.07031,-0.0078 0.101562,-0.01172 0.429688,-0.08984 10.589844,-2.332032 9.515625,-8.246094 -0.652344,-3.628906 -2.933594,-4.386719 -4.726562,-4.386719 z M 42.46875,44.628906 c 0.03516,-0.1875 -0.04297,-0.386718 -0.203125,-0.492187 l -2.433594,-1.707031 c -0.121093,-0.08594 -0.273437,-0.109376 -0.410156,-0.07422 -0.02734,0.0078 -2.574219,0.675781 -6.269531,1.089843 -1.46875,0.164063 -3.113282,0.25 -4.757813,0.25 -3.695312,0 -6.109375,-0.433593 -6.460937,-0.753906 -0.05078,-0.08984 -0.03516,-0.128906 -0.02734,-0.152344 0.06641,-0.175781 0.410156,-0.390624 0.628906,-0.472656 0.246094,-0.09375 0.375,-0.355468 0.300782,-0.605468 -0.07422,-0.25 -0.332032,-0.394532 -0.589844,-0.335938 -2.4375,0.589844 -3.632813,1.417969 -3.546875,2.453125 0.152343,1.835937 4.410156,2.78125 8.007812,3.03125 0.515625,0.03125 1.078125,0.05078 1.664063,0.05078 5.984375,0 13.652344,-1.878906 13.730468,-1.894531 0.1875,-0.04687 0.332032,-0.199219 0.367188,-0.386719 z m -18.363281,3.941406 c 0.183593,-0.117187 0.265625,-0.347656 0.199219,-0.554687 -0.06641,-0.210937 -0.261719,-0.347656 -0.480469,-0.347656 -0.328125,0.0078 -3.203125,0.140625 -3.410157,1.972656 -0.05859,0.546875 0.09766,1.046875 0.46875,1.488281 1.03125,1.222656 3.820313,1.949219 8.519532,2.222656 0.558594,0.03125 1.125,0.04688 1.683594,0.04688 5.972656,0 10,-1.871094 10.171874,-1.949219 0.15625,-0.07813 0.265626,-0.238281 0.277344,-0.417969 0.0078,-0.179688 -0.07813,-0.351562 -0.234375,-0.445312 l -3.078125,-1.882813 c -0.105468,-0.0625 -0.234375,-0.08203 -0.359375,-0.05859 -0.01563,0.0039 -1.972656,0.40625 -4.917969,0.808594 -0.5625,0.07422 -1.261718,0.113281 -2.082031,0.113281 -2.941406,0 -6.21875,-0.476562 -6.851562,-0.792968 -0.0078,-0.0625 0.0039,-0.136719 0.09375,-0.203126 z m 4.195312,10.480469 c 13.6875,-0.01172 21.035157,-2.445312 22.453125,-3.980469 0.5,-0.539062 0.554688,-1.050781 0.511719,-1.386718 -0.105469,-0.828125 -0.859375,-1.332032 -0.945313,-1.386719 -0.203124,-0.132813 -0.480468,-0.09766 -0.640624,0.08594 -0.160157,0.1875 -0.164063,0.457032 -0.0039,0.640626 0.08984,0.113281 0.136719,0.300781 -0.117187,0.550781 -0.5625,0.53125 -6.269532,2.132812 -15.769532,2.617187 -1.304687,0.07031 -2.667968,0.101563 -4.0625,0.101563 -8.507812,0 -14.730468,-1.164063 -15.550781,-1.84375 0.316407,-0.453125 2.519531,-1.175781 4.859375,-1.585938 0.265625,-0.04687 0.445313,-0.296875 0.40625,-0.558593 -0.04687,-0.269532 -0.289062,-0.449219 -0.554687,-0.414063 -0.06641,0.0078 -0.289063,0.01953 -0.550781,0.03906 -3.863282,0.234374 -8.328126,0.761718 -8.5625,2.753906 -0.070313,0.605468 0.109374,1.15625 0.535156,1.636718 1.042968,1.171876 4.042968,2.730469 17.992187,2.730469 z m 25.140625,-3.546875 c -0.195312,-0.08984 -0.425781,-0.04297 -0.570312,0.113282 -0.01953,0.02344 -2.074219,2.175781 -8.261719,3.4375 -2.375,0.476562 -6.816406,0.71875 -13.222656,0.71875 -6.410157,0 -12.515625,-0.253907 -12.574219,-0.257813 -0.257812,-0.01172 -0.472656,0.171875 -0.507812,0.425781 -0.03125,0.25 0.128906,0.488282 0.375,0.546875 C 18.738281,60.5 25.136719,62 33.878906,62 c 4.195313,0 8.277344,-0.339844 12.132813,-1.011719 7.1875,-1.261719 7.691406,-4.828125 7.707031,-4.980469 0.02734,-0.207031 -0.08594,-0.410156 -0.277344,-0.503906 z m 0,0"
     id="path1" /></g><g
   id="surface1-3"
   transform="matrix(0.46113189,0,0,0.42039478,22.488368,18.935523)"
   style="fill:#21262b;fill-opacity:1;stroke-width:2.88793"><path
     style="fill:#21262b;fill-opacity:1;fill-rule:evenodd;stroke:none;stroke-width:2.88793"
     d="m 31.703125,13.117188 c -2.769531,1.949218 -5.910156,4.160156 -7.59375,7.816406 -2.925781,6.378906 5.980469,13.339844 6.359375,13.628906 0.08984,0.07031 0.195312,0.105469 0.300781,0.105469 0.109375,0 0.226563,-0.03906 0.316407,-0.117188 0.175781,-0.148437 0.226562,-0.398437 0.117187,-0.601562 -0.03125,-0.06641 -3.226563,-6.273438 -3.105469,-10.730469 0.04297,-1.550781 2.210938,-3.3125 4.511719,-5.175781 2.101563,-1.707031 4.492187,-3.644531 5.886719,-5.90625 3.0625,-4.980469 -0.34375,-9.878907 -0.375,-9.929688 C 37.984375,2.015625 37.730469,1.949219 37.519531,2.039062 37.308594,2.136719 37.1875,2.367188 37.234375,2.597656 c 0.0078,0.03125 0.671875,3.269532 -1.171875,6.605469 -0.757812,1.382813 -2.425781,2.558594 -4.359375,3.914063 z m 11.675781,2.199218 c 0.195313,-0.148437 0.253906,-0.417968 0.136719,-0.632812 -0.121094,-0.214844 -0.375,-0.308594 -0.609375,-0.21875 -0.464844,0.175781 -11.527344,4.4375 -11.527344,9.589844 0,3.554687 1.515625,5.429687 2.625,6.800781 0.4375,0.535156 0.808594,1 0.933594,1.398437 0.347656,1.140625 -0.476562,3.207032 -0.824219,3.902344 -0.09766,0.203125 -0.05078,0.445312 0.117188,0.589844 0.09375,0.08203 0.210937,0.121094 0.324219,0.121094 0.09766,0 0.199218,-0.02734 0.28125,-0.08594 0.1875,-0.132812 4.644531,-3.285156 3.847656,-7.085938 -0.300782,-1.4375 -1.007813,-2.496093 -1.632813,-3.425781 -0.972656,-1.441406 -1.671875,-2.484375 -0.605469,-4.410156 1.242188,-2.242187 6.878907,-6.503906 6.933594,-6.542969 z m -28.78125,21.632813 c -0.195312,0.566406 -0.101562,1.128906 0.253906,1.628906 1.199219,1.664063 5.445313,2.582031 11.957032,2.582031 0.0039,0 0.0039,0 0.0039,0 0.878906,0 1.8125,-0.01563 2.765625,-0.05078 10.414063,-0.375 14.273437,-3.617187 14.433594,-3.757813 0.171875,-0.148437 0.21875,-0.398437 0.113281,-0.597656 -0.109375,-0.207031 -0.339844,-0.304687 -0.566406,-0.246094 -3.667969,1 -10.511719,1.355469 -15.261719,1.355469 -5.3125,0 -8.019531,-0.382812 -8.683594,-0.664062 0.339844,-0.46875 2.4375,-1.304688 5.035157,-1.8125 0.246093,-0.05078 0.417968,-0.277344 0.394531,-0.53125 -0.02344,-0.25 -0.234375,-0.445313 -0.488281,-0.445313 -1.523438,0 -9.164063,0.125 -9.957032,2.539063 z m 34.835938,-3.339844 c -2.148438,0 -4.1875,1.074219 -4.269532,1.117187 -0.199218,0.109376 -0.300781,0.335938 -0.242187,0.558594 0.05078,0.214844 0.246094,0.371094 0.472656,0.371094 0.04687,0 4.582031,0.03516 4.992188,2.628906 0.367187,2.234375 -4.289063,5.859375 -6.113281,7.066406 -0.199219,0.132813 -0.277344,0.382813 -0.183594,0.601563 0.07813,0.183594 0.257812,0.300781 0.453125,0.300781 0.03125,0 0.07031,-0.0078 0.101562,-0.01172 0.429688,-0.08984 10.589844,-2.332032 9.515625,-8.246094 -0.652344,-3.628906 -2.933594,-4.386719 -4.726562,-4.386719 z M 42.46875,44.628906 c 0.03516,-0.1875 -0.04297,-0.386718 -0.203125,-0.492187 l -2.433594,-1.707031 c -0.121093,-0.08594 -0.273437,-0.109376 -0.410156,-0.07422 -0.02734,0.0078 -2.574219,0.675781 -6.269531,1.089843 -1.46875,0.164063 -3.113282,0.25 -4.757813,0.25 -3.695312,0 -6.109375,-0.433593 -6.460937,-0.753906 -0.05078,-0.08984 -0.03516,-0.128906 -0.02734,-0.152344 0.06641,-0.175781 0.410156,-0.390624 0.628906,-0.472656 0.246094,-0.09375 0.375,-0.355468 0.300782,-0.605468 -0.07422,-0.25 -0.332032,-0.394532 -0.589844,-0.335938 -2.4375,0.589844 -3.632813,1.417969 -3.546875,2.453125 0.152343,1.835937 4.410156,2.78125 8.007812,3.03125 0.515625,0.03125 1.078125,0.05078 1.664063,0.05078 5.984375,0 13.652344,-1.878906 13.730468,-1.894531 0.1875,-0.04687 0.332032,-0.199219 0.367188,-0.386719 z m -18.363281,3.941406 c 0.183593,-0.117187 0.265625,-0.347656 0.199219,-0.554687 -0.06641,-0.210937 -0.261719,-0.347656 -0.480469,-0.347656 -0.328125,0.0078 -3.203125,0.140625 -3.410157,1.972656 -0.05859,0.546875 0.09766,1.046875 0.46875,1.488281 1.03125,1.222656 3.820313,1.949219 8.519532,2.222656 0.558594,0.03125 1.125,0.04688 1.683594,0.04688 5.972656,0 10,-1.871094 10.171874,-1.949219 0.15625,-0.07813 0.265626,-0.238281 0.277344,-0.417969 0.0078,-0.179688 -0.07813,-0.351562 -0.234375,-0.445312 l -3.078125,-1.882813 c -0.105468,-0.0625 -0.234375,-0.08203 -0.359375,-0.05859 -0.01563,0.0039 -1.972656,0.40625 -4.917969,0.808594 -0.5625,0.07422 -1.261718,0.113281 -2.082031,0.113281 -2.941406,0 -6.21875,-0.476562 -6.851562,-0.792968 -0.0078,-0.0625 0.0039,-0.136719 0.09375,-0.203126 z m 4.195312,10.480469 c 13.6875,-0.01172 21.035157,-2.445312 22.453125,-3.980469 0.5,-0.539062 0.554688,-1.050781 0.511719,-1.386718 -0.105469,-0.828125 -0.859375,-1.332032 -0.945313,-1.386719 -0.203124,-0.132813 -0.480468,-0.09766 -0.640624,0.08594 -0.160157,0.1875 -0.164063,0.457032 -0.0039,0.640626 0.08984,0.113281 0.136719,0.300781 -0.117187,0.550781 -0.5625,0.53125 -6.269532,2.132812 -15.769532,2.617187 -1.304687,0.07031 -2.667968,0.101563 -4.0625,0.101563 -8.507812,0 -14.730468,-1.164063 -15.550781,-1.84375 0.316407,-0.453125 2.519531,-1.175781 4.859375,-1.585938 0.265625,-0.04687 0.445313,-0.296875 0.40625,-0.558593 -0.04687,-0.269532 -0.289062,-0.449219 -0.554687,-0.414063 -0.06641,0.0078 -0.289063,0.01953 -0.550781,0.03906 -3.863282,0.234374 -8.328126,0.761718 -8.5625,2.753906 -0.070313,0.605468 0.109374,1.15625 0.535156,1.636718 1.042968,1.171876 4.042968,2.730469 17.992187,2.730469 z m 25.140625,-3.546875 c -0.195312,-0.08984 -0.425781,-0.04297 -0.570312,0.113282 -0.01953,0.02344 -2.074219,2.175781 -8.261719,3.4375 -2.375,0.476562 -6.816406,0.71875 -13.222656,0.71875 -6.410157,0 -12.515625,-0.253907 -12.574219,-0.257813 -0.257812,-0.01172 -0.472656,0.171875 -0.507812,0.425781 -0.03125,0.25 0.128906,0.488282 0.375,0.546875 C 18.738281,60.5 25.136719,62 33.878906,62 c 4.195313,0 8.277344,-0.339844 12.132813,-1.011719 7.1875,-1.261719 7.691406,-4.828125 7.707031,-4.980469 0.02734,-0.207031 -0.08594,-0.410156 -0.277344,-0.503906 z m 0,0"
     id="path1-6" /></g></svg>
