<?xml version="1.0" encoding="UTF-8" standalone="no"?>
<!-- Generator: Adobe Illustrator 27.5.0, SVG Export Plug-In . SVG Version: 6.00 Build 0)  -->

<svg
   version="1.1"
   id="Layer_1"
   x="0px"
   y="0px"
   viewBox="0 0 63.999998 63.999999"
   xml:space="preserve"
   sodipodi:docname="user-desktop.svg"
   inkscape:version="1.4.3 (unknown)"
   width="64"
   height="64"
   xmlns:inkscape="http://www.inkscape.org/namespaces/inkscape"
   xmlns:sodipodi="http://sodipodi.sourceforge.net/DTD/sodipodi-0.dtd"
   xmlns="http://www.w3.org/2000/svg"
   xmlns:svg="http://www.w3.org/2000/svg"><defs
   id="defs762">
	
		<radialGradient
   id="SVGID_00000022534578410790736700000013999825567828354183_"
   cx="422.99371"
   cy="288.32251"
   r="28.502399"
   gradientTransform="matrix(0.98379286,0,0,0.98236136,-385.19832,-251.34342)"
   gradientUnits="userSpaceOnUse">
		<stop
   offset="0"
   style="stop-color:#A0866A"
   id="stop74" />
		<stop
   offset="0.2596"
   style="stop-color:#9C8268"
   id="stop75" />
		<stop
   offset="0.5301"
   style="stop-color:#8F7861"
   id="stop76" />
		<stop
   offset="0.8045"
   style="stop-color:#7B6656"
   id="stop77" />
		<stop
   offset="1"
   style="stop-color:#67554B"
   id="stop78" />
	</radialGradient>
	
	
	
	
		<radialGradient
   id="SVGID_00000125562367361927050560000001190537805866180488_"
   cx="417.22159"
   cy="288.32251"
   r="27.744699"
   gradientTransform="matrix(1.0074039,0,0,0.98236136,-390.24016,-251.34342)"
   gradientUnits="userSpaceOnUse">
		<stop
   offset="0"
   style="stop-color:#A0866A"
   id="stop85" />
		<stop
   offset="0.2596"
   style="stop-color:#9C8268"
   id="stop86" />
		<stop
   offset="0.5301"
   style="stop-color:#8F7861"
   id="stop87" />
		<stop
   offset="0.8045"
   style="stop-color:#7B6656"
   id="stop88" />
		<stop
   offset="1"
   style="stop-color:#67554B"
   id="stop89" />
	</radialGradient>
	
	
		<radialGradient
   id="SVGID_00000097500425902151924180000002286946989435723681_"
   cx="405.16061"
   cy="259.82541"
   r="73.946198"
   gradientTransform="matrix(0,0.90816965,-1.0174457,0,325.46283,-361.74384)"
   gradientUnits="userSpaceOnUse">
		<stop
   offset="0"
   style="stop-color:#535d6c;stop-opacity:1"
   id="stop90" />
		<stop
   offset="0.2284"
   style="stop-color:#373e48;stop-opacity:1"
   id="stop91" />
		<stop
   offset="0.4664"
   style="stop-color:#373e48;stop-opacity:1"
   id="stop92" />
		<stop
   offset="0.70889997"
   style="stop-color:#48515e;stop-opacity:1;"
   id="stop93" />
		<stop
   offset="0.95289999"
   style="stop-color:#373e48;stop-opacity:1"
   id="stop94" />
		<stop
   offset="1"
   style="stop-color:#373e48;stop-opacity:1"
   id="stop95" />
	</radialGradient>
	
	
		<radialGradient
   id="SVGID_00000119082666600208423750000005907981173642057379_"
   cx="425.73099"
   cy="288.43094"
   r="67.4496"
   gradientTransform="matrix(0,0.80083447,-1.0174457,0,325.46283,-336.94005)"
   gradientUnits="userSpaceOnUse"
   fx="425.73099"
   fy="288.43094">
		<stop
   offset="0"
   style="stop-color:#939dac;stop-opacity:1"
   id="stop96" />
		<stop
   offset="0.25960001"
   style="stop-color:#535d6c;stop-opacity:1"
   id="stop97" />
		<stop
   offset="0.5301"
   style="stop-color:#535d6c;stop-opacity:1"
   id="stop98" />
		<stop
   offset="0.8045"
   style="stop-color:#373e48;stop-opacity:1"
   id="stop99" />
		<stop
   offset="1"
   style="stop-color:#373e48;stop-opacity:1"
   id="stop100" />
	</radialGradient>
	
	
		<radialGradient
   id="SVGID_00000165928333602235411140000014852226284911233709_"
   cx="-1556.7609"
   cy="1310.3918"
   r="1.7343"
   gradientTransform="matrix(0.62323278,0,0,0.68421469,985.97188,-887.64613)"
   gradientUnits="userSpaceOnUse">
		<stop
   offset="0"
   style="stop-color:#E1CEC0"
   id="stop101" />
		<stop
   offset="0.761"
   style="stop-color:#E0CDBE"
   id="stop102" />
		<stop
   offset="1"
   style="stop-color:#DCC9B9"
   id="stop103" />
	</radialGradient>
	
	
		<radialGradient
   id="SVGID_00000023271670121255412580000014745766858599489424_"
   cx="-1556.7609"
   cy="1306.0997"
   r="1.7342"
   gradientTransform="matrix(0.62323278,0,0,0.68421469,985.97188,-880.11982)"
   gradientUnits="userSpaceOnUse">
		<stop
   offset="0"
   style="stop-color:#E1CEC0"
   id="stop104" />
		<stop
   offset="0.761"
   style="stop-color:#E0CDBE"
   id="stop105" />
		<stop
   offset="1"
   style="stop-color:#DCC9B9"
   id="stop106" />
	</radialGradient>
	
	
		<radialGradient
   id="SVGID_00000093146561591346411050000017874754504161969285_"
   cx="-1556.7609"
   cy="1301.8096"
   r="1.733"
   gradientTransform="matrix(0.62323278,0,0,0.68421469,985.97188,-872.59405)"
   gradientUnits="userSpaceOnUse">
		<stop
   offset="0"
   style="stop-color:#E1CEC0"
   id="stop107" />
		<stop
   offset="0.761"
   style="stop-color:#E0CDBE"
   id="stop108" />
		<stop
   offset="1"
   style="stop-color:#DCC9B9"
   id="stop109" />
	</radialGradient>
	
	
		<radialGradient
   id="SVGID_00000124154437391672708990000002450479196596738238_"
   cx="-1556.7609"
   cy="1297.5177"
   r="1.7336"
   gradientTransform="matrix(0.62323278,0,0,0.68421469,985.97188,-865.06833)"
   gradientUnits="userSpaceOnUse">
		<stop
   offset="0"
   style="stop-color:#E1CEC0"
   id="stop110" />
		<stop
   offset="0.761"
   style="stop-color:#E0CDBE"
   id="stop111" />
		<stop
   offset="1"
   style="stop-color:#DCC9B9"
   id="stop112" />
	</radialGradient>
	
	
		<radialGradient
   id="SVGID_00000034058293124216951570000006641406590055667894_"
   cx="-1556.7609"
   cy="1293.2249"
   r="1.7339"
   gradientTransform="matrix(0.62323278,0,0,0.68421469,985.97188,-857.54231)"
   gradientUnits="userSpaceOnUse">
		<stop
   offset="0"
   style="stop-color:#E1CEC0"
   id="stop113" />
		<stop
   offset="0.761"
   style="stop-color:#E0CDBE"
   id="stop114" />
		<stop
   offset="1"
   style="stop-color:#DCC9B9"
   id="stop115" />
	</radialGradient>
	
	
		<radialGradient
   id="SVGID_00000042694802152741533360000006474553379895889032_"
   cx="-1556.7609"
   cy="1288.9327"
   r="1.7342"
   gradientTransform="matrix(0.62323278,0,0,0.68421469,985.97188,-850.01604)"
   gradientUnits="userSpaceOnUse">
		<stop
   offset="0"
   style="stop-color:#E1CEC0"
   id="stop116" />
		<stop
   offset="0.761"
   style="stop-color:#E0CDBE"
   id="stop117" />
		<stop
   offset="1"
   style="stop-color:#DCC9B9"
   id="stop118" />
	</radialGradient>
	
	
		<radialGradient
   id="SVGID_00000111901877872900564700000014159718068513697190_"
   cx="-1556.7609"
   cy="1284.642"
   r="1.7334"
   gradientTransform="matrix(0.62323278,0,0,0.68421469,985.97188,-842.49032)"
   gradientUnits="userSpaceOnUse">
		<stop
   offset="0"
   style="stop-color:#E1CEC0"
   id="stop119" />
		<stop
   offset="0.761"
   style="stop-color:#E0CDBE"
   id="stop120" />
		<stop
   offset="1"
   style="stop-color:#DCC9B9"
   id="stop121" />
	</radialGradient>
	
	
		<radialGradient
   id="SVGID_00000022538754652405687830000005864690060167237006_"
   cx="-1556.7609"
   cy="1280.3497"
   r="1.7334"
   gradientTransform="matrix(0.62323278,0,0,0.68421469,985.97188,-834.96406)"
   gradientUnits="userSpaceOnUse">
		<stop
   offset="0"
   style="stop-color:#E1CEC0"
   id="stop122" />
		<stop
   offset="0.761"
   style="stop-color:#E0CDBE"
   id="stop123" />
		<stop
   offset="1"
   style="stop-color:#DCC9B9"
   id="stop124" />
	</radialGradient>
	
	
		<radialGradient
   id="SVGID_00000059309292910592828090000012283058363263137190_"
   cx="-1556.7609"
   cy="1276.0603"
   r="1.7339"
   gradientTransform="matrix(0.62323278,0,0,0.68421469,985.97188,-827.43829)"
   gradientUnits="userSpaceOnUse">
		<stop
   offset="0"
   style="stop-color:#E1CEC0"
   id="stop125" />
		<stop
   offset="0.761"
   style="stop-color:#E0CDBE"
   id="stop126" />
		<stop
   offset="1"
   style="stop-color:#DCC9B9"
   id="stop127" />
	</radialGradient>
	
	
		<radialGradient
   id="SVGID_00000164515357396027012420000009309048799111497121_"
   cx="-1556.7609"
   cy="1271.7668"
   r="1.7334"
   gradientTransform="matrix(0.62323278,0,0,0.68421469,985.97188,-819.91212)"
   gradientUnits="userSpaceOnUse">
		<stop
   offset="0"
   style="stop-color:#E1CEC0"
   id="stop128" />
		<stop
   offset="0.761"
   style="stop-color:#E0CDBE"
   id="stop129" />
		<stop
   offset="1"
   style="stop-color:#DCC9B9"
   id="stop130" />
	</radialGradient>
	
	
		<radialGradient
   id="SVGID_00000078021694386518579320000000195962685941464961_"
   cx="-1556.7609"
   cy="1267.4753"
   r="1.733"
   gradientTransform="matrix(0.62323278,0,0,0.68421469,985.97188,-812.3863)"
   gradientUnits="userSpaceOnUse">
		<stop
   offset="0"
   style="stop-color:#E1CEC0"
   id="stop131" />
		<stop
   offset="0.761"
   style="stop-color:#E0CDBE"
   id="stop132" />
		<stop
   offset="1"
   style="stop-color:#DCC9B9"
   id="stop133" />
	</radialGradient>
	
	
	
		<radialGradient
   id="SVGID_00000179631901819502847670000002313046964360062115_"
   cx="465.28549"
   cy="269.20731"
   r="33.883701"
   gradientTransform="matrix(0.7608654,0,0,0.98236136,-334.59177,-251.34342)"
   gradientUnits="userSpaceOnUse">
		<stop
   offset="0"
   style="stop-color:#5599ff;stop-opacity:1"
   id="stop145" />
		<stop
   offset="0.31479999"
   style="stop-color:#267dff;stop-opacity:1;"
   id="stop146" />
		<stop
   offset="0.7586"
   style="stop-color:#2a7fff;stop-opacity:1"
   id="stop147" />
		<stop
   offset="1"
   style="stop-color:#0053d0;stop-opacity:1;"
   id="stop148" />
	</radialGradient>
	
	
		<radialGradient
   id="SVGID_00000110451134532301891090000001961278411554218625_"
   cx="422.12851"
   cy="271.23071"
   r="41.8508"
   gradientTransform="matrix(0.91866577,0,0,0.98236136,-370.25146,-251.34342)"
   gradientUnits="userSpaceOnUse">
		<stop
   offset="0.1067"
   style="stop-color:#8d5fd3;stop-opacity:1"
   id="stop149" />
		<stop
   offset="0.5118"
   style="stop-color:#8d5fd3;stop-opacity:1"
   id="stop150" />
		<stop
   offset="1"
   style="stop-color:#8d5fd3;stop-opacity:1"
   id="stop151" />
	</radialGradient>
	

		
		
		
		
		
		
	
		
			<radialGradient
   id="SVGID_00000052091378501920612200000006059691176872464570_"
   cx="-498.31311"
   cy="565.55511"
   r="5.8572001"
   gradientTransform="matrix(1.1015529,0,0,1.1486751,623.04374,-631.95324)"
   gradientUnits="userSpaceOnUse">
			<stop
   offset="0"
   style="stop-color:#A0866A"
   id="stop134" />
			<stop
   offset="0.2596"
   style="stop-color:#9C8268"
   id="stop135" />
			<stop
   offset="0.5301"
   style="stop-color:#8F7861"
   id="stop136" />
			<stop
   offset="0.8045"
   style="stop-color:#7B6656"
   id="stop137" />
			<stop
   offset="1"
   style="stop-color:#67554B"
   id="stop138" />
		</radialGradient>
		
		
		
		
	
			
				<radialGradient
   id="SVGID_00000044889807405124194260000009933868313778631062_"
   cx="-498.314"
   cy="580.81989"
   r="7.6585999"
   gradientTransform="matrix(1.1015529,0,0,1.1486751,623.04374,-631.95324)"
   gradientUnits="userSpaceOnUse">
				<stop
   offset="0"
   style="stop-color:#A0866A"
   id="stop139" />
				<stop
   offset="0.2596"
   style="stop-color:#9C8268"
   id="stop140" />
				<stop
   offset="0.5301"
   style="stop-color:#8F7861"
   id="stop141" />
				<stop
   offset="0.8045"
   style="stop-color:#7B6656"
   id="stop142" />
				<stop
   offset="1"
   style="stop-color:#67554B"
   id="stop143" />
			</radialGradient>
			
		</defs><sodipodi:namedview
   id="namedview762"
   pagecolor="#ffffff"
   bordercolor="#000000"
   borderopacity="0.25"
   inkscape:showpageshadow="2"
   inkscape:pageopacity="0.0"
   inkscape:pagecheckerboard="0"
   inkscape:deskcolor="#d1d1d1"
   inkscape:zoom="11.313708"
   inkscape:cx="39.597981"
   inkscape:cy="64.390914"
   inkscape:window-width="1920"
   inkscape:window-height="994"
   inkscape:window-x="0"
   inkscape:window-y="0"
   inkscape:window-maximized="1"
   inkscape:current-layer="Layer_1"
   showgrid="true"><inkscape:grid
     id="grid1"
     units="px"
     originx="0"
     originy="0"
     spacingx="0.99999997"
     spacingy="0.99999998"
     empcolor="#0099e5"
     empopacity="0.30196078"
     color="#0099e5"
     opacity="0.14901961"
     empspacing="5"
     enabled="true"
     visible="true" /></sodipodi:namedview>


<path
   style="fill:url(#SVGID_00000097500425902151924180000002286946989435723681_);stroke-width:0.491538"
   d="M 10.606286,55.771654 C 6.1071419,55.771654 3,52.27586 3,47.452138 V 12.608187 C 3,7.8540931 7.3343183,4.0000001 12.677435,4.0000001 h 39.887709 c 1.184857,0 8.434857,3.8620714 8.434857,8.6081869 v 34.361192 c 0,5.306481 -3.107143,8.802275 -8.331286,8.802275 z"
   id="path95"
   sodipodi:nodetypes="sssssssss" /><path
   style="fill:url(#SVGID_00000119082666600208423750000005907981173642057379_);stroke-width:0.491538"
   d="m 3,18.225712 v 0 -6.635309 C 3,7.398631 6.133884,4.0000001 11.477,4.0000001 h 41.892 c 5.224143,0 7.631001,3.8620714 7.631001,7.5904029 v 6.787288 0 z"
   id="path100"
   sodipodi:nodetypes="ccssssccc" /><path
   style="fill:#80b3ff;fill-opacity:1;stroke-width:0.491538"
   d="m 54.893292,16.887347 c -0.391717,0 -0.707634,-0.268814 -0.707634,-0.600317 v 0 c 0,-0.33198 0.315917,-0.601267 0.707634,-0.601267 h 1.757637 c 0.391717,0 0.708651,0.268812 0.708651,0.601267 v 0 c 0,0.331028 -0.316934,0.600317 -0.708651,0.600317 z"
   id="path103" /><path
   style="fill:#80b3ff;fill-opacity:1;stroke-width:0.491538"
   d="m 50.140294,16.887347 c -0.391208,0 -0.707633,-0.268814 -0.707633,-0.600317 v 0 c 0,-0.33198 0.315917,-0.601267 0.707633,-0.601267 h 1.758655 c 0.391717,0 0.707633,0.268812 0.707633,0.601267 v 0 c 0,0.331028 -0.315916,0.600317 -0.707633,0.600317 z"
   id="path106" /><path
   style="fill:#80b3ff;fill-opacity:1;stroke-width:0.491538"
   d="m 45.386788,16.887347 c -0.391717,0 -0.707633,-0.268814 -0.707633,-0.600317 v 0 c 0,-0.33198 0.315916,-0.601267 0.707633,-0.601267 h 1.758654 c 0.389683,0 0.705599,0.268812 0.705599,0.601267 v 0 c 0,0.331028 -0.315916,0.600317 -0.705599,0.600317 z"
   id="path109" /><path
   style="fill:#80b3ff;fill-opacity:1;stroke-width:0.491538"
   d="m 40.633282,16.887347 c -0.389682,0 -0.707634,-0.268814 -0.707634,-0.600317 v 0 c 0,-0.33198 0.317952,-0.601267 0.707634,-0.601267 h 1.758654 c 0.3907,0 0.707633,0.268812 0.707633,0.601267 v 0 c 0,0.331028 -0.316933,0.600317 -0.707633,0.600317 z"
   id="path112" /><path
   style="fill:#80b3ff;fill-opacity:1;stroke-width:0.491538"
   d="m 35.879775,16.887347 c -0.389682,0 -0.707633,-0.268814 -0.707633,-0.600317 v 0 c 0,-0.33198 0.317951,-0.601267 0.707633,-0.601267 h 1.75662 c 0.391716,0 0.709668,0.268812 0.709668,0.601267 v 0 c 0,0.331028 -0.317952,0.600317 -0.709668,0.600317 z"
   id="path115" /><path
   style="fill:#80b3ff;fill-opacity:1;stroke-width:0.491538"
   d="m 31.126777,16.887347 c -0.390699,0 -0.707633,-0.268814 -0.707633,-0.600317 v 0 c 0,-0.33198 0.316934,-0.601267 0.707633,-0.601267 h 1.757637 c 0.3907,0 0.708652,0.268812 0.708652,0.601267 v 0 c 0,0.331028 -0.317952,0.600317 -0.708652,0.600317 z"
   id="path118" /><path
   style="fill:#80b3ff;fill-opacity:1;stroke-width:0.491538"
   d="m 26.373271,16.887347 c -0.390699,0 -0.707633,-0.268814 -0.707633,-0.600317 v 0 c 0,-0.33198 0.316934,-0.601267 0.707633,-0.601267 h 1.757637 c 0.3907,0 0.707634,0.268812 0.707634,0.601267 v 0 c 0,0.331028 -0.316934,0.600317 -0.707634,0.600317 z"
   id="path121" /><path
   style="fill:#80b3ff;fill-opacity:1;stroke-width:0.491538"
   d="m 21.619765,16.887347 c -0.391208,0 -0.707634,-0.268814 -0.707634,-0.600317 v 0 c 0,-0.33198 0.315918,-0.601267 0.707634,-0.601267 h 1.75662 c 0.391717,0 0.70865,0.268812 0.70865,0.601267 v 0 c 0,0.331028 -0.316933,0.600317 -0.70865,0.600317 z"
   id="path124" /><path
   style="fill:#80b3ff;fill-opacity:1;stroke-width:0.491538"
   d="m 16.865749,16.887347 c -0.390699,0 -0.70865,-0.268814 -0.70865,-0.600317 v 0 c 0,-0.33198 0.317951,-0.601267 0.70865,-0.601267 h 1.756621 c 0.392225,0 0.708651,0.268812 0.708651,0.601267 v 0 c 0,0.331028 -0.315917,0.600317 -0.708651,0.600317 z"
   id="path127" /><path
   style="fill:#80b3ff;fill-opacity:1;stroke-width:0.491538"
   d="m 12.111226,16.887347 c -0.389682,0 -0.705599,-0.268814 -0.705599,-0.600317 v 0 c 0,-0.33198 0.315917,-0.601267 0.705599,-0.601267 h 1.758655 c 0.391716,0 0.707633,0.268812 0.707633,0.601267 v 0 c 0,0.331028 -0.315917,0.600317 -0.707633,0.600317 z"
   id="path130" /><path
   style="fill:#80b3ff;fill-opacity:1;stroke-width:0.491538"
   d="m 7.3587373,16.887347 c -0.3917164,0 -0.706616,-0.268814 -0.706616,-0.600317 v 0 c 0,-0.33198 0.3148996,-0.601267 0.706616,-0.601267 h 1.7586543 c 0.3906994,0 0.7066161,0.268812 0.7066161,0.601267 v 0 c 0,0.331028 -0.3159167,0.600317 -0.7066161,0.600317 z"
   id="path133" />

















<path
   id="path4"
   d="M 61,48.012472 V 52.5 c 0,4.472226 -3.87536,7.500001 -7,7.500001 H 10 c -3.12468,0 -7,-3.027774 -7,-7.500001 v -4.487528 z"
   style="fill:#2c323a;fill-opacity:1;fill-rule:nonzero;stroke-width:1.52461"
   sodipodi:nodetypes="csssscc" /><path
   inkscape:connector-curvature="0"
   id="path4218-3-7"
   d="m 48.38712,52.896631 c -0.19781,0.151608 -0.45479,0.30691 -0.67212,0.412513 l 0.0924,0.396105 c 0.1766,-0.06288 0.33855,-0.168367 0.53561,-0.306621 v 3.57008 h 0.43984 v -4.072127 h -0.3943 z"
   style="fill:#ffffff;fill-opacity:1;stroke-width:1.24745" /><path
   inkscape:connector-curvature="0"
   id="path4220-0-5"
   d="m 49.58108,53.169863 0.14606,0.407184 c 0.20685,-0.234604 0.51557,-0.334629 0.82378,-0.334629 0.41949,0 0.65201,0.256724 0.65201,0.708275 v 0.03004 c -7.7e-4,0.31768 -0.19181,0.630399 -0.48008,0.981827 l -1.27369,1.562049 0.0573,0.446321 h 2.15814 l 0.034,-0.418473 h -1.71335 l 1.04113,-1.227291 c 0.40435,-0.479759 0.65194,-0.870243 0.65708,-1.38352 v -0.002 c 0,-0.669467 -0.42452,-1.110269 -1.09682,-1.110269 -0.48007,0 -0.7935,0.144063 -1.00064,0.357147 z"
   style="fill:#ffffff;fill-opacity:1;stroke-width:1.24745" /><path
   inkscape:connector-curvature="0"
   id="path4222-7-3"
   d="m 52.34024,57.035823 h 0.51055 v -0.635929 h -0.51055 z m 0,-2.499108 h 0.51055 v -0.630489 h -0.51055 z"
   style="fill:#ffffff;fill-opacity:1;stroke-width:1.24745" /><path
   inkscape:connector-curvature="0"
   id="path4224-8-5"
   d="m 55.22744,55.84755 c 0,0.496588 -0.32858,0.769841 -0.81385,0.769841 -0.37406,0 -0.63166,-0.13488 -0.81865,-0.295641 l -0.14186,0.396114 c 0.1377,0.143983 0.48512,0.31254 0.96545,0.31254 0.71757,0 1.24334,-0.451881 1.24334,-1.176975 0,-0.574702 -0.28787,-0.942889 -0.73786,-1.054491 0.39918,-0.1348 0.6469,-0.451801 0.6469,-0.976217 0,-0.652838 -0.51052,-1.009745 -1.0564,-1.009745 -0.51045,0 -0.839,0.122482 -1.06143,0.312549 l 0.14186,0.396095 c 0.19744,-0.173189 0.48504,-0.290561 0.82368,-0.290561 0.43472,0 0.67742,0.201466 0.67742,0.652818 0,0.641459 -0.53589,0.714084 -1.10192,0.714084 v 0.401644 c 0.68739,0 1.23332,0.118131 1.23332,0.847935 z"
   style="fill:#ffffff;fill-opacity:1;stroke-width:1.24745" /><path
   inkscape:connector-curvature="0"
   id="path4226-6-6"
   d="m 57.84589,53.510151 v 2.052818 h -1.2331 z m 0.83401,2.448902 0.0351,-0.396084 h -0.45475 v -2.666338 h -0.45993 l -1.62241,2.644249 v 0.418173 h 1.6678 v 1.009685 h 0.41453 v -1.009685 h 0.41957 z"
   style="fill:#ffffff;fill-opacity:1;stroke-width:1.24745" /><path
   d="m 10.06051,54.809278 c 0,1.103072 -0.89496,1.996283 -2.00004,1.996283 -1.10411,0 -1.99996,-0.893211 -1.99996,-1.996283 0,-1.102103 0.89585,-1.996302 1.99996,-1.996302 1.10508,0 2.00004,0.894199 2.00004,1.996302 z"
   id="path72-3"
   style="color:#eff0f1;fill:#ffffff;fill-opacity:0.50196081;stroke-width:0.023787"
   class="ColorScheme-Text " /><path
   style="fill:#ffffff;fill-opacity:0.50196081;stroke-width:0.999073"
   d="M 22.4586,57 C 21.50955,57 21,57.614828 21,58.506762 v 1.487677 H 41 V 58.521455 C 41,57.616855 40.45954,57 39.56763,57 Z"
   id="path3"
   sodipodi:nodetypes="csccscc" /></svg>
