<?xml version="1.0" encoding="UTF-8" standalone="no"?>
<svg
   width="62"
   height="62"
   version="1"
   id="svg6"
   sodipodi:docname="accerciser.svg"
   inkscape:version="1.4 (e7c3feb100, 2024-10-09)"
   xmlns:inkscape="http://www.inkscape.org/namespaces/inkscape"
   xmlns:sodipodi="http://sodipodi.sourceforge.net/DTD/sodipodi-0.dtd"
   xmlns="http://www.w3.org/2000/svg"
   xmlns:svg="http://www.w3.org/2000/svg">
  <defs
     id="defs6" />
  <sodipodi:namedview
     id="namedview6"
     pagecolor="#ffffff"
     bordercolor="#000000"
     borderopacity="0.25"
     inkscape:showpageshadow="2"
     inkscape:pageopacity="0.0"
     inkscape:pagecheckerboard="0"
     inkscape:deskcolor="#d1d1d1"
     inkscape:zoom="11.78125"
     inkscape:cx="31.95756"
     inkscape:cy="32"
     inkscape:window-width="1920"
     inkscape:window-height="994"
     inkscape:window-x="0"
     inkscape:window-y="0"
     inkscape:window-maximized="1"
     inkscape:current-layer="svg6" />
  <g
     id="g6"
     transform="matrix(0.98333333,0,0,0.98245614,-0.46666656,-0.92982455)">
    <path
       style="opacity:0.95784884;fill:#80b3ff;fill-opacity:1"
       d="m 2,33 v 2 c 0,2.216 1.784,4 4,4 h 52 c 2.216,0 4,-1.784 4,-4 v -2 c 0,2.216 -1.784,4 -4,4 H 6 C 3.784,37 2,35.216 2,33 Z"
       id="path1" />
    <path
       style="opacity:0.78197674;fill:#ff8080;fill-opacity:1"
       d="m 4,48 v 2 c 0,1.662 1.338,3 3,3 1.662,0 3,-1.338 3,-3 v -2 c 0,1.662 -1.338,3 -3,3 -1.662,0 -3,-1.338 -3,-3 z m 50,0 v 2 c 0,1.662 1.338,3 3,3 1.662,0 3,-1.338 3,-3 v -2 c 0,1.662 -1.338,3 -3,3 -1.662,0 -3,-1.338 -3,-3 z m -44,5 v 2 c 0,3.324 2.676,6 6,6 h 2 c 3.324,0 6,-2.676 6,-6 v -2 c 0,3.324 -2.676,6 -6,6 h -2 c -3.324,0 -6,-2.676 -6,-6 z m 30,0 v 2 c 0,3.324 2.676,6 6,6 h 2 c 3.324,0 6,-2.676 6,-6 v -2 c 0,3.324 -2.676,6 -6,6 h -2 c -3.324,0 -6,-2.676 -6,-6 z"
       id="path2" />
    <rect
       style="fill:#2a85c2"
       width="60"
       height="12"
       x="2"
       y="26"
       rx="4"
       ry="4"
       id="rect2" />
    <path
       style="opacity:0.2;fill:#ffffff"
       d="m 6,26 c -2.216,0 -4,1.784 -4,4 v 1 c 0,-2.216 1.784,-4 4,-4 h 52 c 2.216,0 4,1.784 4,4 v -1 c 0,-2.216 -1.784,-4 -4,-4 z"
       id="path3" />
    <rect
       style="fill:#c2352a"
       width="56"
       height="14"
       x="-60"
       y="-24"
       rx="6"
       ry="6"
       transform="matrix(0,-1,-1,0,0,0)"
       id="rect3" />
    <rect
       style="fill:#c2352a"
       width="56"
       height="14"
       x="-60"
       y="-54"
       rx="6"
       ry="6"
       transform="matrix(0,-1,-1,0,0,0)"
       id="rect4" />
    <rect
       style="fill:#d8564b"
       width="40"
       height="6"
       x="-52"
       y="-10"
       rx="3"
       ry="3"
       transform="matrix(0,-1,-1,0,0,0)"
       id="rect5" />
    <rect
       style="fill:#d8564b"
       width="40"
       height="6"
       x="-52"
       y="-60"
       rx="3"
       ry="3"
       transform="matrix(0,-1,-1,0,0,0)"
       id="rect6" />
    <path
       style="opacity:0.2;fill:#ffffff"
       d="m 16,4 c -3.324,0 -6,2.676 -6,6 v 1 c 0,-3.324 2.676,-6 6,-6 h 2 c 3.324,0 6,2.676 6,6 V 10 C 24,6.676 21.324,4 18,4 Z m 30,0 c -3.324,0 -6,2.676 -6,6 v 1 c 0,-3.324 2.676,-6 6,-6 h 2 c 3.324,0 6,2.676 6,6 V 10 C 54,6.676 51.324,4 48,4 Z M 7,12 c -1.662,0 -3,1.338 -3,3 v 1 c 0,-1.662 1.338,-3 3,-3 1.662,0 3,1.338 3,3 V 15 C 10,13.338 8.662,12 7,12 Z m 50,0 c -1.662,0 -3,1.338 -3,3 v 1 c 0,-1.662 1.338,-3 3,-3 1.662,0 3,1.338 3,3 v -1 c 0,-1.662 -1.338,-3 -3,-3 z"
       id="path6" />
  </g>
</svg>
