<?xml version="1.0" encoding="UTF-8" standalone="no"?>
<!-- Created with Inkscape (http://www.inkscape.org/) -->

<svg
   width="62"
   height="62"
   viewBox="0 0 62 62"
   version="1.1"
   id="svg1"
   inkscape:version="1.4 (e7c3feb100, 2024-10-09)"
   sodipodi:docname="airtame-application.svg"
   xmlns:inkscape="http://www.inkscape.org/namespaces/inkscape"
   xmlns:sodipodi="http://sodipodi.sourceforge.net/DTD/sodipodi-0.dtd"
   xmlns:xlink="http://www.w3.org/1999/xlink"
   xmlns="http://www.w3.org/2000/svg"
   xmlns:svg="http://www.w3.org/2000/svg">
  <sodipodi:namedview
     id="namedview1"
     pagecolor="#ffffff"
     bordercolor="#000000"
     borderopacity="0.25"
     inkscape:showpageshadow="2"
     inkscape:pageopacity="0.0"
     inkscape:pagecheckerboard="0"
     inkscape:deskcolor="#d1d1d1"
     inkscape:document-units="px"
     inkscape:zoom="10.74725"
     inkscape:cx="29.914629"
     inkscape:cy="31.822094"
     inkscape:window-width="1920"
     inkscape:window-height="994"
     inkscape:window-x="0"
     inkscape:window-y="0"
     inkscape:window-maximized="1"
     inkscape:current-layer="layer1" />
  <defs
     id="defs1">
    <linearGradient
       id="linearGradient1"
       inkscape:collect="always">
      <stop
         style="stop-color:#5599ff;stop-opacity:1"
         offset="0"
         id="stop1" />
      <stop
         style="stop-color:#0055d4;stop-opacity:1"
         offset="1"
         id="stop2" />
    </linearGradient>
    <radialGradient
       id="paint664_radial_890_11"
       cx="0"
       cy="0"
       r="1"
       gradientUnits="userSpaceOnUse"
       gradientTransform="matrix(-16.000099,-9.999913,9.999913,-16.000099,583,171)">
      <stop
         offset="0.42141"
         stop-color="#B7C6CD"
         id="stop2071" />
      <stop
         offset="1"
         stop-color="#EFF2F6"
         id="stop2072" />
    </radialGradient>
    <linearGradient
       id="paint665_linear_890_11"
       x1="605"
       y1="180"
       x2="601.466"
       y2="162.72301"
       gradientUnits="userSpaceOnUse">
      <stop
         stop-color="#5200FF"
         id="stop2073" />
      <stop
         offset="1"
         stop-color="#0085FF"
         id="stop2074" />
    </linearGradient>
    <linearGradient
       id="paint666_linear_890_11"
       x1="567"
       y1="181"
       x2="562.11798"
       y2="174.183"
       gradientUnits="userSpaceOnUse">
      <stop
         stop-color="#5200FF"
         id="stop2075" />
      <stop
         offset="0.670391"
         stop-color="#0085FF"
         id="stop2076" />
    </linearGradient>
    <linearGradient
       id="paint667_linear_890_11"
       x1="605"
       y1="180"
       x2="597.32001"
       y2="174.24001"
       gradientUnits="userSpaceOnUse">
      <stop
         stop-color="#5200FF"
         id="stop2077" />
      <stop
         offset="1"
         stop-color="#0085FF"
         id="stop2078" />
    </linearGradient>
    <linearGradient
       id="paint668_linear_890_11"
       x1="567"
       y1="180"
       x2="561.23999"
       y2="172.32001"
       gradientUnits="userSpaceOnUse">
      <stop
         stop-color="#5200FF"
         id="stop2079" />
      <stop
         offset="1"
         stop-color="#0085FF"
         id="stop2080" />
    </linearGradient>
    <linearGradient
       id="paint669_linear_890_11"
       x1="607"
       y1="179"
       x2="602.50598"
       y2="171.80901"
       gradientUnits="userSpaceOnUse">
      <stop
         stop-color="#5200FF"
         id="stop2081" />
      <stop
         offset="1"
         stop-color="#0085FF"
         id="stop2082" />
    </linearGradient>
    <linearGradient
       id="paint670_linear_890_11"
       x1="607"
       y1="217"
       x2="568.82599"
       y2="170.01601"
       gradientUnits="userSpaceOnUse">
      <stop
         stop-color="#5200FF"
         id="stop2083" />
      <stop
         offset="1"
         stop-color="#0085FF"
         id="stop2084" />
    </linearGradient>
    <radialGradient
       id="paint671_radial_890_11"
       cx="0"
       cy="0"
       r="1"
       gradientUnits="userSpaceOnUse"
       gradientTransform="matrix(0,20,-16,0,583,187)">
      <stop
         offset="0.869716"
         stop-color="#EFF2F6"
         id="stop2085" />
      <stop
         offset="1"
         stop-color="#B7C6CD"
         id="stop2086" />
    </radialGradient>
    <linearGradient
       id="paint65_linear_890_11"
       x1="82.999992"
       y1="975"
       x2="82.999992"
       y2="1017"
       gradientUnits="userSpaceOnUse"
       gradientTransform="matrix(1.3181819,0,0,1.3333333,-78.409088,-1297)">
      <stop
         stop-color="#EFF2F6"
         id="stop872"
         offset="0"
         style="stop-color:#428eff;stop-opacity:1;" />
      <stop
         offset="1"
         stop-color="#B7C6CD"
         id="stop873"
         style="stop-color:#383c48;stop-opacity:1;" />
    </linearGradient>
    <linearGradient
       inkscape:collect="always"
       xlink:href="#linearGradient1"
       id="linearGradient2"
       x1="31.000002"
       y1="3"
       x2="31.000002"
       y2="59"
       gradientUnits="userSpaceOnUse" />
  </defs>
  <g
     inkscape:label="Layer 1"
     inkscape:groupmode="layer"
     id="layer1">
    <path
       d="M 2.0000002,13.666667 C 2.0000002,7.776 6.7213323,3 12.545454,3 H 49.454548 C 55.278275,3 60,7.776 60,13.666667 V 48.333333 C 60.000003,54.226667 55.278275,59 49.454548,59 H 12.545454 C 6.7213323,59 2.0000002,54.226667 2.0000002,48.333333 Z"
       id="path65"
       style="fill:url(#linearGradient2)" />
    <g
       id="g1"
       transform="translate(-0.707904,1.0666646)">
      <path
         style="opacity:0.2;stroke-width:5.46616"
         d="M 35.253085,45.148495 C 33.94502,44.733238 31.810819,43.741042 30.510421,42.943496 27.29537,40.971695 25.201157,40.30124 22.257195,40.30124 c -3.168828,0 -4.73791,0.457011 -7.604362,2.215066 -1.268272,0.777826 -2.50078,1.414226 -2.73892,1.414226 -0.791053,0 -3.7904907,-4.34367 -3.5366114,-5.12164 0.3209552,-0.983586 4.4125414,-3.545667 7.3649354,-4.611789 1.864792,-0.673439 3.325323,-0.869844 6.467188,-0.869844 4.670635,0 7.004771,0.673812 11.345439,3.275051 1.476776,0.88504 3.613333,1.830382 4.747844,2.100828 3.803747,0.906691 8.103083,-0.04431 11.254285,-2.489859 0.53235,-0.413055 1.304255,-0.751072 1.715399,-0.751072 0.910345,0 4.09796,3.892132 3.929044,4.797419 -0.190698,1.022327 -4.978346,3.976238 -7.895594,4.871538 -3.463363,1.062881 -8.734941,1.070481 -12.052757,0.01707 z M 37.105901,28.419369 C 35.677465,28.0975 32.650149,26.830452 30.23901,25.545387 c -3.68576,-1.964406 -4.700121,-2.325536 -6.982554,-2.486061 -3.27435,-0.230257 -5.22337,0.264883 -8.307985,2.110499 -1.306059,0.78147 -2.622216,1.420825 -2.924804,1.420825 -0.644417,0 -3.8157632,-3.856188 -3.8157632,-4.639753 0,-0.675287 2.4847102,-2.632586 4.8700972,-3.836418 6.090915,-3.073883 13.925345,-2.66049 20.089147,1.060018 3.32479,2.006898 5.131072,2.577113 8.163494,2.577113 2.908318,0 5.808423,-0.934383 7.959104,-2.564337 0.772877,-0.585668 1.701646,-1.064961 2.06398,-1.064961 0.362296,0 1.429539,1.01438 2.371618,2.254201 2.004578,2.638133 1.953129,2.840774 -1.298791,5.114278 -4.041786,2.825737 -10.391161,4.039458 -15.320652,2.928578 z"
         id="path8" />
      <path
         style="fill:#ffffff;stroke-width:5.46616"
         d="m 35.253085,43.015148 c -1.308065,-0.415226 -3.442266,-1.407432 -4.742664,-2.20497 -3.215051,-1.971799 -5.309264,-2.642256 -8.253226,-2.642256 -3.168828,0 -4.73791,0.457086 -7.604362,2.215067 -1.268272,0.777822 -2.50078,1.41419 -2.73892,1.41419 -0.791053,0 -3.7904907,-4.343677 -3.5366114,-5.121611 0.3209552,-0.983605 4.4125414,-3.545655 7.3649354,-4.611825 1.864792,-0.673396 3.325323,-0.869803 6.467188,-0.869803 4.670635,0 7.004771,0.673821 11.345439,3.275048 1.476776,0.885008 3.613333,1.830386 4.747844,2.100834 3.803747,0.906689 8.103083,-0.04428 11.254285,-2.489849 0.53235,-0.413068 1.304255,-0.751071 1.715399,-0.751071 0.910345,0 4.09796,3.892139 3.929044,4.797423 -0.190698,1.022285 -4.978346,3.976202 -7.895594,4.871487 -3.463363,1.062936 -8.734941,1.070512 -12.052757,0.01707 z m 1.852816,-16.729087 c -1.428436,-0.321874 -4.455752,-1.588938 -6.866891,-2.873994 -3.68576,-1.964401 -4.700121,-2.325575 -6.982554,-2.48606 -3.27435,-0.230208 -5.22337,0.26486 -8.307985,2.110499 -1.306059,0.781461 -2.622216,1.420817 -2.924804,1.420817 -0.644417,0 -3.8157632,-3.856176 -3.8157632,-4.639736 0,-0.675281 2.4847102,-2.632586 4.8700972,-3.836422 6.090915,-3.073919 13.925345,-2.660495 20.089147,1.060025 3.32479,2.00686 5.131072,2.577092 8.163494,2.577092 2.908318,0 5.808423,-0.934391 7.959104,-2.564336 0.772877,-0.5857 1.701646,-1.064957 2.06398,-1.064957 0.362296,0 1.429539,1.01439 2.371618,2.25421 2.004578,2.63813 1.953129,2.840731 -1.298791,5.114268 -4.041786,2.825724 -10.391161,4.039424 -15.320652,2.928594 z"
         id="path10" />
    </g>
  </g>
</svg>
