<?xml version="1.0" encoding="UTF-8" standalone="no"?>
<svg
   width="62"
   height="62"
   version="1"
   id="svg7"
   sodipodi:docname="com.github.coralynnmay.goodvibesapp.svg"
   inkscape:version="1.4 (e7c3feb100, 2024-10-09)"
   xmlns:inkscape="http://www.inkscape.org/namespaces/inkscape"
   xmlns:sodipodi="http://sodipodi.sourceforge.net/DTD/sodipodi-0.dtd"
   xmlns:xlink="http://www.w3.org/1999/xlink"
   xmlns="http://www.w3.org/2000/svg"
   xmlns:svg="http://www.w3.org/2000/svg">
  <defs
     id="defs7">
    <linearGradient
       id="linearGradient3"
       inkscape:collect="always">
      <stop
         style="stop-color:#eff2f6;stop-opacity:1;"
         offset="0"
         id="stop12" />
      <stop
         style="stop-color:#b7c6cd;stop-opacity:1;"
         offset="1"
         id="stop13" />
    </linearGradient>
    <linearGradient
       id="linearGradient7"
       inkscape:collect="always">
      <stop
         style="stop-color:#384850;stop-opacity:1;"
         offset="0"
         id="stop8" />
      <stop
         style="stop-color:#384850;stop-opacity:1;"
         offset="0.59162253"
         id="stop10" />
      <stop
         style="stop-color:#eff2f6;stop-opacity:1;"
         offset="0.92173076"
         id="stop11" />
      <stop
         style="stop-color:#eff2f6;stop-opacity:1;"
         offset="1"
         id="stop9" />
    </linearGradient>
    <linearGradient
       id="linearGradient1"
       inkscape:collect="always">
      <stop
         style="stop-color:#566c80;stop-opacity:1;"
         offset="0"
         id="stop5" />
      <stop
         style="stop-color:#566c80;stop-opacity:1;"
         offset="0.28848785"
         id="stop7" />
      <stop
         style="stop-color:#495361;stop-opacity:1;"
         offset="1"
         id="stop6" />
    </linearGradient>
    <linearGradient
       id="c-3"
       gradientUnits="userSpaceOnUse"
       x1="24.072048"
       x2="23.959682"
       y1="0.75082099"
       y2="46.056854">
      <stop
         offset="0"
         stop-color="#fff"
         id="stop3" />
      <stop
         offset="1"
         stop-color="#d9d9d9"
         id="stop4" />
    </linearGradient>
    <linearGradient
       id="b-6"
       gradientUnits="userSpaceOnUse"
       x1="29.203026"
       x2="34.121048"
       xlink:href="#a-7"
       y1="24.827356"
       y2="29.224836" />
    <linearGradient
       id="a-7">
      <stop
         offset="0"
         id="stop1" />
      <stop
         offset="1"
         stop-opacity="0"
         id="stop2" />
    </linearGradient>
    <linearGradient
       id="d"
       gradientUnits="userSpaceOnUse"
       x1="15.948756"
       x2="25.031786"
       xlink:href="#a-7"
       y1="23.618279"
       y2="33.69899" />
    <linearGradient
       id="e"
       gradientUnits="userSpaceOnUse"
       x1="21.990562"
       x2="29.320522"
       xlink:href="#a-7"
       y1="33.780373"
       y2="41.931858" />
    <linearGradient
       id="paint154_linear_890_11"
       x1="778"
       y1="812.29199"
       x2="788"
       y2="812.29199"
       gradientUnits="userSpaceOnUse"
       gradientTransform="translate(-751,-696)">
      <stop
         stop-color="#EFF2F6"
         id="stop1050" />
      <stop
         offset="0.600785"
         stop-color="#B7C6CD"
         id="stop1051" />
    </linearGradient>
    <linearGradient
       id="paint155_linear_890_11"
       x1="783"
       y1="813"
       x2="783"
       y2="817"
       gradientUnits="userSpaceOnUse"
       gradientTransform="translate(-751,-696)">
      <stop
         stop-color="#EFF2F6"
         id="stop1052" />
      <stop
         offset="0.734138"
         stop-color="#B7C6CD"
         id="stop1053" />
    </linearGradient>
    <radialGradient
       id="paint156_radial_890_11"
       cx="0"
       cy="0"
       r="1"
       gradientUnits="userSpaceOnUse"
       gradientTransform="matrix(27.999986,27.999976,-27.999986,27.999976,32.302392,33.999998)">
      <stop
         offset="0.60067803"
         stop-color="#B7C6CD"
         id="stop1054"
         style="stop-color:#384850;stop-opacity:1;" />
      <stop
         offset="0.876735"
         stop-color="#EFF2F6"
         id="stop1055" />
    </radialGradient>
    <linearGradient
       id="paint157_linear_890_11"
       x1="796.84485"
       y1="799.43359"
       x2="768.90088"
       y2="770.81476"
       gradientUnits="userSpaceOnUse"
       gradientTransform="matrix(1.1666666,0,0,1.1666668,-881.19764,-881.8333)">
      <stop
         offset="0.00000057"
         stop-color="#2E2E41"
         id="stop1056"
         style="stop-color:#495361;stop-opacity:1;" />
      <stop
         offset="0.711139"
         stop-color="#566C80"
         id="stop1057" />
    </linearGradient>
    <linearGradient
       id="paint158_linear_890_11"
       x1="792"
       y1="794"
       x2="774"
       y2="776"
       gradientUnits="userSpaceOnUse"
       gradientTransform="translate(-751,-696)">
      <stop
         offset="0.304478"
         stop-color="#2E2E41"
         id="stop1058" />
      <stop
         offset="1"
         stop-color="#566C80"
         id="stop1059" />
    </linearGradient>
    <linearGradient
       id="paint159_linear_890_11"
       x1="788"
       y1="790"
       x2="778"
       y2="780"
       gradientUnits="userSpaceOnUse"
       gradientTransform="translate(-751,-696)">
      <stop
         offset="0.391394"
         stop-color="#5200FF"
         id="stop1060" />
      <stop
         offset="1"
         stop-color="#0085FF"
         id="stop1061" />
    </linearGradient>
    <linearGradient
       id="paint160_linear_890_11"
       x1="784"
       y1="798"
       x2="782"
       y2="796"
       gradientUnits="userSpaceOnUse"
       gradientTransform="translate(-751,-696)">
      <stop
         stop-color="#FF7E07"
         id="stop1062" />
      <stop
         offset="1"
         stop-color="#FFE607"
         id="stop1063" />
    </linearGradient>
    <linearGradient
       inkscape:collect="always"
       xlink:href="#linearGradient1"
       id="linearGradient6"
       x1="17.408081"
       y1="16.037786"
       x2="49.155514"
       y2="50.137749"
       gradientUnits="userSpaceOnUse" />
    <radialGradient
       inkscape:collect="always"
       xlink:href="#linearGradient7"
       id="radialGradient9"
       cx="32.302387"
       cy="34"
       fx="32.302387"
       fy="34"
       r="28"
       gradientUnits="userSpaceOnUse"
       gradientTransform="matrix(0.99999999,1,-1,0.99999999,34,-32.302387)" />
    <linearGradient
       inkscape:collect="always"
       xlink:href="#linearGradient3"
       id="linearGradient15"
       x1="11.499999"
       y1="30.390333"
       x2="50.5"
       y2="30.390333"
       gradientUnits="userSpaceOnUse" />
    <linearGradient
       inkscape:collect="always"
       xlink:href="#linearGradient3"
       id="linearGradient16"
       gradientUnits="userSpaceOnUse"
       x1="22.855476"
       y1="9.1273966"
       x2="49.179565"
       y2="37.952812" />
  </defs>
  <sodipodi:namedview
     id="namedview7"
     pagecolor="#ffffff"
     bordercolor="#000000"
     borderopacity="0.25"
     inkscape:showpageshadow="2"
     inkscape:pageopacity="0.0"
     inkscape:pagecheckerboard="0"
     inkscape:deskcolor="#d1d1d1"
     inkscape:zoom="5.890625"
     inkscape:cx="56.445623"
     inkscape:cy="32.254642"
     inkscape:window-width="1920"
     inkscape:window-height="994"
     inkscape:window-x="0"
     inkscape:window-y="0"
     inkscape:window-maximized="1"
     inkscape:current-layer="svg7" />
  <g
     id="g1"
     transform="translate(-1.3023872,-3)">
    <path
       d="m 60.302387,34 c 0,15.46415 -12.535828,28 -28.000002,28 C 16.838222,62 4.3023873,49.46415 4.3023873,34 4.3023873,18.535835 16.838222,6 32.302385,6 47.766559,6 60.302387,18.535835 60.302387,34 Z"
       id="path154"
       style="fill:url(#radialGradient9)" />
    <path
       d="m 55.63572,34 c 0,12.88701 -10.446332,23.33332 -23.333335,23.33332 C 19.415386,57.33332 8.9690543,46.88701 8.9690543,34 c 0,-12.886994 10.4463317,-23.333332 23.3333307,-23.333332 12.887003,0 23.333335,10.446338 23.333335,23.333332 z"
       id="path155"
       style="fill:url(#linearGradient6)" />
  </g>
  <g
     id="g8"
     style="fill:url(#linearGradient15)">
    <path
       style="opacity:0.1;stroke-width:1.28455;fill:url(#linearGradient15)"
       d="m 24.448539,20.623323 c -6.853289,-0.03054 -11.383704,3.637826 -12.666284,10.253144 -1.053663,5.434623 0.857692,9.007855 5.482128,10.243616 1.682732,0.449674 6.891212,0.232816 9.100404,-0.378803 3.882329,-1.074565 3.712301,-0.897999 4.396657,-4.600111 0.834689,-4.515349 0.238027,-4.540538 -0.980738,-4.540538 -0.114567,-0.03543 -1.092186,0 -1.218782,0 h -3.656348 c -0.67521,0 -1.218786,0.543995 -1.218786,1.219711 0,0.675726 0.543576,1.219714 1.218786,1.219714 h 1.554425 c -0.02853,0.452362 -0.15946,1.132042 -0.371364,2.198738 -0.540858,2.722806 -0.576577,2.786492 -1.81389,3.273188 -4.608875,1.812862 -7.47022,-0.409117 -7.246032,-5.626826 0.31887,-7.421276 3.378472,-11.937404 8.088717,-11.937404 4.147211,0 5.673303,1.874067 7.077026,8.692771 2.317806,11.25903 1.957943,10.654975 3.699194,10.717678 1.855641,0.06705 0.998527,0.789087 7.603117,-10.42466 2.821073,-4.7898 4.064782,-6.904365 4.76087,-7.870904 h 1.023579 c 0.675216,0 1.218782,-0.543985 1.218782,-1.219707 0,-0.675712 -0.543566,-1.219694 -1.218782,-1.219694 h -3.656351 c -0.675197,0 -1.218782,0.543982 -1.218782,1.219694 0,0.675722 0.543585,1.219707 1.218782,1.219707 h 0.645116 c -1.319316,2.498309 -6.690313,11.698272 -7.196057,12.259076 -0.449301,0.498186 -0.582993,0.05707 -1.887696,-6.191449 -0.749306,-3.588645 -1.105923,-5.259527 -1.123556,-6.067533 H 37.0934 c 0.675217,0 1.218785,-0.543993 1.218785,-1.219709 0,-0.675715 -0.543568,-1.219703 -1.218785,-1.219703 h -2.437561 -3.656351 c -0.118167,0 -6.443067,-0.03072 -6.550949,0 -1.705991,-0.03355 2.488504,0.01095 0,0 z"
       id="path3-3" />
    <path
       style="fill:url(#linearGradient16);stroke-width:1.28455"
       d="m 24.448539,19.403982 c -6.853289,-0.0306 -11.383704,3.637813 -12.666284,10.253132 -1.053663,5.434639 0.857692,9.007868 5.482128,10.243632 1.682732,0.449672 6.891212,0.232689 9.100404,-0.378869 3.882329,-1.074549 3.712301,-0.89799 4.396657,-4.600075 0.834689,-4.515382 0.238022,-4.540566 -0.980738,-4.540566 -0.114567,-0.03544 -1.092186,0 -1.218782,0 h -3.656348 c -0.67521,0 -1.218786,0.543984 -1.218786,1.219712 0,0.675712 0.543576,1.219709 1.218786,1.219709 h 1.554425 c -0.02853,0.452478 -0.159456,1.132167 -0.371356,2.198881 -0.540854,2.722784 -0.576582,2.7865 -1.813892,3.273184 -4.60888,1.812879 -7.470223,-0.409164 -7.246032,-5.626846 0.318872,-7.421248 3.378468,-11.937378 8.088713,-11.937378 4.147213,0 5.673308,1.874068 7.077025,8.692771 2.317808,11.259035 1.957942,10.654977 3.699193,10.717679 1.855641,0.06689 0.998527,0.789081 7.603117,-10.42466 2.821073,-4.789803 4.064782,-6.904367 4.76087,-7.870911 h 1.023579 c 0.675216,0 1.218782,-0.543992 1.218782,-1.219698 0,-0.675718 -0.543566,-1.219707 -1.218782,-1.219707 h -3.656351 c -0.675197,0 -1.218782,0.543989 -1.218782,1.219707 0,0.675706 0.543585,1.219698 1.218782,1.219698 h 0.645116 c -1.319316,2.498241 -6.690313,11.698204 -7.196057,12.259007 -0.449301,0.4982 -0.582993,0.05713 -1.887696,-6.19145 -0.749306,-3.588649 -1.105923,-5.259531 -1.123556,-6.067549 H 37.0934 c 0.675217,0 1.218785,-0.543982 1.218785,-1.219696 0,-0.675718 -0.543568,-1.219707 -1.218785,-1.219707 h -2.437561 -3.656351 c -0.118167,0 -6.443067,-0.03071 -6.550949,0 -1.705991,-0.03355 2.488504,0.01156 0,0 z"
       id="path4-6" />
  </g>
</svg>
