<?xml version="1.0" encoding="UTF-8" standalone="no"?>
<svg
   width="62"
   height="62"
   version="1.1"
   id="svg4"
   sodipodi:docname="distributor-logo-trueos.svg"
   inkscape:version="1.4 (unknown)"
   xmlns:inkscape="http://www.inkscape.org/namespaces/inkscape"
   xmlns:sodipodi="http://sodipodi.sourceforge.net/DTD/sodipodi-0.dtd"
   xmlns="http://www.w3.org/2000/svg"
   xmlns:svg="http://www.w3.org/2000/svg">
  <defs
     id="defs4" />
  <sodipodi:namedview
     id="namedview4"
     pagecolor="#ffffff"
     bordercolor="#000000"
     borderopacity="0.25"
     inkscape:showpageshadow="2"
     inkscape:pageopacity="0.0"
     inkscape:pagecheckerboard="0"
     inkscape:deskcolor="#d1d1d1"
     inkscape:zoom="12.078125"
     inkscape:cx="32"
     inkscape:cy="32"
     inkscape:window-width="1920"
     inkscape:window-height="996"
     inkscape:window-x="0"
     inkscape:window-y="0"
     inkscape:window-maximized="1"
     inkscape:current-layer="svg4" />
  <g
     id="g4"
     transform="translate(-0.75,-1)">
    <ellipse
       cx="31.75"
       cy="39.368423"
       style="opacity:0.2;stroke-width:0.985275"
       id="circle1"
       rx="20.75"
       ry="20.631577" />
    <ellipse
       cx="31.75"
       cy="38.385963"
       style="fill:#e5e5e5;stroke-width:0.985275;fill-opacity:1"
       id="circle2"
       rx="20.75"
       ry="20.631577" />
    <path
       d="M 31.750003,17.754386 A 20.750003,20.631578 0 0 0 11,38.385964 a 20.750003,20.631578 0 0 0 0.02122,0.57566 20.750003,20.631578 0 0 1 20.728778,-20.224782 20.750003,20.631578 0 0 1 20.728777,20.055922 20.750003,20.631578 0 0 0 0.02122,-0.4068 20.750003,20.631578 0 0 0 -20.750007,-20.631578 z"
       style="opacity:0.1;fill:#ffffff;stroke-width:0.985275"
       id="path2" />
    <path
       d="m 34.714288,4.9826626 c 0,0 0.988098,2.7508774 0.988098,5.5017574 0,4.226969 -4.096151,6.465392 -6.916665,9.628066 -4.150005,4.65344 -3.952386,9.43158 -5.335717,9.43158 -2.766668,0 -4.150005,-3.929824 -4.150005,-3.929824 0,0 0.195663,4.025631 1.383337,5.501754 5.533333,6.877192 1.383334,8.252632 1.383334,8.252632 0,0 -5.533336,0.737653 -5.533336,-4.126316 0,-2.750878 1.383331,-3.611397 1.383331,-5.501756 0,-1.375436 -2.029067,-2.750876 -2.029067,-2.750876 0,0 1.040979,1.37544 1.040979,2.750876 0,1.37544 -2.964289,1.37544 -2.964289,8.252632 0,4.126314 5.335711,5.501754 6.719048,6.877194 1.031074,1.02519 1.383334,4.126316 -1.383337,4.126316 -1.031071,0 -1.383334,-1.37544 -1.383334,-2.750878 v -1.964912 c 0,0 -1.403947,1.963176 -1.383331,3.34035 0.08234,5.501756 9.288098,9.43158 9.288098,9.43158 0,0 -0.988097,-3.929824 -0.988097,-6.680702 0,-5.501754 2.964288,-4.402234 2.964288,-8.252634 0,-5.501752 -1.580954,-6.87719 -1.580954,-6.87719 0,0 3.513493,2.750876 3.586283,6.87719 0.04218,2.389261 -2.796564,4.56161 -2.202947,6.877196 0.322136,1.256597 1.383331,2.750876 2.766667,2.750876 2.766664,0 3.176627,-1.307624 3.49616,-2.750876 0.555403,-2.508632 -3.094962,-4.308505 -3.100685,-6.877196 -0.0024,-1.025186 2.029071,-2.750874 2.029071,-2.750874 0,0 -0.645738,1.37544 -0.645738,2.750874 0,2.935705 5.137859,3.504588 5.137859,6.877196 0,3.179854 -4.687393,4.91228 -4.614366,7.663158 0.01358,0.508181 0.16264,1.266076 0.661946,1.375438 6.480776,0.492893 15.019089,-6.28772 15.019089,-13.164912 0,-6.877194 -5.533335,-10.178783 -5.533335,-10.178783 0,0 4.15,-2.200165 4.15,-6.326479 0,-2.750878 -2.124264,-4.37151 -4.347617,-11.00351 -1.383337,-4.126316 0.988092,-6.48421 0.988092,-6.48421 0,0 -3.95238,2.357894 -3.95238,5.10877 0,5.501756 2.464834,5.501756 2.464834,9.628072 0,1.653072 -0.686262,4.126314 -2.069597,4.126314 -0.966218,0 -1.460395,-0.982456 -1.609605,-2.357892 -0.103613,-0.955164 1.214368,-2.750878 1.214368,-2.750878 0,0 -2.96344,1.375438 -2.964287,4.126314 -2.83e-4,0.91696 1.976192,2.357896 -0.790477,2.357896 -2.766668,0 -4.150001,-1.37544 -4.150001,-4.126316 0,-3.075573 4.150001,-8.252632 4.150001,-8.252632 0,0 2.766669,-3.977513 2.766669,-6.877192 0,-2.7508774 -3.952385,-6.8771934 -3.952385,-6.8771934 z m 3.952385,28.8842094 c 0,0 4.15,2.750878 4.15,6.877196 0,1.296773 -1.383333,2.750874 -2.766668,2.750874 -2.002628,0 -4.347619,-1.097804 -4.347619,-2.750874 0,-2.75088 2.384663,-4.126318 3.631637,-4.126318 0.715519,-1.375438 -0.66735,-2.750878 -0.66735,-2.750878 z"
       style="opacity:0.1;stroke-width:0.985275"
       id="path3" />
    <path
       d="m 34.714288,4 c 0,0 0.988098,2.7508772 0.988098,5.5017544 0,4.2269706 -4.096151,6.4653936 -6.916665,9.6280696 -4.150005,4.653438 -3.952386,9.43158 -5.335717,9.43158 -2.766668,0 -4.150005,-3.929826 -4.150005,-3.929826 0,0 0.195663,4.025633 1.383337,5.501756 5.533333,6.877194 1.383334,8.25263 1.383334,8.25263 0,0 -5.533336,0.737655 -5.533336,-4.126314 0,-2.750878 1.383331,-3.611397 1.383331,-5.501756 0,-1.375438 -2.029067,-2.750878 -2.029067,-2.750878 0,0 1.040979,1.37544 1.040979,2.750878 0,1.37544 -2.964289,1.37544 -2.964289,8.252634 0,4.126314 5.335711,5.501754 6.719048,6.87719 1.031074,1.025192 1.383334,4.126318 -1.383337,4.126318 -1.031071,0 -1.383334,-1.37544 -1.383334,-2.750878 v -1.964912 c 0,0 -1.403947,1.963174 -1.383331,3.34035 0.08234,5.501754 9.288098,9.43158 9.288098,9.43158 0,0 -0.988097,-3.929826 -0.988097,-6.680702 0,-5.501756 2.964288,-4.402234 2.964288,-8.252632 0,-5.501754 -1.580954,-6.877192 -1.580954,-6.877192 0,0 3.513493,2.750878 3.586283,6.877192 0.04218,2.389261 -2.796564,4.561606 -2.202947,6.877194 0.322136,1.256597 1.383331,2.750878 2.766667,2.750878 2.766664,0 3.176627,-1.307626 3.49616,-2.750878 0.555403,-2.508632 -3.094962,-4.308507 -3.100685,-6.877194 -0.0024,-1.02519 2.029071,-2.750878 2.029071,-2.750878 0,0 -0.645738,1.375438 -0.645738,2.750878 0,2.935701 5.137859,3.504586 5.137859,6.877194 0,3.179854 -4.687393,4.91228 -4.614366,7.663158 0.01358,0.508179 0.16264,1.266076 0.661946,1.375438 6.480776,0.492893 15.019089,-6.287718 15.019089,-13.164914 0,-6.87719 -5.533335,-10.178781 -5.533335,-10.178781 0,0 4.15,-2.200165 4.15,-6.326481 0,-2.750878 -2.124264,-4.37151 -4.347617,-11.003508 -1.383337,-4.126318 0.988092,-6.4842112 0.988092,-6.4842112 0,0 -3.95238,2.3578932 -3.95238,5.1087732 0,5.501754 2.464834,5.501754 2.464834,9.628068 0,1.653072 -0.686262,4.126316 -2.069597,4.126316 -0.966218,0 -1.460395,-0.982454 -1.609605,-2.357894 -0.103613,-0.955164 1.214368,-2.750876 1.214368,-2.750876 0,0 -2.96344,1.375438 -2.964287,4.126316 -2.83e-4,0.916958 1.976192,2.357894 -0.790477,2.357894 -2.766668,0 -4.150001,-1.37544 -4.150001,-4.126318 0,-3.075573 4.150001,-8.25263 4.150001,-8.25263 0,0 2.766669,-3.977515 2.766669,-6.877196 C 38.666673,8.1263158 34.714288,4 34.714288,4 Z m 3.952385,28.88421 c 0,0 4.15,2.750878 4.15,6.877192 0,1.296779 -1.383333,2.75088 -2.766668,2.75088 -2.002628,0 -4.347619,-1.09781 -4.347619,-2.75088 0,-2.750874 2.384663,-4.126314 3.631637,-4.126314 0.715519,-1.375438 -0.66735,-2.750878 -0.66735,-2.750878 z"
       style="fill:#c83771;stroke-width:0.985275"
       id="path4" />
  </g>
</svg>
