<?xml version="1.0" encoding="UTF-8" standalone="no"?>
<svg
   width="62"
   height="62"
   version="1.1"
   id="svg7"
   sodipodi:docname="nvim.svg"
   inkscape:version="1.4 (e7c3feb100, 2024-10-09)"
   xmlns:inkscape="http://www.inkscape.org/namespaces/inkscape"
   xmlns:sodipodi="http://sodipodi.sourceforge.net/DTD/sodipodi-0.dtd"
   xmlns="http://www.w3.org/2000/svg"
   xmlns:svg="http://www.w3.org/2000/svg">
  <defs
     id="defs7" />
  <sodipodi:namedview
     id="namedview7"
     pagecolor="#ffffff"
     bordercolor="#000000"
     borderopacity="0.25"
     inkscape:showpageshadow="2"
     inkscape:pageopacity="0.0"
     inkscape:pagecheckerboard="0"
     inkscape:deskcolor="#d1d1d1"
     inkscape:zoom="11.6875"
     inkscape:cx="31.957219"
     inkscape:cy="32"
     inkscape:window-width="1920"
     inkscape:window-height="994"
     inkscape:window-x="0"
     inkscape:window-y="0"
     inkscape:window-maximized="1"
     inkscape:current-layer="svg7" />
  <g
     id="g7"
     transform="translate(-0.4995,-1)">
    <path
       style="opacity:0.2;stroke-width:0.980811"
       d="m 19.749865,4.9824578 -9.409104,7.8596622 0.0039,0.0039 v 0.002 L 7.9995,14.806939 V 50.175422 L 19.749375,60 V 26.32626 L 43.249135,60 l 9.409103,-7.859664 -0.0039,-0.0039 v -0.002 l 2.344114,-1.959 V 14.807039 L 43.248647,4.9824578 V 38.656202 Z"
       id="path1" />
    <path
       style="fill:#6ba63f;stroke-width:0.980811"
       d="M 54.9995,13.824578 43.249624,4 V 59.017639 L 54.9995,49.19306 Z"
       id="path2" />
    <path
       style="fill:#37b4ee;stroke-width:0.980811"
       d="M 7.9999894,13.824578 19.749865,4 V 59.017639 L 7.9999894,49.19306 Z"
       id="path3" />
    <path
       style="fill:#95d25f;stroke-width:0.980811"
       d="M 19.749865,4 52.659315,51.157974 43.249624,59.017639 10.340173,11.859664 Z"
       id="path4" />
    <path
       style="fill:#50a635;stroke-width:0.980811"
       d="m 43.249624,37.67571 v 21.341929 l 9.405285,-7.863495 z"
       id="path5" />
    <path
       style="fill:#69c657;stroke-width:0.980811"
       d="m 19.749865,4 -9.404799,7.863593 9.404799,13.478337 z"
       id="path6" />
    <path
       style="opacity:0.2;fill:#ffffff;stroke-width:0.980811"
       d="m 19.749865,4 -9.408715,7.859664 0.004,0.004 v 0.002 l -2.345084,1.959011 v 0.982463 l 2.345024,-1.959092 v -0.002 l -0.004,-0.004 L 19.749834,4.9824021 43.2496,38.656158 v -0.98246 z M 43.249624,4 V 4.9824578 L 54.9995,14.807039 v -0.982461 z"
       id="path7" />
  </g>
</svg>
