<?xml version="1.0" encoding="UTF-8" standalone="no"?>
<svg
   width="62"
   height="62"
   x="0"
   y="0"
   version="1.1"
   id="svg4"
   sodipodi:docname="opera-developer.svg"
   inkscape:version="1.4 (e7c3feb100, 2024-10-09)"
   xmlns:inkscape="http://www.inkscape.org/namespaces/inkscape"
   xmlns:sodipodi="http://sodipodi.sourceforge.net/DTD/sodipodi-0.dtd"
   xmlns="http://www.w3.org/2000/svg"
   xmlns:svg="http://www.w3.org/2000/svg">
  <defs
     id="defs4" />
  <sodipodi:namedview
     id="namedview4"
     pagecolor="#ffffff"
     bordercolor="#000000"
     borderopacity="0.25"
     inkscape:showpageshadow="2"
     inkscape:pageopacity="0.0"
     inkscape:pagecheckerboard="0"
     inkscape:deskcolor="#d1d1d1"
     inkscape:zoom="11.6875"
     inkscape:cx="31.957219"
     inkscape:cy="32"
     inkscape:window-width="1920"
     inkscape:window-height="994"
     inkscape:window-x="0"
     inkscape:window-y="0"
     inkscape:window-maximized="1"
     inkscape:current-layer="svg4" />
  <g
     id="g4"
     transform="translate(-0.5,-1)">
    <path
       style="opacity:0.2;stroke-width:0.982299"
       d="m 38.866071,7.9298245 a 21.116071,23.578947 0 0 0 -12.750592,4.8067435 14.241072,20.631579 0 0 0 -3.606306,3.405976 14.241072,20.631579 0 0 0 -1.001326,1.433388 14.241072,20.631579 0 0 0 -0.03837,0.0614 14.241072,20.631579 0 0 0 -0.845948,1.477523 14.241072,20.631579 0 0 0 -0.115094,0.234101 14.241072,20.631579 0 0 0 -0.675223,1.452576 14.241072,20.631579 0 0 0 -0.128524,0.324288 14.241072,20.631579 0 0 0 -0.533271,1.442983 14.241072,20.631579 0 0 0 -0.15346,0.493146 14.241072,20.631579 0 0 0 -0.395161,1.387336 14.241072,20.631579 0 0 0 -0.134276,0.585252 14.241072,20.631579 0 0 0 -0.280064,1.345121 14.241072,20.631579 0 0 0 -0.113177,0.731085 14.241072,20.631579 0 0 0 -0.168804,1.254934 14.241072,20.631579 0 0 0 -0.0729,0.873081 14.241072,20.631579 0 0 0 -0.07674,1.229989 14.241072,20.631579 0 0 0 -0.02685,1.040022 14.241072,20.631579 0 0 0 0.01346,0.569901 14.241072,20.631579 0 0 1 0.0038,-0.06907 14.241072,20.631579 0 0 1 8.306013,-18.256031 21.116071,23.578947 0 0 1 0.01727,-0.01343 14.241072,20.631579 0 0 1 5.900545,-1.88049 14.241072,20.631579 0 0 1 14.227644,20.061678 14.241072,20.631579 0 0 0 0.01343,-0.412555 A 14.241072,20.631579 0 0 0 31.991071,10.877193 14.241072,20.631579 0 0 0 30.072823,11.090186 21.116071,23.578947 0 0 1 38.866071,8.9122807 21.116071,23.578947 0 0 1 51.382639,13.534813 27.5,27.508772 0 0 0 46.813372,9.6970943 21.116071,23.578947 0 0 0 38.866071,7.9298245 Z M 4.0211008,31.915569 A 27.5,27.508772 0 0 0 4,32.491228 27.5,27.508772 0 0 0 31.5,60 27.5,27.508772 0 0 0 51.472796,51.376644 27.5,27.508772 0 0 0 59,32.491228 27.5,27.508772 0 0 0 58.97891,32.084431 27.5,27.508772 0 0 1 46.548664,54.489035 a 27.5,27.508772 0 0 1 -1.35812,0.836623 27.5,27.508772 0 0 1 -1.033935,0.566063 27.5,27.508772 0 0 1 -1.390731,0.675439 27.5,27.508772 0 0 1 -1.13752,0.479716 27.5,27.508772 0 0 1 -1.40032,0.514253 27.5,27.508772 0 0 1 -1.200824,0.372259 27.5,27.508772 0 0 1 -1.434845,0.370341 27.5,27.508772 0 0 1 -1.269885,0.257126 27.5,27.508772 0 0 1 -1.406076,0.214912 27.5,27.508772 0 0 1 -1.337017,0.134321 27.5,27.508772 0 0 1 -2.008406,0.105537 27.5,27.508772 0 0 1 -0.07099,0.0019 27.5,27.508772 0 0 1 -27.4789012,-27.10196 z"
       id="path1" />
    <path
       style="fill:#a3a3a3;stroke-width:0.982299"
       d="m 31.315734,4.9216287 c -15.187832,0 -26.3943992,11.3944683 -26.3943992,26.5871433 0,15.192676 11.3908352,26.771469 26.5786652,26.771469 6.304099,0 12.112757,-1.384611 16.751145,-4.953393 C 54.787558,48.29772 59,40.395338 59,31.508772 59,23.259692 55.370247,15.858656 49.621255,10.816663 44.782088,6.5726063 38.257114,4.9216287 31.315734,4.9216287 Z m 0.675337,5.9555643 c 7.865127,0 14.241073,9.237072 14.241073,20.631579 0,11.394506 -6.375946,20.631579 -14.241073,20.631579 -7.865126,0 -14.732142,-9.237073 -14.732142,-20.631579 0,-11.394507 6.867016,-20.631579 14.732142,-20.631579 z"
       id="path2" />
    <path
       style="fill:#e4e4e4;stroke-width:0.982299"
       d="M 31.5,4 A 27.5,27.508772 0 0 0 4,31.508772 27.5,27.508772 0 0 0 31.5,59.017544 27.5,27.508772 0 0 0 51.472796,50.394189 21.116071,23.578947 0 0 1 38.866071,55.087719 21.116071,23.578947 0 0 1 26.2018,50.340461 14.241072,20.631579 0 0 1 17.803711,33.17818 a 21.116071,23.578947 0 0 1 0,-0.002 14.241072,20.631579 0 0 1 -0.05372,-1.667443 A 14.241072,20.631579 0 0 1 26.07328,12.771111 21.116071,23.578947 0 0 1 38.866071,7.929833 21.116071,23.578947 0 0 1 51.382639,12.552365 27.5,27.508772 0 0 0 31.5,4 Z"
       id="path3" />
    <path
       style="opacity:0.2;fill:#ffffff;stroke-width:0.982299"
       d="M 31.5,4 A 27.5,27.508772 0 0 0 4,31.508772 27.5,27.508772 0 0 0 4.0211008,31.915569 27.5,27.508772 0 0 1 31.5,4.9824562 27.5,27.508772 0 0 1 46.813372,9.6970943 21.116071,23.578947 0 0 1 51.382639,12.552357 27.5,27.508772 0 0 0 31.5,4 Z M 17.767263,32.023027 a 14.241072,20.631579 0 0 0 -0.01726,0.468201 14.241072,20.631579 0 0 0 0.05372,1.66749 21.116071,23.578947 0 0 1 0,0.002 14.241072,20.631579 0 0 0 8.398089,17.162281 21.116071,23.578947 0 0 0 12.664269,4.747221 21.116071,23.578947 0 0 0 8.187082,-1.892003 27.5,27.508772 0 0 0 4.419643,-3.783992 21.116071,23.578947 0 0 1 -12.606725,4.693531 21.116071,23.578947 0 0 1 -12.664271,-4.747258 14.241072,20.631579 0 0 1 -8.398089,-17.162281 21.116071,23.578947 0 0 1 0,-0.002 14.241072,20.631579 0 0 1 -0.03646,-1.153234 z"
       id="path4" />
  </g>
</svg>
