<?xml version="1.0" encoding="UTF-8" standalone="no"?>
<svg
   width="62"
   height="62"
   version="1.1"
   id="svg6"
   sodipodi:docname="quickgui_512.svg"
   inkscape:version="1.4 (unknown)"
   xmlns:inkscape="http://www.inkscape.org/namespaces/inkscape"
   xmlns:sodipodi="http://sodipodi.sourceforge.net/DTD/sodipodi-0.dtd"
   xmlns="http://www.w3.org/2000/svg"
   xmlns:svg="http://www.w3.org/2000/svg">
  <defs
     id="defs6" />
  <sodipodi:namedview
     id="namedview6"
     pagecolor="#ffffff"
     bordercolor="#000000"
     borderopacity="0.25"
     inkscape:showpageshadow="2"
     inkscape:pageopacity="0.0"
     inkscape:pagecheckerboard="0"
     inkscape:deskcolor="#d1d1d1"
     inkscape:zoom="8.5626212"
     inkscape:cx="33.225807"
     inkscape:cy="33.80974"
     inkscape:window-width="1920"
     inkscape:window-height="998"
     inkscape:window-x="0"
     inkscape:window-y="0"
     inkscape:window-maximized="1"
     inkscape:current-layer="svg6" />
  <g
     id="g7"
     transform="matrix(0.98214286,0,0,0.98245614,-0.42857152,-0.92982455)">
    <g
       id="g6">
      <circle
         style="opacity:0.2"
         cx="32"
         cy="33"
         r="28"
         id="circle1" />
      <circle
         style="fill:#c83771"
         cx="32"
         cy="32"
         r="28"
         id="circle2" />
      <path
         style="opacity:0.2"
         d="m 36.869141,12.000056 c -0.06534,-0.0072 -0.143178,0.02604 -0.273438,0.09375 -0.193453,0.100592 -0.443155,0.129035 -0.755859,0.08398 -0.379309,-0.05472 -0.529562,-0.02444 -0.785156,0.16211 -0.245433,0.179145 -0.361228,0.204787 -0.523438,0.11914 -0.504489,-0.266546 -0.559424,-0.01844 -0.208984,0.90625 0.248121,0.654713 0.209191,0.825062 -0.115235,0.535157 -0.202044,-0.180518 -0.223868,-0.179191 -0.537109,0.04101 -0.383998,0.269937 -0.873556,0.857937 -1.519531,1.81836 -0.25619,0.380899 -0.820112,1.032487 -1.251953,1.451172 -0.755576,0.732547 -0.831204,0.859105 -2.027344,3.271484 -0.683632,1.378754 -1.416624,2.993278 -1.626953,3.589844 -0.473344,1.342532 -0.814454,2.954964 -0.814453,3.855468 0,0.375046 -0.09605,1.205833 -0.214844,1.84375 -0.394642,2.120666 -0.317355,2.482242 0.853515,4.027344 2.735654,3.609988 6.119107,10.284333 8.435547,16.640625 0.256272,0.703227 0.52988,1.31838 0.607422,1.365235 0.07749,0.04683 0.140625,0.240217 0.140625,0.43164 0,0.368989 0.201076,1.55767 0.287109,1.695313 0.138605,0.221804 0.25302,-0.114116 0.25586,-0.753907 h 0.002 c 0.0014,-0.392102 0.07213,-1.480345 0.158203,-2.417968 0.284962,-3.105997 0.213046,-4.848632 -0.376953,-9.056641 -0.424727,-3.029172 -0.539416,-4.24299 -0.546875,-5.751953 -0.01903,-3.839198 0.533658,-5.906551 1.9375,-7.228516 0.830744,-0.782297 1.688023,-1.17593 3.435547,-1.580078 1.864373,-0.431168 3.500642,-0.828787 4.347656,-1.058594 1.326079,-0.359775 2.830607,-0.235722 4.748047,0.394532 2.006304,0.659464 2.925741,0.894531 3.513672,0.894531 0.326229,0 0.609557,-0.0555 0.654297,-0.126953 0.113744,-0.181798 -0.768396,-0.931567 -1.53125,-1.302735 -0.593433,-0.288733 -1.360386,-0.598694 -3.716797,-1.5 -0.504544,-0.192974 -1.25831,-0.504856 -1.673828,-0.691406 -0.415504,-0.18655 -2.01528,-0.841578 -3.558594,-1.458984 -3.02707,-1.210989 -3.231292,-1.301027 -3.146484,-1.384766 0.03074,-0.03035 1.339187,0.354405 2.908203,0.855469 2.929218,0.935417 6.562043,2.310481 8.037109,3.041016 0.458025,0.226827 0.955859,0.4386 1.105469,0.472656 0.488508,0.111216 1.229438,0.681699 1.833984,1.412109 0.326145,0.394046 0.698392,0.840199 0.830078,0.992188 l 0.240235,0.27539 L 56,27.515681 c 0.01106,-1.392692 -1.315713,-2.648376 -4.876953,-4.617187 -1.583741,-0.875568 -2.069797,-1.469629 -2.232422,-2.728516 -0.17553,-1.358677 -1.190315,-3.00797 -2.4375,-3.958984 -0.985732,-0.751661 -5.200386,-2.900391 -5.6875,-2.900391 -0.06936,0 -0.218009,0.07971 -0.332031,0.181641 -0.199212,0.177856 -0.220009,0.171354 -0.525391,-0.185547 -0.899113,-1.050878 -0.729089,-0.957032 -1.736328,-0.957032 -0.760815,0 -0.944579,-0.0321 -1.099609,-0.201171 -0.08376,-0.09137 -0.137775,-0.141217 -0.203125,-0.148438 z m -19.169922,1 a 0.7,0.99999439 0 0 0 -0.699219,1 0.7,0.99999439 0 0 0 0.699219,1 h 10.451172 c 0.19268,-0.3087 0.38832,-0.621714 0.541015,-0.835938 0.174263,-0.244477 0.775294,-1.318954 0.679688,-1.113281 0.0084,-0.018 0.01886,-0.033 0.02734,-0.05078 z m 25.892578,4.5 c 0.101027,-0.0013 0.216768,0.0087 0.349609,0.02539 1.175294,0.147808 2.423049,1.572218 1.958985,2.236328 -0.185131,0.264939 -0.745414,0.316204 -1.326172,0.121093 -0.341772,-0.114733 -0.659782,-0.339712 -1.035157,-0.73828 C 43.064581,18.640773 43,18.51715 43,18.138728 c 0,-0.447827 0.154015,-0.633039 0.591797,-0.638672 z m -31.892578,2.5 a 0.7,1 0 0 0 -0.699219,1 0.7,1 0 0 0 0.699219,1 H 24 c 0.1826,-0.640766 0.395527,-1.316697 0.617188,-2 z m -3.0000002,7 a 0.7,1 0 0 0 -0.6992188,1 0.7,1 0 0 0 0.6992188,1 H 22.302734 c 0.06278,-0.657936 0.121094,-1.671632 0.121094,-1.246094 0,-0.257103 0.0064,-0.50579 0.01367,-0.753906 z m 0,7 a 0.7,1 0 0 0 -0.6992188,1 0.7,1 0 0 0 0.6992188,1 H 23.515625 c -0.296415,-0.5914 -0.596276,-1.236964 -0.851563,-2 z m 3.0000002,7 a 0.7,1 0 0 0 -0.699219,1 0.7,1 0 0 0 0.699219,1 h 16.205078 c -0.243704,-0.690027 -0.48638,-1.348477 -0.728516,-2 z m 3,7 a 0.7,1 0 0 0 -0.699219,1 0.7,1 0 0 0 0.699219,1 h 16.546875 c -0.184942,-0.668399 -0.379266,-1.332714 -0.574219,-2 z"
         id="path2" />
      <path
         style="fill:#ffccaa;fill-opacity:1"
         d="m 36.869141,11 c -0.06534,-0.0072 -0.143178,0.02604 -0.273438,0.09375 -0.193453,0.100592 -0.443155,0.129035 -0.755859,0.08398 -0.379309,-0.05472 -0.529562,-0.02444 -0.785156,0.16211 -0.245433,0.179145 -0.361228,0.204787 -0.523438,0.11914 -0.504489,-0.266546 -0.559424,-0.01844 -0.208984,0.90625 0.248121,0.654713 0.209191,0.825062 -0.115235,0.535157 -0.202044,-0.180518 -0.223868,-0.179191 -0.537109,0.04101 -0.383998,0.269937 -0.873556,0.857937 -1.519531,1.81836 -0.25619,0.380899 -0.820112,1.032487 -1.251953,1.451172 -0.755576,0.732547 -0.831204,0.859105 -2.027344,3.271484 -0.683632,1.378754 -1.416624,2.993278 -1.626953,3.589844 -0.473344,1.342532 -0.814454,2.954964 -0.814453,3.855468 0,0.375046 -0.09605,1.205833 -0.214844,1.84375 -0.394642,2.120666 -0.317355,2.482242 0.853515,4.027344 2.735654,3.609988 6.119107,10.284333 8.435547,16.640625 0.256272,0.703227 0.52988,1.318381 0.607422,1.365235 0.07749,0.04683 0.140625,0.240217 0.140625,0.43164 0,0.368989 0.201076,1.55767 0.287109,1.695313 0.138605,0.221804 0.25302,-0.114116 0.25586,-0.753907 h 0.002 c 0.0014,-0.392102 0.07213,-1.480345 0.158203,-2.417968 0.284962,-3.105997 0.213046,-4.848632 -0.376953,-9.056641 -0.424727,-3.029172 -0.539416,-4.24299 -0.546875,-5.751953 -0.01903,-3.839198 0.533658,-5.906551 1.9375,-7.228516 0.830744,-0.782297 1.688023,-1.17593 3.435547,-1.580078 1.864373,-0.431168 3.500642,-0.828787 4.347656,-1.058594 1.326079,-0.359775 2.830607,-0.235722 4.748047,0.394532 2.006304,0.659464 2.925741,0.894531 3.513672,0.894531 0.326229,0 0.609557,-0.0555 0.654297,-0.126953 0.113744,-0.181798 -0.768396,-0.931567 -1.53125,-1.302735 -0.593433,-0.288733 -1.360386,-0.598694 -3.716797,-1.5 -0.504544,-0.192974 -1.25831,-0.504856 -1.673828,-0.691406 -0.415504,-0.18655 -2.01528,-0.841578 -3.558594,-1.458984 -3.02707,-1.210989 -3.231292,-1.301027 -3.146484,-1.384766 0.03074,-0.03035 1.339187,0.354405 2.908203,0.855469 2.929218,0.935417 6.562043,2.310481 8.037109,3.041016 0.458025,0.226827 0.955859,0.4386 1.105469,0.472656 0.488508,0.111216 1.229438,0.681699 1.833984,1.412109 0.326145,0.394046 0.698392,0.840199 0.830078,0.992188 l 0.240235,0.27539 L 56,26.515625 c 0.01106,-1.392692 -1.315713,-2.648376 -4.876953,-4.617187 -1.583741,-0.875568 -2.069797,-1.469629 -2.232422,-2.728516 -0.17553,-1.358677 -1.190315,-3.00797 -2.4375,-3.958984 -0.985732,-0.75166 -5.200386,-2.900391 -5.6875,-2.900391 -0.06936,0 -0.218009,0.07971 -0.332031,0.181641 -0.199212,0.177856 -0.220009,0.171354 -0.525391,-0.185547 -0.899113,-1.050878 -0.729089,-0.957032 -1.736328,-0.957032 -0.760815,0 -0.944579,-0.0321 -1.099609,-0.201171 C 36.988506,11.057067 36.934491,11.007221 36.869141,11 Z M 17.699219,12 A 0.7,0.99999439 0 0 0 17,13 a 0.7,0.99999439 0 0 0 0.699219,1 h 10.451172 c 0.19268,-0.3087 0.38832,-0.621715 0.541015,-0.835938 0.174263,-0.244478 0.775294,-1.318954 0.679688,-1.113281 0.0084,-0.018 0.01886,-0.033 0.02734,-0.05078 z m 25.892578,4.5 c 0.101027,-0.0013 0.216768,0.0087 0.349609,0.02539 1.175294,0.147808 2.423049,1.572218 1.958985,2.236328 -0.185131,0.264939 -0.745414,0.316204 -1.326172,0.121093 -0.341772,-0.114733 -0.659782,-0.339712 -1.035157,-0.73828 C 43.064581,17.640717 43,17.517094 43,17.138672 43,16.690845 43.154015,16.505633 43.591797,16.5 Z M 11.699219,19 A 0.7,1 0 0 0 11,20 0.7,1 0 0 0 11.699219,21 H 24 c 0.1826,-0.640766 0.395527,-1.316697 0.617188,-2 z M 8.6992188,33 A 0.7,1 0 0 0 8,34 0.7,1 0 0 0 8.6992188,35 H 23.515625 C 23.21921,34.4086 22.919349,33.763036 22.664062,33 Z M 14.699219,47 A 0.7,1 0 0 0 14,48 a 0.7,1 0 0 0 0.699219,1 h 16.546875 c -0.184942,-0.668399 -0.379266,-1.332714 -0.574219,-2 z"
         id="path3" />
      <path
         style="fill:#f6a5c0"
         d="m 11.7,40 a 0.7,1 0 0 0 -0.7,1 0.7,1 0 0 0 0.7,1 h 16.203907 c -0.243704,-0.690027 -0.485208,-1.348477 -0.727344,-2 z"
         id="path4" />
      <path
         style="fill:#f06392"
         d="M 8.7,26 A 0.7,1 0 0 0 8,27 0.7,1 0 0 0 8.7,28 h 13.603516 c 0.06278,-0.657936 0.120316,-1.671634 0.120316,-1.246096 0,-0.257103 0.0064,-0.505788 0.01372,-0.753904 z"
         id="path5" />
      <path
         style="opacity:0.2;fill:#ffffff"
         d="M 32,4 A 28,28 0 0 0 4,32 28,28 0 0 0 4.0351562,32.5 28,28 0 0 1 32,5 28,28 0 0 1 59.982422,32.251953 28,28 0 0 0 60,32 28,28 0 0 0 32,4 Z"
         id="path6" />
    </g>
  </g>
</svg>
