<?xml version="1.0" encoding="UTF-8" standalone="no"?>
<!-- Created with Inkscape (http://www.inkscape.org/) -->

<svg
   width="64"
   height="64"
   viewBox="0 0 16.933333 16.933333"
   version="1.1"
   id="svg1"
   inkscape:version="1.4.2 (unknown)"
   sodipodi:docname="folder-network.svg"
   xmlns:inkscape="http://www.inkscape.org/namespaces/inkscape"
   xmlns:sodipodi="http://sodipodi.sourceforge.net/DTD/sodipodi-0.dtd"
   xmlns="http://www.w3.org/2000/svg"
   xmlns:svg="http://www.w3.org/2000/svg">
  <sodipodi:namedview
     id="namedview1"
     pagecolor="#ffffff"
     bordercolor="#000000"
     borderopacity="0.25"
     inkscape:showpageshadow="2"
     inkscape:pageopacity="0.0"
     inkscape:pagecheckerboard="0"
     inkscape:deskcolor="#d1d1d1"
     inkscape:document-units="px"
     inkscape:zoom="12.897792"
     inkscape:cx="27.291493"
     inkscape:cy="54.234089"
     inkscape:current-layer="layer1"
     showgrid="true"
     showguides="false">
    <inkscape:grid
       id="grid1"
       units="px"
       originx="0"
       originy="0"
       spacingx="0.26458333"
       spacingy="0.26458333"
       empcolor="#0099e5"
       empopacity="0.30196078"
       color="#0099e5"
       opacity="0.14901961"
       empspacing="5"
       enabled="true"
       visible="true" />
  </sodipodi:namedview>
  <defs
     id="defs1" />
  <g
     inkscape:label="Layer 1"
     inkscape:groupmode="layer"
     id="layer1">
    <g
       id="g1">
      <rect
         x="4.2388601"
         y="1.8520832"
         style="clip-rule:evenodd;opacity:0.2;fill:#000000;fill-opacity:1;fill-rule:evenodd;stroke-width:0.264585"
         width="10.577806"
         height="13.229166"
         id="rect29"
         ry="0.79374999"
         rx="0.79375064" />
      <rect
         x="6.069252"
         y="1.5875"
         style="clip-rule:evenodd;fill:#b4cae4;fill-opacity:1;fill-rule:evenodd;stroke-width:0.264586"
         width="8.4888077"
         height="13.758333"
         id="rect30"
         ry="1.0583332"
         rx="1.0610963" />
      <path
         style="clip-rule:evenodd;opacity:0.2;fill:#000000;fill-opacity:1;fill-rule:evenodd;stroke-width:0.264587"
         d="m 3.2968711,1.3229166 h 9.3779779 c 0.457463,0 0.915849,0.4547565 0.914925,0.9260417 l -0.0038,1.9306298 v 0.7233882 c 0,0.1763808 -0.02845,0.2579736 -0.170053,0.3117151 l -0.315645,0.1198287 c -0.15671,0.059517 -0.237213,0.2082463 -0.237213,0.4213084 v 2.5010489 c 0,0.2130131 0.08056,0.3617956 0.237213,0.4213073 l 0.315641,0.1198295 c 0.1416,0.053739 0.170052,0.1353342 0.170052,0.3117153 v 0.7233873 l -0.0098,5.2481332 c -9.91e-4,0.529165 -0.656369,1.058332 -1.113832,1.058332 -6.8559806,5e-6 -6.0394979,-1e-6 -9.1654905,-1e-6 -0.4746829,0 -0.9149255,-0.454705 -0.9149255,-0.926041 V 2.2489583 c 0,-0.4712862 0.4402943,-0.9260417 0.9149255,-0.9260417 z"
         id="path30"
         sodipodi:nodetypes="ssscsccssccscsssssss" />
      <path
         style="clip-rule:evenodd;fill:#36485c;fill-rule:evenodd;stroke-width:0.264586"
         d="m 3.0321268,1.0583333 h 9.3383202 c 0.503561,0 0.957799,0.4547727 0.95384,0.9260416 l -0.01622,1.930621 0.01622,0.7233861 c 0.0039,0.1763386 -0.0464,0.2579724 -0.196597,0.3117144 l -0.334815,0.119828 c -0.166227,0.059517 -0.25162,0.2082443 -0.25162,0.4213559 v 2.5010416 c 0,0.2130121 0.08545,0.3617926 0.25162,0.4213057 l 0.334815,0.1198293 c 0.1502,0.053738 0.180379,0.1353338 0.180379,0.3117142 v 0.7233853 l 0.01622,5.3804016 c 0.0014,0.471383 -0.47692,0.926042 -0.95384,0.926042 H 3.0321268 c -0.5035079,0 -0.9154606,-0.385628 -0.9154606,-0.856961 V 1.9153476 c 0,-0.4713354 0.4120045,-0.8570143 0.9154606,-0.8570143 z"
         id="path31"
         sodipodi:nodetypes="ssscsccssccscssssss" />
    </g>
    <g
       id="g36"
       style="fill:#8fbcbb;fill-opacity:1;stroke-width:1.10001"
       transform="matrix(0.26458332,0,0,0.26458332,-0.38364573,1.3229168)">
      <path
         d="m 35.235797,42.635051 c -2.126417,1.249999 -4.713412,2.109217 -7.106413,2.442383 -0.140176,0.485971 -0.443056,0.899297 -0.856074,1.169838 0.640804,1.368987 1.563211,2.613975 2.677108,3.741229 3.143943,0.1503 6.309163,-1.174849 8.38802,-3.850197 0.0363,-0.0476 0.06884,-0.1002 0.103881,-0.149048 -0.305383,-1.144788 -0.811017,-2.234466 -1.433048,-3.31162 -0.112641,0.03257 -0.220276,0.05762 -0.326659,0.07766 -0.178975,0.0501 -0.364207,0.08517 -0.5582,0.08517 -0.319151,0 -0.617024,-0.07766 -0.888615,-0.205411 z"
         class="si-glyph-fill"
         id="path1-7"
         style="fill:#8fbcbb;fill-opacity:1;fill-rule:evenodd;stroke:none;stroke-width:55.0002" />
      <path
         d="M 31.816508,36.871029 C 31.013,36.28611 30.169442,35.762564 29.308362,35.297885 c -0.315395,0.756512 -1.061331,1.286321 -1.933675,1.286321 -0.156446,0 -0.306635,-0.02004 -0.453068,-0.0526 -0.509389,1.922593 -0.78098,3.960417 -0.639552,5.879252 0.956199,0.07264 1.729669,0.772795 1.902386,1.69589 2.121411,-0.349448 4.342947,-1.100951 6.216547,-2.176851 -0.232792,-0.339429 -0.371716,-0.747745 -0.371716,-1.188626 0,-0.517284 0.195245,-0.984468 0.504382,-1.350199 -0.818526,-0.921843 -1.73843,-1.807363 -2.717158,-2.520038 z"
         class="si-glyph-fill"
         id="path2-5"
         style="fill:#8fbcbb;fill-opacity:1;fill-rule:evenodd;stroke:none;stroke-width:55.0002" />
      <path
         d="m 25.494829,42.503538 c -0.171465,-2.046591 0.130163,-4.248492 0.677099,-6.302598 -0.538175,-0.380761 -0.892369,-1.004508 -0.892369,-1.714678 0,-0.246743 0.04881,-0.483466 0.130163,-0.703907 -0.821029,-0.152805 -1.644562,-0.247996 -2.470598,-0.309368 -0.11139,0.13026 -0.231541,0.255511 -0.336673,0.393286 -2.163964,2.785568 -2.620787,6.352699 -1.53943,9.452645 0.96496,0.412074 1.959958,0.68512 3.000012,0.834168 0.128912,-0.782815 0.690867,-1.412824 1.431796,-1.649548 z"
         class="si-glyph-fill"
         id="path3-3"
         style="fill:#8fbcbb;fill-opacity:1;fill-rule:evenodd;stroke:none;stroke-width:55.0002" />
      <path
         d="m 37.920414,42.127787 c -0.0363,0.04634 -0.0801,0.08392 -0.120151,0.125251 0.54193,0.921842 1.000005,1.85621 1.317903,2.840678 1.398004,-2.367232 1.715903,-5.134013 1.041307,-7.667828 -0.112642,0.166583 -0.220277,0.334419 -0.339176,0.495992 -0.545684,0.752755 -1.095123,1.524297 -1.694625,2.219436 0.05632,0.190381 0.09512,0.389529 0.09512,0.59995 v 0.005 c 0.105132,0.468436 0.01627,0.9757 -0.300377,1.381511 z"
         class="si-glyph-fill"
         id="path4-3-5"
         style="fill:#8fbcbb;fill-opacity:1;fill-rule:evenodd;stroke:none;stroke-width:55.0002" />
      <path
         d="m 29.454796,34.309659 c 1.000004,0.518537 1.982487,1.124749 2.916158,1.803606 1.051318,0.765279 2.036304,1.719687 2.908648,2.710418 0.259075,-0.115231 0.543181,-0.181613 0.846061,-0.181613 0.625785,0 1.182734,0.281813 1.566965,0.716432 0.505635,-0.616232 0.97998,-1.280059 1.453073,-1.928856 0.242805,-0.335671 0.465584,-0.68011 0.680854,-1.027053 -0.633294,-1.642032 -1.694626,-3.138774 -3.18149,-4.29734 -1.933676,-1.50551 -4.247828,-2.184367 -6.518176,-2.097944 -0.14393,0.182866 -0.286609,0.363226 -0.424282,0.549849 -0.50188,0.691382 -0.92491,1.352704 -1.301633,2.050349 0.04881,0.03632 0.0801,0.08266 0.125157,0.12525 0.521905,0.345691 0.872344,0.919338 0.928665,1.576902 z"
         class="si-glyph-fill"
         id="path5-6-6"
         style="fill:#8fbcbb;fill-opacity:1;fill-rule:evenodd;stroke:none;stroke-width:55.0002" />
      <path
         d="m 24.091819,44.978486 c -0.889866,-0.122746 -1.7547,-0.308116 -2.590749,-0.60997 0.649565,1.346442 1.599506,2.571391 2.859837,3.552101 1.334173,1.038326 2.849824,1.682112 4.406777,1.955158 -0.903633,-1.023295 -1.642059,-2.136771 -2.194002,-3.33166 -0.14393,0.03006 -0.292867,0.0501 -0.44681,0.0501 -0.991243,-0.0013 -1.816028,-0.691382 -2.035053,-1.615729 z"
         class="si-glyph-fill"
         id="path6-7-2"
         style="fill:#8fbcbb;fill-opacity:1;fill-rule:evenodd;stroke:none;stroke-width:55.0002" />
      <path
         d="m 26.138136,32.800392 c 0.389238,-0.428356 0.954948,-0.612474 1.500632,-0.521041 0.39049,-0.733967 0.831043,-1.431612 1.352947,-2.156812 -1.949946,0.298096 -3.807275,1.172344 -5.315417,2.582663 0.738426,0.08266 1.471846,0.175351 2.204015,0.315631 0.07885,-0.08016 0.166458,-0.151553 0.257823,-0.220441 z"
         class="si-glyph-fill"
         id="path7-5-9"
         style="fill:#8fbcbb;fill-opacity:1;fill-rule:evenodd;stroke:none;stroke-width:55.0002" />
    </g>
  </g>
</svg>
