<?xml version="1.0" encoding="UTF-8" standalone="no"?>
<!-- Created with Inkscape (http://www.inkscape.org/) -->

<svg
   width="64"
   height="64"
   viewBox="0 0 16.933333 16.933333"
   version="1.1"
   id="svg1"
   inkscape:version="1.4.2 (unknown)"
   sodipodi:docname="folder-steam.svg"
   xmlns:inkscape="http://www.inkscape.org/namespaces/inkscape"
   xmlns:sodipodi="http://sodipodi.sourceforge.net/DTD/sodipodi-0.dtd"
   xmlns="http://www.w3.org/2000/svg"
   xmlns:svg="http://www.w3.org/2000/svg">
  <sodipodi:namedview
     id="namedview1"
     pagecolor="#ffffff"
     bordercolor="#000000"
     borderopacity="0.25"
     inkscape:showpageshadow="2"
     inkscape:pageopacity="0.0"
     inkscape:pagecheckerboard="0"
     inkscape:deskcolor="#d1d1d1"
     inkscape:document-units="px"
     inkscape:zoom="9.1201162"
     inkscape:cx="27.24746"
     inkscape:cy="41.830607"
     inkscape:current-layer="layer1"
     showgrid="true"
     showguides="false">
    <inkscape:grid
       id="grid1"
       units="px"
       originx="0"
       originy="0"
       spacingx="0.26458333"
       spacingy="0.26458333"
       empcolor="#0099e5"
       empopacity="0.30196078"
       color="#0099e5"
       opacity="0.14901961"
       empspacing="5"
       enabled="true"
       visible="true" />
  </sodipodi:namedview>
  <defs
     id="defs1" />
  <g
     inkscape:label="Layer 1"
     inkscape:groupmode="layer"
     id="layer1">
    <g
       id="g1">
      <rect
         x="4.2388601"
         y="1.8520832"
         style="clip-rule:evenodd;opacity:0.2;fill:#000000;fill-opacity:1;fill-rule:evenodd;stroke-width:0.264585"
         width="10.577806"
         height="13.229166"
         id="rect29"
         ry="0.79374999"
         rx="0.79375064" />
      <rect
         x="6.069252"
         y="1.5875"
         style="clip-rule:evenodd;fill:#b4cae4;fill-opacity:1;fill-rule:evenodd;stroke-width:0.264586"
         width="8.4888077"
         height="13.758333"
         id="rect30"
         ry="1.0583332"
         rx="1.0610963" />
      <path
         style="clip-rule:evenodd;opacity:0.2;fill:#000000;fill-opacity:1;fill-rule:evenodd;stroke-width:0.264587"
         d="m 3.2968711,1.3229166 h 9.3779779 c 0.457463,0 0.915849,0.4547565 0.914925,0.9260417 l -0.0038,1.9306298 v 0.7233882 c 0,0.1763808 -0.02845,0.2579736 -0.170053,0.3117151 l -0.315645,0.1198287 c -0.15671,0.059517 -0.237213,0.2082463 -0.237213,0.4213084 v 2.5010489 c 0,0.2130131 0.08056,0.3617956 0.237213,0.4213073 l 0.315641,0.1198295 c 0.1416,0.053739 0.170052,0.1353342 0.170052,0.3117153 v 0.7233873 l -0.0098,5.2481332 c -9.91e-4,0.529165 -0.656369,1.058332 -1.113832,1.058332 -6.8559806,5e-6 -6.0394979,-1e-6 -9.1654905,-1e-6 -0.4746829,0 -0.9149255,-0.454705 -0.9149255,-0.926041 V 2.2489583 c 0,-0.4712862 0.4402943,-0.9260417 0.9149255,-0.9260417 z"
         id="path30"
         sodipodi:nodetypes="ssscsccssccscsssssss" />
      <path
         style="clip-rule:evenodd;fill:#36485c;fill-rule:evenodd;stroke-width:0.264586"
         d="m 3.0321268,1.0583333 h 9.3383202 c 0.503561,0 0.957799,0.4547727 0.95384,0.9260416 l -0.01622,1.930621 0.01622,0.7233861 c 0.0039,0.1763386 -0.0464,0.2579724 -0.196597,0.3117144 l -0.334815,0.119828 c -0.166227,0.059517 -0.25162,0.2082443 -0.25162,0.4213559 v 2.5010416 c 0,0.2130121 0.08545,0.3617926 0.25162,0.4213057 l 0.334815,0.1198293 c 0.1502,0.053738 0.180379,0.1353338 0.180379,0.3117142 v 0.7233853 l 0.01622,5.3804016 c 0.0014,0.471383 -0.47692,0.926042 -0.95384,0.926042 H 3.0321268 c -0.5035079,0 -0.9154606,-0.385628 -0.9154606,-0.856961 V 1.9153476 c 0,-0.4713354 0.4120045,-0.8570143 0.9154606,-0.8570143 z"
         id="path31"
         sodipodi:nodetypes="ssscsccssccscssssss" />
    </g>
    <path
       d="m 7.6854304,9.2604165 c -1.4365774,0 -2.6056649,1.1444605 -2.6451165,2.5712605 -4.21e-5,0.0018 8.27e-4,0.0048 0.00252,0.0092 a 2.6462285,2.6458154 0 0 1 0.00124,-0.02177 l 1.303,0.57563 a 0.8033257,0.80320022 0 0 1 0.5354915,-0.205044 0.8033257,0.80320022 0 0 1 0.024374,4.26e-4 l 0.4963302,-0.827146 a 1.0395884,1.0394259 0 0 1 -10e-4,-0.02358 1.0395884,1.0394259 0 0 1 1.0395898,-1.039423 1.0395884,1.0394259 0 0 1 1.0395884,1.039421 1.0395884,1.0394259 0 0 1 -0.9114889,1.031307 l -0.8865788,0.560308 a 0.8033257,0.80320022 0 0 1 0.00266,0.06201 0.8033257,0.80320022 0 0 1 -0.8033185,0.803188 0.8033257,0.80320022 0 0 1 -0.8031369,-0.796555 L 5.1282467,12.57935 A 2.6462285,2.6458154 0 0 1 5.1101457,12.4878 c -2.862e-4,0.01738 0.00266,0.03973 0.010112,0.06937 0.2900654,1.146457 1.3287527,1.994913 2.56552,1.994913 1.4614698,0 2.6462303,-1.184572 2.6462303,-2.645815 0,-1.461242 -1.1847605,-2.6458169 -2.6462303,-2.6458169 z m 0.7560637,1.4173555 a 0.66155717,0.66145383 0 0 0 -0.661557,0.661453 0.66155717,0.66145383 0 0 0 0.661557,0.661455 0.66155717,0.66145383 0 0 0 0.6615566,-0.661455 0.66155717,0.66145383 0 0 0 -0.6615566,-0.661453 z m 0,0.188991 a 0.47253615,0.47246236 0 0 1 0.4725457,0.472462 0.47253615,0.47246236 0 0 1 -0.4725457,0.472474 0.47253615,0.47246236 0 0 1 -0.4725483,-0.472474 0.47253615,0.47246236 0 0 1 0.4725483,-0.472462 z m -1.5593767,1.606354 a 0.51979966,0.51971852 0 0 0 -0.2331287,0.05519 l 0.366773,0.162039 a 0.3308119,0.3307602 0 1 1 -0.2672782,0.604968 l -0.3667739,-0.16204 a 0.51979966,0.51971852 0 0 0 0.500418,0.379268 0.51979966,0.51971852 0 0 0 0.5197994,-0.519717 0.51979966,0.51971852 0 0 0 -0.5197994,-0.519716 z"
       fill="#ffffff"
       opacity="0.75"
       stroke-width="0.0850448"
       id="path4-3"
       style="opacity:1;fill:#8fbcbb;fill-opacity:1" />
  </g>
</svg>
