<?xml version="1.0" encoding="UTF-8" standalone="no"?>
<!-- Created with Inkscape (http://www.inkscape.org/) -->

<svg
   width="64"
   height="64"
   viewBox="0 0 16.933333 16.933333"
   version="1.1"
   id="svg1"
   inkscape:version="1.4.2 (unknown)"
   sodipodi:docname="folder-github.svg"
   xmlns:inkscape="http://www.inkscape.org/namespaces/inkscape"
   xmlns:sodipodi="http://sodipodi.sourceforge.net/DTD/sodipodi-0.dtd"
   xmlns="http://www.w3.org/2000/svg"
   xmlns:svg="http://www.w3.org/2000/svg">
  <sodipodi:namedview
     id="namedview1"
     pagecolor="#ffffff"
     bordercolor="#000000"
     borderopacity="0.25"
     inkscape:showpageshadow="2"
     inkscape:pageopacity="0.0"
     inkscape:pagecheckerboard="0"
     inkscape:deskcolor="#d1d1d1"
     inkscape:document-units="px"
     inkscape:zoom="12.897792"
     inkscape:cx="28.028053"
     inkscape:cy="39.657951"
     inkscape:current-layer="layer1"
     showgrid="true"
     showguides="false">
    <inkscape:grid
       id="grid1"
       units="px"
       originx="0"
       originy="0"
       spacingx="0.26458333"
       spacingy="0.26458333"
       empcolor="#0099e5"
       empopacity="0.30196078"
       color="#0099e5"
       opacity="0.14901961"
       empspacing="5"
       enabled="true"
       visible="true" />
  </sodipodi:namedview>
  <defs
     id="defs1" />
  <g
     inkscape:label="Layer 1"
     inkscape:groupmode="layer"
     id="layer1">
    <g
       id="g1">
      <rect
         x="4.2388601"
         y="1.8520832"
         style="clip-rule:evenodd;opacity:0.2;fill:#000000;fill-opacity:1;fill-rule:evenodd;stroke-width:0.264585"
         width="10.577806"
         height="13.229166"
         id="rect29"
         ry="0.79374999"
         rx="0.79375064" />
      <rect
         x="6.069252"
         y="1.5875"
         style="clip-rule:evenodd;fill:#b4cae4;fill-opacity:1;fill-rule:evenodd;stroke-width:0.264586"
         width="8.4888077"
         height="13.758333"
         id="rect30"
         ry="1.0583332"
         rx="1.0610963" />
      <path
         style="clip-rule:evenodd;opacity:0.2;fill:#000000;fill-opacity:1;fill-rule:evenodd;stroke-width:0.264587"
         d="m 3.2968711,1.3229166 h 9.3779779 c 0.457463,0 0.915849,0.4547565 0.914925,0.9260417 l -0.0038,1.9306298 v 0.7233882 c 0,0.1763808 -0.02845,0.2579736 -0.170053,0.3117151 l -0.315645,0.1198287 c -0.15671,0.059517 -0.237213,0.2082463 -0.237213,0.4213084 v 2.5010489 c 0,0.2130131 0.08056,0.3617956 0.237213,0.4213073 l 0.315641,0.1198295 c 0.1416,0.053739 0.170052,0.1353342 0.170052,0.3117153 v 0.7233873 l -0.0098,5.2481332 c -9.91e-4,0.529165 -0.656369,1.058332 -1.113832,1.058332 -6.8559806,5e-6 -6.0394979,-1e-6 -9.1654905,-1e-6 -0.4746829,0 -0.9149255,-0.454705 -0.9149255,-0.926041 V 2.2489583 c 0,-0.4712862 0.4402943,-0.9260417 0.9149255,-0.9260417 z"
         id="path30"
         sodipodi:nodetypes="ssscsccssccscsssssss" />
      <path
         style="clip-rule:evenodd;fill:#36485c;fill-rule:evenodd;stroke-width:0.264586"
         d="m 3.0321268,1.0583333 h 9.3383202 c 0.503561,0 0.957799,0.4547727 0.95384,0.9260416 l -0.01622,1.930621 0.01622,0.7233861 c 0.0039,0.1763386 -0.0464,0.2579724 -0.196597,0.3117144 l -0.334815,0.119828 c -0.166227,0.059517 -0.25162,0.2082443 -0.25162,0.4213559 v 2.5010416 c 0,0.2130121 0.08545,0.3617926 0.25162,0.4213057 l 0.334815,0.1198293 c 0.1502,0.053738 0.180379,0.1353338 0.180379,0.3117142 v 0.7233853 l 0.01622,5.3804016 c 0.0014,0.471383 -0.47692,0.926042 -0.95384,0.926042 H 3.0321268 c -0.5035079,0 -0.9154606,-0.385628 -0.9154606,-0.856961 V 1.9153476 c 0,-0.4713354 0.4120045,-0.8570143 0.9154606,-0.8570143 z"
         id="path31"
         sodipodi:nodetypes="ssscsccssccscssssss" />
    </g>
    <path
       d="m 6.7675878,14.549613 a 0.22243205,0.22460835 0 0 0 0.1355723,-0.06557 0.21918477,0.22132928 0 0 0 0.060883,-0.113931 c 0.00489,-0.02462 0.00571,-0.05165 0.00489,-0.29512 v -0.240175 l -0.1607633,-2.14e-4 a 8.9321927,9.0195826 0 0 1 -0.1964551,-0.0043 1.4661038,1.4804487 0 0 1 -0.1591128,-0.02052 C 6.2691337,13.774367 6.125445,13.705507 6.0223471,13.603866 A 0.57231613,0.57791563 0 0 1 5.8827157,13.373416 0.99526171,1.0049991 0 0 0 5.6359281,12.984873 1.738054,1.755059 0 0 0 5.4654567,12.834862 c -0.084423,-0.069 -0.1055276,-0.09277 -0.1055276,-0.114072 0,-0.01397 0.00979,-0.02461 0.038152,-0.0377 a 0.25328038,0.25575833 0 0 1 0.125018,-0.02538 0.40589819,0.40986917 0 0 1 0.1753493,0.05 c 0.074685,0.03855 0.1518044,0.09755 0.2329869,0.177885 0.049513,0.04917 0.085233,0.08935 0.1412483,0.159839 0.170478,0.213136 0.2784474,0.293482 0.4334982,0.319692 0.045464,0.0085 0.064943,0.01005 0.1445008,0.01005 a 0.89297531,0.90171197 0 0 0 0.1404415,-0.0075 0.58611663,0.59185095 0 0 0 0.1639837,-0.04096 l 0.013785,-0.0066 5.951e-4,-0.02787 A 0.57150425,0.57709576 0 0 1 7.219537,12.825981 c 0,0 -0.00319,-2.15e-4 -0.00815,-2.15e-4 A 3.6887997,3.7248916 0 0 1 7.0855549,12.802798 2.1561302,2.1772237 0 0 1 6.3322137,12.511804 1.3597575,1.3730615 0 0 1 6.0131763,12.226527 1.3053686,1.3181406 0 0 1 5.7363538,11.541223 2.0725146,2.0927926 0 0 1 5.7331122,11.106772 c 0.030849,-0.330358 0.135568,-0.614795 0.314977,-0.860727 0.0032,-0.0042 0.0032,-0.0042 -0.00489,-0.03524 a 1.7226301,1.7394841 0 0 1 0.016235,-0.9362033 l 0.00321,-0.012313 h 0.029228 c 0.1217705,5.95e-4 0.2800726,0.037708 0.4318764,0.09919 A 1.7672789,1.784569 0 0 1 6.9645924,9.6221475 2.913536,2.9420407 0 0 1 7.5961747,9.5008301 c 0.095788,-0.00819 0.1656064,-0.010639 0.2792518,-0.010639 a 3.0442321,3.0740186 0 0 1 0.8848513,0.1229564 l 0.026798,0.00821 0.024339,-0.018018 c 0.033297,-0.027052 0.05684,-0.044262 0.099055,-0.072139 0.2402945,-0.162299 0.5179268,-0.262307 0.7468519,-0.269684 l 0.030939,-0.0011 0.00257,0.00901 0.0089,0.035249 a 1.7551025,1.7722747 0 0 1 0.00409,0.9189155 1.5773199,1.5927511 0 0 1 0.273566,0.54676 c 0.04383,0.153302 0.0666,0.307392 0.07228,0.490223 0.0053,0.183597 -0.0155,0.357388 -0.06008,0.513145 A 1.2428589,1.2550196 0 0 1 9.6160731,12.371304 C 9.4131224,12.55163 9.154165,12.681148 8.8262,12.766409 a 3.2341934,3.2658364 0 0 1 -0.2922481,0.06064 c -2.135e-4,10e-5 0.00573,0.0065 0.014602,0.01401 a 0.60072878,0.60660616 0 0 1 0.1542418,0.172132 c 0.032466,0.05736 0.05845,0.127052 0.068999,0.19427 0.00892,0.05246 0.00807,0.0056 0.00979,0.600059 0,0.50823 0,0.545104 0.00319,0.557412 a 0.23055003,0.23280568 0 0 0 0.035715,0.08855 0.2313618,0.23362536 0 0 0 0.1664133,0.09838 c 0.00652,1.02e-4 -0.4935786,2.13e-4 -1.1121609,2.13e-4 -0.921394,0 -1.120282,0 -1.1072944,-0.0027 z"
       id="path6-6-3"
       style="fill:#8fbcbb;fill-opacity:1;stroke-width:0.288838" />
  </g>
</svg>
