<?xml version="1.0" encoding="UTF-8" standalone="no"?>
<!-- Created with Inkscape (http://www.inkscape.org/) -->

<svg
   width="64"
   height="64"
   viewBox="0 0 16.933333 16.933333"
   version="1.1"
   id="svg1"
   inkscape:version="1.4.2 (unknown)"
   sodipodi:docname="folder-rpm.svg"
   xmlns:inkscape="http://www.inkscape.org/namespaces/inkscape"
   xmlns:sodipodi="http://sodipodi.sourceforge.net/DTD/sodipodi-0.dtd"
   xmlns="http://www.w3.org/2000/svg"
   xmlns:svg="http://www.w3.org/2000/svg">
  <sodipodi:namedview
     id="namedview1"
     pagecolor="#ffffff"
     bordercolor="#000000"
     borderopacity="0.25"
     inkscape:showpageshadow="2"
     inkscape:pageopacity="0.0"
     inkscape:pagecheckerboard="0"
     inkscape:deskcolor="#d1d1d1"
     inkscape:document-units="px"
     inkscape:zoom="12.897792"
     inkscape:cx="28.415717"
     inkscape:cy="32.137284"
     inkscape:current-layer="layer1"
     showgrid="true"
     showguides="false">
    <inkscape:grid
       id="grid1"
       units="px"
       originx="0"
       originy="0"
       spacingx="0.26458333"
       spacingy="0.26458333"
       empcolor="#0099e5"
       empopacity="0.30196078"
       color="#0099e5"
       opacity="0.14901961"
       empspacing="5"
       enabled="true"
       visible="true" />
  </sodipodi:namedview>
  <defs
     id="defs1" />
  <g
     inkscape:label="Layer 1"
     inkscape:groupmode="layer"
     id="layer1">
    <g
       id="g1">
      <rect
         x="4.2388601"
         y="1.8520832"
         style="clip-rule:evenodd;opacity:0.2;fill:#000000;fill-opacity:1;fill-rule:evenodd;stroke-width:0.264585"
         width="10.577806"
         height="13.229166"
         id="rect29"
         ry="0.79374999"
         rx="0.79375064" />
      <rect
         x="6.069252"
         y="1.5875"
         style="clip-rule:evenodd;fill:#b4cae4;fill-opacity:1;fill-rule:evenodd;stroke-width:0.264586"
         width="8.4888077"
         height="13.758333"
         id="rect30"
         ry="1.0583332"
         rx="1.0610963" />
      <path
         style="clip-rule:evenodd;opacity:0.2;fill:#000000;fill-opacity:1;fill-rule:evenodd;stroke-width:0.264587"
         d="m 3.2968711,1.3229166 h 9.3779779 c 0.457463,0 0.915849,0.4547565 0.914925,0.9260417 l -0.0038,1.9306298 v 0.7233882 c 0,0.1763808 -0.02845,0.2579736 -0.170053,0.3117151 l -0.315645,0.1198287 c -0.15671,0.059517 -0.237213,0.2082463 -0.237213,0.4213084 v 2.5010489 c 0,0.2130131 0.08056,0.3617956 0.237213,0.4213073 l 0.315641,0.1198295 c 0.1416,0.053739 0.170052,0.1353342 0.170052,0.3117153 v 0.7233873 l -0.0098,5.2481332 c -9.91e-4,0.529165 -0.656369,1.058332 -1.113832,1.058332 -6.8559806,5e-6 -6.0394979,-1e-6 -9.1654905,-1e-6 -0.4746829,0 -0.9149255,-0.454705 -0.9149255,-0.926041 V 2.2489583 c 0,-0.4712862 0.4402943,-0.9260417 0.9149255,-0.9260417 z"
         id="path30"
         sodipodi:nodetypes="ssscsccssccscsssssss" />
      <path
         style="clip-rule:evenodd;fill:#36485c;fill-rule:evenodd;stroke-width:0.264586"
         d="m 3.0321268,1.0583333 h 9.3383202 c 0.503561,0 0.957799,0.4547727 0.95384,0.9260416 l -0.01622,1.930621 0.01622,0.7233861 c 0.0039,0.1763386 -0.0464,0.2579724 -0.196597,0.3117144 l -0.334815,0.119828 c -0.166227,0.059517 -0.25162,0.2082443 -0.25162,0.4213559 v 2.5010416 c 0,0.2130121 0.08545,0.3617926 0.25162,0.4213057 l 0.334815,0.1198293 c 0.1502,0.053738 0.180379,0.1353338 0.180379,0.3117142 v 0.7233853 l 0.01622,5.3804016 c 0.0014,0.471383 -0.47692,0.926042 -0.95384,0.926042 H 3.0321268 c -0.5035079,0 -0.9154606,-0.385628 -0.9154606,-0.856961 V 1.9153476 c 0,-0.4713354 0.4120045,-0.8570143 0.9154606,-0.8570143 z"
         id="path31"
         sodipodi:nodetypes="ssscsccssccscssssss" />
    </g>
    <g
       transform="matrix(0.01042691,0,0,0.01042683,4.0367744,8.9867122)"
       style="fill:#8fbcbb;fill-opacity:1;stroke-width:1.59963"
       id="g26">
      <path
         d="m 350,26.25 c -44.543,0 -88.301,11.723 -126.88,33.996 -38.574,22.27 -70.609,54.305 -92.879,92.879 -22.27,38.574 -33.996,82.332 -33.996,126.88 0,67.297 26.734,131.84 74.32,179.43 47.59,47.586 112.13,74.32 179.43,74.32 67.3,0 131.84,-26.734 179.43,-74.32 47.586,-47.59 74.32,-112.13 74.32,-179.43 0,-44.543 -11.723,-88.301 -33.996,-126.88 C 547.479,114.551 515.444,82.516 476.87,60.246 438.296,37.973 394.538,26.25 349.99,26.25 Z m 8.75,41.766 c 12.57,0.52734 25.141,2.2891 37.633,5.0938 7.6404,1.9066 10.853,2.6571 16.918,4.5467 2.7539,0.85938 5.5352,1.6055 8.2695,2.5977 9.3203,3.3398 18.254,7.3555 26.832,11.863 l -19.961,34.555 c -6.4219,-3.3945 -13.07,-6.4883 -20.027,-9.0586 -16.246,-6.0039 -32.98,-9.3242 -49.664,-10.184 z m -17.5,0.26562 v 39.203 c -24.34,1.2773 -48.152,7.7891 -69.727,19.141 l -19.789,-34.316 c 11.262,-5.8867 22.863,-11.059 34.934,-14.832 4.8175,-1.5029 9.0571,-2.4516 16.984,-4.2738 12.34,-2.7656 24.895,-4.3906 37.598,-4.9219 z m 122.29,32.609 c 10.762,6.8555 20.719,14.699 29.941,23.273 5.3836,5.133 8.049,8.013 12.309,12.477 8.5078,9.3516 16.234,19.367 22.934,30.078 l -35.238,20.336 h -0.004 c -0.21875,0.125 -0.4375,0.25781 -0.64453,0.39844 -12.43,-20.48 -29.172,-38.199 -49.355,-51.781 z m -227.02,0.19922 19.996,34.59 c -13.578,9.0586 -26.02,20.113 -36.742,33.188 -4.832,5.8945 -9.1211,12.07 -13.023,18.422 -0.082,-0.0664 -0.16406,-0.13281 -0.24609,-0.19922 l -35.648,-20.609 c 4.9023,-7.7539 10.266,-15.301 16.27,-22.488 2.207,-2.6445 4.6953,-4.9414 7.0078,-7.4531 4.9752,-5.5234 8.0792,-8.4669 12.234,-12.507 9.4062,-8.668 19.527,-16.273 30.148,-23.004 z m 113.48,56.5 25.977,151.62 v -0.004 c 5.7891,6.4141 9.0039,14.738 9.0234,23.379 0,9.2812 -3.6875,18.184 -10.25,24.75 -6.5664,6.5625 -15.469,10.25 -24.75,10.25 -9.281,0 -18.184,-3.6875 -24.75,-10.25 -6.5625,-6.5664 -10.25,-15.469 -10.25,-24.75 0.0195,-8.6406 3.2344,-16.965 9.0234,-23.379 z m -187.89,24.133 35.648,20.574 v -0.004 c 0.1875,0.11719 0.38281,0.22656 0.57812,0.33203 -10.398,21.785 -15.793,45.375 -16.168,69.145 -0.93359,-0.31641 -1.918,-0.47266 -2.9062,-0.46094 h -40.672 c 0.4375,-12.633 2.0547,-25.203 4.75,-37.562 1.5238,-6.5415 2.4514,-10.055 4.4095,-16.922 3.6992,-12.043 8.4609,-23.812 14.355,-35.137 z m 375.29,0.26562 c 5.7656,11.164 10.441,22.906 14.184,35.035 1.6934,6.4096 3.3176,12.275 4.4809,16.91 2.7383,12.387 4.5508,25.07 5.0586,38.043 l -43.648,0.52734 c -0.48828,-24.602 -6.3164,-48.242 -16.441,-69.625 v 0.004 c 0.41016,-0.16797 0.80859,-0.36719 1.1914,-0.59766 z m -354.65,106.16 c 1.9453,23.918 8.9102,47.633 21.09,69.418 l -39.992,22.457 c -6.3828,-11.906 -11.434,-24.262 -15.414,-36.844 -2.6861,-8.8822 -2.7659,-10.58 -4.5787,-16.902 -2.8281,-12.379 -4.6367,-24.898 -5.2305,-37.461 h 40.641 c 1.1953,0.0156 2.3828,-0.21875 3.4844,-0.67969 z"
         style="fill:#8fbcbb;fill-opacity:1;stroke-width:1.59963"
         id="path25" />
      <path
         d="m 358.75,332.5 c 0,4.8359 -3.918,8.75 -8.75,8.75 -4.832,0 -8.75,-3.9141 -8.75,-8.75 0,-4.832 3.918,-8.75 8.75,-8.75 4.832,0 8.75,3.918 8.75,8.75 z"
         style="fill:#8fbcbb;fill-opacity:1;stroke-width:1.59963"
         id="path26" />
    </g>
  </g>
</svg>
