<?xml version="1.0" encoding="UTF-8" standalone="no"?>
<!-- Created with Inkscape (http://www.inkscape.org/) -->

<svg
   width="64"
   height="64"
   viewBox="0 0 16.933333 16.933333"
   version="1.1"
   id="svg1"
   inkscape:version="1.4.2 (unknown)"
   sodipodi:docname="folder-comic.svg"
   xmlns:inkscape="http://www.inkscape.org/namespaces/inkscape"
   xmlns:sodipodi="http://sodipodi.sourceforge.net/DTD/sodipodi-0.dtd"
   xmlns="http://www.w3.org/2000/svg"
   xmlns:svg="http://www.w3.org/2000/svg">
  <sodipodi:namedview
     id="namedview1"
     pagecolor="#ffffff"
     bordercolor="#000000"
     borderopacity="0.25"
     inkscape:showpageshadow="2"
     inkscape:pageopacity="0.0"
     inkscape:pagecheckerboard="0"
     inkscape:deskcolor="#d1d1d1"
     inkscape:document-units="px"
     inkscape:zoom="4.560058"
     inkscape:cx="25.657568"
     inkscape:cy="44.626625"
     inkscape:current-layer="layer1"
     showgrid="true"
     showguides="false">
    <inkscape:grid
       id="grid1"
       units="px"
       originx="0"
       originy="0"
       spacingx="0.26458333"
       spacingy="0.26458333"
       empcolor="#0099e5"
       empopacity="0.30196078"
       color="#0099e5"
       opacity="0.14901961"
       empspacing="5"
       enabled="true"
       visible="true" />
  </sodipodi:namedview>
  <defs
     id="defs1" />
  <g
     inkscape:label="Layer 1"
     inkscape:groupmode="layer"
     id="layer1">
    <g
       id="g1">
      <rect
         x="4.2388601"
         y="1.8520832"
         style="clip-rule:evenodd;opacity:0.2;fill:#000000;fill-opacity:1;fill-rule:evenodd;stroke-width:0.264585"
         width="10.577806"
         height="13.229166"
         id="rect29"
         ry="0.79374999"
         rx="0.79375064" />
      <rect
         x="6.069252"
         y="1.5875"
         style="clip-rule:evenodd;fill:#b4cae4;fill-opacity:1;fill-rule:evenodd;stroke-width:0.264586"
         width="8.4888077"
         height="13.758333"
         id="rect30"
         ry="1.0583332"
         rx="1.0610963" />
      <path
         style="clip-rule:evenodd;opacity:0.2;fill:#000000;fill-opacity:1;fill-rule:evenodd;stroke-width:0.264587"
         d="m 3.2968711,1.3229166 h 9.3779779 c 0.457463,0 0.915849,0.4547565 0.914925,0.9260417 l -0.0038,1.9306298 v 0.7233882 c 0,0.1763808 -0.02845,0.2579736 -0.170053,0.3117151 l -0.315645,0.1198287 c -0.15671,0.059517 -0.237213,0.2082463 -0.237213,0.4213084 v 2.5010489 c 0,0.2130131 0.08056,0.3617956 0.237213,0.4213073 l 0.315641,0.1198295 c 0.1416,0.053739 0.170052,0.1353342 0.170052,0.3117153 v 0.7233873 l -0.0098,5.2481332 c -9.91e-4,0.529165 -0.656369,1.058332 -1.113832,1.058332 -6.8559806,5e-6 -6.0394979,-1e-6 -9.1654905,-1e-6 -0.4746829,0 -0.9149255,-0.454705 -0.9149255,-0.926041 V 2.2489583 c 0,-0.4712862 0.4402943,-0.9260417 0.9149255,-0.9260417 z"
         id="path30"
         sodipodi:nodetypes="ssscsccssccscsssssss" />
      <path
         style="clip-rule:evenodd;fill:#36485c;fill-rule:evenodd;stroke-width:0.264586"
         d="m 3.0321268,1.0583333 h 9.3383202 c 0.503561,0 0.957799,0.4547727 0.95384,0.9260416 l -0.01622,1.930621 0.01622,0.7233861 c 0.0039,0.1763386 -0.0464,0.2579724 -0.196597,0.3117144 l -0.334815,0.119828 c -0.166227,0.059517 -0.25162,0.2082443 -0.25162,0.4213559 v 2.5010416 c 0,0.2130121 0.08545,0.3617926 0.25162,0.4213057 l 0.334815,0.1198293 c 0.1502,0.053738 0.180379,0.1353338 0.180379,0.3117142 v 0.7233853 l 0.01622,5.3804016 c 0.0014,0.471383 -0.47692,0.926042 -0.95384,0.926042 H 3.0321268 c -0.5035079,0 -0.9154606,-0.385628 -0.9154606,-0.856961 V 1.9153476 c 0,-0.4713354 0.4120045,-0.8570143 0.9154606,-0.8570143 z"
         id="path31"
         sodipodi:nodetypes="ssscsccssccscssssss" />
    </g>
    <g
       transform="matrix(0.24694647,0,0,0.24804609,11.283662,0.75317974)"
       id="g26"
       style="stroke-width:0.799819">
      <path
         d="m -14.568,34.297 c -2.8416,0 -5.567,1.1237 -7.5761,3.1242 -2.0094,2.0003 -3.1381,4.7134 -3.1381,7.5425 0,2.829 1.1288,5.5423 3.1381,7.5425 2.0092,2.0005 4.7345,3.1242 7.5761,3.1242 2.8416,0 5.567,-1.1237 7.5761,-3.1242 2.0094,-2.0003 3.1381,-4.7134 3.1381,-7.5425 0,-1.8724 -0.49511,-3.7117 -1.4354,-5.3333 -0.94042,-1.6216 -2.2929,-2.968 -3.9217,-3.9043 -1.6288,-0.93609 -3.4764,-1.429 -5.3571,-1.429 z m 7.1428,14.85 c 0,0.25262 -0.10074,0.49474 -0.2801,0.67331 -0.17934,0.17853 -0.42253,0.27884 -0.6763,0.27884 h -3.738 l -2.123,2.9946 c -0.07422,0.10582 -0.19562,0.16897 -0.32537,0.16897 -0.12972,0 -0.2511,-0.06317 -0.32534,-0.16897 l -2.123,-2.9946 h -3.738 c -0.25374,0 -0.49694,-0.10029 -0.6763,-0.27884 -0.17935,-0.17855 -0.2801,-0.42067 -0.2801,-0.67331 v -9.1575 c 0,-0.25263 0.10074,-0.49474 0.2801,-0.6733 0.17934,-0.17855 0.42254,-0.27885 0.6763,-0.27885 h 12.373 c 0.25375,0 0.49694,0.10025 0.6763,0.27885 0.17934,0.17854 0.28011,0.42066 0.28011,0.6733 z"
         style="fill:#8fbcbb;fill-opacity:1;stroke-width:0.0316681"
         id="path25" />
      <path
         d="m -8.3815,39.828 h -12.373 c -0.0899,0 -0.16275,0.07248 -0.16275,0.16204 v 9.1575 c 0,0.08949 0.0728,0.16204 0.16275,0.16204 h 3.9443 c 0.12912,-6.18e-4 0.25049,0.06134 0.32537,0.16588 l 1.9167,2.7062 1.9167,-2.7062 c 0.07489,-0.10468 0.19625,-0.1665 0.32536,-0.16588 h 3.9443 c 0.04316,0 0.0846,-0.01713 0.11517,-0.04739 0.0303,-0.03037 0.0476,-0.07158 0.0476,-0.11466 v -9.1575 c 0,-0.08949 -0.0728,-0.16204 -0.16276,-0.16204 z m -6.1865,7.1111 h -4.365 c -0.21918,0 -0.39681,-0.17684 -0.39681,-0.39505 0,-0.21821 0.17763,-0.39506 0.39681,-0.39506 h 4.365 c 0.21918,0 0.39681,0.17685 0.39681,0.39506 0,0.2182 -0.17763,0.39505 -0.39681,0.39505 z m 4.365,-1.9753 h -8.7301 c -0.21918,0 -0.39681,-0.17685 -0.39681,-0.39506 0,-0.21821 0.17763,-0.39506 0.39681,-0.39506 h 8.7301 c 0.21918,0 0.39683,0.17685 0.39683,0.39506 0,0.21821 -0.17765,0.39506 -0.39683,0.39506 z m 0,-1.9753 h -8.7301 c -0.21918,0 -0.39681,-0.17686 -0.39681,-0.39507 0,-0.2182 0.17763,-0.39506 0.39681,-0.39506 h 8.7301 c 0.21918,0 0.39683,0.17686 0.39683,0.39506 0,0.2182 -0.17765,0.39507 -0.39683,0.39507 z"
         style="fill:#8fbcbb;fill-opacity:1;stroke-width:0.0316681"
         id="path26" />
    </g>
  </g>
</svg>
