<?xml version="1.0" encoding="UTF-8" standalone="no"?>
<!-- Created with Inkscape (http://www.inkscape.org/) -->

<svg
   width="64"
   height="64"
   viewBox="0 0 16.933333 16.933333"
   version="1.1"
   id="svg1"
   inkscape:version="1.4.2 (unknown)"
   sodipodi:docname="folder-text.svg"
   xmlns:inkscape="http://www.inkscape.org/namespaces/inkscape"
   xmlns:sodipodi="http://sodipodi.sourceforge.net/DTD/sodipodi-0.dtd"
   xmlns="http://www.w3.org/2000/svg"
   xmlns:svg="http://www.w3.org/2000/svg">
  <sodipodi:namedview
     id="namedview1"
     pagecolor="#ffffff"
     bordercolor="#000000"
     borderopacity="0.25"
     inkscape:showpageshadow="2"
     inkscape:pageopacity="0.0"
     inkscape:pagecheckerboard="0"
     inkscape:deskcolor="#d1d1d1"
     inkscape:document-units="px"
     inkscape:zoom="9.120116"
     inkscape:cx="28.124642"
     inkscape:cy="40.734131"
     inkscape:current-layer="layer1"
     showgrid="true"
     showguides="false">
    <inkscape:grid
       id="grid1"
       units="px"
       originx="0"
       originy="0"
       spacingx="0.26458333"
       spacingy="0.26458333"
       empcolor="#0099e5"
       empopacity="0.30196078"
       color="#0099e5"
       opacity="0.14901961"
       empspacing="5"
       enabled="true"
       visible="true" />
  </sodipodi:namedview>
  <defs
     id="defs1" />
  <g
     inkscape:label="Layer 1"
     inkscape:groupmode="layer"
     id="layer1">
    <g
       id="g1">
      <rect
         x="4.2388601"
         y="1.8520832"
         style="clip-rule:evenodd;opacity:0.2;fill:#000000;fill-opacity:1;fill-rule:evenodd;stroke-width:0.264585"
         width="10.577806"
         height="13.229166"
         id="rect29"
         ry="0.79374999"
         rx="0.79375064" />
      <rect
         x="6.069252"
         y="1.5875"
         style="clip-rule:evenodd;fill:#b4cae4;fill-opacity:1;fill-rule:evenodd;stroke-width:0.264586"
         width="8.4888077"
         height="13.758333"
         id="rect30"
         ry="1.0583332"
         rx="1.0610963" />
      <path
         style="clip-rule:evenodd;opacity:0.2;fill:#000000;fill-opacity:1;fill-rule:evenodd;stroke-width:0.264587"
         d="m 3.2968711,1.3229166 h 9.3779779 c 0.457463,0 0.915849,0.4547565 0.914925,0.9260417 l -0.0038,1.9306298 v 0.7233882 c 0,0.1763808 -0.02845,0.2579736 -0.170053,0.3117151 l -0.315645,0.1198287 c -0.15671,0.059517 -0.237213,0.2082463 -0.237213,0.4213084 v 2.5010489 c 0,0.2130131 0.08056,0.3617956 0.237213,0.4213073 l 0.315641,0.1198295 c 0.1416,0.053739 0.170052,0.1353342 0.170052,0.3117153 v 0.7233873 l -0.0098,5.2481332 c -9.91e-4,0.529165 -0.656369,1.058332 -1.113832,1.058332 -6.8559806,5e-6 -6.0394979,-1e-6 -9.1654905,-1e-6 -0.4746829,0 -0.9149255,-0.454705 -0.9149255,-0.926041 V 2.2489583 c 0,-0.4712862 0.4402943,-0.9260417 0.9149255,-0.9260417 z"
         id="path30"
         sodipodi:nodetypes="ssscsccssccscsssssss" />
      <path
         style="clip-rule:evenodd;fill:#36485c;fill-rule:evenodd;stroke-width:0.264586"
         d="m 3.0321268,1.0583333 h 9.3383202 c 0.503561,0 0.957799,0.4547727 0.95384,0.9260416 l -0.01622,1.930621 0.01622,0.7233861 c 0.0039,0.1763386 -0.0464,0.2579724 -0.196597,0.3117144 l -0.334815,0.119828 c -0.166227,0.059517 -0.25162,0.2082443 -0.25162,0.4213559 v 2.5010416 c 0,0.2130121 0.08545,0.3617926 0.25162,0.4213057 l 0.334815,0.1198293 c 0.1502,0.053738 0.180379,0.1353338 0.180379,0.3117142 v 0.7233853 l 0.01622,5.3804016 c 0.0014,0.471383 -0.47692,0.926042 -0.95384,0.926042 H 3.0321268 c -0.5035079,0 -0.9154606,-0.385628 -0.9154606,-0.856961 V 1.9153476 c 0,-0.4713354 0.4120045,-0.8570143 0.9154606,-0.8570143 z"
         id="path31"
         sodipodi:nodetypes="ssscsccssccscssssss" />
    </g>
    <g
       transform="matrix(0.24694572,0,0,0.24804714,37.372918,11.833055)"
       id="g29"
       style="stroke-width:1.59963">
      <path
         d="m -110.34,-3.8425 c -0.5339,-1.2653 -1.3219,-2.4041 -2.2877,-3.391 -0.99138,-0.98696 -2.1352,-1.7462 -3.4062,-2.2775 -1.322,-0.55692 -2.72,-0.86057 -4.169,-0.86057 -1.449,0 -2.847,0.30364 -4.1688,0.8604 -1.271,0.53152 -2.4148,1.316 -3.4062,2.2775 -0.99137,0.98696 -1.754,2.1257 -2.2877,3.391 -0.55942,1.3162 -0.86441,2.7079 -0.86441,4.1505 0,1.4426 0.30498,2.8343 0.86422,4.1503 0.53389,1.2653 1.3219,2.4041 2.2877,3.391 0.99136,0.98695 2.1352,1.7462 3.4062,2.2775 1.3219,0.55674 2.72,0.83511 4.1688,0.83511 1.449,0 2.847,-0.27838 4.1688,-0.83511 1.271,-0.53153 2.4148,-1.316 3.4062,-2.2775 0.99136,-0.98696 1.754,-2.1257 2.2877,-3.391 0.55923,-1.316 0.83884,-2.7079 0.83884,-4.1503 3.7e-4,-1.4426 -0.27927,-2.8343 -0.83854,-4.1503 z"
         style="fill:#8fbcbb;stroke-width:0.0724519;fill-opacity:1"
         id="path25" />
      <path
         d="m -127.67,1.8798 c -0.60284,0 -1.12,0.51447 -1.12,1.115 0,0.60017 0.51678,1.115 1.12,1.115 0.60285,0 1.12,-0.51447 1.12,-1.115 0,-0.60052 -0.51678,-1.115 -1.12,-1.115 z"
         style="fill:#36485c;stroke-width:0.162042;fill-opacity:1"
         id="path26" />
      <path
         d="m -122.93,2.4792 c -0.34464,0 -0.51677,-0.25744 -0.51677,-0.60018 v -2.144 h 1.2061 v -1.6295 h -1.2061 v -1.5438 h -1.8954 v 1.5438 h -0.94748 v 1.6295 h 0.94748 v 2.6589 c 0,1.115 0.60285,1.7152 1.8089,1.7152 0.68931,0 1.12,-0.17136 1.3782,-0.34312 l -0.34464,-1.3721 c 3.4e-4,-3.49e-4 -0.25821,0.08517 -0.43033,0.08517 z"
         style="fill:#36485c;stroke-width:0.162042;fill-opacity:1"
         id="path27" />
      <path
         d="m -115.86,-1.8086 h -2.0675 l -1.0336,1.5435 -0.94788,-1.5435 h -2.0675 l 1.8954,2.8302 -1.9815,3.0016 h 1.9815 l 1.2061,-1.8012 1.034,1.8012 h 2.0675 l -1.9815,-3.0016 z"
         style="fill:#36485c;stroke-width:0.162042;fill-opacity:1"
         id="path28" />
      <path
         d="m -111.73,-0.17923 v -1.6295 h -1.2061 v -1.5438 h -1.8954 v 1.5438 h -0.94748 v 1.6295 h 0.94748 v 2.6589 c 0,1.115 0.60284,1.7152 1.8089,1.7152 0.6893,0 1.12,-0.17136 1.3782,-0.34311 l -0.34464,-1.3721 c -0.0861,0.08572 -0.25859,0.17136 -0.43071,0.17136 -0.34465,0 -0.51677,-0.25744 -0.51677,-0.60017 v -2.144 l 1.2065,-3.6e-4 z"
         style="fill:#36485c;stroke-width:0.162042;fill-opacity:1"
         id="path29" />
    </g>
  </g>
</svg>
