<?xml version="1.0" encoding="UTF-8" standalone="no"?>
<!-- Created with Inkscape (http://www.inkscape.org/) -->

<svg
   width="64"
   height="64"
   viewBox="0 0 16.933333 16.933333"
   version="1.1"
   id="svg1"
   inkscape:version="1.4.2 (unknown)"
   sodipodi:docname="folder-database.svg"
   xmlns:inkscape="http://www.inkscape.org/namespaces/inkscape"
   xmlns:sodipodi="http://sodipodi.sourceforge.net/DTD/sodipodi-0.dtd"
   xmlns="http://www.w3.org/2000/svg"
   xmlns:svg="http://www.w3.org/2000/svg">
  <sodipodi:namedview
     id="namedview1"
     pagecolor="#ffffff"
     bordercolor="#000000"
     borderopacity="0.25"
     inkscape:showpageshadow="2"
     inkscape:pageopacity="0.0"
     inkscape:pagecheckerboard="0"
     inkscape:deskcolor="#d1d1d1"
     inkscape:document-units="px"
     inkscape:zoom="12.897792"
     inkscape:cx="32.059751"
     inkscape:cy="36.634177"
     inkscape:current-layer="layer1"
     showgrid="true"
     showguides="false">
    <inkscape:grid
       id="grid1"
       units="px"
       originx="0"
       originy="0"
       spacingx="0.26458333"
       spacingy="0.26458333"
       empcolor="#0099e5"
       empopacity="0.30196078"
       color="#0099e5"
       opacity="0.14901961"
       empspacing="5"
       enabled="true"
       visible="true" />
  </sodipodi:namedview>
  <defs
     id="defs1" />
  <g
     inkscape:label="Layer 1"
     inkscape:groupmode="layer"
     id="layer1">
    <g
       id="g1">
      <rect
         x="4.2388601"
         y="1.8520832"
         style="clip-rule:evenodd;opacity:0.2;fill:#000000;fill-opacity:1;fill-rule:evenodd;stroke-width:0.264585"
         width="10.577806"
         height="13.229166"
         id="rect29"
         ry="0.79374999"
         rx="0.79375064" />
      <rect
         x="6.069252"
         y="1.5875"
         style="clip-rule:evenodd;fill:#b4cae4;fill-opacity:1;fill-rule:evenodd;stroke-width:0.264586"
         width="8.4888077"
         height="13.758333"
         id="rect30"
         ry="1.0583332"
         rx="1.0610963" />
      <path
         style="clip-rule:evenodd;opacity:0.2;fill:#000000;fill-opacity:1;fill-rule:evenodd;stroke-width:0.264587"
         d="m 3.2968711,1.3229166 h 9.3779779 c 0.457463,0 0.915849,0.4547565 0.914925,0.9260417 l -0.0038,1.9306298 v 0.7233882 c 0,0.1763808 -0.02845,0.2579736 -0.170053,0.3117151 l -0.315645,0.1198287 c -0.15671,0.059517 -0.237213,0.2082463 -0.237213,0.4213084 v 2.5010489 c 0,0.2130131 0.08056,0.3617956 0.237213,0.4213073 l 0.315641,0.1198295 c 0.1416,0.053739 0.170052,0.1353342 0.170052,0.3117153 v 0.7233873 l -0.0098,5.2481332 c -9.91e-4,0.529165 -0.656369,1.058332 -1.113832,1.058332 -6.8559806,5e-6 -6.0394979,-1e-6 -9.1654905,-1e-6 -0.4746829,0 -0.9149255,-0.454705 -0.9149255,-0.926041 V 2.2489583 c 0,-0.4712862 0.4402943,-0.9260417 0.9149255,-0.9260417 z"
         id="path30"
         sodipodi:nodetypes="ssscsccssccscsssssss" />
      <path
         style="clip-rule:evenodd;fill:#36485c;fill-rule:evenodd;stroke-width:0.264586"
         d="m 3.0321268,1.0583333 h 9.3383202 c 0.503561,0 0.957799,0.4547727 0.95384,0.9260416 l -0.01622,1.930621 0.01622,0.7233861 c 0.0039,0.1763386 -0.0464,0.2579724 -0.196597,0.3117144 l -0.334815,0.119828 c -0.166227,0.059517 -0.25162,0.2082443 -0.25162,0.4213559 v 2.5010416 c 0,0.2130121 0.08545,0.3617926 0.25162,0.4213057 l 0.334815,0.1198293 c 0.1502,0.053738 0.180379,0.1353338 0.180379,0.3117142 v 0.7233853 l 0.01622,5.3804016 c 0.0014,0.471383 -0.47692,0.926042 -0.95384,0.926042 H 3.0321268 c -0.5035079,0 -0.9154606,-0.385628 -0.9154606,-0.856961 V 1.9153476 c 0,-0.4713354 0.4120045,-0.8570143 0.9154606,-0.8570143 z"
         id="path31"
         sodipodi:nodetypes="ssscsccssccscssssss" />
    </g>
    <path
       id="XMLID_2226_-3"
       d="M 10.275823,10.681442 H 5.0964648 c -0.2136647,0 -0.3868816,-0.181664 -0.3868816,-0.405764 V 9.6661969 c 0,-0.2241008 0.1732169,-0.4057807 0.3868816,-0.4057807 h 5.1793582 c 0.21366,0 0.386879,0.1816799 0.386879,0.4057807 v 0.6094611 c 0,0.22412 -0.173219,0.405784 -0.386879,0.405784 z"
       style="fill:#8fbcbb;fill-opacity:1;stroke-width:0.293992" />
    <path
       id="XMLID_2225_-6"
       d="M 10.275823,12.63089 H 5.0964648 c -0.2136647,0 -0.3868816,-0.181682 -0.3868816,-0.405782 v -0.609462 c 0,-0.224101 0.1732169,-0.405782 0.3868816,-0.405782 h 5.1793582 c 0.21366,0 0.386879,0.181681 0.386879,0.405782 v 0.609462 c 0,0.2241 -0.173219,0.405782 -0.386879,0.405782 z"
       style="fill:#8fbcbb;fill-opacity:1;stroke-width:0.293992" />
    <path
       id="XMLID_2224_-7"
       d="M 10.275823,14.552083 H 5.0964648 c -0.2136647,0 -0.3868816,-0.181666 -0.3868816,-0.405786 v -0.609458 c 0,-0.224104 0.1732169,-0.405782 0.3868816,-0.405782 h 5.1793582 c 0.21366,0 0.386879,0.181678 0.386879,0.405782 v 0.609458 c 0,0.22412 -0.173219,0.405786 -0.386879,0.405786 z"
       style="fill:#8fbcbb;fill-opacity:1;stroke-width:0.293992" />
    <path
       id="XMLID_3068_-5"
       d="m 6.6892045,10.351822 h -0.998176 c -0.1810009,0 -0.3277317,-0.148073 -0.3277317,-0.330727 0,-0.1826639 0.1467308,-0.330731 0.3277317,-0.330731 h 0.998176 c 0.1809984,0 0.3277359,0.1480671 0.3277359,0.330731 0,0.182654 -0.1467375,0.330727 -0.3277359,0.330727 z"
       style="fill:#24844a;fill-opacity:1;stroke-width:0.293992" />
    <path
       id="XMLID_3067_-3"
       d="M 6.6892017,12.236975 H 5.6910248 c -0.1810014,0 -0.327732,-0.148072 -0.327732,-0.330723 0,-0.182664 0.1467306,-0.330732 0.327732,-0.330732 h 0.9981769 c 0.1810012,0 0.3277364,0.148068 0.3277364,0.330732 3.88e-5,0.182651 -0.1467352,0.330723 -0.3277364,0.330723 z"
       style="fill:#c83771;stroke-width:0.293992" />
    <path
       id="XMLID_3066_-5"
       d="M 6.6892017,14.155207 H 5.6910271 c -0.1810024,0 -0.3277328,-0.148081 -0.3277328,-0.330733 0,-0.182658 0.1467304,-0.330728 0.3277328,-0.330728 h 0.9981746 c 0.1810012,0 0.3277387,0.14807 0.3277387,0.330728 3.65e-5,0.182652 -0.1467375,0.330733 -0.3277387,0.330733 z"
       style="fill:#2a7fff;stroke-width:0.293992" />
  </g>
</svg>
