<?xml version="1.0" encoding="UTF-8" standalone="no"?>
<!-- Created with Inkscape (http://www.inkscape.org/) -->

<svg
   width="64"
   height="64"
   viewBox="0 0 16.933333 16.933333"
   version="1.1"
   id="svg1"
   inkscape:version="1.4.2 (unknown)"
   sodipodi:docname="folder-mail.svg"
   xmlns:inkscape="http://www.inkscape.org/namespaces/inkscape"
   xmlns:sodipodi="http://sodipodi.sourceforge.net/DTD/sodipodi-0.dtd"
   xmlns="http://www.w3.org/2000/svg"
   xmlns:svg="http://www.w3.org/2000/svg">
  <sodipodi:namedview
     id="namedview1"
     pagecolor="#ffffff"
     bordercolor="#000000"
     borderopacity="0.25"
     inkscape:showpageshadow="2"
     inkscape:pageopacity="0.0"
     inkscape:pagecheckerboard="0"
     inkscape:deskcolor="#d1d1d1"
     inkscape:document-units="px"
     inkscape:zoom="9.120116"
     inkscape:cx="29.65971"
     inkscape:cy="32.729847"
     inkscape:current-layer="layer1"
     showgrid="true"
     showguides="false">
    <inkscape:grid
       id="grid1"
       units="px"
       originx="0"
       originy="0"
       spacingx="0.26458333"
       spacingy="0.26458333"
       empcolor="#0099e5"
       empopacity="0.30196078"
       color="#0099e5"
       opacity="0.14901961"
       empspacing="5"
       enabled="true"
       visible="true" />
  </sodipodi:namedview>
  <defs
     id="defs1" />
  <g
     inkscape:label="Layer 1"
     inkscape:groupmode="layer"
     id="layer1">
    <g
       id="g1">
      <rect
         x="4.2388601"
         y="1.8520832"
         style="clip-rule:evenodd;opacity:0.2;fill:#000000;fill-opacity:1;fill-rule:evenodd;stroke-width:0.264585"
         width="10.577806"
         height="13.229166"
         id="rect29"
         ry="0.79374999"
         rx="0.79375064" />
      <rect
         x="6.069252"
         y="1.5875"
         style="clip-rule:evenodd;fill:#b4cae4;fill-opacity:1;fill-rule:evenodd;stroke-width:0.264586"
         width="8.4888077"
         height="13.758333"
         id="rect30"
         ry="1.0583332"
         rx="1.0610963" />
      <path
         style="clip-rule:evenodd;opacity:0.2;fill:#000000;fill-opacity:1;fill-rule:evenodd;stroke-width:0.264587"
         d="m 3.2968711,1.3229166 h 9.3779779 c 0.457463,0 0.915849,0.4547565 0.914925,0.9260417 l -0.0038,1.9306298 v 0.7233882 c 0,0.1763808 -0.02845,0.2579736 -0.170053,0.3117151 l -0.315645,0.1198287 c -0.15671,0.059517 -0.237213,0.2082463 -0.237213,0.4213084 v 2.5010489 c 0,0.2130131 0.08056,0.3617956 0.237213,0.4213073 l 0.315641,0.1198295 c 0.1416,0.053739 0.170052,0.1353342 0.170052,0.3117153 v 0.7233873 l -0.0098,5.2481332 c -9.91e-4,0.529165 -0.656369,1.058332 -1.113832,1.058332 -6.8559806,5e-6 -6.0394979,-1e-6 -9.1654905,-1e-6 -0.4746829,0 -0.9149255,-0.454705 -0.9149255,-0.926041 V 2.2489583 c 0,-0.4712862 0.4402943,-0.9260417 0.9149255,-0.9260417 z"
         id="path30"
         sodipodi:nodetypes="ssscsccssccscsssssss" />
      <path
         style="clip-rule:evenodd;fill:#36485c;fill-rule:evenodd;stroke-width:0.264586"
         d="m 3.0321268,1.0583333 h 9.3383202 c 0.503561,0 0.957799,0.4547727 0.95384,0.9260416 l -0.01622,1.930621 0.01622,0.7233861 c 0.0039,0.1763386 -0.0464,0.2579724 -0.196597,0.3117144 l -0.334815,0.119828 c -0.166227,0.059517 -0.25162,0.2082443 -0.25162,0.4213559 v 2.5010416 c 0,0.2130121 0.08545,0.3617926 0.25162,0.4213057 l 0.334815,0.1198293 c 0.1502,0.053738 0.180379,0.1353338 0.180379,0.3117142 v 0.7233853 l 0.01622,5.3804016 c 0.0014,0.471383 -0.47692,0.926042 -0.95384,0.926042 H 3.0321268 c -0.5035079,0 -0.9154606,-0.385628 -0.9154606,-0.856961 V 1.9153476 c 0,-0.4713354 0.4120045,-0.8570143 0.9154606,-0.8570143 z"
         id="path31"
         sodipodi:nodetypes="ssscsccssccscssssss" />
    </g>
    <path
       d="m 7.5946638,10.358728 c 0.4039725,0 0.7846273,0.186672 1.0635896,0.478492 v 7.56e-4 c 0,-0.140128 0.090454,-0.246135 0.2154656,-0.246135 h 0.031745 c 0.1972762,0 0.2367949,0.193909 0.2367949,0.255098 l 7.941e-4,2.177846 c -0.013728,0.142726 0.1413828,0.216501 0.2275363,0.1248 C 9.7054422,12.790545 10.106771,11.30199 9.1620683,10.440158 8.2810366,9.6357292 7.098551,9.7686272 6.469855,10.220227 c -0.6682176,0.481248 -1.095341,1.544228 -0.6804522,2.543262 0.4530829,1.089179 1.7483427,1.414086 2.5192478,1.090037 0.3902473,-0.164258 0.5701591,0.3849 0.1645317,0.564675 -0.611332,0.27182 -2.3150297,0.244069 -3.1107382,-1.192258 -0.5375836,-0.970245 -0.5091412,-2.67702 0.9172483,-3.5612498 1.0902127,-0.676885 2.5286733,-0.489356 3.3958188,0.4543538 0.9061718,0.987481 0.8537508,2.835073 -0.03092,3.553324 -0.400667,0.326636 -0.9956296,0.0092 -0.9913292,-0.466941 l -0.00445,-0.155121 c -0.2789633,0.288016 -0.6501945,0.45694 -1.0541688,0.45694 -0.7991801,0 -1.5027827,-0.733585 -1.5027827,-1.565771 0,-0.841152 0.7036026,-1.582497 1.5027827,-1.582497 z m 1.0052166,1.522685 c -0.030264,-0.609662 -0.4643292,-0.9768 -0.9888483,-0.9768 h -0.019843 c -0.6045518,0 -0.9403961,0.496416 -0.9403961,1.059189 0,0.631032 0.4056231,1.029542 0.9379149,1.029542 0.5941379,0 0.9842212,-0.45315 1.0126616,-0.98921 z"
       id="path1-3"
       style="fill:#8fbcbb;fill-opacity:1;stroke-width:0.291042" />
  </g>
</svg>
