<?xml version="1.0" encoding="UTF-8" standalone="no"?>
<!-- Created with Inkscape (http://www.inkscape.org/) -->

<svg
   width="64"
   height="64"
   viewBox="0 0 16.933333 16.933333"
   version="1.1"
   id="svg1"
   inkscape:version="1.4.2 (unknown)"
   sodipodi:docname="folder-inkscape.svg"
   xmlns:inkscape="http://www.inkscape.org/namespaces/inkscape"
   xmlns:sodipodi="http://sodipodi.sourceforge.net/DTD/sodipodi-0.dtd"
   xmlns="http://www.w3.org/2000/svg"
   xmlns:svg="http://www.w3.org/2000/svg">
  <sodipodi:namedview
     id="namedview1"
     pagecolor="#ffffff"
     bordercolor="#000000"
     borderopacity="0.25"
     inkscape:showpageshadow="2"
     inkscape:pageopacity="0.0"
     inkscape:pagecheckerboard="0"
     inkscape:deskcolor="#d1d1d1"
     inkscape:document-units="px"
     inkscape:zoom="9.1201162"
     inkscape:cx="33.387732"
     inkscape:cy="32.729846"
     inkscape:current-layer="layer1"
     showgrid="true"
     showguides="false">
    <inkscape:grid
       id="grid1"
       units="px"
       originx="0"
       originy="0"
       spacingx="0.26458333"
       spacingy="0.26458333"
       empcolor="#0099e5"
       empopacity="0.30196078"
       color="#0099e5"
       opacity="0.14901961"
       empspacing="5"
       enabled="true"
       visible="true" />
  </sodipodi:namedview>
  <defs
     id="defs1" />
  <g
     inkscape:label="Layer 1"
     inkscape:groupmode="layer"
     id="layer1">
    <g
       id="g1">
      <rect
         x="4.2388601"
         y="1.8520832"
         style="clip-rule:evenodd;opacity:0.2;fill:#000000;fill-opacity:1;fill-rule:evenodd;stroke-width:0.264585"
         width="10.577806"
         height="13.229166"
         id="rect29"
         ry="0.79374999"
         rx="0.79375064" />
      <rect
         x="6.069252"
         y="1.5875"
         style="clip-rule:evenodd;fill:#b4cae4;fill-opacity:1;fill-rule:evenodd;stroke-width:0.264586"
         width="8.4888077"
         height="13.758333"
         id="rect30"
         ry="1.0583332"
         rx="1.0610963" />
      <path
         style="clip-rule:evenodd;opacity:0.2;fill:#000000;fill-opacity:1;fill-rule:evenodd;stroke-width:0.264587"
         d="m 3.2968711,1.3229166 h 9.3779779 c 0.457463,0 0.915849,0.4547565 0.914925,0.9260417 l -0.0038,1.9306298 v 0.7233882 c 0,0.1763808 -0.02845,0.2579736 -0.170053,0.3117151 l -0.315645,0.1198287 c -0.15671,0.059517 -0.237213,0.2082463 -0.237213,0.4213084 v 2.5010489 c 0,0.2130131 0.08056,0.3617956 0.237213,0.4213073 l 0.315641,0.1198295 c 0.1416,0.053739 0.170052,0.1353342 0.170052,0.3117153 v 0.7233873 l -0.0098,5.2481332 c -9.91e-4,0.529165 -0.656369,1.058332 -1.113832,1.058332 -6.8559806,5e-6 -6.0394979,-1e-6 -9.1654905,-1e-6 -0.4746829,0 -0.9149255,-0.454705 -0.9149255,-0.926041 V 2.2489583 c 0,-0.4712862 0.4402943,-0.9260417 0.9149255,-0.9260417 z"
         id="path30"
         sodipodi:nodetypes="ssscsccssccscsssssss" />
      <path
         style="clip-rule:evenodd;fill:#36485c;fill-rule:evenodd;stroke-width:0.264586"
         d="m 3.0321268,1.0583333 h 9.3383202 c 0.503561,0 0.957799,0.4547727 0.95384,0.9260416 l -0.01622,1.930621 0.01622,0.7233861 c 0.0039,0.1763386 -0.0464,0.2579724 -0.196597,0.3117144 l -0.334815,0.119828 c -0.166227,0.059517 -0.25162,0.2082443 -0.25162,0.4213559 v 2.5010416 c 0,0.2130121 0.08545,0.3617926 0.25162,0.4213057 l 0.334815,0.1198293 c 0.1502,0.053738 0.180379,0.1353338 0.180379,0.3117142 v 0.7233853 l 0.01622,5.3804016 c 0.0014,0.471383 -0.47692,0.926042 -0.95384,0.926042 H 3.0321268 c -0.5035079,0 -0.9154606,-0.385628 -0.9154606,-0.856961 V 1.9153476 c 0,-0.4713354 0.4120045,-0.8570143 0.9154606,-0.8570143 z"
         id="path31"
         sodipodi:nodetypes="ssscsccssccscssssss" />
    </g>
    <path
       d="M 7.6417272,9.2604167 C 7.4780963,9.2602963 7.3154089,9.3203734 7.1979831,9.4421704 L 5.2446449,11.467803 c -0.6600978,0.828339 0.4492576,0.732178 0.9248213,0.970784 0.1705863,0.1767 -0.6537316,0.306442 -0.4831467,0.483287 0.1705904,0.176693 1.0307372,0.340211 1.2015933,0.516901 0.1705906,0.176697 -0.3489077,0.364377 -0.1783272,0.541061 0.1705872,0.176689 0.5647843,0.0091 0.6386622,0.417082 0.052645,0.291498 0.7116981,0.125264 1.0336438,-0.113451 0.1705897,-0.17683 -0.326111,-0.159503 -0.1555221,-0.336208 0.4241994,-0.439592 0.819077,-0.160471 0.964228,-0.600949 0.071691,-0.21765 -0.6249987,-0.33495 -0.4541113,-0.511643 0.490827,-0.290478 2.1870308,-0.479726 1.3820578,-1.295415 L 8.0937127,9.4422149 C 7.9698822,9.3217457 7.8053164,9.2607894 7.641669,9.2604604 Z m 0.016591,0.1922676 c 0.1168362,7.274e-4 0.2334201,0.04526 0.3172506,0.1313203 l 0.773446,0.7953114 c 0.073302,0.0759 0.072116,0.222459 0.031104,0.264745 L 8.396516,10.333078 8.3208309,10.794293 8.0004646,10.623045 7.4862112,10.950845 7.316182,10.258493 7.0403977,10.74177 H 6.6194656 c -0.1719066,0 -0.1924869,-0.220993 -0.036285,-0.379259 C 6.8560057,10.064097 7.1688542,9.7602528 7.3389975,9.5840046 7.4245077,9.4954411 7.5414987,9.4520508 7.6583306,9.4526843 Z M 6.7303936,12.547717 c 0.05221,0.03287 0.8417277,0.195554 1.034681,0.227984 0.066895,0.0143 0.019636,0.08417 -0.072573,0.131324 -0.2079633,0.056 -1.2166622,-0.359308 -0.9621649,-0.359308 z m 3.0710103,0.556825 c -0.1588745,0.0058 -0.3155368,0.08742 -0.3587249,0.241646 0,0.100513 0.729892,0.166995 0.729892,-0.02304 -0.05207,-0.152673 -0.2123046,-0.224078 -0.3711676,-0.218532 z m -3.3509409,0.43495 c -0.2290247,-0.0027 -0.4971934,0.168051 -0.2996249,0.341444 0.1730579,0.151629 0.4403316,-0.03844 0.5204693,-0.250044 -0.047154,-0.06349 -0.1312137,-0.09057 -0.2208429,-0.0914 z m 2.8997916,0.01364 c -0.2230676,0.202785 0.024785,0.408379 0.2446798,0.277378 0.049008,-0.05042 -7.933e-4,-0.226978 -0.2446798,-0.277378 z"
       stroke-width="1.96352"
       id="path1-9-7"
       style="fill:#8fbcbb;fill-opacity:1" />
  </g>
</svg>
