<?xml version="1.0" encoding="UTF-8" standalone="no"?>
<!-- Created with Inkscape (http://www.inkscape.org/) -->

<svg
   width="64"
   height="64"
   viewBox="0 0 16.933333 16.933333"
   version="1.1"
   id="svg1"
   inkscape:version="1.4.2 (unknown)"
   sodipodi:docname="folder-blender.svg"
   xmlns:inkscape="http://www.inkscape.org/namespaces/inkscape"
   xmlns:sodipodi="http://sodipodi.sourceforge.net/DTD/sodipodi-0.dtd"
   xmlns="http://www.w3.org/2000/svg"
   xmlns:svg="http://www.w3.org/2000/svg">
  <sodipodi:namedview
     id="namedview1"
     pagecolor="#ffffff"
     bordercolor="#000000"
     borderopacity="0.25"
     inkscape:showpageshadow="2"
     inkscape:pageopacity="0.0"
     inkscape:pagecheckerboard="0"
     inkscape:deskcolor="#d1d1d1"
     inkscape:document-units="px"
     inkscape:zoom="9.1201162"
     inkscape:cx="32.291255"
     inkscape:cy="26.589573"
     inkscape:current-layer="layer1"
     showgrid="true"
     showguides="false">
    <inkscape:grid
       id="grid1"
       units="px"
       originx="0"
       originy="0"
       spacingx="0.26458333"
       spacingy="0.26458333"
       empcolor="#0099e5"
       empopacity="0.30196078"
       color="#0099e5"
       opacity="0.14901961"
       empspacing="5"
       enabled="true"
       visible="true" />
  </sodipodi:namedview>
  <defs
     id="defs1" />
  <g
     inkscape:label="Layer 1"
     inkscape:groupmode="layer"
     id="layer1">
    <g
       id="g1">
      <rect
         x="4.2388601"
         y="1.8520832"
         style="clip-rule:evenodd;opacity:0.2;fill:#000000;fill-opacity:1;fill-rule:evenodd;stroke-width:0.264585"
         width="10.577806"
         height="13.229166"
         id="rect29"
         ry="0.79374999"
         rx="0.79375064" />
      <rect
         x="6.069252"
         y="1.5875"
         style="clip-rule:evenodd;fill:#b4cae4;fill-opacity:1;fill-rule:evenodd;stroke-width:0.264586"
         width="8.4888077"
         height="13.758333"
         id="rect30"
         ry="1.0583332"
         rx="1.0610963" />
      <path
         style="clip-rule:evenodd;opacity:0.2;fill:#000000;fill-opacity:1;fill-rule:evenodd;stroke-width:0.264587"
         d="m 3.2968711,1.3229166 h 9.3779779 c 0.457463,0 0.915849,0.4547565 0.914925,0.9260417 l -0.0038,1.9306298 v 0.7233882 c 0,0.1763808 -0.02845,0.2579736 -0.170053,0.3117151 l -0.315645,0.1198287 c -0.15671,0.059517 -0.237213,0.2082463 -0.237213,0.4213084 v 2.5010489 c 0,0.2130131 0.08056,0.3617956 0.237213,0.4213073 l 0.315641,0.1198295 c 0.1416,0.053739 0.170052,0.1353342 0.170052,0.3117153 v 0.7233873 l -0.0098,5.2481332 c -9.91e-4,0.529165 -0.656369,1.058332 -1.113832,1.058332 -6.8559806,5e-6 -6.0394979,-1e-6 -9.1654905,-1e-6 -0.4746829,0 -0.9149255,-0.454705 -0.9149255,-0.926041 V 2.2489583 c 0,-0.4712862 0.4402943,-0.9260417 0.9149255,-0.9260417 z"
         id="path30"
         sodipodi:nodetypes="ssscsccssccscsssssss" />
      <path
         style="clip-rule:evenodd;fill:#36485c;fill-rule:evenodd;stroke-width:0.264586"
         d="m 3.0321268,1.0583333 h 9.3383202 c 0.503561,0 0.957799,0.4547727 0.95384,0.9260416 l -0.01622,1.930621 0.01622,0.7233861 c 0.0039,0.1763386 -0.0464,0.2579724 -0.196597,0.3117144 l -0.334815,0.119828 c -0.166227,0.059517 -0.25162,0.2082443 -0.25162,0.4213559 v 2.5010416 c 0,0.2130121 0.08545,0.3617926 0.25162,0.4213057 l 0.334815,0.1198293 c 0.1502,0.053738 0.180379,0.1353338 0.180379,0.3117142 v 0.7233853 l 0.01622,5.3804016 c 0.0014,0.471383 -0.47692,0.926042 -0.95384,0.926042 H 3.0321268 c -0.5035079,0 -0.9154606,-0.385628 -0.9154606,-0.856961 V 1.9153476 c 0,-0.4713354 0.4120045,-0.8570143 0.9154606,-0.8570143 z"
         id="path31"
         sodipodi:nodetypes="ssscsccssccscssssss" />
    </g>
    <rect
       x="7.884583"
       y="11.58875"
       width="1.5874996"
       height="1.5875"
       rx="1.5868217"
       fill-opacity="0.9"
       id="rect291"
       ry="1.586822"
       style="fill:#8fbcbb;fill-opacity:1;stroke-width:0.274607" />
    <path
       d="m 7.4727694,9.2604165 c -0.093374,0 -0.1867197,0.036164 -0.2582711,0.1077372 -0.1430964,0.1430923 -0.1430964,0.3734189 0,0.5165354 L 8.2290252,10.899235 H 5.5835546 c -0.2023713,0 -0.3652908,0.162894 -0.3652908,0.365262 0,0.202372 0.1629195,0.365279 0.3652908,0.365279 0.4660297,-2.17e-4 0.8302526,-6.8e-5 1.4354602,0 l -1.8713793,1.870672 c -0.1430974,0.143057 -0.1430974,0.373418 0,0.516536 0.1430973,0.143093 0.3741678,0.143093 0.5172511,0 0.3349953,-0.336804 0.6012005,-0.601624 1.0345037,-1.03449 a 1.8264328,1.8264327 0 0 0 1.806455,1.569583 1.8264328,1.8264327 0 0 0 1.8264247,-1.826443 1.8264328,1.8264327 0 0 0 -0.5357958,-1.290627 l 5.327e-4,-1.48e-4 c 0,0 -1.3970931,-1.393479 -2.0661524,-2.0661536 C 7.6595853,9.2965808 7.5661317,9.2604174 7.4727661,9.2604174 Z M 8.5058453,11.62977 A 1.0958601,1.0958601 0 0 1 9.6017066,12.725634 1.0958601,1.0958601 0 0 1 8.5058453,13.821503 1.0958601,1.0958601 0 0 1 7.4099871,12.725634 1.0958601,1.0958601 0 0 1 8.5058453,11.62977 Z"
       id="path1-2-1-3"
       style="mix-blend-mode:normal;fill:#8fbcbb;fill-opacity:1;stroke-width:0.291039" />
  </g>
</svg>
