<?xml version="1.0" encoding="UTF-8" standalone="no"?>
<!-- Created with Inkscape (http://www.inkscape.org/) -->

<svg
   width="64"
   height="64"
   viewBox="0 0 16.933333 16.933333"
   version="1.1"
   id="svg1"
   inkscape:version="1.4.2 (unknown)"
   sodipodi:docname="folder-appimage.svg"
   xmlns:inkscape="http://www.inkscape.org/namespaces/inkscape"
   xmlns:sodipodi="http://sodipodi.sourceforge.net/DTD/sodipodi-0.dtd"
   xmlns="http://www.w3.org/2000/svg"
   xmlns:svg="http://www.w3.org/2000/svg">
  <sodipodi:namedview
     id="namedview1"
     pagecolor="#ffffff"
     bordercolor="#000000"
     borderopacity="0.25"
     inkscape:showpageshadow="2"
     inkscape:pageopacity="0.0"
     inkscape:pagecheckerboard="0"
     inkscape:deskcolor="#d1d1d1"
     inkscape:document-units="px"
     inkscape:zoom="12.897792"
     inkscape:cx="32.020985"
     inkscape:cy="36.556645"
     inkscape:current-layer="layer1"
     showgrid="true"
     showguides="false">
    <inkscape:grid
       id="grid1"
       units="px"
       originx="0"
       originy="0"
       spacingx="0.26458333"
       spacingy="0.26458333"
       empcolor="#0099e5"
       empopacity="0.30196078"
       color="#0099e5"
       opacity="0.14901961"
       empspacing="5"
       enabled="true"
       visible="true" />
  </sodipodi:namedview>
  <defs
     id="defs1" />
  <g
     inkscape:label="Layer 1"
     inkscape:groupmode="layer"
     id="layer1">
    <g
       id="g1">
      <rect
         x="4.2388601"
         y="1.8520832"
         style="clip-rule:evenodd;opacity:0.2;fill:#000000;fill-opacity:1;fill-rule:evenodd;stroke-width:0.264585"
         width="10.577806"
         height="13.229166"
         id="rect29"
         ry="0.79374999"
         rx="0.79375064" />
      <rect
         x="6.069252"
         y="1.5875"
         style="clip-rule:evenodd;fill:#b4cae4;fill-opacity:1;fill-rule:evenodd;stroke-width:0.264586"
         width="8.4888077"
         height="13.758333"
         id="rect30"
         ry="1.0583332"
         rx="1.0610963" />
      <path
         style="clip-rule:evenodd;opacity:0.2;fill:#000000;fill-opacity:1;fill-rule:evenodd;stroke-width:0.264587"
         d="m 3.2968711,1.3229166 h 9.3779779 c 0.457463,0 0.915849,0.4547565 0.914925,0.9260417 l -0.0038,1.9306298 v 0.7233882 c 0,0.1763808 -0.02845,0.2579736 -0.170053,0.3117151 l -0.315645,0.1198287 c -0.15671,0.059517 -0.237213,0.2082463 -0.237213,0.4213084 v 2.5010489 c 0,0.2130131 0.08056,0.3617956 0.237213,0.4213073 l 0.315641,0.1198295 c 0.1416,0.053739 0.170052,0.1353342 0.170052,0.3117153 v 0.7233873 l -0.0098,5.2481332 c -9.91e-4,0.529165 -0.656369,1.058332 -1.113832,1.058332 -6.8559806,5e-6 -6.0394979,-1e-6 -9.1654905,-1e-6 -0.4746829,0 -0.9149255,-0.454705 -0.9149255,-0.926041 V 2.2489583 c 0,-0.4712862 0.4402943,-0.9260417 0.9149255,-0.9260417 z"
         id="path30"
         sodipodi:nodetypes="ssscsccssccscsssssss" />
      <path
         style="clip-rule:evenodd;fill:#36485c;fill-rule:evenodd;stroke-width:0.264586"
         d="m 3.0321268,1.0583333 h 9.3383202 c 0.503561,0 0.957799,0.4547727 0.95384,0.9260416 l -0.01622,1.930621 0.01622,0.7233861 c 0.0039,0.1763386 -0.0464,0.2579724 -0.196597,0.3117144 l -0.334815,0.119828 c -0.166227,0.059517 -0.25162,0.2082443 -0.25162,0.4213559 v 2.5010416 c 0,0.2130121 0.08545,0.3617926 0.25162,0.4213057 l 0.334815,0.1198293 c 0.1502,0.053738 0.180379,0.1353338 0.180379,0.3117142 v 0.7233853 l 0.01622,5.3804016 c 0.0014,0.471383 -0.47692,0.926042 -0.95384,0.926042 H 3.0321268 c -0.5035079,0 -0.9154606,-0.385628 -0.9154606,-0.856961 V 1.9153476 c 0,-0.4713354 0.4120045,-0.8570143 0.9154606,-0.8570143 z"
         id="path31"
         sodipodi:nodetypes="ssscsccssccscssssss" />
    </g>
    <path
       id="c"
       d="M 6.8449369,10.48084 7.4011334,9.2604165 H 7.9798803 L 9.5343614,12.671225 C 9.23831,12.835255 8.8821861,12.940426 8.5097065,13.000144 L 7.6905009,11.244591 6.8001303,13.152484 c 0.2783763,0.04948 0.5780879,0.07655 0.8903706,0.07655 1.4640037,0 2.6527141,-0.592761 2.6527141,-1.322886 0,-0.401834 -0.3600103,-0.762022 -0.9278273,-1.004692 -0.053116,0.05885 -0.13625,0.09672 -0.2297161,0.09672 -0.1601541,0 -0.2902319,-0.111485 -0.2902319,-0.248749 0,-0.137332 0.1300778,-0.248822 0.2902319,-0.248822 0.1494582,0 0.2727268,0.09703 0.2885151,0.22156 0.7883563,0.299713 1.3031643,0.792557 1.3031643,1.34936 0,0.47345 -0.372217,0.900731 -0.9683056,1.202244 -0.3083972,0.160101 -0.6534723,0.271152 -1.0120509,0.341797 -0.343575,0.07087 -0.7166344,0.109532 -1.1064367,0.109532 -0.3898137,0 -0.7628616,-0.03888 -1.1064366,-0.109532 L 6.1471593,14.551832 H 4.9895971 L 5.5720606,13.273699 C 4.975945,12.972144 4.6037499,12.544883 4.6037499,12.071441 c 0,-0.755586 0.9480785,-1.393428 2.24113,-1.590624 z m 3.5464601,4.071238 H 9.2338312 L 8.8701605,13.772876 c 0.3546232,-0.07457 0.6963115,-0.186622 1.00989,-0.342768 z M 6.7600293,10.667244 c -1.0056499,0.188094 -1.7222502,0.672202 -1.7222502,1.23906 0,0.355515 0.2817637,0.678407 0.7399696,0.916216 z"
       fill="#f9f9f9"
       stroke-width="0.0584901"
       style="fill:#8fbcbb;fill-opacity:1" />
  </g>
</svg>
