<?xml version="1.0" encoding="UTF-8" standalone="no"?>
<!-- Created with Inkscape (http://www.inkscape.org/) -->

<svg
   width="64"
   height="64"
   viewBox="0 0 16.933333 16.933333"
   version="1.1"
   id="svg1"
   inkscape:version="1.4.2 (unknown)"
   sodipodi:docname="folder-games.svg"
   xmlns:inkscape="http://www.inkscape.org/namespaces/inkscape"
   xmlns:sodipodi="http://sodipodi.sourceforge.net/DTD/sodipodi-0.dtd"
   xmlns="http://www.w3.org/2000/svg"
   xmlns:svg="http://www.w3.org/2000/svg">
  <sodipodi:namedview
     id="namedview1"
     pagecolor="#ffffff"
     bordercolor="#000000"
     borderopacity="0.25"
     inkscape:showpageshadow="2"
     inkscape:pageopacity="0.0"
     inkscape:pagecheckerboard="0"
     inkscape:deskcolor="#d1d1d1"
     inkscape:document-units="px"
     inkscape:zoom="9.120116"
     inkscape:cx="28.343938"
     inkscape:cy="48.628767"
     inkscape:current-layer="layer1"
     showgrid="true"
     showguides="false">
    <inkscape:grid
       id="grid1"
       units="px"
       originx="0"
       originy="0"
       spacingx="0.26458333"
       spacingy="0.26458333"
       empcolor="#0099e5"
       empopacity="0.30196078"
       color="#0099e5"
       opacity="0.14901961"
       empspacing="5"
       enabled="true"
       visible="true" />
  </sodipodi:namedview>
  <defs
     id="defs1" />
  <g
     inkscape:label="Layer 1"
     inkscape:groupmode="layer"
     id="layer1">
    <g
       id="g1">
      <rect
         x="4.2388601"
         y="1.8520832"
         style="clip-rule:evenodd;opacity:0.2;fill:#000000;fill-opacity:1;fill-rule:evenodd;stroke-width:0.264585"
         width="10.577806"
         height="13.229166"
         id="rect29"
         ry="0.79374999"
         rx="0.79375064" />
      <rect
         x="6.069252"
         y="1.5875"
         style="clip-rule:evenodd;fill:#b4cae4;fill-opacity:1;fill-rule:evenodd;stroke-width:0.264586"
         width="8.4888077"
         height="13.758333"
         id="rect30"
         ry="1.0583332"
         rx="1.0610963" />
      <path
         style="clip-rule:evenodd;opacity:0.2;fill:#000000;fill-opacity:1;fill-rule:evenodd;stroke-width:0.264587"
         d="m 3.2968711,1.3229166 h 9.3779779 c 0.457463,0 0.915849,0.4547565 0.914925,0.9260417 l -0.0038,1.9306298 v 0.7233882 c 0,0.1763808 -0.02845,0.2579736 -0.170053,0.3117151 l -0.315645,0.1198287 c -0.15671,0.059517 -0.237213,0.2082463 -0.237213,0.4213084 v 2.5010489 c 0,0.2130131 0.08056,0.3617956 0.237213,0.4213073 l 0.315641,0.1198295 c 0.1416,0.053739 0.170052,0.1353342 0.170052,0.3117153 v 0.7233873 l -0.0098,5.2481332 c -9.91e-4,0.529165 -0.656369,1.058332 -1.113832,1.058332 -6.8559806,5e-6 -6.0394979,-1e-6 -9.1654905,-1e-6 -0.4746829,0 -0.9149255,-0.454705 -0.9149255,-0.926041 V 2.2489583 c 0,-0.4712862 0.4402943,-0.9260417 0.9149255,-0.9260417 z"
         id="path30"
         sodipodi:nodetypes="ssscsccssccscsssssss" />
      <path
         style="clip-rule:evenodd;fill:#36485c;fill-rule:evenodd;stroke-width:0.264586"
         d="m 3.0321268,1.0583333 h 9.3383202 c 0.503561,0 0.957799,0.4547727 0.95384,0.9260416 l -0.01622,1.930621 0.01622,0.7233861 c 0.0039,0.1763386 -0.0464,0.2579724 -0.196597,0.3117144 l -0.334815,0.119828 c -0.166227,0.059517 -0.25162,0.2082443 -0.25162,0.4213559 v 2.5010416 c 0,0.2130121 0.08545,0.3617926 0.25162,0.4213057 l 0.334815,0.1198293 c 0.1502,0.053738 0.180379,0.1353338 0.180379,0.3117142 v 0.7233853 l 0.01622,5.3804016 c 0.0014,0.471383 -0.47692,0.926042 -0.95384,0.926042 H 3.0321268 c -0.5035079,0 -0.9154606,-0.385628 -0.9154606,-0.856961 V 1.9153476 c 0,-0.4713354 0.4120045,-0.8570143 0.9154606,-0.8570143 z"
         id="path31"
         sodipodi:nodetypes="ssscsccssccscssssss" />
    </g>
    <path
       fill-rule="evenodd"
       d="M 6.9907585,12.016734 6.7871021,12.219163 V 11.818059 Z M 10.095572,10.43949 h 0.0151 a 0.14142799,0.14057473 0 0 1 0.107488,0.05062 c 0.634543,0.653203 0.971143,2.071134 0.897595,3.021417 a 1.8857066,1.8743298 0 0 1 -0.158396,0.667261 c -0.09709,0.199617 -0.237603,0.329887 -0.426171,0.364556 -0.239483,0.04405 -0.5383692,-0.08153 -0.8985389,-0.445153 L 9.488377,13.955728 A 4.1485541,4.1235251 0 0 1 8.9943217,13.410304 h -2.615475 a 4.0542689,4.0298088 0 0 1 -0.4949976,0.547299 q -0.073542,0.07029 -0.1433137,0.140574 C 5.381308,14.462733 5.0805381,14.588317 4.8419961,14.54333 4.6534257,14.51053 4.5119971,14.377456 4.4148836,14.180651 A 1.8857066,1.8743298 0 0 1 4.2564843,13.512453 c -0.073542,-0.95497 0.2649418,-2.381338 0.9089105,-3.029856 a 0.14142799,0.14057473 0 0 1 0.099943,-0.04217 h 0.015085 c 0.3969414,-0.5426163 1.2879376,-0.5482413 1.6848785,0 h 0.443142 C 7.373558,9.6082227 7.6064425,9.4001717 7.9496409,9.3767417 a 1.8857066,1.8743298 0 0 1 0.3912843,0.03561 c 0.2602276,0.04309 0.5487405,0.08996 0.7533397,-0.110586 a 0.13859941,0.13776322 0 0 1 0.1979994,0 0.14142799,0.14057473 0 0 1 0,0.196804 C 8.9858368,9.8022207 8.6200098,9.7422407 8.2956685,9.6888207 A 1.6028505,1.5931802 0 0 0 7.9656698,9.6560307 C 7.7808706,9.6682207 7.657357,9.8228467 7.6856423,10.44137 h 0.7231684 c 0.3959982,-0.5444843 1.2879377,-0.5463633 1.6839343,0 z m -3.6544968,0.877186 v 0.371115 h 0.372427 c 0.4223983,0 0.4223983,0.634463 0,0.634463 h -0.372427 v 0.37018 c 0,0.41985 -0.6383116,0.41985 -0.6383116,0 v -0.37018 H 5.4303365 c -0.4223981,0 -0.4223981,-0.634463 0,-0.634463 h 0.3724271 v -0.371115 c 0,-0.418917 0.6383116,-0.418917 0.6383116,0 m 2.915302,-0.322384 a 0.2941702,0.29239543 0 1 1 -0.416741,0 0.2922845,0.2905211 0 0 1 0.416741,0 m 0,1.276418 a 0.2941702,0.29239543 0 1 1 -0.416741,0 0.2922845,0.2905211 0 0 1 0.416741,0 m 0.7071408,-0.667261 a 0.2941702,0.29239543 0 1 1 -0.416742,0 0.29511307,0.2933326 0 0 1 0.415796,0 z m -1.4142806,0 a 0.2941702,0.29239543 0 1 1 -0.4167411,0 0.2922845,0.2905211 0 0 1 0.4167411,0 m -2.5193037,-0.438593 0.203656,0.201487 H 5.929106 l 0.2036559,-0.201487 z m -0.8532823,0.852821 0.2017708,0.201486 v -0.401104 l -0.2027137,0.201486 z m 0.8561105,0.850008 0.2027137,-0.20243 H 5.9300489 Z"
       class="cls-1"
       opacity="0.15"
       id="path7"
       style="opacity:1;stroke-width:1.00002;fill:#8fbcbb;fill-opacity:1" />
  </g>
</svg>
