<?xml version="1.0" encoding="UTF-8" standalone="no"?>
<!-- Created with Inkscape (http://www.inkscape.org/) -->

<svg
   width="64"
   height="64"
   viewBox="0 0 16.933333 16.933333"
   version="1.1"
   id="svg1"
   inkscape:version="1.4.2 (unknown)"
   sodipodi:docname="folder-docker.svg"
   xmlns:inkscape="http://www.inkscape.org/namespaces/inkscape"
   xmlns:sodipodi="http://sodipodi.sourceforge.net/DTD/sodipodi-0.dtd"
   xmlns="http://www.w3.org/2000/svg"
   xmlns:svg="http://www.w3.org/2000/svg">
  <sodipodi:namedview
     id="namedview1"
     pagecolor="#ffffff"
     bordercolor="#000000"
     borderopacity="0.25"
     inkscape:showpageshadow="2"
     inkscape:pageopacity="0.0"
     inkscape:pagecheckerboard="0"
     inkscape:deskcolor="#d1d1d1"
     inkscape:document-units="px"
     inkscape:zoom="18.240232"
     inkscape:cx="28.727705"
     inkscape:cy="40.706719"
     inkscape:current-layer="layer1"
     showgrid="true"
     showguides="false">
    <inkscape:grid
       id="grid1"
       units="px"
       originx="0"
       originy="0"
       spacingx="0.26458333"
       spacingy="0.26458333"
       empcolor="#0099e5"
       empopacity="0.30196078"
       color="#0099e5"
       opacity="0.14901961"
       empspacing="5"
       enabled="true"
       visible="true" />
  </sodipodi:namedview>
  <defs
     id="defs1" />
  <g
     inkscape:label="Layer 1"
     inkscape:groupmode="layer"
     id="layer1">
    <g
       id="g1">
      <rect
         x="4.2388601"
         y="1.8520832"
         style="clip-rule:evenodd;opacity:0.2;fill:#000000;fill-opacity:1;fill-rule:evenodd;stroke-width:0.264585"
         width="10.577806"
         height="13.229166"
         id="rect29"
         ry="0.79374999"
         rx="0.79375064" />
      <rect
         x="6.069252"
         y="1.5875"
         style="clip-rule:evenodd;fill:#b4cae4;fill-opacity:1;fill-rule:evenodd;stroke-width:0.264586"
         width="8.4888077"
         height="13.758333"
         id="rect30"
         ry="1.0583332"
         rx="1.0610963" />
      <path
         style="clip-rule:evenodd;opacity:0.2;fill:#000000;fill-opacity:1;fill-rule:evenodd;stroke-width:0.264587"
         d="m 3.2968711,1.3229166 h 9.3779779 c 0.457463,0 0.915849,0.4547565 0.914925,0.9260417 l -0.0038,1.9306298 v 0.7233882 c 0,0.1763808 -0.02845,0.2579736 -0.170053,0.3117151 l -0.315645,0.1198287 c -0.15671,0.059517 -0.237213,0.2082463 -0.237213,0.4213084 v 2.5010489 c 0,0.2130131 0.08056,0.3617956 0.237213,0.4213073 l 0.315641,0.1198295 c 0.1416,0.053739 0.170052,0.1353342 0.170052,0.3117153 v 0.7233873 l -0.0098,5.2481332 c -9.91e-4,0.529165 -0.656369,1.058332 -1.113832,1.058332 -6.8559806,5e-6 -6.0394979,-1e-6 -9.1654905,-1e-6 -0.4746829,0 -0.9149255,-0.454705 -0.9149255,-0.926041 V 2.2489583 c 0,-0.4712862 0.4402943,-0.9260417 0.9149255,-0.9260417 z"
         id="path30"
         sodipodi:nodetypes="ssscsccssccscsssssss" />
      <path
         style="clip-rule:evenodd;fill:#36485c;fill-rule:evenodd;stroke-width:0.264586"
         d="m 3.0321268,1.0583333 h 9.3383202 c 0.503561,0 0.957799,0.4547727 0.95384,0.9260416 l -0.01622,1.930621 0.01622,0.7233861 c 0.0039,0.1763386 -0.0464,0.2579724 -0.196597,0.3117144 l -0.334815,0.119828 c -0.166227,0.059517 -0.25162,0.2082443 -0.25162,0.4213559 v 2.5010416 c 0,0.2130121 0.08545,0.3617926 0.25162,0.4213057 l 0.334815,0.1198293 c 0.1502,0.053738 0.180379,0.1353338 0.180379,0.3117142 v 0.7233853 l 0.01622,5.3804016 c 0.0014,0.471383 -0.47692,0.926042 -0.95384,0.926042 H 3.0321268 c -0.5035079,0 -0.9154606,-0.385628 -0.9154606,-0.856961 V 1.9153476 c 0,-0.4713354 0.4120045,-0.8570143 0.9154606,-0.8570143 z"
         id="path31"
         sodipodi:nodetypes="ssscsccssccscssssss" />
    </g>
    <g
       id="g2"
       transform="matrix(0.83333393,0,0,0.83333393,1.2523585,-10.142375)"
       style="fill:#8fbcbb;fill-opacity:1;stroke-width:1.19998">
      <path
         d="m 6.4197926,29.633321 c -1.4791905,0 -2.3981258,-1.115164 -2.3981258,-2.910416 0,-0.1461 0.1193188,-0.264577 0.2664602,-0.264577 h 4.3010632 c -0.025173,-0.101685 -0.037726,-0.202696 -0.037726,-0.302451 0,-0.673992 0.5779164,-1.195647 0.602642,-1.217634 0.1009648,-0.08991 0.2544957,-0.08991 0.3554525,0 0.024729,0.02201 0.6026573,0.543642 0.6026573,1.217634 0,0.02598 -5.16e-4,0.05206 -0.0024,0.07816 0.707256,-0.04274 1.28206,0.570523 1.304972,0.595844 0.09054,0.100515 0.09054,0.252435 0,0.352953 -0.02216,0.0244 -0.547222,0.598411 -1.226371,0.598411 -0.173048,0 -0.3484219,-0.03658 -0.5243326,-0.109034 -0.5177482,1.104842 -1.901172,1.961117 -3.2437481,1.961117 z M 4.5638295,26.987497 c 0.049821,0.723599 0.3428241,2.116653 1.8559631,2.116653 1.2218159,0 2.5269353,-0.86182 2.8498544,-1.881919 0.025015,-0.07842 0.085081,-0.140939 0.1626367,-0.169228 0.078585,-0.02834 0.1641999,-0.01887 0.234469,0.0252 0.1831582,0.115365 0.3585643,0.17389 0.5214543,0.17389 0.243562,0 0.472298,-0.130094 0.627644,-0.24599 -0.154841,-0.11562 -0.383303,-0.245446 -0.627644,-0.245446 -0.104613,0 -0.2149298,0.02556 -0.3372274,0.07815 -0.1001923,0.04328 -0.2170362,0.02096 -0.2943056,-0.05566 -0.077272,-0.07674 -0.099652,-0.192481 -0.056194,-0.292227 0.053079,-0.121574 0.078843,-0.231116 0.078843,-0.334997 0,-0.241717 -0.1311568,-0.468833 -0.2477241,-0.62309 -0.1166038,0.153858 -0.2472246,0.380576 -0.2472246,0.623069 0,0.137205 0.043203,0.285247 0.1285407,0.439894 0.045276,0.08203 0.043446,0.181508 -0.00447,0.261986 -0.047889,0.08038 -0.1350463,0.129735 -0.2292307,0.129735 z"
         id="path2-7-3"
         style="fill:#8fbcbb;fill-opacity:1;stroke-width:0.317501" />
      <g
         id="g31"
         style="fill:#8fbcbb;fill-opacity:1;stroke-width:1.00001"
         transform="matrix(0.31749939,0,0,0.31749939,-1.9473204,13.758351)">
        <g
           id="g30"
           style="fill:#8fbcbb;fill-opacity:1;stroke-width:1.00001">
          <path
             d="m 31.388609,39.166679 h -2.51772 c -0.463431,0 -0.839229,-0.373179 -0.839229,-0.833356 v -2.499996 c 0,-0.460168 0.375798,-0.833325 0.839229,-0.833325 h 2.51772 c 0.463855,0 0.839232,0.373157 0.839232,0.833325 v 2.499996 c 0,0.460177 -0.375377,0.833356 -0.839232,0.833356 z m -1.678488,-1.666676 h 0.83926 V 36.66668 h -0.83926 z"
             id="path4-5-6"
             style="fill:#8fbcbb;fill-opacity:1;stroke-width:2.41624" />
          <path
             d="M 23.835448,39.166679 H 21.31772 c -0.463426,0 -0.839225,-0.373179 -0.839225,-0.833356 v -2.499996 c 0,-0.460168 0.375799,-0.833325 0.839225,-0.833325 h 2.517728 c 0.463428,0 0.83923,0.373157 0.83923,0.833325 v 2.499996 c 0,0.460177 -0.375802,0.833356 -0.83923,0.833356 z m -1.678489,-1.666676 h 0.839256 V 36.66668 h -0.839256 z"
             id="path6-3-7"
             style="fill:#8fbcbb;fill-opacity:1;stroke-width:2.41624" />
          <path
             d="m 26.353169,36.66668 h -2.517721 c -0.463434,0 -0.839233,-0.373174 -0.839233,-0.833353 v -2.500002 c 0,-0.460168 0.375799,-0.833324 0.839233,-0.833324 h 2.517721 c 0.463426,0 0.839229,0.373156 0.839229,0.833324 v 2.500002 c 0,0.460179 -0.375803,0.833353 -0.839229,0.833353 z m -1.678491,-1.666678 h 0.83926 v -0.833323 h -0.83926 z"
             id="path8-5-5"
             style="fill:#8fbcbb;fill-opacity:1;stroke-width:2.41624" />
          <path
             d="m 26.353169,39.166679 h -2.517721 c -0.463434,0 -0.839233,-0.373179 -0.839233,-0.833356 v -2.499996 c 0,-0.460168 0.375799,-0.833325 0.839233,-0.833325 h 2.517721 c 0.463426,0 0.839229,0.373157 0.839229,0.833325 v 2.499996 c 0,0.460177 -0.375803,0.833356 -0.839229,0.833356 z m -1.678491,-1.666676 h 0.83926 V 36.66668 h -0.83926 z"
             id="path10-5-6-3"
             style="fill:#8fbcbb;fill-opacity:1;stroke-width:2.41624" />
          <path
             d="m 28.870889,34.166679 h -2.51772 c -0.463433,0 -0.839231,-0.373174 -0.839231,-0.833354 V 30.833324 C 25.513938,30.373157 25.889736,30 26.353169,30 h 2.51772 c 0.463424,0 0.839232,0.373157 0.839232,0.833324 v 2.500001 c 0,0.46018 -0.375808,0.833354 -0.839232,0.833354 z M 27.192398,32.500001 H 28.03166 V 31.66668 h -0.839262 z"
             id="path12-2-5"
             style="fill:#8fbcbb;fill-opacity:1;stroke-width:2.41624" />
          <path
             d="m 28.870889,36.66668 h -2.51772 c -0.463433,0 -0.839231,-0.373174 -0.839231,-0.833353 v -2.500002 c 0,-0.460168 0.375798,-0.833324 0.839231,-0.833324 h 2.51772 c 0.463424,0 0.839232,0.373156 0.839232,0.833324 v 2.500002 c 0,0.460179 -0.375808,0.833353 -0.839232,0.833353 z m -1.678491,-1.666678 h 0.839262 v -0.833323 h -0.839262 z"
             id="path14-9-6"
             style="fill:#8fbcbb;fill-opacity:1;stroke-width:2.41624" />
          <path
             d="m 28.870889,39.166679 h -2.51772 c -0.463433,0 -0.839231,-0.373179 -0.839231,-0.833356 v -2.499996 c 0,-0.460168 0.375798,-0.833325 0.839231,-0.833325 h 2.51772 c 0.463424,0 0.839232,0.373157 0.839232,0.833325 v 2.499996 c 0,0.460177 -0.375808,0.833356 -0.839232,0.833356 z M 27.192398,37.500003 H 28.03166 V 36.66668 h -0.839262 z"
             id="path16-1-2"
             style="fill:#8fbcbb;fill-opacity:1;stroke-width:2.41624" />
        </g>
      </g>
      <ellipse
         cx="5.4871254"
         cy="27.648785"
         id="circle18-2-9"
         style="fill:#8fbcbb;fill-opacity:1;stroke-width:0.767166"
         rx="0.39968777"
         ry="0.39687419" />
    </g>
  </g>
</svg>
