<?xml version="1.0" encoding="UTF-8" standalone="no"?>
<!-- Created with Inkscape (http://www.inkscape.org/) -->

<svg
   width="64"
   height="64"
   viewBox="0 0 16.933333 16.933333"
   version="1.1"
   id="svg1"
   inkscape:version="1.4.2 (unknown)"
   sodipodi:docname="folder-reddit.svg"
   xmlns:inkscape="http://www.inkscape.org/namespaces/inkscape"
   xmlns:sodipodi="http://sodipodi.sourceforge.net/DTD/sodipodi-0.dtd"
   xmlns="http://www.w3.org/2000/svg"
   xmlns:svg="http://www.w3.org/2000/svg">
  <sodipodi:namedview
     id="namedview1"
     pagecolor="#ffffff"
     bordercolor="#000000"
     borderopacity="0.25"
     inkscape:showpageshadow="2"
     inkscape:pageopacity="0.0"
     inkscape:pagecheckerboard="0"
     inkscape:deskcolor="#d1d1d1"
     inkscape:document-units="px"
     inkscape:zoom="12.897792"
     inkscape:cx="28.415716"
     inkscape:cy="42.371594"
     inkscape:current-layer="layer1"
     showgrid="true"
     showguides="false">
    <inkscape:grid
       id="grid1"
       units="px"
       originx="0"
       originy="0"
       spacingx="0.26458333"
       spacingy="0.26458333"
       empcolor="#0099e5"
       empopacity="0.30196078"
       color="#0099e5"
       opacity="0.14901961"
       empspacing="5"
       enabled="true"
       visible="true" />
  </sodipodi:namedview>
  <defs
     id="defs1" />
  <g
     inkscape:label="Layer 1"
     inkscape:groupmode="layer"
     id="layer1">
    <g
       id="g1">
      <rect
         x="4.2388601"
         y="1.8520832"
         style="clip-rule:evenodd;opacity:0.2;fill:#000000;fill-opacity:1;fill-rule:evenodd;stroke-width:0.264585"
         width="10.577806"
         height="13.229166"
         id="rect29"
         ry="0.79374999"
         rx="0.79375064" />
      <rect
         x="6.069252"
         y="1.5875"
         style="clip-rule:evenodd;fill:#b4cae4;fill-opacity:1;fill-rule:evenodd;stroke-width:0.264586"
         width="8.4888077"
         height="13.758333"
         id="rect30"
         ry="1.0583332"
         rx="1.0610963" />
      <path
         style="clip-rule:evenodd;opacity:0.2;fill:#000000;fill-opacity:1;fill-rule:evenodd;stroke-width:0.264587"
         d="m 3.2968711,1.3229166 h 9.3779779 c 0.457463,0 0.915849,0.4547565 0.914925,0.9260417 l -0.0038,1.9306298 v 0.7233882 c 0,0.1763808 -0.02845,0.2579736 -0.170053,0.3117151 l -0.315645,0.1198287 c -0.15671,0.059517 -0.237213,0.2082463 -0.237213,0.4213084 v 2.5010489 c 0,0.2130131 0.08056,0.3617956 0.237213,0.4213073 l 0.315641,0.1198295 c 0.1416,0.053739 0.170052,0.1353342 0.170052,0.3117153 v 0.7233873 l -0.0098,5.2481332 c -9.91e-4,0.529165 -0.656369,1.058332 -1.113832,1.058332 -6.8559806,5e-6 -6.0394979,-1e-6 -9.1654905,-1e-6 -0.4746829,0 -0.9149255,-0.454705 -0.9149255,-0.926041 V 2.2489583 c 0,-0.4712862 0.4402943,-0.9260417 0.9149255,-0.9260417 z"
         id="path30"
         sodipodi:nodetypes="ssscsccssccscsssssss" />
      <path
         style="clip-rule:evenodd;fill:#36485c;fill-rule:evenodd;stroke-width:0.264586"
         d="m 3.0321268,1.0583333 h 9.3383202 c 0.503561,0 0.957799,0.4547727 0.95384,0.9260416 l -0.01622,1.930621 0.01622,0.7233861 c 0.0039,0.1763386 -0.0464,0.2579724 -0.196597,0.3117144 l -0.334815,0.119828 c -0.166227,0.059517 -0.25162,0.2082443 -0.25162,0.4213559 v 2.5010416 c 0,0.2130121 0.08545,0.3617926 0.25162,0.4213057 l 0.334815,0.1198293 c 0.1502,0.053738 0.180379,0.1353338 0.180379,0.3117142 v 0.7233853 l 0.01622,5.3804016 c 0.0014,0.471383 -0.47692,0.926042 -0.95384,0.926042 H 3.0321268 c -0.5035079,0 -0.9154606,-0.385628 -0.9154606,-0.856961 V 1.9153476 c 0,-0.4713354 0.4120045,-0.8570143 0.9154606,-0.8570143 z"
         id="path31"
         sodipodi:nodetypes="ssscsccssccscssssss" />
    </g>
    <path
       d="m 8.0444381,9.2612456 c -0.07927,-1.274e-4 -0.1472038,0.055651 -0.1585725,0.1330278 l -0.270922,1.7382876 c -0.6225467,0.01826 -1.2130979,0.191483 -1.6585881,0.486314 -0.118041,-0.114483 -0.2769659,-0.178577 -0.4426437,-0.178577 -0.3491408,0 -0.6321494,0.278716 -0.6321494,0.622159 0,0.232125 0.1315477,0.444977 0.3406063,0.552102 -0.015608,0.07495 -0.02384,0.150558 -0.024556,0.226209 0,0.94528 1.1320382,1.711307 2.5282399,1.711307 1.3961904,0 2.5282314,-0.766027 2.5282314,-1.711307 -1.14e-4,-0.07562 -0.0095,-0.150911 -0.02515,-0.225858 0.209742,-0.106792 0.341303,-0.320021 0.341303,-0.552453 0,-0.343443 -0.283016,-0.622159 -0.6321481,-0.622159 -0.1660311,0 -0.3253064,0.06449 -0.4436931,0.179273 C 9.0734183,11.33948 8.5209063,11.168281 7.9328466,11.134999 L 8.172845,9.6057422 8.99448,9.7856833 c 0.029156,0.2335337 0.2303945,0.4092777 0.469682,0.4096267 0.2616612,0 0.4739164,-0.2089949 0.4739164,-0.4666734 0,-0.2580341 -0.2122552,-0.4670352 -0.4739164,-0.4670352 -0.1632046,7.43e-5 -0.3146572,0.082939 -0.4014096,0.2187963 l -0.98552,-0.2149512 c -0.010722,-5.562e-4 -0.021688,-0.00503 -0.032714,-0.00503 z M 6.9358675,12.062457 c 0.2616718,0 0.4739352,0.209 0.4739352,0.467056 0,0.257667 -0.2122634,0.466726 -0.4739352,0.466726 -0.2620338,0 -0.4742977,-0.209059 -0.4742977,-0.466726 0,-0.258056 0.2122639,-0.467056 0.4742977,-0.467056 z m 1.5800112,0 c 0.2620309,0 0.4742828,0.209 0.4742828,0.467056 0,0.257667 -0.2122519,0.466726 -0.4742828,0.466726 -0.2616729,0 -0.4739344,-0.209059 -0.4739344,-0.466726 0,-0.258056 0.2122615,-0.467056 0.4739344,-0.467056 z m 0.3075488,1.395226 c 0.1468283,-0.01241 0.2296737,0.162409 0.12585,0.265333 0,0 -0.1034554,0.108178 -0.3004315,0.197772 -0.1973184,0.08932 -0.4998851,0.172303 -0.9265235,0.165287 -0.4245235,-0.0079 -0.721752,-0.08998 -0.9169399,-0.17472 -0.1948394,-0.0844 -0.2986558,-0.184169 -0.2986558,-0.184169 -0.096703,-0.09345 -0.036987,-0.255575 0.098133,-0.266049 0.00533,-7.7e-5 0.010319,-1.04e-4 0.015619,-1.04e-4 0.042662,1.04e-4 0.083554,0.01828 0.1127055,0.04867 0,0 0.045152,0.05011 0.200878,0.117314 0.1553778,0.06752 0.4099264,0.140038 0.7953435,0.147045 0.3832649,0.0071 0.6324957,-0.06581 0.7857337,-0.135497 0.1535891,-0.06927 0.1987418,-0.123937 0.1987418,-0.123937 0.027371,-0.03256 0.066853,-0.05291 0.1095194,-0.05641 z"
       id="path1-3"
       style="fill:#8fbcbb;fill-opacity:1;stroke-width:0.291041" />
  </g>
</svg>
