<?xml version="1.0" encoding="UTF-8" standalone="no"?>
<!-- Created with Inkscape (http://www.inkscape.org/) -->

<svg
   width="64"
   height="64"
   viewBox="0 0 16.933333 16.933333"
   version="1.1"
   id="svg1"
   inkscape:version="1.4.2 (unknown)"
   sodipodi:docname="folder-script.svg"
   xmlns:inkscape="http://www.inkscape.org/namespaces/inkscape"
   xmlns:sodipodi="http://sodipodi.sourceforge.net/DTD/sodipodi-0.dtd"
   xmlns="http://www.w3.org/2000/svg"
   xmlns:svg="http://www.w3.org/2000/svg">
  <sodipodi:namedview
     id="namedview1"
     pagecolor="#ffffff"
     bordercolor="#000000"
     borderopacity="0.25"
     inkscape:showpageshadow="2"
     inkscape:pageopacity="0.0"
     inkscape:pagecheckerboard="0"
     inkscape:deskcolor="#d1d1d1"
     inkscape:document-units="px"
     inkscape:zoom="9.120116"
     inkscape:cx="28.124642"
     inkscape:cy="33.607029"
     inkscape:current-layer="layer1"
     showgrid="true"
     showguides="false">
    <inkscape:grid
       id="grid1"
       units="px"
       originx="0"
       originy="0"
       spacingx="0.26458333"
       spacingy="0.26458333"
       empcolor="#0099e5"
       empopacity="0.30196078"
       color="#0099e5"
       opacity="0.14901961"
       empspacing="5"
       enabled="true"
       visible="true" />
  </sodipodi:namedview>
  <defs
     id="defs1" />
  <g
     inkscape:label="Layer 1"
     inkscape:groupmode="layer"
     id="layer1">
    <g
       id="g1">
      <rect
         x="4.2388601"
         y="1.8520832"
         style="clip-rule:evenodd;opacity:0.2;fill:#000000;fill-opacity:1;fill-rule:evenodd;stroke-width:0.264585"
         width="10.577806"
         height="13.229166"
         id="rect29"
         ry="0.79374999"
         rx="0.79375064" />
      <rect
         x="6.069252"
         y="1.5875"
         style="clip-rule:evenodd;fill:#b4cae4;fill-opacity:1;fill-rule:evenodd;stroke-width:0.264586"
         width="8.4888077"
         height="13.758333"
         id="rect30"
         ry="1.0583332"
         rx="1.0610963" />
      <path
         style="clip-rule:evenodd;opacity:0.2;fill:#000000;fill-opacity:1;fill-rule:evenodd;stroke-width:0.264587"
         d="m 3.2968711,1.3229166 h 9.3779779 c 0.457463,0 0.915849,0.4547565 0.914925,0.9260417 l -0.0038,1.9306298 v 0.7233882 c 0,0.1763808 -0.02845,0.2579736 -0.170053,0.3117151 l -0.315645,0.1198287 c -0.15671,0.059517 -0.237213,0.2082463 -0.237213,0.4213084 v 2.5010489 c 0,0.2130131 0.08056,0.3617956 0.237213,0.4213073 l 0.315641,0.1198295 c 0.1416,0.053739 0.170052,0.1353342 0.170052,0.3117153 v 0.7233873 l -0.0098,5.2481332 c -9.91e-4,0.529165 -0.656369,1.058332 -1.113832,1.058332 -6.8559806,5e-6 -6.0394979,-1e-6 -9.1654905,-1e-6 -0.4746829,0 -0.9149255,-0.454705 -0.9149255,-0.926041 V 2.2489583 c 0,-0.4712862 0.4402943,-0.9260417 0.9149255,-0.9260417 z"
         id="path30"
         sodipodi:nodetypes="ssscsccssccscsssssss" />
      <path
         style="clip-rule:evenodd;fill:#36485c;fill-rule:evenodd;stroke-width:0.264586"
         d="m 3.0321268,1.0583333 h 9.3383202 c 0.503561,0 0.957799,0.4547727 0.95384,0.9260416 l -0.01622,1.930621 0.01622,0.7233861 c 0.0039,0.1763386 -0.0464,0.2579724 -0.196597,0.3117144 l -0.334815,0.119828 c -0.166227,0.059517 -0.25162,0.2082443 -0.25162,0.4213559 v 2.5010416 c 0,0.2130121 0.08545,0.3617926 0.25162,0.4213057 l 0.334815,0.1198293 c 0.1502,0.053738 0.180379,0.1353338 0.180379,0.3117142 v 0.7233853 l 0.01622,5.3804016 c 0.0014,0.471383 -0.47692,0.926042 -0.95384,0.926042 H 3.0321268 c -0.5035079,0 -0.9154606,-0.385628 -0.9154606,-0.856961 V 1.9153476 c 0,-0.4713354 0.4120045,-0.8570143 0.9154606,-0.8570143 z"
         id="path31"
         sodipodi:nodetypes="ssscsccssccscssssss" />
    </g>
    <path
       d="m 5.6157805,9.7895828 c -0.4947042,0 -0.8929681,0.3982642 -0.8929681,0.8929692 v 2.976563 c 0,0.4947 0.3982639,0.892968 0.8929681,0.892968 h 4.1671873 c 0.4947062,0 0.8929692,-0.398268 0.8929692,-0.892968 v -2.976563 c 0,-0.494705 -0.398263,-0.8929692 -0.8929692,-0.8929692 z m 0.5953123,0.8929692 h 0.2976556 v 0.297654 h 0.1488283 c 0.1934762,0 0.3572467,0.125019 0.4197543,0.297659 H 6.6575767 6.5087484 v 0.297653 h 0.1488283 c 0.2470548,0 0.446484,0.19943 0.446484,0.446489 0,0.247051 -0.1994292,0.44648 -0.446484,0.44648 H 6.5087484 v 0.297657 H 6.2110928 V 12.468487 H 6.0622647 c -0.1934765,0 -0.3572468,-0.125012 -0.4197545,-0.297653 H 6.0622647 6.2110928 V 11.873175 H 6.0622647 c -0.2470545,0 -0.4464842,-0.199429 -0.4464842,-0.446482 0,-0.247057 0.1994297,-0.446487 0.4464842,-0.446487 h 0.1488281 z m -0.1563854,0.595313 c -0.079612,0.0039 -0.1412707,0.06809 -0.1412707,0.148828 0,0.08334 0.065486,0.148825 0.148828,0.148825 H 6.2110928 V 11.277865 H 6.0622647 c -0.0026,0 -0.00499,-1.29e-4 -0.00756,0 z m 0.4540441,0.59531 v 0.297659 h 0.1488284 c 0.08334,0.003 0.1488278,-0.06549 0.1488278,-0.148827 0,-0.08334 -0.065486,-0.148832 -0.1488278,-0.148832 z m 0.8929686,0.595312 H 8.592344 v 0.297657 H 7.4017201 Z"
       fill="#ffffff"
       opacity="0.75"
       stroke-linecap="round"
       stroke-linejoin="round"
       style="opacity:1;fill:#8fbcbb;fill-opacity:1;stroke-width:0.264585;paint-order:stroke fill markers"
       id="path4" />
  </g>
</svg>
