<?xml version="1.0" encoding="UTF-8" standalone="no"?>
<!-- Created with Inkscape (http://www.inkscape.org/) -->

<svg
   width="64"
   height="64"
   viewBox="0 0 16.933333 16.933333"
   version="1.1"
   id="svg1"
   inkscape:version="1.4.2 (unknown)"
   sodipodi:docname="folder-encrypted.svg"
   xmlns:inkscape="http://www.inkscape.org/namespaces/inkscape"
   xmlns:sodipodi="http://sodipodi.sourceforge.net/DTD/sodipodi-0.dtd"
   xmlns="http://www.w3.org/2000/svg"
   xmlns:svg="http://www.w3.org/2000/svg">
  <sodipodi:namedview
     id="namedview1"
     pagecolor="#ffffff"
     bordercolor="#000000"
     borderopacity="0.25"
     inkscape:showpageshadow="2"
     inkscape:pageopacity="0.0"
     inkscape:pagecheckerboard="0"
     inkscape:deskcolor="#d1d1d1"
     inkscape:document-units="px"
     inkscape:zoom="12.897792"
     inkscape:cx="29.11351"
     inkscape:cy="34.850926"
     inkscape:current-layer="layer1"
     showgrid="true"
     showguides="false">
    <inkscape:grid
       id="grid1"
       units="px"
       originx="0"
       originy="0"
       spacingx="0.26458333"
       spacingy="0.26458333"
       empcolor="#0099e5"
       empopacity="0.30196078"
       color="#0099e5"
       opacity="0.14901961"
       empspacing="5"
       enabled="true"
       visible="true" />
  </sodipodi:namedview>
  <defs
     id="defs1" />
  <g
     inkscape:label="Layer 1"
     inkscape:groupmode="layer"
     id="layer1">
    <g
       id="g1">
      <rect
         x="4.2388601"
         y="1.8520832"
         style="clip-rule:evenodd;opacity:0.2;fill:#000000;fill-opacity:1;fill-rule:evenodd;stroke-width:0.264585"
         width="10.577806"
         height="13.229166"
         id="rect29"
         ry="0.79374999"
         rx="0.79375064" />
      <rect
         x="6.069252"
         y="1.5875"
         style="clip-rule:evenodd;fill:#b4cae4;fill-opacity:1;fill-rule:evenodd;stroke-width:0.264586"
         width="8.4888077"
         height="13.758333"
         id="rect30"
         ry="1.0583332"
         rx="1.0610963" />
      <path
         style="clip-rule:evenodd;opacity:0.2;fill:#000000;fill-opacity:1;fill-rule:evenodd;stroke-width:0.264587"
         d="m 3.2968711,1.3229166 h 9.3779779 c 0.457463,0 0.915849,0.4547565 0.914925,0.9260417 l -0.0038,1.9306298 v 0.7233882 c 0,0.1763808 -0.02845,0.2579736 -0.170053,0.3117151 l -0.315645,0.1198287 c -0.15671,0.059517 -0.237213,0.2082463 -0.237213,0.4213084 v 2.5010489 c 0,0.2130131 0.08056,0.3617956 0.237213,0.4213073 l 0.315641,0.1198295 c 0.1416,0.053739 0.170052,0.1353342 0.170052,0.3117153 v 0.7233873 l -0.0098,5.2481332 c -9.91e-4,0.529165 -0.656369,1.058332 -1.113832,1.058332 -6.8559806,5e-6 -6.0394979,-1e-6 -9.1654905,-1e-6 -0.4746829,0 -0.9149255,-0.454705 -0.9149255,-0.926041 V 2.2489583 c 0,-0.4712862 0.4402943,-0.9260417 0.9149255,-0.9260417 z"
         id="path30"
         sodipodi:nodetypes="ssscsccssccscsssssss" />
      <path
         style="clip-rule:evenodd;fill:#36485c;fill-rule:evenodd;stroke-width:0.264586"
         d="m 3.0321268,1.0583333 h 9.3383202 c 0.503561,0 0.957799,0.4547727 0.95384,0.9260416 l -0.01622,1.930621 0.01622,0.7233861 c 0.0039,0.1763386 -0.0464,0.2579724 -0.196597,0.3117144 l -0.334815,0.119828 c -0.166227,0.059517 -0.25162,0.2082443 -0.25162,0.4213559 v 2.5010416 c 0,0.2130121 0.08545,0.3617926 0.25162,0.4213057 l 0.334815,0.1198293 c 0.1502,0.053738 0.180379,0.1353338 0.180379,0.3117142 v 0.7233853 l 0.01622,5.3804016 c 0.0014,0.471383 -0.47692,0.926042 -0.95384,0.926042 H 3.0321268 c -0.5035079,0 -0.9154606,-0.385628 -0.9154606,-0.856961 V 1.9153476 c 0,-0.4713354 0.4120045,-0.8570143 0.9154606,-0.8570143 z"
         id="path31"
         sodipodi:nodetypes="ssscsccssccscssssss" />
    </g>
    <g
       id="g36"
       style="fill:#8fbcbb;fill-opacity:1;stroke-width:1.33988"
       transform="matrix(0.21944852,0,0,0.19472541,1.0194237,4.4516746)">
      <rect
         y="48.246677"
         x="7.6379442"
         height="3.6232996"
         width="3.5172434"
         id="rect4179-2-9-6-5-8-0-0-2-5-9-3-2-6-6"
         style="fill:#8fbcbb;fill-opacity:1;stroke:none;stroke-width:2.76072;stroke-miterlimit:4;stroke-dasharray:none;stroke-opacity:1" />
      <rect
         y="48.246677"
         x="14.672415"
         height="3.6232996"
         width="3.5172434"
         id="rect4179-5-61-4-1-4-1-2-8-9-6-2-0-0-2-7"
         style="fill:#8fbcbb;fill-opacity:1;stroke:none;stroke-width:2.76072;stroke-miterlimit:4;stroke-dasharray:none;stroke-opacity:1" />
      <rect
         y="48.246677"
         x="21.706909"
         height="3.6232996"
         width="3.5172434"
         id="rect4179-5-6-8-7-5-7-0-8-6-1-2-2-7-2-9-5"
         style="fill:#8fbcbb;fill-opacity:1;stroke:none;stroke-width:2.76072;stroke-miterlimit:4;stroke-dasharray:none;stroke-opacity:1" />
      <rect
         y="48.246677"
         x="28.741411"
         height="3.6232996"
         width="3.5172434"
         id="rect4179-5-6-2-7-8-5-4-3-3-2-2-9-8-8-3-1-3"
         style="fill:#8fbcbb;fill-opacity:1;stroke:none;stroke-width:2.76072;stroke-miterlimit:4;stroke-dasharray:none;stroke-opacity:1" />
      <rect
         y="48.246677"
         x="35.77589"
         height="3.6232996"
         width="3.5172434"
         id="rect4179-5-6-2-9-9-4-4-4-0-8-4-7-1-9-6-7-2-5"
         style="fill:#8fbcbb;fill-opacity:1;stroke:none;stroke-width:2.76072;stroke-miterlimit:4;stroke-dasharray:none;stroke-opacity:1" />
      <rect
         y="48.246677"
         x="42.810379"
         height="3.6232996"
         width="3.5172434"
         id="rect4179-5-6-2-9-1-20-5-7-3-4-0-7-0-2-7-8-5-7-6"
         style="fill:#8fbcbb;fill-opacity:1;stroke:none;stroke-width:2.76072;stroke-miterlimit:4;stroke-dasharray:none;stroke-opacity:1" />
      <rect
         y="48.246677"
         x="49.844864"
         height="3.6232996"
         width="3.5172434"
         id="rect4179-5-6-2-9-1-2-2-0-6-0-4-4-9-9-7-3-8-9-0-2"
         style="fill:#8fbcbb;fill-opacity:1;stroke:none;stroke-width:2.76072;stroke-miterlimit:4;stroke-dasharray:none;stroke-opacity:1" />
      <rect
         y="44.623341"
         x="5"
         height="3.6232996"
         width="2.6379313"
         id="rect4179-7-3-5-7-4-0-3-3-0-6-4-2-9-9"
         style="fill:#8fbcbb;fill-opacity:1;stroke:none;stroke-width:2.76072;stroke-miterlimit:4;stroke-dasharray:none;stroke-opacity:1" />
      <rect
         y="44.623341"
         x="11.155186"
         height="3.6232996"
         width="3.5172434"
         id="rect4179-5-5-6-6-8-4-9-9-6-9-1-3-2-3-1"
         style="fill:#8fbcbb;fill-opacity:1;stroke:none;stroke-width:2.76072;stroke-miterlimit:4;stroke-dasharray:none;stroke-opacity:1" />
      <rect
         y="44.623341"
         x="18.189676"
         height="3.6232996"
         width="3.5172434"
         id="rect4179-5-6-9-1-9-6-7-1-2-0-3-2-1-8-6-2"
         style="fill:#8fbcbb;fill-opacity:1;stroke:none;stroke-width:2.76072;stroke-miterlimit:4;stroke-dasharray:none;stroke-opacity:1" />
      <rect
         y="44.623341"
         x="25.224157"
         height="3.6232996"
         width="3.5172434"
         id="rect4179-5-6-2-2-0-3-8-6-9-8-6-6-9-4-9-0-7"
         style="fill:#8fbcbb;fill-opacity:1;stroke:none;stroke-width:2.76072;stroke-miterlimit:4;stroke-dasharray:none;stroke-opacity:1" />
      <rect
         y="44.623341"
         x="32.258644"
         height="3.6232996"
         width="3.5172434"
         id="rect4179-5-6-2-9-2-6-7-8-3-6-3-2-0-3-9-7-6-0"
         style="fill:#8fbcbb;fill-opacity:1;stroke:none;stroke-width:2.76072;stroke-miterlimit:4;stroke-dasharray:none;stroke-opacity:1" />
      <rect
         y="44.623341"
         x="39.293125"
         height="3.6232996"
         width="3.5172434"
         id="rect4179-5-6-2-9-1-8-3-4-4-1-2-0-6-6-1-2-3-2-9"
         style="fill:#8fbcbb;fill-opacity:1;stroke:none;stroke-width:2.76072;stroke-miterlimit:4;stroke-dasharray:none;stroke-opacity:1" />
      <rect
         y="44.623341"
         x="46.327625"
         height="3.6232996"
         width="3.5172434"
         id="rect4179-5-6-2-9-1-2-9-2-5-3-7-5-1-1-2-9-0-6-6-3"
         style="fill:#8fbcbb;fill-opacity:1;stroke:none;stroke-width:2.76072;stroke-miterlimit:4;stroke-dasharray:none;stroke-opacity:1" />
      <rect
         y="44.623341"
         x="53.362083"
         height="3.6232996"
         width="2.6379168"
         id="rect4179-5-6-2-9-1-2-7-7-0-2-1-5-4-7-8-6-4-6-1-1-6"
         style="fill:#8fbcbb;fill-opacity:1;stroke:none;stroke-width:2.76072;stroke-miterlimit:4;stroke-dasharray:none;stroke-opacity:1" />
      <rect
         y="41.000034"
         x="28.741411"
         height="3.6232996"
         width="3.5172434"
         id="rect4179-5-6-2-7-8-5-4-0-1-3-5-9-8-8-8-2-8-0"
         style="fill:#8fbcbb;fill-opacity:1;stroke:none;stroke-width:2.76072;stroke-miterlimit:4;stroke-dasharray:none;stroke-opacity:1" />
      <rect
         y="41.000034"
         x="35.77589"
         height="3.6232996"
         width="3.5172434"
         id="rect4179-5-6-2-9-9-4-4-4-6-7-6-4-2-7-4-9-9-7-6"
         style="fill:#8fbcbb;fill-opacity:1;stroke:none;stroke-width:2.76072;stroke-miterlimit:4;stroke-dasharray:none;stroke-opacity:1" />
      <rect
         y="41.000034"
         x="42.810379"
         height="3.6232996"
         width="3.5172434"
         id="rect4179-5-6-2-9-1-20-5-7-3-8-8-0-9-0-9-5-2-3-9-2"
         style="fill:#8fbcbb;fill-opacity:1;stroke:none;stroke-width:2.76072;stroke-miterlimit:4;stroke-dasharray:none;stroke-opacity:1" />
      <rect
         y="41.000034"
         x="49.844864"
         height="3.6232996"
         width="3.5172434"
         id="rect4179-5-6-2-9-1-2-2-0-6-0-9-5-5-2-2-2-0-6-1-2-6"
         style="fill:#8fbcbb;fill-opacity:1;stroke:none;stroke-width:2.76072;stroke-miterlimit:4;stroke-dasharray:none;stroke-opacity:1" />
      <rect
         y="41"
         x="7.6379886"
         height="3.6232982"
         width="3.5172408"
         id="rect4179-5-6-2-7-8-5-4-0-1-3-5-9-8-8-3-6-9-0-1"
         style="fill:#8fbcbb;fill-opacity:1;stroke:none;stroke-width:2.76073;stroke-miterlimit:4;stroke-dasharray:none;stroke-opacity:1" />
      <rect
         y="41"
         x="14.672441"
         height="3.6232982"
         width="3.5172408"
         id="rect4179-5-6-2-7-8-5-4-0-1-3-5-9-8-8-6-4-4-2-8"
         style="fill:#8fbcbb;fill-opacity:1;stroke:none;stroke-width:2.76073;stroke-miterlimit:4;stroke-dasharray:none;stroke-opacity:1" />
      <rect
         y="41"
         x="21.706839"
         height="3.6232982"
         width="3.5172408"
         id="rect4179-5-6-2-7-8-5-4-0-1-3-5-9-8-8-7-9-7-3-7"
         style="fill:#8fbcbb;fill-opacity:1;stroke:none;stroke-width:2.76073;stroke-miterlimit:4;stroke-dasharray:none;stroke-opacity:1" />
    </g>
    <path
       d="m 7.7390638,8.7312498 c -0.4885978,0 -0.8819466,0.317733 -0.8819466,0.843485 V 10.0294 H 6.6366314 c -0.1221508,0 -0.2204857,0.10461 -0.2204857,0.234606 v 1.407637 c 0,0.129976 0.098336,0.234607 0.2204857,0.234607 h 2.2048599 c 0.1221497,0 0.2204876,-0.104624 0.2204876,-0.234607 v -1.407637 c 0,-0.129972 -0.098339,-0.234606 -0.2204876,-0.234606 H 8.6210084 V 9.5747348 c 0,-0.525518 -0.3933499,-0.843485 -0.8819446,-0.843485 z m 0,0.359727 c 0.244297,0 0.4409693,0.209031 0.4409693,0.469212 V 10.0294 H 7.2980898 V 9.5601888 c 0,-0.260181 0.1966722,-0.469212 0.440974,-0.469212 z"
       id="path1-6"
       sodipodi:nodetypes="sscsssssssscssssccss"
       style="fill:#8fbcbb;fill-opacity:1;stroke-width:0.328572" />
  </g>
</svg>
