<?xml version="1.0" encoding="UTF-8" standalone="no"?>
<!-- Created with Inkscape (http://www.inkscape.org/) -->

<svg
   width="64"
   height="64"
   viewBox="0 0 16.933333 16.933333"
   version="1.1"
   id="svg1"
   inkscape:version="1.4.2 (unknown)"
   sodipodi:docname="folder-paint.svg"
   xmlns:inkscape="http://www.inkscape.org/namespaces/inkscape"
   xmlns:sodipodi="http://sodipodi.sourceforge.net/DTD/sodipodi-0.dtd"
   xmlns="http://www.w3.org/2000/svg"
   xmlns:svg="http://www.w3.org/2000/svg">
  <sodipodi:namedview
     id="namedview1"
     pagecolor="#ffffff"
     bordercolor="#000000"
     borderopacity="0.25"
     inkscape:showpageshadow="2"
     inkscape:pageopacity="0.0"
     inkscape:pagecheckerboard="0"
     inkscape:deskcolor="#d1d1d1"
     inkscape:document-units="px"
     inkscape:zoom="4.560058"
     inkscape:cx="25.657568"
     inkscape:cy="70.722785"
     inkscape:current-layer="layer1"
     showgrid="true"
     showguides="false">
    <inkscape:grid
       id="grid1"
       units="px"
       originx="0"
       originy="0"
       spacingx="0.26458333"
       spacingy="0.26458333"
       empcolor="#0099e5"
       empopacity="0.30196078"
       color="#0099e5"
       opacity="0.14901961"
       empspacing="5"
       enabled="true"
       visible="true" />
  </sodipodi:namedview>
  <defs
     id="defs1" />
  <g
     inkscape:label="Layer 1"
     inkscape:groupmode="layer"
     id="layer1">
    <g
       id="g1">
      <rect
         x="4.2388601"
         y="1.8520832"
         style="clip-rule:evenodd;opacity:0.2;fill:#000000;fill-opacity:1;fill-rule:evenodd;stroke-width:0.264585"
         width="10.577806"
         height="13.229166"
         id="rect29"
         ry="0.79374999"
         rx="0.79375064" />
      <rect
         x="6.069252"
         y="1.5875"
         style="clip-rule:evenodd;fill:#b4cae4;fill-opacity:1;fill-rule:evenodd;stroke-width:0.264586"
         width="8.4888077"
         height="13.758333"
         id="rect30"
         ry="1.0583332"
         rx="1.0610963" />
      <path
         style="clip-rule:evenodd;opacity:0.2;fill:#000000;fill-opacity:1;fill-rule:evenodd;stroke-width:0.264587"
         d="m 3.2968711,1.3229166 h 9.3779779 c 0.457463,0 0.915849,0.4547565 0.914925,0.9260417 l -0.0038,1.9306298 v 0.7233882 c 0,0.1763808 -0.02845,0.2579736 -0.170053,0.3117151 l -0.315645,0.1198287 c -0.15671,0.059517 -0.237213,0.2082463 -0.237213,0.4213084 v 2.5010489 c 0,0.2130131 0.08056,0.3617956 0.237213,0.4213073 l 0.315641,0.1198295 c 0.1416,0.053739 0.170052,0.1353342 0.170052,0.3117153 v 0.7233873 l -0.0098,5.2481332 c -9.91e-4,0.529165 -0.656369,1.058332 -1.113832,1.058332 -6.8559806,5e-6 -6.0394979,-1e-6 -9.1654905,-1e-6 -0.4746829,0 -0.9149255,-0.454705 -0.9149255,-0.926041 V 2.2489583 c 0,-0.4712862 0.4402943,-0.9260417 0.9149255,-0.9260417 z"
         id="path30"
         sodipodi:nodetypes="ssscsccssccscsssssss" />
      <path
         style="clip-rule:evenodd;fill:#36485c;fill-rule:evenodd;stroke-width:0.264586"
         d="m 3.0321268,1.0583333 h 9.3383202 c 0.503561,0 0.957799,0.4547727 0.95384,0.9260416 l -0.01622,1.930621 0.01622,0.7233861 c 0.0039,0.1763386 -0.0464,0.2579724 -0.196597,0.3117144 l -0.334815,0.119828 c -0.166227,0.059517 -0.25162,0.2082443 -0.25162,0.4213559 v 2.5010416 c 0,0.2130121 0.08545,0.3617926 0.25162,0.4213057 l 0.334815,0.1198293 c 0.1502,0.053738 0.180379,0.1353338 0.180379,0.3117142 v 0.7233853 l 0.01622,5.3804016 c 0.0014,0.471383 -0.47692,0.926042 -0.95384,0.926042 H 3.0321268 c -0.5035079,0 -0.9154606,-0.385628 -0.9154606,-0.856961 V 1.9153476 c 0,-0.4713354 0.4120045,-0.8570143 0.9154606,-0.8570143 z"
         id="path31"
         sodipodi:nodetypes="ssscsccssccscssssss" />
    </g>
    <path
       style="color:#fcfcfc;fill:#8fbcbb;stroke-width:0.264582;fill-opacity:1"
       d="m 5.0817238,9.2604165 v 6.44e-4 c -0.013229,0 -0.023746,-4.04e-4 -0.030362,0.0069 -0.2112114,0.199919 2.675561,2.7080685 2.675561,2.7080685 l 1.0813353,0.974223 c -0.3487851,0.770001 0.7440166,0.782468 0.9799204,1.173117 0.1036207,0.171124 -0.022302,0.403281 -0.210583,0.415385 0.3743627,0.116867 0.8783925,-0.563033 0.7267055,-0.947007 -0.180783,-0.458515 -0.3640331,-0.657612 -0.7079716,-0.797009 -0.1419829,-0.05761 -0.5030565,-0.06202 -0.6291643,0.0051 L 7.9646377,11.751421 c 0,0 -2.4732776,-2.4571995 -2.8829139,-2.4910045 z m 0.4560466,2.4348005 c -0.095685,3.32e-4 -0.1253157,0.131267 -0.1253157,0.310732 0.018088,0.354761 0.2556201,1.389931 1.4333824,2.144104 0.9916798,0.635225 2.8065209,0.405819 2.7769768,0.04526 -0.3990534,-0.469119 -1.0667009,-0.176651 -1.0755212,-1.299771 -0.3880298,0.0039 -0.8060855,-0.05468 -0.790654,0.100134 0.065259,0.647738 -1.0198244,0.180689 -1.4404882,-0.479997 -0.4224226,-0.605611 -0.655358,-0.820228 -0.7783801,-0.819805 z m 1.5464253,0.799763 c -0.064377,0 -0.1161297,0.02002 -0.1408189,0.06006 -0.048946,0.08014 0.030368,0.210799 0.1776388,0.291353 0.1472744,0.08052 0.306332,0.08021 0.3552769,0 0.048946,-0.08014 -0.030357,-0.210573 -0.1776386,-0.290702 -0.073634,-0.04005 -0.2144582,1.21e-4 -0.2144582,-0.0607 z"
       class="ColorScheme-Text"
       id="path1" />
  </g>
</svg>
