<?xml version="1.0" encoding="UTF-8" standalone="no"?>
<!-- Created with Inkscape (http://www.inkscape.org/) -->

<svg
   width="64"
   height="64"
   viewBox="0 0 16.933333 16.933333"
   version="1.1"
   id="svg1"
   inkscape:version="1.4.2 (unknown)"
   sodipodi:docname="folder-KDE.svg"
   xmlns:inkscape="http://www.inkscape.org/namespaces/inkscape"
   xmlns:sodipodi="http://sodipodi.sourceforge.net/DTD/sodipodi-0.dtd"
   xmlns="http://www.w3.org/2000/svg"
   xmlns:svg="http://www.w3.org/2000/svg">
  <sodipodi:namedview
     id="namedview1"
     pagecolor="#ffffff"
     bordercolor="#000000"
     borderopacity="0.25"
     inkscape:showpageshadow="2"
     inkscape:pageopacity="0.0"
     inkscape:pagecheckerboard="0"
     inkscape:deskcolor="#d1d1d1"
     inkscape:document-units="px"
     inkscape:zoom="12.897792"
     inkscape:cx="27.020129"
     inkscape:cy="38.960157"
     inkscape:current-layer="layer1"
     showgrid="true"
     showguides="false">
    <inkscape:grid
       id="grid1"
       units="px"
       originx="0"
       originy="0"
       spacingx="0.26458333"
       spacingy="0.26458333"
       empcolor="#0099e5"
       empopacity="0.30196078"
       color="#0099e5"
       opacity="0.14901961"
       empspacing="5"
       enabled="true"
       visible="true" />
  </sodipodi:namedview>
  <defs
     id="defs1" />
  <g
     inkscape:label="Layer 1"
     inkscape:groupmode="layer"
     id="layer1">
    <g
       id="g1">
      <rect
         x="4.2388601"
         y="1.8520832"
         style="clip-rule:evenodd;opacity:0.2;fill:#000000;fill-opacity:1;fill-rule:evenodd;stroke-width:0.264585"
         width="10.577806"
         height="13.229166"
         id="rect29"
         ry="0.79374999"
         rx="0.79375064" />
      <rect
         x="6.069252"
         y="1.5875"
         style="clip-rule:evenodd;fill:#b4cae4;fill-opacity:1;fill-rule:evenodd;stroke-width:0.264586"
         width="8.4888077"
         height="13.758333"
         id="rect30"
         ry="1.0583332"
         rx="1.0610963" />
      <path
         style="clip-rule:evenodd;opacity:0.2;fill:#000000;fill-opacity:1;fill-rule:evenodd;stroke-width:0.264587"
         d="m 3.2968711,1.3229166 h 9.3779779 c 0.457463,0 0.915849,0.4547565 0.914925,0.9260417 l -0.0038,1.9306298 v 0.7233882 c 0,0.1763808 -0.02845,0.2579736 -0.170053,0.3117151 l -0.315645,0.1198287 c -0.15671,0.059517 -0.237213,0.2082463 -0.237213,0.4213084 v 2.5010489 c 0,0.2130131 0.08056,0.3617956 0.237213,0.4213073 l 0.315641,0.1198295 c 0.1416,0.053739 0.170052,0.1353342 0.170052,0.3117153 v 0.7233873 l -0.0098,5.2481332 c -9.91e-4,0.529165 -0.656369,1.058332 -1.113832,1.058332 -6.8559806,5e-6 -6.0394979,-1e-6 -9.1654905,-1e-6 -0.4746829,0 -0.9149255,-0.454705 -0.9149255,-0.926041 V 2.2489583 c 0,-0.4712862 0.4402943,-0.9260417 0.9149255,-0.9260417 z"
         id="path30"
         sodipodi:nodetypes="ssscsccssccscsssssss" />
      <path
         style="clip-rule:evenodd;fill:#36485c;fill-rule:evenodd;stroke-width:0.264586"
         d="m 3.0321268,1.0583333 h 9.3383202 c 0.503561,0 0.957799,0.4547727 0.95384,0.9260416 l -0.01622,1.930621 0.01622,0.7233861 c 0.0039,0.1763386 -0.0464,0.2579724 -0.196597,0.3117144 l -0.334815,0.119828 c -0.166227,0.059517 -0.25162,0.2082443 -0.25162,0.4213559 v 2.5010416 c 0,0.2130121 0.08545,0.3617926 0.25162,0.4213057 l 0.334815,0.1198293 c 0.1502,0.053738 0.180379,0.1353338 0.180379,0.3117142 v 0.7233853 l 0.01622,5.3804016 c 0.0014,0.471383 -0.47692,0.926042 -0.95384,0.926042 H 3.0321268 c -0.5035079,0 -0.9154606,-0.385628 -0.9154606,-0.856961 V 1.9153476 c 0,-0.4713354 0.4120045,-0.8570143 0.9154606,-0.8570143 z"
         id="path31"
         sodipodi:nodetypes="ssscsccssccscssssss" />
    </g>
    <path
       d="M 8.2092144,9.2604165 7.1755657,9.4130079 V 13.058491 L 8.2092144,12.787819 V 11.379431 L 9.2428877,13.039809 10.276572,12.66181 8.9844919,11.150104 10.277058,9.5128914 9.2741672,9.2604165 8.2092144,10.912926 Z M 6.1045427,10.249052 c -0.024331,0 -0.048916,0.009 -0.067647,0.02777 L 5.6306291,10.673 c -0.037349,0.03635 -0.028626,0.08875 0,0.13235 l 0.4204158,0.643689 c -0.030927,0.06304 -0.058099,0.127988 -0.080741,0.194376 -0.00228,0.0058 -0.00535,0.0063 -0.00535,0.0088 l -0.7626337,0.165199 c -0.05173,0.01161 -0.095862,0.04167 -0.095862,0.09354 v 0.247532 0.247512 c 0,0.0516 0.044284,0.08227 0.095866,0.09346 l 0.762623,0.165355 c 0.00332,0.0058 0.00536,0.0097 0.00653,0.01392 0.022457,0.06455 0.048109,0.12767 0.078248,0.189022 l -0.4204577,0.643087 c -0.028657,0.04375 -0.037349,0.09581 0,0.132373 l 0.4063292,0.396137 c 0.037347,0.0364 0.097767,0.0364 0.1352098,0 l 0.6591984,-0.409514 c 0.064785,0.03053 0.131506,0.05737 0.199834,0.07973 0.00536,0.0034 0.00832,0.0058 0.013474,0.006 l 0.1690948,0.743065 c 0,0.05159 0.042812,0.09346 0.09589,0.09346 h 0.5738472 c 0.053031,0 0.084416,-0.04316 0.095903,-0.09346 l 0.169086,-0.765865 c 0.077673,-0.02881 0.1530669,-0.06266 0.2255715,-0.101899 l 0.6435306,0.448759 c 0.037306,0.03641 0.097766,0.03641 0.1352909,0 l 0.4062523,-0.396186 c 0.0373,-0.03637 0.028586,-0.08882 0,-0.132448 l -0.2447532,-0.362129 -0.025419,0.0094 c -0.058215,0.02134 -0.1237551,-0.002 -0.1559511,-0.05275 l -0.257444,-0.41406 c -0.214494,0.500186 -0.7209988,0.851822 -1.3117852,0.851822 -0.784929,0 -1.4212798,-0.620425 -1.4212798,-1.385803 0,-0.587293 0.3754172,-1.087995 0.9044559,-1.289737 v -0.276104 l -0.00438,0.0085 c -0.00606,0.0037 -0.011132,0.0052 -0.016989,0.0071 -0.067391,0.02223 -0.1332975,0.04783 -0.1973304,0.07773 l -0.6581501,-0.40888 c -0.018886,-0.01819 -0.043199,-0.02775 -0.067628,-0.02775 z"
       id="path10-7"
       style="fill:#8fbcbb;fill-opacity:1;stroke-width:0.291377" />
  </g>
</svg>
