<?xml version="1.0" encoding="UTF-8" standalone="no"?>
<!-- Created with Inkscape (http://www.inkscape.org/) -->

<svg
   width="64"
   height="64"
   viewBox="0 0 16.933333 16.933333"
   version="1.1"
   id="svg1"
   inkscape:version="1.4.2 (unknown)"
   sodipodi:docname="folder-projects.svg"
   xmlns:inkscape="http://www.inkscape.org/namespaces/inkscape"
   xmlns:sodipodi="http://sodipodi.sourceforge.net/DTD/sodipodi-0.dtd"
   xmlns="http://www.w3.org/2000/svg"
   xmlns:svg="http://www.w3.org/2000/svg">
  <sodipodi:namedview
     id="namedview1"
     pagecolor="#ffffff"
     bordercolor="#000000"
     borderopacity="0.25"
     inkscape:showpageshadow="2"
     inkscape:pageopacity="0.0"
     inkscape:pagecheckerboard="0"
     inkscape:deskcolor="#d1d1d1"
     inkscape:document-units="px"
     inkscape:zoom="9.1201162"
     inkscape:cx="36.128926"
     inkscape:cy="40.295539"
     inkscape:current-layer="layer1"
     showgrid="true"
     showguides="false">
    <inkscape:grid
       id="grid1"
       units="px"
       originx="0"
       originy="0"
       spacingx="0.26458333"
       spacingy="0.26458333"
       empcolor="#0099e5"
       empopacity="0.30196078"
       color="#0099e5"
       opacity="0.14901961"
       empspacing="5"
       enabled="true"
       visible="true" />
  </sodipodi:namedview>
  <defs
     id="defs1" />
  <g
     inkscape:label="Layer 1"
     inkscape:groupmode="layer"
     id="layer1">
    <g
       id="g1">
      <rect
         x="4.2388601"
         y="1.8520832"
         style="clip-rule:evenodd;opacity:0.2;fill:#000000;fill-opacity:1;fill-rule:evenodd;stroke-width:0.264585"
         width="10.577806"
         height="13.229166"
         id="rect29"
         ry="0.79374999"
         rx="0.79375064" />
      <rect
         x="6.069252"
         y="1.5875"
         style="clip-rule:evenodd;fill:#b4cae4;fill-opacity:1;fill-rule:evenodd;stroke-width:0.264586"
         width="8.4888077"
         height="13.758333"
         id="rect30"
         ry="1.0583332"
         rx="1.0610963" />
      <path
         style="clip-rule:evenodd;opacity:0.2;fill:#000000;fill-opacity:1;fill-rule:evenodd;stroke-width:0.264587"
         d="m 3.2968711,1.3229166 h 9.3779779 c 0.457463,0 0.915849,0.4547565 0.914925,0.9260417 l -0.0038,1.9306298 v 0.7233882 c 0,0.1763808 -0.02845,0.2579736 -0.170053,0.3117151 l -0.315645,0.1198287 c -0.15671,0.059517 -0.237213,0.2082463 -0.237213,0.4213084 v 2.5010489 c 0,0.2130131 0.08056,0.3617956 0.237213,0.4213073 l 0.315641,0.1198295 c 0.1416,0.053739 0.170052,0.1353342 0.170052,0.3117153 v 0.7233873 l -0.0098,5.2481332 c -9.91e-4,0.529165 -0.656369,1.058332 -1.113832,1.058332 -6.8559806,5e-6 -6.0394979,-1e-6 -9.1654905,-1e-6 -0.4746829,0 -0.9149255,-0.454705 -0.9149255,-0.926041 V 2.2489583 c 0,-0.4712862 0.4402943,-0.9260417 0.9149255,-0.9260417 z"
         id="path30"
         sodipodi:nodetypes="ssscsccssccscsssssss" />
      <path
         style="clip-rule:evenodd;fill:#36485c;fill-rule:evenodd;stroke-width:0.264586"
         d="m 3.0321268,1.0583333 h 9.3383202 c 0.503561,0 0.957799,0.4547727 0.95384,0.9260416 l -0.01622,1.930621 0.01622,0.7233861 c 0.0039,0.1763386 -0.0464,0.2579724 -0.196597,0.3117144 l -0.334815,0.119828 c -0.166227,0.059517 -0.25162,0.2082443 -0.25162,0.4213559 v 2.5010416 c 0,0.2130121 0.08545,0.3617926 0.25162,0.4213057 l 0.334815,0.1198293 c 0.1502,0.053738 0.180379,0.1353338 0.180379,0.3117142 v 0.7233853 l 0.01622,5.3804016 c 0.0014,0.471383 -0.47692,0.926042 -0.95384,0.926042 H 3.0321268 c -0.5035079,0 -0.9154606,-0.385628 -0.9154606,-0.856961 V 1.9153476 c 0,-0.4713354 0.4120045,-0.8570143 0.9154606,-0.8570143 z"
         id="path31"
         sodipodi:nodetypes="ssscsccssccscssssss" />
    </g>
    <path
       d="M 9.6530376,12.464443 C 9.614354,12.351321 9.555161,12.245201 9.4756635,12.146094 9.3960217,12.047089 9.2971228,11.959153 9.178881,11.882323 9.0605772,11.805567 8.9218894,11.744942 8.762743,11.700416 c -0.063786,-0.01612 -0.1759776,-0.04141 -0.3237522,-0.0758 -0.1056229,-0.02451 -0.2046399,-0.04962 -0.3162595,-0.0752 v -1.24878 c 0.1116142,0.02831 0.1891589,0.07325 0.2719306,0.1232 0.1770933,0.106775 0.2881397,0.289451 0.3206641,0.537496 H 9.5732519 C 9.5650848,10.74871 9.5155763,10.574369 9.4244743,10.417745 9.3243893,10.245968 9.189117,10.098544 9.0185404,9.9812286 8.8480101,9.8640282 8.6436785,9.7746393 8.41855,9.7159929 8.3207671,9.6905554 8.2343614,9.6691806 8.1227386,9.6547682 V 9.2604162 H 7.3289873 V 9.6521806 C 7.2421603,9.6645546 7.1411162,9.6810386 7.050852,9.7023806 6.8370112,9.7529546 6.649165,9.8307495 6.4809501,9.935826 6.312629,10.041013 6.1789187,10.173387 6.0765759,10.333022 5.9742117,10.49275 5.9238856,10.68171 5.9238856,10.899991 c 0,0.113213 0.017403,0.224334 0.051502,0.333511 0.034103,0.109159 0.092287,0.212219 0.1741651,0.309234 0.081892,0.09703 0.1921709,0.184957 0.3309796,0.263788 0.1386927,0.07886 0.3064029,0.142494 0.5156404,0.191001 0.1151707,0.02768 0.2335366,0.05352 0.3327554,0.07764 v 1.41254 C 7.1925278,13.453246 7.0574781,13.400331 6.94847,13.328522 6.8347463,13.253768 6.7492161,13.16371 6.6855668,13.046402 6.6263345,12.937386 6.5978061,12.803951 6.5937014,12.66221 H 5.7414582 c 0.00857,0.248055 0.065109,0.466499 0.1695637,0.654046 0.1091217,0.1961 0.2546635,0.353868 0.4366115,0.479092 0.1818491,0.125374 0.3893568,0.216817 0.6349865,0.27747 0.1101538,0.02716 0.2347236,0.04685 0.3463444,0.06176 v 0.417504 h 0.7937595 v -0.407973 c 0.1240242,-0.01267 0.2351132,-0.03175 0.3538056,-0.0576 0.2319358,-0.0505 0.4420821,-0.130355 0.6240373,-0.239485 0.1818423,-0.109162 0.3301629,-0.249567 0.4416579,-0.421478 0.1113738,-0.171759 0.1679937,-0.378976 0.1679937,-0.621516 8.7e-6,-0.113133 -0.018648,-0.226362 -0.057208,-0.339573 z M 7.3289873,11.359362 C 7.1801568,11.315139 7.0324237,11.252013 6.931483,11.169807 6.8245714,11.082942 6.7742955,10.962704 6.7742955,10.809016 c 0,-0.10915 0.029957,-0.200089 0.086875,-0.272875 0.056819,-0.07277 0.1229364,-0.130377 0.2093507,-0.172818 0.076658,-0.03766 0.1716507,-0.06573 0.2584658,-0.08431 z m 1.4746732,1.769085 c -0.036455,0.07888 -0.095491,0.148534 -0.1773961,0.209194 -0.081887,0.06069 -0.1952597,0.110174 -0.3271334,0.148556 -0.055823,0.01628 -0.1019956,0.02891 -0.1763997,0.03825 v -1.265164 c 0.1240193,0.03099 0.2254753,0.063 0.3265042,0.09604 0.099983,0.03246 0.1953159,0.0879 0.2795125,0.166734 0.08415,0.07889 0.1278537,0.20115 0.1278537,0.366874 1.26e-5,0.08093 -0.016613,0.160698 -0.052935,0.239534 z"
       id="path25907-1-3"
       style="fill:#8fbcbb;fill-opacity:1;stroke-width:0.291041" />
  </g>
</svg>
