<?xml version="1.0" encoding="UTF-8" standalone="no"?>
<!-- Created with Inkscape (http://www.inkscape.org/) -->

<svg
   width="64"
   height="64"
   viewBox="0 0 16.933333 16.933333"
   version="1.1"
   id="svg1"
   inkscape:version="1.4.2 (unknown)"
   sodipodi:docname="folder-podcast.svg"
   xmlns:inkscape="http://www.inkscape.org/namespaces/inkscape"
   xmlns:sodipodi="http://sodipodi.sourceforge.net/DTD/sodipodi-0.dtd"
   xmlns="http://www.w3.org/2000/svg"
   xmlns:svg="http://www.w3.org/2000/svg">
  <sodipodi:namedview
     id="namedview1"
     pagecolor="#ffffff"
     bordercolor="#000000"
     borderopacity="0.25"
     inkscape:showpageshadow="2"
     inkscape:pageopacity="0.0"
     inkscape:pagecheckerboard="0"
     inkscape:deskcolor="#d1d1d1"
     inkscape:document-units="px"
     inkscape:zoom="9.120116"
     inkscape:cx="26.699222"
     inkscape:cy="33.05879"
     inkscape:current-layer="layer1"
     showgrid="true"
     showguides="false">
    <inkscape:grid
       id="grid1"
       units="px"
       originx="0"
       originy="0"
       spacingx="0.26458333"
       spacingy="0.26458333"
       empcolor="#0099e5"
       empopacity="0.30196078"
       color="#0099e5"
       opacity="0.14901961"
       empspacing="5"
       enabled="true"
       visible="true" />
  </sodipodi:namedview>
  <defs
     id="defs1" />
  <g
     inkscape:label="Layer 1"
     inkscape:groupmode="layer"
     id="layer1">
    <g
       id="g1">
      <rect
         x="4.2388601"
         y="1.8520832"
         style="clip-rule:evenodd;opacity:0.2;fill:#000000;fill-opacity:1;fill-rule:evenodd;stroke-width:0.264585"
         width="10.577806"
         height="13.229166"
         id="rect29"
         ry="0.79374999"
         rx="0.79375064" />
      <rect
         x="6.069252"
         y="1.5875"
         style="clip-rule:evenodd;fill:#b4cae4;fill-opacity:1;fill-rule:evenodd;stroke-width:0.264586"
         width="8.4888077"
         height="13.758333"
         id="rect30"
         ry="1.0583332"
         rx="1.0610963" />
      <path
         style="clip-rule:evenodd;opacity:0.2;fill:#000000;fill-opacity:1;fill-rule:evenodd;stroke-width:0.264587"
         d="m 3.2968711,1.3229166 h 9.3779779 c 0.457463,0 0.915849,0.4547565 0.914925,0.9260417 l -0.0038,1.9306298 v 0.7233882 c 0,0.1763808 -0.02845,0.2579736 -0.170053,0.3117151 l -0.315645,0.1198287 c -0.15671,0.059517 -0.237213,0.2082463 -0.237213,0.4213084 v 2.5010489 c 0,0.2130131 0.08056,0.3617956 0.237213,0.4213073 l 0.315641,0.1198295 c 0.1416,0.053739 0.170052,0.1353342 0.170052,0.3117153 v 0.7233873 l -0.0098,5.2481332 c -9.91e-4,0.529165 -0.656369,1.058332 -1.113832,1.058332 -6.8559806,5e-6 -6.0394979,-1e-6 -9.1654905,-1e-6 -0.4746829,0 -0.9149255,-0.454705 -0.9149255,-0.926041 V 2.2489583 c 0,-0.4712862 0.4402943,-0.9260417 0.9149255,-0.9260417 z"
         id="path30"
         sodipodi:nodetypes="ssscsccssccscsssssss" />
      <path
         style="clip-rule:evenodd;fill:#36485c;fill-rule:evenodd;stroke-width:0.264586"
         d="m 3.0321268,1.0583333 h 9.3383202 c 0.503561,0 0.957799,0.4547727 0.95384,0.9260416 l -0.01622,1.930621 0.01622,0.7233861 c 0.0039,0.1763386 -0.0464,0.2579724 -0.196597,0.3117144 l -0.334815,0.119828 c -0.166227,0.059517 -0.25162,0.2082443 -0.25162,0.4213559 v 2.5010416 c 0,0.2130121 0.08545,0.3617926 0.25162,0.4213057 l 0.334815,0.1198293 c 0.1502,0.053738 0.180379,0.1353338 0.180379,0.3117142 v 0.7233853 l 0.01622,5.3804016 c 0.0014,0.471383 -0.47692,0.926042 -0.95384,0.926042 H 3.0321268 c -0.5035079,0 -0.9154606,-0.385628 -0.9154606,-0.856961 V 1.9153476 c 0,-0.4713354 0.4120045,-0.8570143 0.9154606,-0.8570143 z"
         id="path31"
         sodipodi:nodetypes="ssscsccssccscssssss" />
    </g>
    <g
       id="g6"
       style="fill:#8fbcbb;fill-opacity:1;stroke-width:1.10001"
       transform="matrix(0.26458332,0,0,0.26458332,-0.38364568,1.322917)">
      <path
         d="m 30.501069,37.279783 a 2.7299615,2.7257609 0 1 0 2.72996,2.72576 2.7299615,2.7257609 0 0 0 -2.72996,-2.72576 z"
         id="path1-3-6"
         style="fill:#8fbcbb;fill-opacity:1;stroke-width:18.3333" />
      <path
         d="m 32.45754,43.912466 a 7.143399,7.1324074 0 0 0 -3.912944,0 0.81898843,0.81772825 0 0 0 -0.636992,0.999447 l 0.545993,3.543488 A 1.8199741,1.8171737 0 0 0 30.228072,50 h 0.545994 a 1.8199741,1.8171737 0 0 0 1.774472,-1.544599 l 0.545996,-3.543488 A 0.81898843,0.81772825 0 0 0 32.45754,43.912466 Z"
         id="path2-7"
         style="fill:#8fbcbb;fill-opacity:1;stroke-width:18.3333" />
      <path
         d="m 34.823507,35.326319 a 6.3699099,6.3601085 0 0 0 -9.509366,8.359002 0.90998708,0.90858688 0 0 0 1.364983,0.136289 h 0.04553 a 0.90998708,0.90858688 0 0 0 0.09094,-1.135735 4.5499356,4.5429345 0 0 1 0.545992,-5.951244 4.6409343,4.6337932 0 0 1 6.278914,0 4.5499356,4.5429345 0 0 1 0.545987,5.951244 0.95548646,0.95401624 0 0 0 0.136501,1.18116 0.86448778,0.86315757 0 0 0 1.364977,-0.136286 6.3699099,6.3601085 0 0 0 -0.864486,-8.40443 z"
         id="path3-5"
         style="fill:#8fbcbb;fill-opacity:1;stroke-width:18.3333" />
      <path
         d="m 37.598965,32.918562 a 10.191856,10.176173 0 0 0 -8.872374,-2.77119 10.373854,10.357891 0 0 0 -3.867442,1.59003 10.009859,9.9944567 0 0 0 -2.092971,14.58282 0.90998708,0.90858688 0 1 0 1.364979,-1.135732 8.2353835,8.2227117 0 0 1 8.46288,-13.083653 6.915902,6.9052605 0 0 1 1.910976,0.726871 8.280883,8.2681412 0 0 1 2.365966,12.356782 0.86448778,0.86315757 0 0 0 0.04553,1.226588 v 0 a 0.90998708,0.90858688 0 0 0 1.319472,-0.09081 10.055359,10.039887 0 0 0 -0.636988,-13.401653 z"
         id="path4-5-3"
         style="fill:#8fbcbb;fill-opacity:1;stroke-width:1.10001" />
    </g>
  </g>
</svg>
