<?xml version="1.0" encoding="UTF-8" standalone="no"?>
<!-- Created with Inkscape (http://www.inkscape.org/) -->

<svg
   width="64"
   height="64"
   viewBox="0 0 16.933333 16.933333"
   version="1.1"
   id="svg1"
   inkscape:version="1.4.2 (unknown)"
   sodipodi:docname="folder-print.svg"
   xmlns:inkscape="http://www.inkscape.org/namespaces/inkscape"
   xmlns:sodipodi="http://sodipodi.sourceforge.net/DTD/sodipodi-0.dtd"
   xmlns="http://www.w3.org/2000/svg"
   xmlns:svg="http://www.w3.org/2000/svg">
  <sodipodi:namedview
     id="namedview1"
     pagecolor="#ffffff"
     bordercolor="#000000"
     borderopacity="0.25"
     inkscape:showpageshadow="2"
     inkscape:pageopacity="0.0"
     inkscape:pagecheckerboard="0"
     inkscape:deskcolor="#d1d1d1"
     inkscape:document-units="px"
     inkscape:zoom="9.120116"
     inkscape:cx="26.370279"
     inkscape:cy="39.418358"
     inkscape:current-layer="layer1"
     showgrid="true"
     showguides="false">
    <inkscape:grid
       id="grid1"
       units="px"
       originx="0"
       originy="0"
       spacingx="0.26458333"
       spacingy="0.26458333"
       empcolor="#0099e5"
       empopacity="0.30196078"
       color="#0099e5"
       opacity="0.14901961"
       empspacing="5"
       enabled="true"
       visible="true" />
  </sodipodi:namedview>
  <defs
     id="defs1" />
  <g
     inkscape:label="Layer 1"
     inkscape:groupmode="layer"
     id="layer1">
    <g
       id="g1">
      <rect
         x="4.2388601"
         y="1.8520832"
         style="clip-rule:evenodd;opacity:0.2;fill:#000000;fill-opacity:1;fill-rule:evenodd;stroke-width:0.264585"
         width="10.577806"
         height="13.229166"
         id="rect29"
         ry="0.79374999"
         rx="0.79375064" />
      <rect
         x="6.069252"
         y="1.5875"
         style="clip-rule:evenodd;fill:#b4cae4;fill-opacity:1;fill-rule:evenodd;stroke-width:0.264586"
         width="8.4888077"
         height="13.758333"
         id="rect30"
         ry="1.0583332"
         rx="1.0610963" />
      <path
         style="clip-rule:evenodd;opacity:0.2;fill:#000000;fill-opacity:1;fill-rule:evenodd;stroke-width:0.264587"
         d="m 3.2968711,1.3229166 h 9.3779779 c 0.457463,0 0.915849,0.4547565 0.914925,0.9260417 l -0.0038,1.9306298 v 0.7233882 c 0,0.1763808 -0.02845,0.2579736 -0.170053,0.3117151 l -0.315645,0.1198287 c -0.15671,0.059517 -0.237213,0.2082463 -0.237213,0.4213084 v 2.5010489 c 0,0.2130131 0.08056,0.3617956 0.237213,0.4213073 l 0.315641,0.1198295 c 0.1416,0.053739 0.170052,0.1353342 0.170052,0.3117153 v 0.7233873 l -0.0098,5.2481332 c -9.91e-4,0.529165 -0.656369,1.058332 -1.113832,1.058332 -6.8559806,5e-6 -6.0394979,-1e-6 -9.1654905,-1e-6 -0.4746829,0 -0.9149255,-0.454705 -0.9149255,-0.926041 V 2.2489583 c 0,-0.4712862 0.4402943,-0.9260417 0.9149255,-0.9260417 z"
         id="path30"
         sodipodi:nodetypes="ssscsccssccscsssssss" />
      <path
         style="clip-rule:evenodd;fill:#36485c;fill-rule:evenodd;stroke-width:0.264586"
         d="m 3.0321268,1.0583333 h 9.3383202 c 0.503561,0 0.957799,0.4547727 0.95384,0.9260416 l -0.01622,1.930621 0.01622,0.7233861 c 0.0039,0.1763386 -0.0464,0.2579724 -0.196597,0.3117144 l -0.334815,0.119828 c -0.166227,0.059517 -0.25162,0.2082443 -0.25162,0.4213559 v 2.5010416 c 0,0.2130121 0.08545,0.3617926 0.25162,0.4213057 l 0.334815,0.1198293 c 0.1502,0.053738 0.180379,0.1353338 0.180379,0.3117142 v 0.7233853 l 0.01622,5.3804016 c 0.0014,0.471383 -0.47692,0.926042 -0.95384,0.926042 H 3.0321268 c -0.5035079,0 -0.9154606,-0.385628 -0.9154606,-0.856961 V 1.9153476 c 0,-0.4713354 0.4120045,-0.8570143 0.9154606,-0.8570143 z"
         id="path31"
         sodipodi:nodetypes="ssscsccssccscssssss" />
    </g>
    <path
       d="m 8.7445469,12.964652 c 0.1356953,0 0.2475272,0.102135 0.2628033,0.233727 l 0.00184,0.03083 v 1.058353 c 0,0.135696 -0.1021435,0.247528 -0.2337286,0.262808 l -0.030894,0.0017 H 6.6278338 c -0.1356829,0 -0.247525,-0.102135 -0.2628044,-0.233726 l -0.00184,-0.03082 v -1.058407 c 0,-0.135697 0.1021456,-0.247528 0.2337299,-0.262806 l 0.030854,-0.0017 z m 0.7937649,-2.381295 c 0.4383928,0 0.7937652,0.355381 0.7937652,0.793764 v 1.852116 c 0,0.292263 -0.236915,0.529176 -0.5291769,0.529176 H 9.5383118 v -0.793761 c 0,-0.292263 -0.236914,-0.529179 -0.5291748,-0.529179 H 6.3632528 c -0.2922512,0 -0.5291765,0.236916 -0.5291765,0.529179 v 0.793761 H 5.5694878 c -0.2922541,0 -0.5291754,-0.236911 -0.5291754,-0.529176 v -1.852116 c 0,-0.438382 0.3553814,-0.793764 0.7937639,-0.793764 z M 9.009137,11.112531 H 8.4799577 c -0.1461326,0 -0.264588,0.118434 -0.264588,0.26459 0,0.135697 0.1021454,0.247527 0.2337303,0.262804 l 0.030854,0.0017 h 0.5291788 c 0.1461292,0 0.2645869,-0.118434 0.2645869,-0.264591 0,-0.135684 -0.1021444,-0.247528 -0.2337283,-0.262801 z m 0,-1.8521145 c 0.1461295,0 0.2645868,0.118433 0.2645868,0.264591 V 10.054181 H 6.0986646 V 9.5250075 c 0,-0.146131 0.1184592,-0.264591 0.2645882,-0.264591 z"
       id="path1-3"
       style="fill:#8fbcbb;fill-opacity:1;stroke-width:0.291042" />
  </g>
</svg>
