<?xml version="1.0" encoding="UTF-8" standalone="no"?>
<!-- Created with Inkscape (http://www.inkscape.org/) -->

<svg
   width="64"
   height="64"
   viewBox="0 0 16.933333 16.933333"
   version="1.1"
   id="svg1"
   inkscape:version="1.4.2 (unknown)"
   sodipodi:docname="folder-godot.svg"
   xmlns:inkscape="http://www.inkscape.org/namespaces/inkscape"
   xmlns:sodipodi="http://sodipodi.sourceforge.net/DTD/sodipodi-0.dtd"
   xmlns="http://www.w3.org/2000/svg"
   xmlns:svg="http://www.w3.org/2000/svg">
  <sodipodi:namedview
     id="namedview1"
     pagecolor="#ffffff"
     bordercolor="#000000"
     borderopacity="0.25"
     inkscape:showpageshadow="2"
     inkscape:pageopacity="0.0"
     inkscape:pagecheckerboard="0"
     inkscape:deskcolor="#d1d1d1"
     inkscape:document-units="px"
     inkscape:zoom="9.120116"
     inkscape:cx="26.918517"
     inkscape:cy="31.63337"
     inkscape:current-layer="layer1"
     showgrid="true"
     showguides="false">
    <inkscape:grid
       id="grid1"
       units="px"
       originx="0"
       originy="0"
       spacingx="0.26458333"
       spacingy="0.26458333"
       empcolor="#0099e5"
       empopacity="0.30196078"
       color="#0099e5"
       opacity="0.14901961"
       empspacing="5"
       enabled="true"
       visible="true" />
  </sodipodi:namedview>
  <defs
     id="defs1" />
  <g
     inkscape:label="Layer 1"
     inkscape:groupmode="layer"
     id="layer1">
    <g
       id="g1">
      <rect
         x="4.2388601"
         y="1.8520832"
         style="clip-rule:evenodd;opacity:0.2;fill:#000000;fill-opacity:1;fill-rule:evenodd;stroke-width:0.264585"
         width="10.577806"
         height="13.229166"
         id="rect29"
         ry="0.79374999"
         rx="0.79375064" />
      <rect
         x="6.069252"
         y="1.5875"
         style="clip-rule:evenodd;fill:#b4cae4;fill-opacity:1;fill-rule:evenodd;stroke-width:0.264586"
         width="8.4888077"
         height="13.758333"
         id="rect30"
         ry="1.0583332"
         rx="1.0610963" />
      <path
         style="clip-rule:evenodd;opacity:0.2;fill:#000000;fill-opacity:1;fill-rule:evenodd;stroke-width:0.264587"
         d="m 3.2968711,1.3229166 h 9.3779779 c 0.457463,0 0.915849,0.4547565 0.914925,0.9260417 l -0.0038,1.9306298 v 0.7233882 c 0,0.1763808 -0.02845,0.2579736 -0.170053,0.3117151 l -0.315645,0.1198287 c -0.15671,0.059517 -0.237213,0.2082463 -0.237213,0.4213084 v 2.5010489 c 0,0.2130131 0.08056,0.3617956 0.237213,0.4213073 l 0.315641,0.1198295 c 0.1416,0.053739 0.170052,0.1353342 0.170052,0.3117153 v 0.7233873 l -0.0098,5.2481332 c -9.91e-4,0.529165 -0.656369,1.058332 -1.113832,1.058332 -6.8559806,5e-6 -6.0394979,-1e-6 -9.1654905,-1e-6 -0.4746829,0 -0.9149255,-0.454705 -0.9149255,-0.926041 V 2.2489583 c 0,-0.4712862 0.4402943,-0.9260417 0.9149255,-0.9260417 z"
         id="path30"
         sodipodi:nodetypes="ssscsccssccscsssssss" />
      <path
         style="clip-rule:evenodd;fill:#36485c;fill-rule:evenodd;stroke-width:0.264586"
         d="m 3.0321268,1.0583333 h 9.3383202 c 0.503561,0 0.957799,0.4547727 0.95384,0.9260416 l -0.01622,1.930621 0.01622,0.7233861 c 0.0039,0.1763386 -0.0464,0.2579724 -0.196597,0.3117144 l -0.334815,0.119828 c -0.166227,0.059517 -0.25162,0.2082443 -0.25162,0.4213559 v 2.5010416 c 0,0.2130121 0.08545,0.3617926 0.25162,0.4213057 l 0.334815,0.1198293 c 0.1502,0.053738 0.180379,0.1353338 0.180379,0.3117142 v 0.7233853 l 0.01622,5.3804016 c 0.0014,0.471383 -0.47692,0.926042 -0.95384,0.926042 H 3.0321268 c -0.5035079,0 -0.9154606,-0.385628 -0.9154606,-0.856961 V 1.9153476 c 0,-0.4713354 0.4120045,-0.8570143 0.9154606,-0.8570143 z"
         id="path31"
         sodipodi:nodetypes="ssscsccssccscssssss" />
    </g>
    <path
       d="m 7.1569686,9.2604198 -0.7937468,0.264581 v 0.6614632 l -0.3968519,0.396869 -0.4497911,-0.34396 -0.4762664,0.608546 0.2645835,0.52917 v 1.587495 h 1.0583259 v 0.529165 h 0.7937468 v -0.529165 h 1.0583322 v 0.529165 h 0.7937437 v -0.529165 h 1.0583675 v -1.587495 l 0.264567,-0.52917 -0.476253,-0.608546 -0.4497843,0.34396 -0.3968972,-0.396869 V 9.5250008 c 0,0 -0.5556086,-0.211669 -0.7937437,-0.264581 -0.1058245,0.158746 -0.1852007,0.343953 -0.2645862,0.529163 h -0.52916 c -0.079362,-0.18521 -0.264586,-0.529163 -0.264586,-0.529163 z M 6.4955023,11.377089 a 0.66145822,0.66145794 0 0 1 0.6614663,0.661452 0.66145822,0.66145794 0 0 1 -0.6614663,0.661461 0.66145822,0.66145794 0 0 1 -0.6614431,-0.661461 0.66145822,0.66145794 0 0 1 0.6614431,-0.661452 z m 2.3812697,0 A 0.66145822,0.66145794 0 0 1 9.538211,12.038541 0.66145822,0.66145794 0 0 1 8.876772,12.700002 0.66145822,0.66145794 0 0 1 8.2153008,12.038541 0.66145822,0.66145794 0 0 1 8.876772,11.377089 Z m -2.3812697,0.264584 a 0.39687461,0.3968747 0 0 0 -0.3968569,0.396868 0.39687461,0.3968747 0 0 0 0.3968569,0.396878 0.39687461,0.3968747 0 0 0 0.3968896,-0.396878 0.39687461,0.3968747 0 0 0 -0.3968896,-0.396868 z m 1.1906355,0 c 0.1323103,0 0.2645768,0.132284 0.2645768,0.264581 v 0.529165 c 0,0.132294 -0.1322665,0.264583 -0.2645768,0.264583 -0.1322759,0 -0.2645832,-0.132289 -0.2645832,-0.264583 v -0.529165 c 0,-0.132297 0.1180069,-0.264581 0.2645832,-0.264581 z m 1.1906342,0 A 0.39687461,0.3968747 0 0 0 8.4799001,12.038541 0.39687461,0.3968747 0 0 0 8.876772,12.435419 0.39687461,0.3968747 0 0 0 9.2736598,12.038541 0.39687461,0.3968747 0 0 0 8.876772,11.641673 Z m -3.5718761,1.587493 v 0.132295 c 0,0.873121 1.0847762,1.190626 2.3812419,1.190626 v 0 0 c 1.2964613,0 2.3812742,-0.396878 2.3812742,-1.269999 0,-0.02646 0,0.02645 0,-0.05294 H 9.2736598 v 0.529179 H 7.9507146 v -0.529171 h -0.52916 v 0.529173 H 6.0986454 V 13.22916 Z"
       id="path12-5-9-3"
       style="fill:#8fbcbb;fill-opacity:1;stroke-width:0.291042" />
  </g>
</svg>
