<?xml version="1.0" encoding="UTF-8" standalone="no"?>
<!-- Created with Inkscape (http://www.inkscape.org/) -->

<svg
   width="64"
   height="64"
   viewBox="0 0 16.933333 16.933333"
   version="1.1"
   id="svg1"
   inkscape:version="1.4.2 (unknown)"
   sodipodi:docname="folder-relax.svg"
   xmlns:inkscape="http://www.inkscape.org/namespaces/inkscape"
   xmlns:sodipodi="http://sodipodi.sourceforge.net/DTD/sodipodi-0.dtd"
   xmlns="http://www.w3.org/2000/svg"
   xmlns:svg="http://www.w3.org/2000/svg">
  <sodipodi:namedview
     id="namedview1"
     pagecolor="#ffffff"
     bordercolor="#000000"
     borderopacity="0.25"
     inkscape:showpageshadow="2"
     inkscape:pageopacity="0.0"
     inkscape:pagecheckerboard="0"
     inkscape:deskcolor="#d1d1d1"
     inkscape:document-units="px"
     inkscape:zoom="12.897792"
     inkscape:cx="29.423641"
     inkscape:cy="34.540797"
     inkscape:current-layer="layer1"
     showgrid="true"
     showguides="false">
    <inkscape:grid
       id="grid1"
       units="px"
       originx="0"
       originy="0"
       spacingx="0.26458333"
       spacingy="0.26458333"
       empcolor="#0099e5"
       empopacity="0.30196078"
       color="#0099e5"
       opacity="0.14901961"
       empspacing="5"
       enabled="true"
       visible="true" />
  </sodipodi:namedview>
  <defs
     id="defs1" />
  <g
     inkscape:label="Layer 1"
     inkscape:groupmode="layer"
     id="layer1">
    <g
       id="g1">
      <rect
         x="4.2388601"
         y="1.8520832"
         style="clip-rule:evenodd;opacity:0.2;fill:#000000;fill-opacity:1;fill-rule:evenodd;stroke-width:0.264585"
         width="10.577806"
         height="13.229166"
         id="rect29"
         ry="0.79374999"
         rx="0.79375064" />
      <rect
         x="6.069252"
         y="1.5875"
         style="clip-rule:evenodd;fill:#b4cae4;fill-opacity:1;fill-rule:evenodd;stroke-width:0.264586"
         width="8.4888077"
         height="13.758333"
         id="rect30"
         ry="1.0583332"
         rx="1.0610963" />
      <path
         style="clip-rule:evenodd;opacity:0.2;fill:#000000;fill-opacity:1;fill-rule:evenodd;stroke-width:0.264587"
         d="m 3.2968711,1.3229166 h 9.3779779 c 0.457463,0 0.915849,0.4547565 0.914925,0.9260417 l -0.0038,1.9306298 v 0.7233882 c 0,0.1763808 -0.02845,0.2579736 -0.170053,0.3117151 l -0.315645,0.1198287 c -0.15671,0.059517 -0.237213,0.2082463 -0.237213,0.4213084 v 2.5010489 c 0,0.2130131 0.08056,0.3617956 0.237213,0.4213073 l 0.315641,0.1198295 c 0.1416,0.053739 0.170052,0.1353342 0.170052,0.3117153 v 0.7233873 l -0.0098,5.2481332 c -9.91e-4,0.529165 -0.656369,1.058332 -1.113832,1.058332 -6.8559806,5e-6 -6.0394979,-1e-6 -9.1654905,-1e-6 -0.4746829,0 -0.9149255,-0.454705 -0.9149255,-0.926041 V 2.2489583 c 0,-0.4712862 0.4402943,-0.9260417 0.9149255,-0.9260417 z"
         id="path30"
         sodipodi:nodetypes="ssscsccssccscsssssss" />
      <path
         style="clip-rule:evenodd;fill:#36485c;fill-rule:evenodd;stroke-width:0.264586"
         d="m 3.0321268,1.0583333 h 9.3383202 c 0.503561,0 0.957799,0.4547727 0.95384,0.9260416 l -0.01622,1.930621 0.01622,0.7233861 c 0.0039,0.1763386 -0.0464,0.2579724 -0.196597,0.3117144 l -0.334815,0.119828 c -0.166227,0.059517 -0.25162,0.2082443 -0.25162,0.4213559 v 2.5010416 c 0,0.2130121 0.08545,0.3617926 0.25162,0.4213057 l 0.334815,0.1198293 c 0.1502,0.053738 0.180379,0.1353338 0.180379,0.3117142 v 0.7233853 l 0.01622,5.3804016 c 0.0014,0.471383 -0.47692,0.926042 -0.95384,0.926042 H 3.0321268 c -0.5035079,0 -0.9154606,-0.385628 -0.9154606,-0.856961 V 1.9153476 c 0,-0.4713354 0.4120045,-0.8570143 0.9154606,-0.8570143 z"
         id="path31"
         sodipodi:nodetypes="ssscsccssccscssssss" />
    </g>
    <g
       id="g2"
       transform="translate(-0.07937477)">
      <path
         d="m 7.8435273,12.075267 -2.2333336,1.909484 c -0.048944,0.04187 -0.054505,0.115553 -0.01264,0.164288 l 0.3126906,0.36246 c 0.042047,0.04876 0.1160625,0.05432 0.1649558,0.01267 l 2.2333148,-1.909544 c 0.048941,-0.04185 0.054567,-0.115553 0.012638,-0.164258 l -0.312707,-0.362473 c -0.042013,-0.04878 -0.1160317,-0.05434 -0.1649795,-0.01258 z"
         id="path1170-2-3-3"
         style="fill:#8fbcbb;fill-opacity:1;stroke-width:0.0115027" />
      <path
         d="M 8.2154507,11.757244 8.0381261,11.90884 c -0.03843,0.03288 -0.042825,0.09061 -0.00969,0.128903 l 0.3455788,0.400601 c 0.032995,0.03825 0.09096,0.04265 0.1294006,0.0098 l 0.1773259,-0.151652 c 0.038424,-0.03285 0.042835,-0.09058 0.00974,-0.128799 L 8.3448838,11.767045 c -0.033057,-0.03835 -0.091022,-0.04271 -0.129436,-0.0098 z"
         id="path1172-0-6-6"
         style="fill:#8fbcbb;fill-opacity:1;stroke-width:0.0115027" />
      <path
         d="M 8.5717834,11.452564 8.3944729,11.60419 c -0.03844,0.03285 -0.042826,0.09058 -0.00973,0.128885 l 0.3455657,0.400597 c 0.032972,0.03826 0.090944,0.04263 0.1293991,0.0096 l 0.1773039,-0.151647 c 0.038487,-0.03287 0.042872,-0.09056 0.00983,-0.128805 L 8.7012628,11.462221 c -0.033062,-0.03836 -0.09098,-0.04272 -0.1294515,-0.0098 z"
         id="path1174-6-7-1"
         style="fill:#8fbcbb;fill-opacity:1;stroke-width:0.0115027" />
      <path
         d="M 8.916863,9.9339205 C 8.245048,9.0473019 8.6367058,8.4862926 8.6367058,8.4862926 c 0,0 -0.9479452,0.9948369 -0.027383,1.8425444 0.8004028,0.737274 0.4052736,1.348657 0.4052736,1.348657 0,8.2e-5 0.7412289,-0.637046 -0.097597,-1.7435735 z"
         id="path1401-1-5-0"
         style="fill:#8fbcbb;fill-opacity:1;stroke-width:0.0245381" />
      <path
         d="m 9.7388518,11.128169 c 0,0 0.7410022,-0.636883 -0.097887,-1.7434221 C 8.969159,8.4985165 9.3608095,7.9374997 9.3608095,7.9374997 c 0,0 -0.9479185,0.9948637 -0.027317,1.8425784 0.8002295,0.7368129 0.4053714,1.3480909 0.4053714,1.3480909 z"
         id="path1403-5-3-6"
         style="fill:#8fbcbb;fill-opacity:1;stroke-width:0.0245381" />
    </g>
  </g>
</svg>
