<?xml version="1.0" encoding="UTF-8" standalone="no"?>
<!-- Created with Inkscape (http://www.inkscape.org/) -->

<svg
   width="64"
   height="64"
   viewBox="0 0 16.933333 16.933333"
   version="1.1"
   id="svg1"
   inkscape:version="1.4.2 (unknown)"
   sodipodi:docname="folder-flatpak.svg"
   xmlns:inkscape="http://www.inkscape.org/namespaces/inkscape"
   xmlns:sodipodi="http://sodipodi.sourceforge.net/DTD/sodipodi-0.dtd"
   xmlns="http://www.w3.org/2000/svg"
   xmlns:svg="http://www.w3.org/2000/svg">
  <sodipodi:namedview
     id="namedview1"
     pagecolor="#ffffff"
     bordercolor="#000000"
     borderopacity="0.25"
     inkscape:showpageshadow="2"
     inkscape:pageopacity="0.0"
     inkscape:pagecheckerboard="0"
     inkscape:deskcolor="#d1d1d1"
     inkscape:document-units="px"
     inkscape:zoom="9.120116"
     inkscape:cx="27.576404"
     inkscape:cy="34.264915"
     inkscape:current-layer="layer1"
     showgrid="false"
     showguides="false">
    <inkscape:grid
       id="grid1"
       units="px"
       originx="0"
       originy="0"
       spacingx="0.26458333"
       spacingy="0.26458333"
       empcolor="#0099e5"
       empopacity="0.30196078"
       color="#0099e5"
       opacity="0.14901961"
       empspacing="5"
       enabled="true"
       visible="false" />
  </sodipodi:namedview>
  <defs
     id="defs1" />
  <g
     inkscape:label="Layer 1"
     inkscape:groupmode="layer"
     id="layer1">
    <g
       id="g1">
      <rect
         x="4.2388601"
         y="1.8520832"
         style="clip-rule:evenodd;opacity:0.2;fill:#000000;fill-opacity:1;fill-rule:evenodd;stroke-width:0.264585"
         width="10.577806"
         height="13.229166"
         id="rect29"
         ry="0.79374999"
         rx="0.79375064" />
      <rect
         x="6.069252"
         y="1.5875"
         style="clip-rule:evenodd;fill:#b4cae4;fill-opacity:1;fill-rule:evenodd;stroke-width:0.264586"
         width="8.4888077"
         height="13.758333"
         id="rect30"
         ry="1.0583332"
         rx="1.0610963" />
      <path
         style="clip-rule:evenodd;opacity:0.2;fill:#000000;fill-opacity:1;fill-rule:evenodd;stroke-width:0.264587"
         d="m 3.2968711,1.3229166 h 9.3779779 c 0.457463,0 0.915849,0.4547565 0.914925,0.9260417 l -0.0038,1.9306298 v 0.7233882 c 0,0.1763808 -0.02845,0.2579736 -0.170053,0.3117151 l -0.315645,0.1198287 c -0.15671,0.059517 -0.237213,0.2082463 -0.237213,0.4213084 v 2.5010489 c 0,0.2130131 0.08056,0.3617956 0.237213,0.4213073 l 0.315641,0.1198295 c 0.1416,0.053739 0.170052,0.1353342 0.170052,0.3117153 v 0.7233873 l -0.0098,5.2481332 c -9.91e-4,0.529165 -0.656369,1.058332 -1.113832,1.058332 -6.8559806,5e-6 -6.0394979,-1e-6 -9.1654905,-1e-6 -0.4746829,0 -0.9149255,-0.454705 -0.9149255,-0.926041 V 2.2489583 c 0,-0.4712862 0.4402943,-0.9260417 0.9149255,-0.9260417 z"
         id="path30"
         sodipodi:nodetypes="ssscsccssccscsssssss" />
      <path
         style="clip-rule:evenodd;fill:#36485c;fill-rule:evenodd;stroke-width:0.264586"
         d="m 3.0321268,1.0583333 h 9.3383202 c 0.503561,0 0.957799,0.4547727 0.95384,0.9260416 l -0.01622,1.930621 0.01622,0.7233861 c 0.0039,0.1763386 -0.0464,0.2579724 -0.196597,0.3117144 l -0.334815,0.119828 c -0.166227,0.059517 -0.25162,0.2082443 -0.25162,0.4213559 v 2.5010416 c 0,0.2130121 0.08545,0.3617926 0.25162,0.4213057 l 0.334815,0.1198293 c 0.1502,0.053738 0.180379,0.1353338 0.180379,0.3117142 v 0.7233853 l 0.01622,5.3804016 c 0.0014,0.471383 -0.47692,0.926042 -0.95384,0.926042 H 3.0321268 c -0.5035079,0 -0.9154606,-0.385628 -0.9154606,-0.856961 V 1.9153476 c 0,-0.4713354 0.4120045,-0.8570143 0.9154606,-0.8570143 z"
         id="path31"
         sodipodi:nodetypes="ssscsccssccscssssss" />
    </g>
    <path
       d="M 10.124925,10.879832 C 9.9930804,10.565978 9.7984872,10.283502 9.559987,10.038704 9.3151724,9.7938914 9.0327085,9.605564 8.7188405,9.4737765 8.3923783,9.3356315 8.0471481,9.2603169 7.6893238,9.2603169 c -0.3578243,0 -0.7030545,0.075312 -1.0294673,0.2134149 C 6.3459885,9.6055739 6.063532,9.800162 5.81871,10.038659 c -0.2448146,0.244813 -0.4331428,0.527275 -0.5649378,0.841129 -0.1381439,0.32648 -0.2134598,0.671687 -0.2134598,1.02952 0,0.357833 0.075314,0.70304 0.2134154,1.02947 0.1318418,0.313855 0.3264375,0.596331 0.5649377,0.841129 0.2448121,0.24481 0.5272785,0.43314 0.8411465,0.564927 0.3264376,0.138101 0.6716924,0.20715 1.0294673,0.20715 0.3578244,0 0.7030298,-0.06905 1.0294674,-0.20715 0.313868,-0.131844 0.5963245,-0.32643 0.8411465,-0.564927 0.2448121,-0.244813 0.4331428,-0.527274 0.5649378,-0.841129 0.138099,-0.32643 0.207148,-0.671687 0.207148,-1.02947 9.1e-5,-0.357833 -0.06897,-0.70304 -0.207072,-1.029471 z"
       style="fill:#8fbcbb;fill-opacity:1;stroke-width:0.00896012"
       id="path25" />
    <path
       d="m 7.6861925,10.054067 -0.047816,0.03683 -1.6058766,0.718702 v 2.211465 l 1.6536745,0.73717 1.6536171,-0.737166 v -2.211461 z m 0,0.215613 v 0.976744 l -0.091881,0.06077 -1.3780333,-0.394412 z m 1.4698947,0.73716 v 1.903672 l -1.4698947,0.626615 v -2.064016 z"
       style="color:#232629;fill:#36485c;fill-opacity:1;stroke-width:0.197835"
       id="path26" />
  </g>
</svg>
