<?xml version="1.0" encoding="UTF-8" standalone="no"?>
<!-- Created with Inkscape (http://www.inkscape.org/) -->

<svg
   width="64"
   height="64"
   viewBox="0 0 16.933333 16.933333"
   version="1.1"
   id="svg1"
   inkscape:version="1.4.2 (unknown)"
   sodipodi:docname="folder-openSUSE.svg"
   xmlns:inkscape="http://www.inkscape.org/namespaces/inkscape"
   xmlns:sodipodi="http://sodipodi.sourceforge.net/DTD/sodipodi-0.dtd"
   xmlns="http://www.w3.org/2000/svg"
   xmlns:svg="http://www.w3.org/2000/svg">
  <sodipodi:namedview
     id="namedview1"
     pagecolor="#ffffff"
     bordercolor="#000000"
     borderopacity="0.25"
     inkscape:showpageshadow="2"
     inkscape:pageopacity="0.0"
     inkscape:pagecheckerboard="0"
     inkscape:deskcolor="#d1d1d1"
     inkscape:document-units="px"
     inkscape:zoom="9.1201162"
     inkscape:cx="36.238573"
     inkscape:cy="42.707789"
     inkscape:current-layer="layer1"
     showgrid="true"
     showguides="false">
    <inkscape:grid
       id="grid1"
       units="px"
       originx="0"
       originy="0"
       spacingx="0.26458333"
       spacingy="0.26458333"
       empcolor="#0099e5"
       empopacity="0.30196078"
       color="#0099e5"
       opacity="0.14901961"
       empspacing="5"
       enabled="true"
       visible="true" />
  </sodipodi:namedview>
  <defs
     id="defs1" />
  <g
     inkscape:label="Layer 1"
     inkscape:groupmode="layer"
     id="layer1">
    <g
       id="g1">
      <rect
         x="4.2388601"
         y="1.8520832"
         style="clip-rule:evenodd;opacity:0.2;fill:#000000;fill-opacity:1;fill-rule:evenodd;stroke-width:0.264585"
         width="10.577806"
         height="13.229166"
         id="rect29"
         ry="0.79374999"
         rx="0.79375064" />
      <rect
         x="6.069252"
         y="1.5875"
         style="clip-rule:evenodd;fill:#b4cae4;fill-opacity:1;fill-rule:evenodd;stroke-width:0.264586"
         width="8.4888077"
         height="13.758333"
         id="rect30"
         ry="1.0583332"
         rx="1.0610963" />
      <path
         style="clip-rule:evenodd;opacity:0.2;fill:#000000;fill-opacity:1;fill-rule:evenodd;stroke-width:0.264587"
         d="m 3.2968711,1.3229166 h 9.3779779 c 0.457463,0 0.915849,0.4547565 0.914925,0.9260417 l -0.0038,1.9306298 v 0.7233882 c 0,0.1763808 -0.02845,0.2579736 -0.170053,0.3117151 l -0.315645,0.1198287 c -0.15671,0.059517 -0.237213,0.2082463 -0.237213,0.4213084 v 2.5010489 c 0,0.2130131 0.08056,0.3617956 0.237213,0.4213073 l 0.315641,0.1198295 c 0.1416,0.053739 0.170052,0.1353342 0.170052,0.3117153 v 0.7233873 l -0.0098,5.2481332 c -9.91e-4,0.529165 -0.656369,1.058332 -1.113832,1.058332 -6.8559806,5e-6 -6.0394979,-1e-6 -9.1654905,-1e-6 -0.4746829,0 -0.9149255,-0.454705 -0.9149255,-0.926041 V 2.2489583 c 0,-0.4712862 0.4402943,-0.9260417 0.9149255,-0.9260417 z"
         id="path30"
         sodipodi:nodetypes="ssscsccssccscsssssss" />
      <path
         style="clip-rule:evenodd;fill:#36485c;fill-rule:evenodd;stroke-width:0.264586"
         d="m 3.0321268,1.0583333 h 9.3383202 c 0.503561,0 0.957799,0.4547727 0.95384,0.9260416 l -0.01622,1.930621 0.01622,0.7233861 c 0.0039,0.1763386 -0.0464,0.2579724 -0.196597,0.3117144 l -0.334815,0.119828 c -0.166227,0.059517 -0.25162,0.2082443 -0.25162,0.4213559 v 2.5010416 c 0,0.2130121 0.08545,0.3617926 0.25162,0.4213057 l 0.334815,0.1198293 c 0.1502,0.053738 0.180379,0.1353338 0.180379,0.3117142 v 0.7233853 l 0.01622,5.3804016 c 0.0014,0.471383 -0.47692,0.926042 -0.95384,0.926042 H 3.0321268 c -0.5035079,0 -0.9154606,-0.385628 -0.9154606,-0.856961 V 1.9153476 c 0,-0.4713354 0.4120045,-0.8570143 0.9154606,-0.8570143 z"
         id="path31"
         sodipodi:nodetypes="ssscsccssccscssssss" />
    </g>
    <path
       style="color:#eff0f1;font-size:20.4884px;font-family:TrebuchetMS-Bold;fill:#8fbcbb;fill-opacity:1;fill-rule:evenodd;stroke:none;stroke-width:0.0416706;stroke-miterlimit:4"
       d="m 7.6861451,9.2604165 c -1.4611706,0 -2.6458327,1.1845375 -2.6458327,2.6458295 0,1.461288 1.1846621,2.645833 2.6458327,2.645833 1.4611653,0 2.6458339,-1.184545 2.6458339,-2.645833 0,-1.461292 -1.1846686,-2.6458295 -2.6458339,-2.6458295 z m 0.01301,0.3664492 c 1.258947,0 2.2803536,1.0206003 2.2803536,2.2793803 0,1.259006 -1.0215507,2.279384 -2.2803536,2.279384 -0.6798201,0 -1.2898054,-0.297921 -1.7074091,-0.769877 0.1717531,-0.133269 0.4589989,-0.100676 0.8127646,-0.06039 0.1695659,0.01908 0.3628389,0.04111 0.5623279,0.04574 0.5572988,0.0051 1.156938,-0.0985 1.5270708,-0.260179 0.2392905,-0.104959 0.3924506,-0.17403 0.4882104,-0.261239 0.034557,-0.0286 0.052701,-0.07566 0.071185,-0.124681 l 0.012816,-0.0333 c 0.01512,-0.03964 0.038048,-0.125 0.047784,-0.171521 0.00526,-0.01998 0.0068,-0.04223 -0.00792,-0.05366 l -0.051648,0.0088 C 9.2920161,12.602883 8.88628,12.788336 8.5061988,12.79589 8.0351877,12.80489 7.0859161,12.321735 6.9868897,12.270617 l -0.00939,-0.01184 c -0.023724,-0.05661 -0.1658043,-0.39391 -0.1958741,-0.464868 0.6832671,0.449967 1.2497932,0.699019 1.6839421,0.737722 0.4827475,0.04299 0.8593095,-0.220666 1.0203458,-0.333277 0.031216,-0.02176 0.055432,-0.03845 0.065309,-0.0418 l 0.010848,-0.01775 C 9.5351415,11.969446 9.2821134,11.148359 9.0913957,10.951171 9.0385323,10.897063 8.9964751,10.844459 8.911104,10.794284 8.2207605,10.391916 6.5817489,10.149618 6.5050044,10.138393 l -0.012923,0.0053 -0.0053,0.01087 c 0,0 -0.00656,0.340334 -0.00705,0.378106 -0.056111,-0.0185 -0.2305512,-0.07577 -0.4803436,-0.144268 C 6.325314,9.9851391 6.8248184,9.6273038 7.6989739,9.6273038 Z m 0.6022396,1.2064673 c 0.011899,-1.92e-4 0.023643,-3.97e-4 0.03483,0 0.3866925,0.01354 0.690522,0.339597 0.677298,0.726016 -0.00705,0.186871 -0.085696,0.359672 -0.2222025,0.487258 -0.1369495,0.128187 -0.3148394,0.195062 -0.5028457,0.189047 -0.3860641,-0.01435 -0.6898793,-0.340167 -0.6772854,-0.726017 0.0069,-0.187267 0.085831,-0.361033 0.2231549,-0.488298 0.1282267,-0.120244 0.2923268,-0.185404 0.4668177,-0.188006 z m -0.018522,0.206524 c -0.1126214,0.0073 -0.2189361,0.05266 -0.3021013,0.130583 -0.094808,0.08898 -0.1507742,0.209544 -0.1549879,0.340163 -0.00864,0.26978 0.2021799,0.496798 0.4717067,0.506703 0.1309693,0.0051 0.2552105,-0.04172 0.350831,-0.130516 0.095374,-0.08946 0.1509243,-0.211079 0.1549297,-0.341167 0.00883,-0.270083 -0.2029887,-0.496331 -0.4726563,-0.505766 -0.016703,-0.0012 -0.031594,-0.0018 -0.047734,0 z m 0.1286362,0.244654 c 0.1197562,0 0.2163613,0.06509 0.216354,0.145216 0,0.07975 -0.096599,0.145137 -0.216354,0.145137 -0.1201734,0 -0.2173385,-0.06563 -0.2173385,-0.145137 0,-0.08011 0.097167,-0.145216 0.2173385,-0.145216 z"
       id="path2445"
       class="ColorScheme-Text "
       inkscape:connector-curvature="0" />
  </g>
</svg>
