<?xml version="1.0" encoding="UTF-8" standalone="no"?>
<!-- Created with Inkscape (http://www.inkscape.org/) -->

<svg
   width="64"
   height="64"
   viewBox="0 0 16.933333 16.933333"
   version="1.1"
   id="svg1"
   inkscape:version="1.4.2 (unknown)"
   sodipodi:docname="folder-presentation.svg"
   xmlns:inkscape="http://www.inkscape.org/namespaces/inkscape"
   xmlns:sodipodi="http://sodipodi.sourceforge.net/DTD/sodipodi-0.dtd"
   xmlns="http://www.w3.org/2000/svg"
   xmlns:svg="http://www.w3.org/2000/svg">
  <sodipodi:namedview
     id="namedview1"
     pagecolor="#ffffff"
     bordercolor="#000000"
     borderopacity="0.25"
     inkscape:showpageshadow="2"
     inkscape:pageopacity="0.0"
     inkscape:pagecheckerboard="0"
     inkscape:deskcolor="#d1d1d1"
     inkscape:document-units="px"
     inkscape:zoom="12.897792"
     inkscape:cx="28.338184"
     inkscape:cy="39.813017"
     inkscape:current-layer="layer1"
     showgrid="true"
     showguides="false">
    <inkscape:grid
       id="grid1"
       units="px"
       originx="0"
       originy="0"
       spacingx="0.26458333"
       spacingy="0.26458333"
       empcolor="#0099e5"
       empopacity="0.30196078"
       color="#0099e5"
       opacity="0.14901961"
       empspacing="5"
       enabled="true"
       visible="true" />
  </sodipodi:namedview>
  <defs
     id="defs1">
    <linearGradient
       id="paint1_linear_413_138"
       x1="32"
       y1="54"
       x2="-3.2"
       y2="36.400002"
       gradientUnits="userSpaceOnUse"
       gradientTransform="matrix(0,0.26315991,-0.26368809,0,18.736184,3.4754199)">
      <stop
         stop-color="#5200FF"
         id="stop6" />
      <stop
         offset="1"
         stop-color="#0085FF"
         id="stop7" />
    </linearGradient>
    <linearGradient
       id="paint2_linear_413_138"
       x1="54"
       y1="32"
       x2="32"
       y2="10"
       gradientUnits="userSpaceOnUse"
       gradientTransform="matrix(0,0.26315991,-0.26368809,0,18.736184,3.4754199)">
      <stop
         stop-color="#FF7E07"
         id="stop8" />
      <stop
         offset="1"
         stop-color="#FFE607"
         id="stop9" />
    </linearGradient>
    <linearGradient
       id="paint3_linear_413_138"
       x1="36"
       y1="36"
       x2="54"
       y2="54"
       gradientUnits="userSpaceOnUse"
       gradientTransform="matrix(0,0.26315991,-0.26368809,0,18.736184,3.4754199)">
      <stop
         stop-color="#F15700"
         id="stop10" />
      <stop
         offset="1"
         stop-color="#FF0000"
         id="stop11" />
    </linearGradient>
  </defs>
  <g
     inkscape:label="Layer 1"
     inkscape:groupmode="layer"
     id="layer1">
    <g
       id="g1">
      <rect
         x="4.2388601"
         y="1.8520832"
         style="clip-rule:evenodd;opacity:0.2;fill:#000000;fill-opacity:1;fill-rule:evenodd;stroke-width:0.264585"
         width="10.577806"
         height="13.229166"
         id="rect29"
         ry="0.79374999"
         rx="0.79375064" />
      <rect
         x="6.069252"
         y="1.5875"
         style="clip-rule:evenodd;fill:#b4cae4;fill-opacity:1;fill-rule:evenodd;stroke-width:0.264586"
         width="8.4888077"
         height="13.758333"
         id="rect30"
         ry="1.0583332"
         rx="1.0610963" />
      <path
         style="clip-rule:evenodd;opacity:0.2;fill:#000000;fill-opacity:1;fill-rule:evenodd;stroke-width:0.264587"
         d="m 3.2968711,1.3229166 h 9.3779779 c 0.457463,0 0.915849,0.4547565 0.914925,0.9260417 l -0.0038,1.9306298 v 0.7233882 c 0,0.1763808 -0.02845,0.2579736 -0.170053,0.3117151 l -0.315645,0.1198287 c -0.15671,0.059517 -0.237213,0.2082463 -0.237213,0.4213084 v 2.5010489 c 0,0.2130131 0.08056,0.3617956 0.237213,0.4213073 l 0.315641,0.1198295 c 0.1416,0.053739 0.170052,0.1353342 0.170052,0.3117153 v 0.7233873 l -0.0098,5.2481332 c -9.91e-4,0.529165 -0.656369,1.058332 -1.113832,1.058332 -6.8559806,5e-6 -6.0394979,-1e-6 -9.1654905,-1e-6 -0.4746829,0 -0.9149255,-0.454705 -0.9149255,-0.926041 V 2.2489583 c 0,-0.4712862 0.4402943,-0.9260417 0.9149255,-0.9260417 z"
         id="path30"
         sodipodi:nodetypes="ssscsccssccscsssssss" />
      <path
         style="clip-rule:evenodd;fill:#36485c;fill-rule:evenodd;stroke-width:0.264586"
         d="m 3.0321268,1.0583333 h 9.3383202 c 0.503561,0 0.957799,0.4547727 0.95384,0.9260416 l -0.01622,1.930621 0.01622,0.7233861 c 0.0039,0.1763386 -0.0464,0.2579724 -0.196597,0.3117144 l -0.334815,0.119828 c -0.166227,0.059517 -0.25162,0.2082443 -0.25162,0.4213559 v 2.5010416 c 0,0.2130121 0.08545,0.3617926 0.25162,0.4213057 l 0.334815,0.1198293 c 0.1502,0.053738 0.180379,0.1353338 0.180379,0.3117142 v 0.7233853 l 0.01622,5.3804016 c 0.0014,0.471383 -0.47692,0.926042 -0.95384,0.926042 H 3.0321268 c -0.5035079,0 -0.9154606,-0.385628 -0.9154606,-0.856961 V 1.9153476 c 0,-0.4713354 0.4120045,-0.8570143 0.9154606,-0.8570143 z"
         id="path31"
         sodipodi:nodetypes="ssscsccssccscssssss" />
    </g>
    <g
       id="g2"
       transform="matrix(0,-1.0033949,1.0054086,0,-3.4942172,18.799789)"
       style="stroke-width:0.995618;fill:#8fbcbb;fill-opacity:1">
      <path
         d="m 6.8791663,13.378268 c 0,0.133085 -0.1079262,0.242122 -0.2402176,0.230047 C 6.0253212,13.552265 5.4475312,13.28292 5.0082865,12.842853 4.5120976,12.345708 4.2333346,11.671465 4.2333346,10.968417 c 0,-0.703049 0.278763,-1.3773089 0.7749519,-1.8744269 0.4961905,-0.497134 1.1691576,-0.776426 1.8708798,-0.776426 z"
         fill="url(#paint1_linear_413_138)"
         id="path2"
         style="fill:#8fbcbb;stroke-width:0.263422;fill-opacity:1" />
      <path
         d="m 6.8791663,8.3175641 c 0.3487807,0 0.6941348,0.06842 1.0163603,0.201411 0.3222271,0.132961 0.6150121,0.32786 0.8616278,0.573541 0.246628,0.245679 0.442253,0.537356 0.5757169,0.858367 0.1026239,0.2467839 0.1669449,0.5072019 0.1912126,0.7723089 0.012093,0.132289 -0.097143,0.240207 -0.230472,0.240207 H 6.8791663 Z"
         fill="url(#paint2_linear_413_138)"
         id="path3"
         style="fill:#8fbcbb;stroke-width:0.263422;fill-opacity:1" />
      <path
         d="m 9.5461086,11.78452 c 0.1306096,0 0.237851,0.107284 0.2233621,0.238427 -0.022166,0.200535 -0.072168,0.397312 -0.1488914,0.584441 -0.1069641,0.2609 -0.26375,0.497947 -0.4614022,0.697608 -0.1976359,0.199683 -0.4322814,0.358073 -0.6905279,0.466136 -0.1852436,0.0775 -0.3800247,0.128058 -0.5785209,0.150417 -0.1297992,0.0146 -0.2360093,-0.09365 -0.2360093,-0.225646 V 12.02344 c 0,-0.131967 0.1058807,-0.23892 0.2365032,-0.23892 z"
         fill="url(#paint3_linear_413_138)"
         id="path4"
         style="fill:#8fbcbb;stroke-width:0.263422;fill-opacity:1" />
    </g>
  </g>
</svg>
