<?xml version="1.0" encoding="UTF-8" standalone="no"?>
<!-- Created with Inkscape (http://www.inkscape.org/) -->

<svg
   width="64"
   height="64"
   viewBox="0 0 16.933333 16.933333"
   version="1.1"
   id="svg1"
   inkscape:version="1.4.2 (unknown)"
   sodipodi:docname="folder-windows.svg"
   xmlns:inkscape="http://www.inkscape.org/namespaces/inkscape"
   xmlns:sodipodi="http://sodipodi.sourceforge.net/DTD/sodipodi-0.dtd"
   xmlns="http://www.w3.org/2000/svg"
   xmlns:svg="http://www.w3.org/2000/svg">
  <sodipodi:namedview
     id="namedview1"
     pagecolor="#ffffff"
     bordercolor="#000000"
     borderopacity="0.25"
     inkscape:showpageshadow="2"
     inkscape:pageopacity="0.0"
     inkscape:pagecheckerboard="0"
     inkscape:deskcolor="#d1d1d1"
     inkscape:document-units="px"
     inkscape:zoom="4.560058"
     inkscape:cx="25.547921"
     inkscape:cy="35.635512"
     inkscape:current-layer="layer1"
     showgrid="true"
     showguides="false">
    <inkscape:grid
       id="grid1"
       units="px"
       originx="0"
       originy="0"
       spacingx="0.26458333"
       spacingy="0.26458333"
       empcolor="#0099e5"
       empopacity="0.30196078"
       color="#0099e5"
       opacity="0.14901961"
       empspacing="5"
       enabled="true"
       visible="true" />
  </sodipodi:namedview>
  <defs
     id="defs1" />
  <g
     inkscape:label="Layer 1"
     inkscape:groupmode="layer"
     id="layer1">
    <g
       id="g1">
      <rect
         x="4.2388601"
         y="1.8520832"
         style="clip-rule:evenodd;opacity:0.2;fill:#000000;fill-opacity:1;fill-rule:evenodd;stroke-width:0.264585"
         width="10.577806"
         height="13.229166"
         id="rect29"
         ry="0.79374999"
         rx="0.79375064" />
      <rect
         x="6.069252"
         y="1.5875"
         style="clip-rule:evenodd;fill:#b4cae4;fill-opacity:1;fill-rule:evenodd;stroke-width:0.264586"
         width="8.4888077"
         height="13.758333"
         id="rect30"
         ry="1.0583332"
         rx="1.0610963" />
      <path
         style="clip-rule:evenodd;opacity:0.2;fill:#000000;fill-opacity:1;fill-rule:evenodd;stroke-width:0.264587"
         d="m 3.2968711,1.3229166 h 9.3779779 c 0.457463,0 0.915849,0.4547565 0.914925,0.9260417 l -0.0038,1.9306298 v 0.7233882 c 0,0.1763808 -0.02845,0.2579736 -0.170053,0.3117151 l -0.315645,0.1198287 c -0.15671,0.059517 -0.237213,0.2082463 -0.237213,0.4213084 v 2.5010489 c 0,0.2130131 0.08056,0.3617956 0.237213,0.4213073 l 0.315641,0.1198295 c 0.1416,0.053739 0.170052,0.1353342 0.170052,0.3117153 v 0.7233873 l -0.0098,5.2481332 c -9.91e-4,0.529165 -0.656369,1.058332 -1.113832,1.058332 -6.8559806,5e-6 -6.0394979,-1e-6 -9.1654905,-1e-6 -0.4746829,0 -0.9149255,-0.454705 -0.9149255,-0.926041 V 2.2489583 c 0,-0.4712862 0.4402943,-0.9260417 0.9149255,-0.9260417 z"
         id="path30"
         sodipodi:nodetypes="ssscsccssccscsssssss" />
      <path
         style="clip-rule:evenodd;fill:#36485c;fill-rule:evenodd;stroke-width:0.264586"
         d="m 3.0321268,1.0583333 h 9.3383202 c 0.503561,0 0.957799,0.4547727 0.95384,0.9260416 l -0.01622,1.930621 0.01622,0.7233861 c 0.0039,0.1763386 -0.0464,0.2579724 -0.196597,0.3117144 l -0.334815,0.119828 c -0.166227,0.059517 -0.25162,0.2082443 -0.25162,0.4213559 v 2.5010416 c 0,0.2130121 0.08545,0.3617926 0.25162,0.4213057 l 0.334815,0.1198293 c 0.1502,0.053738 0.180379,0.1353338 0.180379,0.3117142 v 0.7233853 l 0.01622,5.3804016 c 0.0014,0.471383 -0.47692,0.926042 -0.95384,0.926042 H 3.0321268 c -0.5035079,0 -0.9154606,-0.385628 -0.9154606,-0.856961 V 1.9153476 c 0,-0.4713354 0.4120045,-0.8570143 0.9154606,-0.8570143 z"
         id="path31"
         sodipodi:nodetypes="ssscsccssccscssssss" />
    </g>
    <path
       d="M 7.1487496,9.8921933 A 0.31749588,0.31749588 0 0 0 6.888521,9.8235827 L 5.3010213,10.112221 a 0.31751037,0.31751037 0 0 0 -0.2607089,0.312387 v 0.952496 a 0.31749973,0.31749973 0 0 0 0.3175004,0.317501 h 1.5874998 a 0.31749973,0.31749973 0 0 0 0.3174975,-0.317508 v -1.24114 A 0.31746799,0.31746799 0 0 0 7.1487504,9.8922003 Z M 6.6278119,11.059587 H 5.6753141 V 10.689558 L 6.6278119,10.516393 Z M 10.217914,9.3341635 a 0.31740088,0.31740088 0 0 0 -0.2602294,-0.06862 l -2.010831,0.365605 A 0.31748997,0.31748997 0 0 0 7.6861437,9.9435319 V 11.37709 a 0.31749973,0.31749973 0 0 0 0.3175003,0.3175 h 2.010831 a 0.31749973,0.31749973 0 0 0 0.3175,-0.3175 V 9.5779175 a 0.31746799,0.31746799 0 0 0 -0.11406,-0.243757 z M 9.6969776,11.059587 H 8.3211417 V 10.208501 L 9.6969776,9.9583492 Z m -2.751665,1.058332 H 5.3578128 a 0.31749973,0.31749973 0 0 0 -0.3175004,0.317502 v 0.952496 a 0.31751037,0.31751037 0 0 0 0.2607089,0.312386 L 6.8885179,13.98894 A 0.3175111,0.3175111 0 0 0 7.2628101,13.676557 V 12.435421 A 0.31749973,0.31749973 0 0 0 6.9453126,12.117919 Z M 6.6278119,13.296116 5.6753141,13.122949 v -0.37003 H 6.6278119 Z M 10.014475,12.117919 H 8.003644 a 0.31749973,0.31749973 0 0 0 -0.3175003,0.317502 v 1.433552 a 0.31748968,0.31748968 0 0 0 0.2607099,0.312385 l 2.010831,0.365611 a 0.3175111,0.3175111 0 0 0 0.3742904,-0.312383 v -1.799165 a 0.31749973,0.31749973 0 0 0 -0.3175,-0.317502 z M 9.6969776,13.854156 8.3211417,13.604005 v -0.851086 h 1.3758359 z"
       id="path1-3"
       style="fill:#8fbcbb;fill-opacity:1;stroke-width:0.291042" />
  </g>
</svg>
