<?xml version="1.0" encoding="UTF-8" standalone="no"?>
<!-- Created with Inkscape (http://www.inkscape.org/) -->

<svg
   width="64"
   height="64"
   viewBox="0 0 16.933333 16.933333"
   version="1.1"
   id="svg1"
   inkscape:version="1.4.2 (unknown)"
   sodipodi:docname="folder-ubuntu.svg"
   xmlns:inkscape="http://www.inkscape.org/namespaces/inkscape"
   xmlns:sodipodi="http://sodipodi.sourceforge.net/DTD/sodipodi-0.dtd"
   xmlns="http://www.w3.org/2000/svg"
   xmlns:svg="http://www.w3.org/2000/svg">
  <sodipodi:namedview
     id="namedview1"
     pagecolor="#ffffff"
     bordercolor="#000000"
     borderopacity="0.25"
     inkscape:showpageshadow="2"
     inkscape:pageopacity="0.0"
     inkscape:pagecheckerboard="0"
     inkscape:deskcolor="#d1d1d1"
     inkscape:document-units="px"
     inkscape:zoom="9.1201159"
     inkscape:cx="26.041336"
     inkscape:cy="44.242859"
     inkscape:current-layer="layer1"
     showgrid="false"
     showguides="false">
    <inkscape:grid
       id="grid1"
       units="px"
       originx="0"
       originy="0"
       spacingx="0.26458333"
       spacingy="0.26458333"
       empcolor="#0099e5"
       empopacity="0.30196078"
       color="#0099e5"
       opacity="0.14901961"
       empspacing="5"
       enabled="true"
       visible="false" />
  </sodipodi:namedview>
  <defs
     id="defs1" />
  <g
     inkscape:label="Layer 1"
     inkscape:groupmode="layer"
     id="layer1">
    <rect
       x="4.2388601"
       y="1.8520832"
       style="clip-rule:evenodd;opacity:0.2;fill:#000000;fill-opacity:1;fill-rule:evenodd;stroke-width:0.264585"
       width="10.577806"
       height="13.229166"
       id="rect29"
       ry="0.79374999"
       rx="0.79375064" />
    <rect
       x="6.069252"
       y="1.5875"
       style="clip-rule:evenodd;fill:#b4cae4;fill-opacity:1;fill-rule:evenodd;stroke-width:0.264586"
       width="8.4888077"
       height="13.758333"
       id="rect30"
       ry="1.0583332"
       rx="1.0610963" />
    <path
       style="clip-rule:evenodd;opacity:0.2;fill:#000000;fill-opacity:1;fill-rule:evenodd;stroke-width:0.264587"
       d="m 3.2968711,1.3229166 h 9.3779779 c 0.457463,0 0.915849,0.4547565 0.914925,0.9260417 l -0.0038,1.9306298 v 0.7233882 c 0,0.1763808 -0.02845,0.2579736 -0.170053,0.3117151 l -0.315645,0.1198287 c -0.15671,0.059517 -0.237213,0.2082463 -0.237213,0.4213084 v 2.5010489 c 0,0.2130131 0.08056,0.3617956 0.237213,0.4213073 l 0.315641,0.1198295 c 0.1416,0.053739 0.170052,0.1353342 0.170052,0.3117153 v 0.7233873 l -0.0098,5.2481332 c -9.91e-4,0.529165 -0.656369,1.058332 -1.113832,1.058332 -6.8559806,5e-6 -6.0394979,-1e-6 -9.1654905,-1e-6 -0.4746829,0 -0.9149255,-0.454705 -0.9149255,-0.926041 V 2.2489583 c 0,-0.4712862 0.4402943,-0.9260417 0.9149255,-0.9260417 z"
       id="path30"
       sodipodi:nodetypes="ssscsccssccscsssssss" />
    <path
       style="clip-rule:evenodd;fill:#36485c;fill-rule:evenodd;stroke-width:0.264586"
       d="m 3.0321268,1.0583333 h 9.3383202 c 0.503561,0 0.957799,0.4547727 0.95384,0.9260416 l -0.01622,1.930621 0.01622,0.7233861 c 0.0039,0.1763386 -0.0464,0.2579724 -0.196597,0.3117144 l -0.334815,0.119828 c -0.166227,0.059517 -0.25162,0.2082443 -0.25162,0.4213559 v 2.5010416 c 0,0.2130121 0.08545,0.3617926 0.25162,0.4213057 l 0.334815,0.1198293 c 0.1502,0.053738 0.180379,0.1353338 0.180379,0.3117142 v 0.7233853 l 0.01622,5.3804016 c 0.0014,0.471383 -0.47692,0.926042 -0.95384,0.926042 H 3.0321268 c -0.5035079,0 -0.9154606,-0.385628 -0.9154606,-0.856961 V 1.9153476 c 0,-0.4713354 0.4120045,-0.8570143 0.9154606,-0.8570143 z"
       id="path31"
       sodipodi:nodetypes="ssscsccssccscssssss" />
    <path
       style="fill:#8fbcbb;fill-opacity:1;stroke-width:0.264582"
       d="m 9.6255846,8.2020832 c -1.2764859,0 -1.5157949,1.8847278 -0.7976152,1.8847278 0.717929,0 2.0743496,-1.8847278 0.7976152,-1.8847278 z m -1.966261,0.2899019 c -0.020115,0 -0.041481,0.00195 -0.064347,0.00413 C 6.8712654,8.5847704 7.125909,9.7744174 7.511018,9.7966425 7.883304,9.8181418 8.2915379,8.4941681 7.6585749,8.4919704 Z m -1.254113,0.4391267 c -0.044246,-0.0027 -0.09326,0.00539 -0.1478088,0.02711 C 5.67597,9.1902412 6.1691698,10.147869 6.494701,10.083636 6.7900667,10.025266 6.8325496,8.9579772 6.4052128,8.9311122 Z M 5.4562675,9.7141149 C 5.4057425,9.7126449 5.3509417,9.7297449 5.2926222,9.7717539 4.8273259,10.10928 5.4494806,10.924764 5.7232286,10.798259 5.9627897,10.687622 5.8099536,9.7265706 5.4560162,9.7141149 Z m 2.7487931,0.7783661 c -1.0082678,-0.01686 -2.3387991,0.480154 -2.5657916,1.479548 -0.245594,1.080473 1.011536,2.580053 2.3227117,2.580053 0.6452813,0 1.3896041,-0.572968 1.5288668,-1.298578 C 9.597179,12.700322 8.2394993,12.922082 8.2880143,13.287954 8.3465873,13.72683 7.9607238,13.943713 7.5829057,13.66089 6.3795708,12.760415 9.5750581,12.311027 9.3641543,11.080596 9.2985443,10.697643 8.8093677,10.502747 8.2045584,10.492493 Z"
       id="path5" />
  </g>
</svg>
