<?xml version="1.0" encoding="UTF-8" standalone="no"?>
<!-- Created with Inkscape (http://www.inkscape.org/) -->

<svg
   width="64"
   height="64"
   viewBox="0 0 16.933333 16.933333"
   version="1.1"
   id="svg1"
   inkscape:version="1.4.2 (unknown)"
   sodipodi:docname="folder-templates.svg"
   xmlns:inkscape="http://www.inkscape.org/namespaces/inkscape"
   xmlns:sodipodi="http://sodipodi.sourceforge.net/DTD/sodipodi-0.dtd"
   xmlns="http://www.w3.org/2000/svg"
   xmlns:svg="http://www.w3.org/2000/svg">
  <sodipodi:namedview
     id="namedview1"
     pagecolor="#ffffff"
     bordercolor="#000000"
     borderopacity="0.25"
     inkscape:showpageshadow="2"
     inkscape:pageopacity="0.0"
     inkscape:pagecheckerboard="0"
     inkscape:deskcolor="#d1d1d1"
     inkscape:document-units="px"
     inkscape:zoom="12.897792"
     inkscape:cx="29.888837"
     inkscape:cy="34.385731"
     inkscape:current-layer="layer1"
     showgrid="true"
     showguides="false">
    <inkscape:grid
       id="grid1"
       units="px"
       originx="0"
       originy="0"
       spacingx="0.26458333"
       spacingy="0.26458333"
       empcolor="#0099e5"
       empopacity="0.30196078"
       color="#0099e5"
       opacity="0.14901961"
       empspacing="5"
       enabled="true"
       visible="true" />
  </sodipodi:namedview>
  <defs
     id="defs1" />
  <g
     inkscape:label="Layer 1"
     inkscape:groupmode="layer"
     id="layer1">
    <g
       id="g1">
      <rect
         x="4.2388601"
         y="1.8520832"
         style="clip-rule:evenodd;opacity:0.2;fill:#000000;fill-opacity:1;fill-rule:evenodd;stroke-width:0.264585"
         width="10.577806"
         height="13.229166"
         id="rect29"
         ry="0.79374999"
         rx="0.79375064" />
      <rect
         x="6.069252"
         y="1.5875"
         style="clip-rule:evenodd;fill:#b4cae4;fill-opacity:1;fill-rule:evenodd;stroke-width:0.264586"
         width="8.4888077"
         height="13.758333"
         id="rect30"
         ry="1.0583332"
         rx="1.0610963" />
      <path
         style="clip-rule:evenodd;opacity:0.2;fill:#000000;fill-opacity:1;fill-rule:evenodd;stroke-width:0.264587"
         d="m 3.2968711,1.3229166 h 9.3779779 c 0.457463,0 0.915849,0.4547565 0.914925,0.9260417 l -0.0038,1.9306298 v 0.7233882 c 0,0.1763808 -0.02845,0.2579736 -0.170053,0.3117151 l -0.315645,0.1198287 c -0.15671,0.059517 -0.237213,0.2082463 -0.237213,0.4213084 v 2.5010489 c 0,0.2130131 0.08056,0.3617956 0.237213,0.4213073 l 0.315641,0.1198295 c 0.1416,0.053739 0.170052,0.1353342 0.170052,0.3117153 v 0.7233873 l -0.0098,5.2481332 c -9.91e-4,0.529165 -0.656369,1.058332 -1.113832,1.058332 -6.8559806,5e-6 -6.0394979,-1e-6 -9.1654905,-1e-6 -0.4746829,0 -0.9149255,-0.454705 -0.9149255,-0.926041 V 2.2489583 c 0,-0.4712862 0.4402943,-0.9260417 0.9149255,-0.9260417 z"
         id="path30"
         sodipodi:nodetypes="ssscsccssccscsssssss" />
      <path
         style="clip-rule:evenodd;fill:#36485c;fill-rule:evenodd;stroke-width:0.264586"
         d="m 3.0321268,1.0583333 h 9.3383202 c 0.503561,0 0.957799,0.4547727 0.95384,0.9260416 l -0.01622,1.930621 0.01622,0.7233861 c 0.0039,0.1763386 -0.0464,0.2579724 -0.196597,0.3117144 l -0.334815,0.119828 c -0.166227,0.059517 -0.25162,0.2082443 -0.25162,0.4213559 v 2.5010416 c 0,0.2130121 0.08545,0.3617926 0.25162,0.4213057 l 0.334815,0.1198293 c 0.1502,0.053738 0.180379,0.1353338 0.180379,0.3117142 v 0.7233853 l 0.01622,5.3804016 c 0.0014,0.471383 -0.47692,0.926042 -0.95384,0.926042 H 3.0321268 c -0.5035079,0 -0.9154606,-0.385628 -0.9154606,-0.856961 V 1.9153476 c 0,-0.4713354 0.4120045,-0.8570143 0.9154606,-0.8570143 z"
         id="path31"
         sodipodi:nodetypes="ssscsccssccscssssss" />
    </g>
    <path
       d="m 6.6278077,9.2604415 c -0.5801523,0 -1.0583286,0.47843 -1.0583286,1.0588785 v 2.469336 H 5.9222614 V 12.437078 H 6.2750303 V 10.31932 c 0,-0.201295 0.1515801,-0.3529608 0.3527815,-0.3529608 h 1.4111047 v 0.5294358 c 0,0.352954 0.1763847,0.529439 0.5291682,0.529439 h 0.5291668 v 2.470726 h 0.3527807 v 0.352975 h 0.3527822 v -3.000177 c 0,-0.09382 -0.03716,-0.183368 -0.1033964,-0.249554 L 8.4647251,9.3638465 C 8.3985801,9.2976865 8.309007,9.2604165 8.2153015,9.2604165 Z M 9.4500202,13.848922 H 9.0972378 v 0.3502 H 8.7444692 v 0.352957 h 0.3527686 v -0.350195 h 0.3527824 z m -0.705551,0.3502 v -0.35295 H 8.3916856 v 0.35295 z m -0.3527836,0 H 8.0389165 v 0.352957 h 0.3527841 z m -0.3527823,0 v -0.35295 H 7.686134 v 0.35295 z m -0.3527693,0 H 7.3333651 v 0.352957 h 0.3527825 z m -0.3527807,0 v -0.35295 H 6.9805842 v 0.35295 z m -0.3527691,0 h -0.352769 v 0.352957 h 0.3527809 z m -0.3527813,0 v -0.35295 H 6.2750184 v 0.35295 z m -0.3527845,0 H 5.9222497 v 0.352957 h 0.3527687 z m -0.3527687,0 v -0.35295 H 5.5694791 v 0.35295 z m 0,-0.35295 H 6.2750184 V 13.493206 H 5.9222497 Z m 0,-0.352966 V 13.140233 H 5.5694791 v 0.352975 z m 0,-0.352977 H 6.2750184 V 12.787281 H 5.9222497 Z m 0,0"
       id="path1-3-3"
       style="fill:#8fbcbb;fill-opacity:1;stroke-width:0.291041" />
  </g>
</svg>
