<?xml version="1.0" encoding="UTF-8" standalone="no"?>
<svg
   width="24"
   height="24"
   viewBox="0 0 24 24"
   version="1.1"
   id="svg2"
   sodipodi:docname="notifications-disabled.svg"
   inkscape:version="1.4.2 (ebf0e94, 2025-05-08)"
   xmlns:inkscape="http://www.inkscape.org/namespaces/inkscape"
   xmlns:sodipodi="http://sodipodi.sourceforge.net/DTD/sodipodi-0.dtd"
   xmlns="http://www.w3.org/2000/svg"
   xmlns:svg="http://www.w3.org/2000/svg">
  <defs
     id="defs2">
    <marker
       markerWidth="0.52499998"
       markerHeight="0.99999995"
       refX="0"
       refY="0"
       orient="auto-start-reverse"
       id="marker2"
       viewBox="0 0 0.525 1"
       inkscape:stockid="Triangle cap"
       style="overflow:visible"
       preserveAspectRatio="xMidYMid"
       inkscape:isstock="true"
       inkscape:collect="always">
      <path
         style="fill:context-stroke;stroke-linecap:butt"
         d="M 0,-1 1,0 0,1 -0.05,0 Z"
         sodipodi:nodetypes="sssssscsss"
         transform="scale(0.5)"
         id="path2" />
    </marker>
    <marker
       markerWidth="0.52499998"
       markerHeight="0.99999995"
       refX="0"
       refY="0"
       orient="auto-start-reverse"
       id="CapTriangle"
       viewBox="0 0 0.525 1"
       inkscape:stockid="Triangle cap"
       style="overflow:visible"
       preserveAspectRatio="xMidYMid"
       inkscape:isstock="true"
       inkscape:collect="always">
      <path
         style="fill:context-stroke;stroke-linecap:butt"
         d="M 0,-1 1,0 0,1 -0.05,0 Z"
         sodipodi:nodetypes="sssssscsss"
         transform="scale(0.5)"
         id="path61" />
    </marker>
  </defs>
  <sodipodi:namedview
     id="namedview2"
     pagecolor="#ffffff"
     bordercolor="#999999"
     borderopacity="1"
     inkscape:showpageshadow="2"
     inkscape:pageopacity="0"
     inkscape:pagecheckerboard="0"
     inkscape:deskcolor="#d1d1d1"
     showgrid="true"
     inkscape:zoom="24.613366"
     inkscape:cx="-2.9658682"
     inkscape:cy="15.398138"
     inkscape:window-width="2226"
     inkscape:window-height="1193"
     inkscape:window-x="0"
     inkscape:window-y="0"
     inkscape:window-maximized="1"
     inkscape:current-layer="svg2">
    <inkscape:grid
       id="grid2"
       units="px"
       originx="0"
       originy="0"
       spacingx="1"
       spacingy="1"
       empcolor="#0099e5"
       empopacity="0.30196078"
       color="#0099e5"
       opacity="0.14902"
       empspacing="5"
       dotted="false"
       gridanglex="30"
       gridanglez="30"
       visible="true" />
  </sodipodi:namedview>
  <style
     type="text/css"
     id="current-color-scheme">.ColorScheme-Text { color:#d3dae3; }
.ColorScheme-ButtonFocus { color:#3daee9; }
.ColorScheme-NegativeText { color: #da4453; }
</style>
  <path
     d="M 1,1 H 23 V 23 H 1 Z"
     fill="none"
     id="path1" />
  <path
     d="M 18.66731,5.00194 5.3327,5.00594 v 0 C 4.66635,5.00594 4,5.67238 4,6.33879 l 0.008,9.38423 c 0,0.6664 0.66635,1.27699 1.3327,1.27699 v 0 h 3.6597 l 2.55271,3.76259 1.2e-4,-1.1e-4 c 0.0989,0.14853 0.26523,0.23735 0.44349,0.23735 0.17826,0 0.34459,-0.0888 0.4435,-0.23735 l 2.56018,-3.76248 h 3 0.6673 c 0.66635,0 1.3327,-0.61051 1.33269,-1.27699 l 10e-6,-9.39016 c 0,-0.66641 -0.66635,-1.33285 -1.3327,-1.33285 z M 19,14.99977 c 0,1.00003 0,1.00003 -1,1.00003 h -3.507 c -0.17826,-1.1e-4 -0.54486,0.57989 -0.64386,0.72843 L 11.99621,19.50905 10.143,16.72985 C 10.044,16.58169 9.77825,15.9998 9.6,15.9998 H 6 c -1,0 -1,0 -1,-1.00003 V 6.9998 C 5,5.99977 5,5.99977 6,5.99977 h 12 c 1,0 1,0 1,1.00003 z"
     id="path2-3-6"
     style="stroke-width:0.0304633;fill-opacity:1;fill:currentColor;"
     sodipodi:nodetypes="ccccccccccscccccccccccccccccccccc"
     class="ColorScheme-Text " />
  <path
     d="M 7,8 H 17 V 8.99999 H 7 Z"
     id="path4-5-2"
     style="stroke-width:0.0304647;fill-opacity:1;fill:currentColor;"
     class="ColorScheme-Text "
     sodipodi:nodetypes="ccccc" />
  <path
     d="m 7,11 h 6 v 0.99999 H 7 Z"
     id="path8-2-1"
     style="stroke-width:0.0304647;fill-opacity:1;fill:currentColor;"
     class="ColorScheme-Text "
     sodipodi:nodetypes="ccccc" />
  <line
     x1="3.6895409"
     y1="4.6448193"
     x2="20.487038"
     y2="21.035381"
     stroke="#ff0000"
     stroke-width="0.45"
     id="line1"
     style="stroke-width:1.777;stroke-dasharray:none;marker-start:url(#CapTriangle);marker-end:url(#marker2)" />
</svg>
