<?xml version="1.0" encoding="UTF-8" standalone="no"?>
<svg
   width="62"
   height="62"
   version="1.1"
   id="svg49"
   sodipodi:docname="AdobeLightroom.svg"
   inkscape:version="1.4 (e7c3feb100, 2024-10-09)"
   xmlns:inkscape="http://www.inkscape.org/namespaces/inkscape"
   xmlns:sodipodi="http://sodipodi.sourceforge.net/DTD/sodipodi-0.dtd"
   xmlns:xlink="http://www.w3.org/1999/xlink"
   xmlns="http://www.w3.org/2000/svg"
   xmlns:svg="http://www.w3.org/2000/svg"
   xmlns:rdf="http://www.w3.org/1999/02/22-rdf-syntax-ns#"
   xmlns:cc="http://creativecommons.org/ns#"
   xmlns:dc="http://purl.org/dc/elements/1.1/">
  <sodipodi:namedview
     id="namedview51"
     pagecolor="#ffffff"
     bordercolor="#666666"
     borderopacity="1.0"
     inkscape:showpageshadow="2"
     inkscape:pageopacity="0.0"
     inkscape:pagecheckerboard="0"
     inkscape:deskcolor="#d1d1d1"
     showgrid="false"
     inkscape:zoom="7.375"
     inkscape:cx="37.355932"
     inkscape:cy="41.898305"
     inkscape:window-width="1920"
     inkscape:window-height="994"
     inkscape:window-x="0"
     inkscape:window-y="0"
     inkscape:window-maximized="1"
     inkscape:current-layer="svg49" />
  <metadata
     id="metadata2">
    <rdf:RDF>
      <cc:Work
         rdf:about="">
        <dc:format>image/svg+xml</dc:format>
        <dc:type
           rdf:resource="http://purl.org/dc/dcmitype/StillImage" />
      </cc:Work>
    </rdf:RDF>
  </metadata>
  <defs
     id="defs19">
    <linearGradient
       id="linearGradient12"
       inkscape:collect="always">
      <stop
         style="stop-color:#b380ff;stop-opacity:1"
         offset="0"
         id="stop13" />
      <stop
         style="stop-color:#008080;stop-opacity:1"
         offset="1"
         id="stop15" />
    </linearGradient>
    <linearGradient
       id="linearGradient8"
       inkscape:collect="always">
      <stop
         style="stop-color:#f0f3f4;stop-opacity:1;"
         offset="0"
         id="stop8" />
      <stop
         style="stop-color:#b7c6cd;stop-opacity:1;"
         offset="1"
         id="stop9" />
    </linearGradient>
    <linearGradient
       id="b"
       x1="24"
       x2="24"
       y1="26"
       y2="44"
       gradientTransform="matrix(1.5,0,0,1.5,-4,-4)"
       gradientUnits="userSpaceOnUse">
      <stop
         stop-color="#009632"
         offset="0"
         id="stop4"
         style="stop-color:#008080;stop-opacity:1" />
      <stop
         stop-color="#00783c"
         offset="1"
         id="stop6"
         style="stop-color:#00d455;stop-opacity:1" />
    </linearGradient>
    <filter
       id="c"
       x="-0.054049861"
       y="-0.067422114"
       width="1.1080997"
       height="1.1348442"
       color-interpolation-filters="sRGB">
      <feGaussianBlur
         stdDeviation="1.0109576"
         id="feGaussianBlur9" />
    </filter>
    <linearGradient
       id="linearGradient1005-6"
       x1="0.73910999"
       x2="16.388"
       y1="16.296"
       y2="0.64687002"
       gradientTransform="matrix(3.6006065,0,0,3.5846499,1.4691576,1.6258415)"
       gradientUnits="userSpaceOnUse">
      <stop
         stop-color="#cfdef0"
         offset="0"
         id="stop12"
         style="stop-color:#ffff00;stop-opacity:1" />
      <stop
         stop-color="#f5faff"
         offset="0.53725457"
         id="stop14"
         style="stop-color:#aed7ff;stop-opacity:1;" />
      <stop
         stop-color="#f5faff"
         offset="1"
         id="stop16"
         style="stop-color:#ffb380;stop-opacity:1" />
    </linearGradient>
    <linearGradient
       id="e-3"
       x1="24.705"
       x2="25.061001"
       y1="43.938999"
       y2="4.4050002"
       gradientTransform="translate(8.5029,9.2229)"
       gradientUnits="userSpaceOnUse">
      <stop
         stop-color="#14cd46"
         offset="0"
         id="stop9-6" />
      <stop
         stop-color="#5adc19"
         offset="1"
         id="stop11-5" />
    </linearGradient>
    <linearGradient
       id="d-6"
       x1="31"
       x2="31"
       y1="34"
       y2="24"
       gradientTransform="translate(8.5029,9.2229)"
       gradientUnits="userSpaceOnUse">
      <stop
         stop-color="#323232"
         offset="0"
         id="stop14-3" />
      <stop
         stop-color="#3c503c"
         offset="1"
         id="stop16-9" />
    </linearGradient>
    <linearGradient
       id="c-4"
       x1="18"
       x2="18"
       y1="34"
       y2="24"
       gradientTransform="translate(8.5029,9.2229)"
       gradientUnits="userSpaceOnUse">
      <stop
         stop-color="#323232"
         offset="0"
         id="stop19-8" />
      <stop
         stop-color="#3c503c"
         offset="1"
         id="stop21-1" />
    </linearGradient>
    <linearGradient
       id="paint0_linear_235_90"
       x1="27.525322"
       y1="31.643129"
       x2="27.796511"
       y2="15.37194"
       gradientUnits="userSpaceOnUse">
      <stop
         stop-color="#02AA93"
         id="stop2" />
      <stop
         offset="1"
         stop-color="#67FF80"
         id="stop3"
         style="stop-color:#ffe680;stop-opacity:1;" />
    </linearGradient>
    <linearGradient
       id="paint1_linear_235_90"
       x1="28.610069"
       y1="39.949596"
       x2="28.745665"
       y2="32.645008"
       gradientUnits="userSpaceOnUse">
      <stop
         stop-color="#02AA93"
         id="stop4-6" />
      <stop
         offset="1"
         stop-color="#67FF80"
         id="stop5"
         style="stop-color:#ffe680;stop-opacity:1" />
    </linearGradient>
    <linearGradient
       id="paint1_linear_218_99"
       x1="11"
       y1="5.97119"
       x2="11"
       y2="11.9712"
       gradientUnits="userSpaceOnUse"
       gradientTransform="matrix(3.1499998,0,0,3.142827,60.770339,19.862146)">
      <stop
         stop-color="#0EEBB6"
         id="stop4-3"
         offset="0"
         style="stop-color:#0eecb7;stop-opacity:1;" />
      <stop
         offset="1"
         stop-color="#04B6CE"
         id="stop5-6" />
    </linearGradient>
    <linearGradient
       id="paint2_linear_218_99"
       x1="5.25"
       y1="5"
       x2="5.25"
       y2="12"
       gradientUnits="userSpaceOnUse"
       gradientTransform="matrix(3.1499998,0,0,3.142827,60.770339,19.862146)">
      <stop
         stop-color="#0EEBB6"
         id="stop6-7" />
      <stop
         offset="1"
         stop-color="#04B6CE"
         id="stop7" />
    </linearGradient>
    <linearGradient
       inkscape:collect="always"
       xlink:href="#linearGradient8"
       id="linearGradient9"
       x1="71.94915"
       y1="38.542374"
       x2="80.531143"
       y2="57.576271"
       gradientUnits="userSpaceOnUse" />
    <linearGradient
       inkscape:collect="always"
       xlink:href="#linearGradient8"
       id="linearGradient11"
       x1="91.154228"
       y1="38.628544"
       x2="98.059319"
       y2="55.480782"
       gradientUnits="userSpaceOnUse" />
    <linearGradient
       inkscape:collect="always"
       xlink:href="#linearGradient12"
       id="linearGradient15"
       x1="87.199532"
       y1="25.668339"
       x2="86.288139"
       y2="67.576271"
       gradientUnits="userSpaceOnUse" />
  </defs>
  <g
     transform="matrix(3.7796,0,0,3.7796,-82.522,3.3896)"
     image-rendering="optimizeSpeed"
     stroke-width="0.26458"
     id="g29">
    <circle
       cx="-330.35001"
       cy="-328.38"
       r="0"
       id="circle21" />
    <circle
       cx="-312.10999"
       cy="-326.25"
       r="0"
       id="circle23" />
    <circle
       cx="-306.01999"
       cy="-333.07001"
       r="0"
       id="circle25" />
    <circle
       cx="-308.84"
       cy="-326.01001"
       r="0"
       id="circle27" />
  </g>
  <g
     id="g1"
     transform="matrix(1.3333333,0,0,1.3333333,-82.627116,-31.101693)">
    <path
       d="m 106.22034,46.576201 c 0,2.517472 -0.44312,4.931138 -1.25572,7.167972 -0.56486,1.554837 -1.30794,3.02476 -2.20631,4.384507 -0.37628,0.571684 -0.78084,1.123777 -1.21029,1.654377 -1.37486,1.69791 -3.008645,3.176588 -4.842837,4.376735 -0.675432,0.442295 -1.37745,0.846857 -2.104255,1.209387 -2.822378,1.41252 -6.008611,2.207092 -9.380622,2.207092 -3.371868,0 -6.558106,-0.794572 -9.380622,-2.207166 -0.726876,-0.362611 -1.429739,-0.767127 -2.10516,-1.209385 -1.857439,-1.216313 -3.510822,-2.718158 -4.896812,-4.444217 -0.430247,-0.534849 -0.834044,-1.091996 -1.210291,-1.668864 -0.874294,-1.337129 -1.598505,-2.779754 -2.152206,-4.304564 -0.812479,-2.236283 -1.254876,-4.649171 -1.254876,-7.165874 0,-11.598259 9.401623,-20.99993 20.999824,-20.99993 5.821785,0 11.089312,2.369142 14.893777,6.195331 1.09626,1.10221 2.07094,2.326372 2.90036,3.649642 0.78434,1.246354 1.43995,2.581732 1.94997,3.986488 0.81277,2.237128 1.25579,4.650867 1.25579,7.167983 z"
       image-rendering="optimizeSpeed"
       stroke-width="0.0820329"
       id="path31"
       style="fill:url(#linearGradient15);fill-opacity:1" />
    <path
       d="m 89.750323,38.628545 c -0.34795,0 -0.62999,0.281435 -0.62999,0.628573 V 56.85698 c 0,0.346985 0.282076,0.628581 0.62999,0.628581 h 5.040028 c 0.348066,0 0.629995,-0.281596 0.629995,-0.628581 V 45.174567 c 0,-0.166797 0.06673,-0.328142 0.187426,-0.443696 2.237437,-2.14566 4.443708,-2.735698 5.487598,-2.89794 0.34399,-0.05339 0.62497,-0.342952 0.62497,-0.690111 v -1.885702 c 0,-0.347159 -0.28089,-0.620444 -0.62497,-0.567018 -0.89554,0.139118 -2.645988,0.593115 -4.538202,2.073646 -0.441613,0.345562 -1.136822,0.05021 -1.136822,-0.509851 v -0.996777 c 0,-0.347159 -0.281946,-0.628573 -0.629995,-0.628573 z"
       id="path1-5"
       style="fill:url(#linearGradient11)" />
    <path
       d="m 70.850321,35.576271 c -0.347951,0 -0.629982,0.281389 -0.629982,0.628547 v 18.22841 3.050743 0 c 0,0.05071 0.04127,0.0923 0.09251,0.0923 h 13.45269 c 0.347951,0 0.630016,-0.281306 0.630016,-0.628547 v -1.885743 c 0,-0.347261 -0.282073,-0.62856 -0.630016,-0.62856 h -8.190006 c -0.347951,0 -0.630011,-0.281332 -0.630011,-0.628572 V 36.204872 c -1.68e-4,-0.347212 -0.282249,-0.628601 -0.630195,-0.628601 z"
       id="path2-3"
       style="fill:url(#linearGradient9);fill-opacity:1" />
  </g>
</svg>
