<?xml version="1.0" encoding="UTF-8" standalone="no"?>
<svg
   enable-background="new"
   id="svg2985"
   height="62"
   width="62"
   version="1.1"
   sodipodi:docname="adobe-photoshop.svg"
   inkscape:version="1.4 (e7c3feb100, 2024-10-09)"
   xmlns:inkscape="http://www.inkscape.org/namespaces/inkscape"
   xmlns:sodipodi="http://sodipodi.sourceforge.net/DTD/sodipodi-0.dtd"
   xmlns:xlink="http://www.w3.org/1999/xlink"
   xmlns="http://www.w3.org/2000/svg"
   xmlns:svg="http://www.w3.org/2000/svg"
   xmlns:rdf="http://www.w3.org/1999/02/22-rdf-syntax-ns#"
   xmlns:cc="http://creativecommons.org/ns#"
   xmlns:dc="http://purl.org/dc/elements/1.1/">
  <sodipodi:namedview
     pagecolor="#ffffff"
     bordercolor="#666666"
     borderopacity="1"
     objecttolerance="10"
     gridtolerance="10"
     guidetolerance="10"
     inkscape:pageopacity="0"
     inkscape:pageshadow="2"
     inkscape:window-width="1920"
     inkscape:window-height="994"
     id="namedview43"
     showgrid="false"
     inkscape:zoom="5.2149125"
     inkscape:cx="-18.888141"
     inkscape:cy="55.993269"
     inkscape:window-x="0"
     inkscape:window-y="0"
     inkscape:window-maximized="1"
     inkscape:current-layer="svg2985"
     inkscape:showpageshadow="2"
     inkscape:pagecheckerboard="0"
     inkscape:deskcolor="#d1d1d1">
    <inkscape:grid
       type="xygrid"
       id="grid921"
       originx="0.89999998"
       originy="2"
       spacingy="1"
       spacingx="1"
       units="px"
       visible="false" />
  </sodipodi:namedview>
  <title
     id="title462">Krita icon - 2021</title>
  <defs
     id="defs2987">
    <linearGradient
       id="linearGradient10"
       inkscape:collect="always">
      <stop
         style="stop-color:#d35fbc;stop-opacity:1;"
         offset="0"
         id="stop10" />
      <stop
         style="stop-color:#00aad4;stop-opacity:1"
         offset="1"
         id="stop11" />
    </linearGradient>
    <linearGradient
       id="linearGradient1"
       inkscape:collect="always">
      <stop
         style="stop-color:#6bd6fe;stop-opacity:1;"
         offset="0"
         id="stop8" />
      <stop
         style="stop-color:#fdfdfd;stop-opacity:1;"
         offset="1"
         id="stop9" />
    </linearGradient>
    <linearGradient
       id="linearGradient2">
      <stop
         id="stop1"
         offset="0"
         style="stop-color:#9955ff;stop-opacity:1" />
      <stop
         id="stop3"
         offset="0.52007878"
         style="stop-color:#cd87de;stop-opacity:1" />
      <stop
         id="stop2"
         offset="1"
         style="stop-color:#00ccff;stop-opacity:1" />
    </linearGradient>
    <linearGradient
       id="linearGradient1292">
      <stop
         style="stop-color:#ffff66;stop-opacity:1;"
         offset="0"
         id="stop1288" />
      <stop
         style="stop-color:#ffff70;stop-opacity:0;"
         offset="1"
         id="stop1290" />
    </linearGradient>
    <linearGradient
       id="linearGradient1262">
      <stop
         style="stop-color:#00ffff;stop-opacity:1"
         offset="0"
         id="stop1258" />
      <stop
         style="stop-color:#00ffff;stop-opacity:0"
         offset="1"
         id="stop1260" />
    </linearGradient>
    <linearGradient
       id="linearGradient1228">
      <stop
         id="stop1224"
         offset="0"
         style="stop-color:#ff80ff;stop-opacity:1;" />
      <stop
         id="stop1226"
         offset="1"
         style="stop-color:#ff00ff;stop-opacity:0" />
    </linearGradient>
    <linearGradient
       id="linearGradient1373">
      <stop
         id="stop1369"
         offset="0"
         style="stop-color:#343434;stop-opacity:1" />
      <stop
         id="stop1371"
         offset="1"
         style="stop-color:#4d4d4d;stop-opacity:1" />
    </linearGradient>
    <linearGradient
       id="linearGradient4663-8-4">
      <stop
         offset="0"
         style="stop-color:#5596ea;stop-opacity:1"
         id="stop4665-6-3" />
      <stop
         offset="1"
         style="stop-color:#5596ea;stop-opacity:0"
         id="stop4667-8-0" />
    </linearGradient>
    <linearGradient
       y2="200.87404"
       x2="1280.8954"
       y1="62.713318"
       x1="1142.5884"
       gradientTransform="matrix(0.16867449,-0.01739739,0.01739739,0.16867444,-191.93531,13.433428)"
       gradientUnits="userSpaceOnUse"
       id="linearGradient1403"
       xlink:href="#linearGradient1373" />
    <linearGradient
       gradientTransform="matrix(0.00203556,0.17810423,0.1830211,-0.00198088,-11.204513,-204.3128)"
       y2="89.862335"
       x2="1324.9103"
       y1="230.86234"
       x1="1327.5938"
       gradientUnits="userSpaceOnUse"
       id="linearGradient1405"
       xlink:href="#linearGradient4663-8-4" />
    <clipPath
       clipPathUnits="userSpaceOnUse"
       id="clipPath839-4">
      <circle
         style="opacity:1;vector-effect:none;fill:#000000;fill-opacity:0.47451;stroke:none;stroke-width:4;stroke-linecap:square;stroke-linejoin:round;stroke-miterlimit:4;stroke-dasharray:none;stroke-dashoffset:3.2;stroke-opacity:1"
         id="circle841-5"
         cx="532"
         cy="538"
         r="400" />
    </clipPath>
    <linearGradient
       y2="512"
       x2="711.86438"
       y1="512"
       x1="112"
       gradientTransform="matrix(0.05250004,0,0,0.05250012,41.947462,-84.031585)"
       gradientUnits="userSpaceOnUse"
       id="linearGradient1351"
       xlink:href="#linearGradient1292" />
    <linearGradient
       y2="512"
       x2="711.86438"
       y1="512"
       x1="112"
       gradientTransform="matrix(0.0525,0,0,0.0525001,-110.78844,-57.910585)"
       gradientUnits="userSpaceOnUse"
       id="linearGradient1353"
       xlink:href="#linearGradient1262" />
    <linearGradient
       y2="512"
       x2="711.86438"
       y1="512"
       x1="112"
       gradientTransform="matrix(0.05250007,0,0,0.05250006,-11.799034,61.302114)"
       gradientUnits="userSpaceOnUse"
       id="linearGradient1355"
       xlink:href="#linearGradient1228" />
    <linearGradient
       y2="512"
       x2="711.86438"
       y1="512"
       x1="112"
       gradientTransform="matrix(0.05250004,0,0,0.05250012,21.920682,-86.940005)"
       gradientUnits="userSpaceOnUse"
       id="linearGradient1351-3"
       xlink:href="#linearGradient1292" />
    <linearGradient
       y2="512"
       x2="711.86438"
       y1="512"
       x1="112"
       gradientTransform="matrix(0.0525,0,0,0.0525001,-103.29381,-39.112675)"
       gradientUnits="userSpaceOnUse"
       id="linearGradient1353-5"
       xlink:href="#linearGradient1262" />
    <linearGradient
       y2="512"
       x2="711.86438"
       y1="512"
       x1="112"
       gradientTransform="matrix(0.05250007,0,0,0.05250006,0.7331233,45.412624)"
       gradientUnits="userSpaceOnUse"
       id="linearGradient1355-6"
       xlink:href="#linearGradient1228" />
    <linearGradient
       y2="512"
       x2="711.86438"
       y1="512"
       x1="112"
       gradientTransform="matrix(0.05372086,0,0,0.05372094,2.8318377,-77.35175)"
       gradientUnits="userSpaceOnUse"
       id="linearGradient1351-9"
       xlink:href="#linearGradient1292" />
    <linearGradient
       y2="512"
       x2="711.86438"
       y1="512"
       x1="112"
       gradientTransform="matrix(0.05372082,0,0,0.05372092,-85.84203,-28.854419)"
       gradientUnits="userSpaceOnUse"
       id="linearGradient1353-2"
       xlink:href="#linearGradient1262" />
    <linearGradient
       y2="912.00073"
       x2="911.99982"
       y1="112.0014"
       x1="112.00013"
       gradientTransform="matrix(0.05372096,0,0,0.05372095,0.49481774,23.690759)"
       gradientUnits="userSpaceOnUse"
       id="linearGradient1355-5"
       xlink:href="#linearGradient2" />
    <clipPath
       clipPathUnits="userSpaceOnUse"
       id="clipPath7">
      <g
         id="g8">
        <rect
           width="16"
           height="16"
           fill="#ffffff"
           id="rect8"
           x="0"
           y="0"
           ry="6.15413" />
      </g>
    </clipPath>
    <linearGradient
       id="paint1_linear_44_75"
       x1="18.906422"
       y1="34.355457"
       x2="44.668011"
       y2="17.335989"
       gradientUnits="userSpaceOnUse"
       gradientTransform="matrix(0.30303025,0,0,0.30564994,-1.5357579,-1.298744)">
      <stop
         stop-color="#6BD6FE"
         id="stop5" />
      <stop
         offset="1"
         stop-color="white"
         id="stop6" />
    </linearGradient>
    <clipPath
       clipPathUnits="userSpaceOnUse"
       id="clipPath6">
      <g
         id="g7">
        <rect
           width="16"
           height="16"
           fill="#ffffff"
           id="rect7"
           x="0"
           y="0" />
      </g>
    </clipPath>
    <linearGradient
       inkscape:collect="always"
       xlink:href="#linearGradient1"
       id="linearGradient9"
       x1="1.3117194"
       y1="9.8472958"
       x2="13.338607"
       y2="5.9933462"
       gradientUnits="userSpaceOnUse" />
    <linearGradient
       inkscape:collect="always"
       xlink:href="#linearGradient10"
       id="linearGradient11"
       x1="-69.805458"
       y1="38.744144"
       x2="-37.827976"
       y2="24.999805"
       gradientUnits="userSpaceOnUse" />
  </defs>
  <metadata
     id="metadata2990">
    <rdf:RDF>
      <cc:Work
         rdf:about="">
        <dc:title>Krita icon - 2021</dc:title>
      </cc:Work>
    </rdf:RDF>
  </metadata>
  <g
     id="g1"
     transform="matrix(1.2727273,0,0,1.2727273,96.158484,-4.636288)">
    <circle
       cy="28"
       cx="-51.195961"
       id="circle891-8-6"
       style="display:inline;vector-effect:none;fill:#ffffff;fill-opacity:1;stroke:none;stroke-width:0.214875;stroke-linecap:square;stroke-linejoin:round;stroke-miterlimit:4;stroke-dasharray:none;stroke-dashoffset:3.2;stroke-opacity:1"
       r="21.488382" />
    <ellipse
       cy="-49.846619"
       cx="30.336996"
       id="circle891-8-0-06-8"
       style="display:inline;vector-effect:none;fill:url(#linearGradient1351-9);fill-opacity:1;stroke:none;stroke-width:0.214868;stroke-linecap:square;stroke-linejoin:round;stroke-miterlimit:4;stroke-dasharray:none;stroke-dashoffset:3.2;stroke-opacity:1"
       transform="rotate(-150)"
       rx="21.488388"
       ry="21.488379" />
    <ellipse
       cy="-1.3493105"
       cx="-58.336983"
       id="circle891-8-0-0-8"
       style="display:inline;vector-effect:none;fill:url(#linearGradient1353-2);fill-opacity:1;stroke:none;stroke-width:0.214868;stroke-linecap:square;stroke-linejoin:round;stroke-miterlimit:4;stroke-dasharray:none;stroke-dashoffset:3.2;stroke-opacity:1"
       transform="rotate(-29.999997)"
       rx="21.48839"
       ry="21.488377" />
    <circle
       cy="51.195961"
       cx="28"
       id="circle891-8-0-4"
       style="display:inline;vector-effect:none;fill:url(#linearGradient1355-5);fill-opacity:1;stroke:none;stroke-width:0.214874;stroke-linecap:square;stroke-linejoin:round;stroke-miterlimit:4;stroke-dasharray:none;stroke-dashoffset:3.2;stroke-opacity:1"
       transform="rotate(90)"
       r="21.488382" />
    <path
       style="color:#d1d5e9;display:inline;fill:#8087b2;fill-opacity:1;stroke-width:2.75002"
       d="m -51.195943,5.99994 c -12.16601,0 -22.000011,9.834006 -22.000011,21.999988 0,12.166019 9.834001,22.000012 22.000011,22.000012 12.165989,0 21.999996,-9.833993 21.999996,-22.000012 0,-12.165982 -9.834007,-21.999988 -21.999996,-21.999988 z m 0,1.5348877 c 11.25594,-0.03715 20.427975,9.4139653 20.465113,20.4651003 0.03855,11.460486 -9.311633,20.465141 -20.465113,20.483563 -10.84652,0.01792 -20.395038,-8.836871 -20.465126,-20.501978 -0.06522,-10.846497 9.209308,-20.4095413 20.465126,-20.4466853 z"
       id="path58-3"
       sodipodi:nodetypes="ssssssssss" />
    <path
       d="m -57.225542,27.218203 v -0.09916 c 0,-1.802683 -1.212783,-2.704041 -3.232911,-2.704041 h -0.250932 c -1.534434,0 -2.778336,1.233241 -2.778336,2.754523 v 0 c 0,1.521283 1.243902,2.754556 2.778336,2.754556 h 0.35277 c 2.020095,-0.0018 3.131073,-1.20422 3.131073,-2.705873 z m -10.302435,-3.037755 c 0,-1.806936 1.477476,-3.271716 3.3,-3.271716 h 4.075005 c 4.343889,0 6.969501,2.503942 6.969501,6.210306 v 0.09916 c 0,4.205726 -3.232911,6.309472 -7.375005,6.309472 h -0.303633 c -1.506318,0 -2.72745,1.210666 -2.72745,2.704073 v 0.751841 c 0,1.07803 -0.881628,1.952233 -1.969209,1.952233 v 0 c -1.087548,0 -1.969209,-0.874203 -1.969209,-1.952233 z m 29.69802,9.547325 c 0,3.605562 -2.72712,5.608179 -6.667518,5.608179 -2.158299,-0.07983 -4.316565,-0.723049 -6.224394,-1.931294 -0.850047,-0.538328 -0.941787,-1.690168 -0.301587,-2.462947 v 0 c 0.648945,-0.783347 1.802163,-0.877867 2.679171,-0.356846 1.188528,0.706036 2.469654,1.143922 3.948648,1.143922 1.616439,0 2.625612,-0.600294 2.625612,-1.70175 v -0.100965 c 0,-1.000491 -0.605517,-1.501652 -3.6366,-2.302045 -3.636567,-0.901358 -6.060384,-1.901848 -6.060384,-5.507279 v -0.100966 c 0,-3.304367 2.625645,-5.408113 6.36405,-5.408113 1.965579,0 3.76299,0.448552 5.305212,1.304858 0.87813,0.487486 1.02069,1.627253 0.44352,2.444594 v 0 c -0.60984,0.863471 -1.797741,1.055717 -2.748933,0.584982 -1.057551,-0.523343 -2.100021,-0.828169 -3.099822,-0.828169 -1.514634,0 -2.323761,0.701259 -2.323761,1.602617 v 0.100933 c 0,1.202421 0.809127,1.602617 3.940233,2.40301 3.636633,1.002323 5.758533,2.303877 5.758533,5.408146 z"
       id="path2"
       style="fill:url(#linearGradient11)" />
    <path
       d="M 6.12195,6.02051 V 5.9902 c 0,-0.55099 -0.36751,-0.82649 -0.97967,-0.82649 H 4.62432 c -0.22092,0 -0.4,0.17908 -0.4,0.4 v 0.88385 c 0,0.22091 0.17908,0.4 0.4,0.4 H 5.17314 C 5.78529,6.84701 6.12195,6.47949 6.12195,6.02051 Z M 3,4.49202 c 0,-0.22092 0.17909,-0.4 0.4,-0.4 h 1.83485 c 1.31633,0 2.11197,0.76533 2.11197,1.89818 V 6.02051 C 7.34682,7.30599 6.36715,7.949 5.11197,7.949 H 4.59346 c -0.22091,0 -0.4,0.17909 -0.4,0.4 v 0.853 c 0,0.22091 -0.17908,0.4 -0.4,0.4 H 3.4 C 3.17909,9.602 3,9.42291 3,9.202 Z m 8.9994,3.51814 c 0,1.102 -0.8264,1.71416 -2.02046,1.71416 C 9.27444,9.69802 8.56994,9.47194 7.9603,9.04542 7.78249,8.92101 7.76249,8.67204 7.90023,8.50434 L 8.10446,8.25569 C 8.24407,8.0857 8.49311,8.06308 8.67606,8.1852 c 0.3988,0.26622 0.82811,0.43657 1.33374,0.43657 0.4898,0 0.7956,-0.18348 0.7956,-0.52014 V 8.07077 C 10.8054,7.76497 10.622,7.61179 9.70344,7.36715 8.60145,7.09165 7.86696,6.78585 7.86696,5.68385 V 5.65299 C 7.86696,4.64301 8.66261,4 9.79546,4 c 0.65934,0 1.25624,0.16801 1.75504,0.48709 0.175,0.11202 0.2047,0.34796 0.0855,0.51823 l -0.2048,0.2925 C 11.3053,5.47769 11.0591,5.51994 10.868,5.4119 10.4916,5.19916 10.1195,5.07169 9.76515,5.07169 c -0.45898,0 -0.70417,0.21434 -0.70417,0.48984 v 0.03085 c 0,0.36752 0.24519,0.48984 1.19402,0.73448 C 11.357,6.63322 12,7.03104 12,7.97986 Z"
       id="path3"
       transform="matrix(3.3,0,0,3.271716,-74.127977,4.2490886)"
       style="fill:url(#linearGradient9)" />
  </g>
</svg>
