<?xml version="1.0" encoding="UTF-8" standalone="no"?>
<svg
   width="62"
   height="62"
   version="1.1"
   id="svg6"
   sodipodi:docname="devassistant.svg"
   inkscape:version="1.4 (unknown)"
   xmlns:inkscape="http://www.inkscape.org/namespaces/inkscape"
   xmlns:sodipodi="http://sodipodi.sourceforge.net/DTD/sodipodi-0.dtd"
   xmlns:xlink="http://www.w3.org/1999/xlink"
   xmlns="http://www.w3.org/2000/svg"
   xmlns:svg="http://www.w3.org/2000/svg">
  <defs
     id="defs6">
    <linearGradient
       id="linearGradient1"
       inkscape:collect="always">
      <stop
         style="stop-color:#b3b3b3;stop-opacity:1"
         offset="0"
         id="stop1" />
      <stop
         style="stop-color:#f2f2f2;stop-opacity:1"
         offset="1"
         id="stop2" />
    </linearGradient>
    <linearGradient
       inkscape:collect="always"
       xlink:href="#linearGradient1"
       id="linearGradient2"
       x1="31"
       y1="56"
       x2="29.989651"
       y2="6"
       gradientUnits="userSpaceOnUse" />
  </defs>
  <sodipodi:namedview
     id="namedview6"
     pagecolor="#ffffff"
     bordercolor="#000000"
     borderopacity="0.25"
     inkscape:showpageshadow="2"
     inkscape:pageopacity="0.0"
     inkscape:pagecheckerboard="0"
     inkscape:deskcolor="#d1d1d1"
     inkscape:zoom="12.078125"
     inkscape:cx="25.16947"
     inkscape:cy="30.344114"
     inkscape:window-width="1920"
     inkscape:window-height="996"
     inkscape:window-x="0"
     inkscape:window-y="0"
     inkscape:window-maximized="1"
     inkscape:current-layer="svg6" />
  <rect
     width="52"
     height="56"
     x="5"
     y="3"
     rx="8"
     ry="8"
     id="rect1"
     style="fill:#3c4e6c;fill-opacity:1" />
  <rect
     width="46"
     height="50"
     x="8"
     y="6"
     opacity="0.05"
     rx="5"
     ry="5"
     id="rect2"
     style="opacity:1;fill:url(#linearGradient2);fill-opacity:1" />
  <path
     d="m 45.507961,27.615927 h -1.806043 c -0.99333,0 -1.535139,-1.219077 -0.812723,-1.941496 l 1.264235,-1.264236 c 0.993319,-1.038472 0.993319,-2.709062 -0.04516,-3.702386 l -2.302701,-2.212406 c -1.038469,-0.993322 -2.709057,-0.993322 -3.702385,0.04515 l -0.812719,0.857874 c -0.722433,0.722425 -1.941509,0.225763 -1.941509,-0.76756 v -1.219085 c 4e-6,-1.444839 -1.173922,-2.618767 -2.618752,-2.618767 h -3.205729 c -1.444845,0 -2.618769,1.173928 -2.618769,2.618764 v 1.806044 c 0,0.993324 -1.219077,1.535133 -1.941496,0.812717 l -1.264236,-1.26423 c -1.038472,-0.993321 -2.709062,-0.993321 -3.702386,0.04516 l -2.212406,2.302705 c -0.993322,1.038475 -0.993322,2.709068 0.04516,3.70239 l 0.857873,0.81271 c 0.722418,0.722431 0.225757,1.941509 -0.767567,1.941509 h -1.219087 c -1.444839,-6e-6 -2.618767,1.173917 -2.618767,2.618751 v 3.205731 c 0,1.444838 1.173928,2.618763 2.618764,2.618763 h 1.806044 c 0.993324,0 1.535133,1.21908 0.812717,1.941492 l -1.26423,1.264238 c -0.993321,1.038471 -0.993321,2.70907 0.04516,3.702389 l 2.302709,2.212406 c 1.038476,0.993319 2.709072,0.993319 3.702393,-0.0452 l 0.812708,-0.857873 c 0.722435,-0.722418 1.941511,-0.225758 1.941511,0.767555 v 1.17395 c -1.5e-5,1.444849 1.173908,2.618779 2.618742,2.618779 h 3.205731 c 1.444838,0 2.618763,-1.17393 2.618763,-2.618758 v -1.806041 c 0,-0.993332 1.21908,-1.535138 1.941492,-0.812725 l 1.264236,1.264228 c 1.038476,0.993324 2.709073,0.993324 3.702391,-0.0452 l 2.212409,-2.302705 c 0.993319,-1.038469 0.993319,-2.709062 -0.0452,-3.702385 l -0.85787,-0.812707 c -0.722416,-0.72242 -0.225751,-1.941499 0.767558,-1.941499 h 1.173948 c 1.44483,0 2.61876,-1.173926 2.61876,-2.618756 v -3.205723 c 0.0452,-1.39969 -1.128779,-2.573615 -2.573609,-2.573615 z M 28.07963,35.111009 c 0.316065,0.316056 0.316065,0.767564 0,1.083629 -0.135445,0.13545 -0.361199,0.225757 -0.54181,0.225757 -0.180604,0 -0.406357,-0.09036 -0.541808,-0.225757 l -3.837846,-3.837847 c -0.135453,-0.135452 -0.225759,-0.361208 -0.225759,-0.541808 0,-0.180608 0.0903,-0.40636 0.225759,-0.541821 l 3.837846,-3.837849 c 0.316054,-0.316046 0.767565,-0.316046 1.083618,0 0.316065,0.316067 0.316065,0.767582 0,1.083633 l -3.296027,3.296037 z m 5.77935,-7.946597 -3.566943,9.84294 c -0.135457,0.316064 -0.406363,0.496665 -0.722414,0.496665 -0.09034,0 -0.180609,0 -0.270904,-0.0452 -0.406365,-0.135446 -0.586969,-0.586956 -0.451515,-0.993319 l 3.566932,-9.842921 c 0.135457,-0.406361 0.586968,-0.586971 0.993334,-0.45151 0.406353,0.135446 0.586955,0.586957 0.45151,0.99332 z m 5.869638,5.192379 -3.83785,3.837847 c -0.135446,0.13545 -0.361203,0.225757 -0.541808,0.225757 -0.180608,0 -0.406365,-0.09036 -0.541809,-0.225757 -0.316064,-0.316065 -0.316064,-0.767573 0,-1.083629 l 3.296025,-3.296026 -3.296025,-3.296037 c -0.316064,-0.316051 -0.316064,-0.767566 0,-1.083633 0.316054,-0.316046 0.767561,-0.316046 1.083617,0 l 3.83785,3.837849 c 0.135454,0.135461 0.225752,0.361213 0.225752,0.541821 0,0.1806 -0.0903,0.406356 -0.225752,0.541808 z"
     id="path1"
     style="fill:#8d5fd3;fill-opacity:1;stroke-width:0.451512" />
</svg>
