<?xml version="1.0" encoding="UTF-8" standalone="no"?>
<svg
   width="62"
   height="62"
   version="1.1"
   id="svg5"
   sodipodi:docname="fran-bow.svg"
   inkscape:version="1.4.2 (unknown)"
   xmlns:inkscape="http://www.inkscape.org/namespaces/inkscape"
   xmlns:sodipodi="http://sodipodi.sourceforge.net/DTD/sodipodi-0.dtd"
   xmlns="http://www.w3.org/2000/svg"
   xmlns:svg="http://www.w3.org/2000/svg">
  <defs
     id="defs5" />
  <sodipodi:namedview
     id="namedview5"
     pagecolor="#ffffff"
     bordercolor="#000000"
     borderopacity="0.25"
     inkscape:showpageshadow="2"
     inkscape:pageopacity="0.0"
     inkscape:pagecheckerboard="0"
     inkscape:deskcolor="#d1d1d1"
     inkscape:zoom="11.890625"
     inkscape:cx="31.9159"
     inkscape:cy="32"
     inkscape:current-layer="svg5" />
  <rect
     x="3.5"
     y="3.9824567"
     width="54.999996"
     height="55.017544"
     rx="4.0000005"
     ry="4.0000005"
     style="opacity:0.2;stroke-width:0.999971"
     id="rect1" />
  <rect
     x="3.5"
     y="2.9999995"
     width="54.999996"
     height="55.017544"
     rx="4.0000005"
     ry="4.0000005"
     style="fill:#364863;fill-opacity:1;stroke-width:0.999971"
     id="rect2" />
  <g
     id="g1"
     transform="translate(3.1095666,5.8869908)">
    <path
       d="m 26.207101,7.0563754 c -0.231648,0.0092 -0.46915,0.029397 -0.721727,0.062998 -0.497086,0.066122 -1.03775,0.1527457 -1.20345,0.1907063 -0.16568,0.037961 -0.897498,0.1917511 -1.625593,0.3405469 -2.125223,0.4343263 -3.075287,0.7994736 -4.915922,1.9070631 -0.36598,0.2202326 -0.956861,0.5561753 -1.315788,0.7440973 -1.041659,0.545374 -1.472336,0.83548 -1.918371,1.294079 -2.450108,2.519059 -2.808943,2.925939 -3.62908,4.124021 -0.543398,0.793835 -1.6682689,2.868773 -2.1447517,3.957146 -0.099782,0.227915 -0.288647,0.651559 -0.4221433,0.941612 -0.5911161,1.284379 -0.7673395,1.816041 -1.0911041,3.277764 -0.2474273,1.117077 -0.7159843,2.823425 -1.0059944,3.664289 -0.3399523,0.985666 -0.4185449,1.4987 -0.4170366,2.700529 0.00141,1.090217 0.061185,1.464888 0.2910748,1.77595 0.1416078,0.191603 0.1566009,0.315157 0.1566009,1.363887 0,1.267591 0.063786,1.48989 0.4221434,1.48989 0.4571787,0 1.0079936,0.45052 1.0128037,0.82924 0.00304,0.253382 0.140995,0.332541 0.6740671,0.381406 0.4809728,0.04406 0.5665433,0.08213 0.8153491,0.321823 0.1527355,0.147093 0.4402918,0.337276 0.6383237,0.429086 0.4082784,0.189302 0.5507484,0.360148 0.6672474,0.791773 0.04465,0.165746 0.210801,0.442516 0.36938,0.614684 0.163095,0.177078 0.335497,0.47293 0.398311,0.679394 0.06118,0.200771 0.213084,0.546838 0.340442,0.774738 0.168867,0.302204 0.230524,0.51262 0.231504,0.779856 l 0.0056,0.369497 0.245119,-0.0528 c 0.13463,-0.02905 0.449067,-0.06992 0.703005,-0.09017 l 0.464698,-0.03571 0.214474,0.316714 c 0.300573,0.44307 0.641428,0.614964 1.143876,0.577227 0.388609,-0.02937 0.403178,-0.02558 0.600868,0.2503 0.266662,0.37218 0.506095,0.507447 1.012809,0.567006 0.371338,0.04367 0.426487,0.03604 0.50044,-0.102162 0.04569,-0.08528 0.08343,-0.259454 0.08343,-0.381411 0,-0.267663 0.176604,-0.447401 0.321718,-0.326927 0.05366,0.04451 0.163267,0.285821 0.238308,0.536361 0.0751,0.250549 0.180097,0.458037 0.233198,0.458037 0.168987,0 0.455444,-0.722571 0.63662,-1.602269 0.04899,-0.238268 0.129923,-0.436023 0.178728,-0.435903 0.0819,2.3e-4 0.411523,0.246272 2.044333,1.484786 1.125943,0.854071 2.852885,1.994121 3.520129,2.329342 1.680177,0.844106 2.702656,0.982396 4.189091,0.555087 1.011544,-0.290793 2.448331,-0.980835 3.853758,-1.854276 0.60065,-0.373292 1.360583,-0.828311 1.691978,-1.006313 0.331392,-0.178001 0.771434,-0.423261 0.971952,-0.548282 0.377987,-0.235658 0.497476,-0.21167 0.500441,0.107267 0.0022,0.230296 0.299608,1.102463 0.434061,1.268542 l 0.131069,0.166869 0.369374,-0.303086 c 0.362576,-0.299701 0.607436,-0.382193 1.162597,-0.381415 0.181922,2.28e-4 0.321369,-0.06464 0.488526,-0.226469 0.128947,-0.124827 0.366209,-0.279682 0.524277,-0.345647 0.260681,-0.10878 0.327842,-0.1118 0.738751,-0.0072 0.546213,0.139976 0.482456,0.14385 0.619599,0.0072 0.07755,-0.07757 0.100456,-0.19758 0.07147,-0.376302 -0.03788,-0.233447 -0.01878,-0.268183 0.166814,-0.338851 0.256713,-0.09766 0.532737,0.05702 0.648532,0.362687 0.08037,0.212153 0.352012,0.543167 0.447678,0.543167 0.03042,0 0.223113,-0.135221 0.428952,-0.297975 0.328847,-0.260036 0.403278,-0.373673 0.600874,-0.924583 0.123697,-0.344847 0.245988,-0.750976 0.274051,-0.905858 0.08888,-0.489698 0.435404,-0.561692 0.876627,-0.18389 0.159986,0.136986 0.380348,0.292827 0.488528,0.350756 0.169697,0.09079 0.207479,0.08961 0.267245,-0.0056 0.03814,-0.06028 0.07096,-0.182472 0.0715,-0.274139 6.03e-4,-0.09168 0.0681,-0.359048 0.1549,-0.590845 0.149683,-0.400161 0.174252,-0.420358 0.400015,-0.398438 0.203126,0.01985 0.264861,0.08485 0.45789,0.446114 0.289109,0.54123 0.402811,0.674279 0.578742,0.674279 0.169892,0 0.440465,-0.414646 0.440867,-0.674279 2.98e-4,-0.196233 -0.106211,-0.571071 -0.274053,-0.970557 -0.134968,-0.32132 -0.131744,-0.500559 0.01187,-0.619798 0.09613,-0.07991 0.154936,-0.06742 0.326817,0.0596 0.114207,0.08455 0.391949,0.244771 0.614494,0.357571 0.369417,0.18725 0.427109,0.197304 0.684283,0.112379 0.15493,-0.05121 0.374856,-0.0694 0.488528,-0.04085 0.264127,0.06638 0.327915,-0.03907 0.33363,-0.524443 0.0065,-0.525295 0.117071,-1.030548 0.238304,-1.10337 0.0563,-0.03381 0.237291,-0.140996 0.405121,-0.243491 l 0.304691,-0.190707 0.35065,0.23157 c 0.192683,0.125372 0.387658,0.203412 0.435764,0.173681 0.10825,-0.0668 0.05153,-0.685952 -0.161708,-1.692518 -0.08349,-0.39343 -0.21811,-1.031673 -0.297956,-1.418334 -0.153153,-0.741524 -0.318087,-3.673226 -0.243444,-4.307885 0.11832,-1.005156 -0.639151,-5.5159 -1.234087,-7.367725 -0.103107,-0.320693 -0.26521,-0.88361 -0.36264,-1.256543 C 47.269121,19.006115 46.492031,17.21337 45.717897,15.981907 45.548546,15.7126 45.355807,15.391972 45.288902,15.271902 44.717665,14.246705 42.312335,11.51779 41.155959,10.582624 40.824474,10.314676 40.297152,9.9597808 39.986464,9.7960056 39.675698,9.6322871 39.236764,9.384097 39.009315,9.2409621 38.781845,9.0978449 38.323158,8.8716422 37.99137,8.7403813 37.659589,8.6091199 37.251511,8.4421472 37.085807,8.3708856 36.07868,7.9377469 34.644816,7.5684367 33.582692,7.4650317 32.102946,7.3209676 30.791818,7.2958972 29.929796,7.3952197 29.15661,7.4843058 29.0537,7.479933 28.459111,7.3356249 27.851901,7.1882545 27.363721,7.100146 26.898198,7.0665924 26.665435,7.0498137 26.438771,7.0471739 26.207101,7.0563754 Z M 19.939635,28.454622 c 0.45383,0.0042 0.902705,0.122978 1.358348,0.347358 1.166824,0.57461 1.872673,1.918544 1.668156,3.17561 -0.07158,0.440258 -0.274241,0.960334 -0.376179,0.960334 -0.03137,0 -0.233349,0.161703 -0.445987,0.367788 -0.504444,0.48894 -1.450702,0.953647 -2.156663,1.055698 -0.591361,0.08548 -0.658954,0.08937 -0.977056,0.01188 -0.30068,-0.07319 -0.698913,-0.283105 -0.995797,-0.524438 -0.133102,-0.108219 -0.33762,-0.270877 -0.457878,-0.362692 -0.272212,-0.207772 -0.579537,-0.840421 -0.697902,-1.442214 -0.245431,-1.247909 0.523227,-2.708797 1.710701,-3.265845 0.461524,-0.216486 0.916452,-0.325721 1.370257,-0.321807 z m 14.606504,0.660663 c 0.16765,-8.69e-4 0.338219,0.01128 0.507249,0.03749 0.338078,0.05251 0.670069,0.161272 0.948122,0.30989 0.479938,0.256514 1.045213,0.811864 1.303882,1.28727 0.261137,0.479972 0.451755,1.454135 0.345538,1.758925 -0.04242,0.121677 -0.07655,0.302259 -0.07655,0.398443 0,0.261675 -0.327223,0.926313 -0.631506,1.280448 -0.147787,0.171995 -0.429364,0.413457 -0.626413,0.531253 -0.341357,0.204072 -0.40659,0.210898 -1.375375,0.226468 -0.55922,0.0094 -1.099882,-0.01235 -1.203438,-0.04773 -0.625097,-0.211701 -1.203568,-0.549692 -1.560912,-0.917764 -0.482366,-0.496854 -0.628778,-0.837858 -0.679181,-1.573332 -0.109957,-1.604842 0.947512,-2.951269 2.561795,-3.248814 0.155299,-0.02866 0.319179,-0.04173 0.486834,-0.04261 z m -6.876844,9.799232 c 0.124162,0.0065 0.199568,0.0252 0.234897,0.05445 0.133461,0.110797 0.133454,0.181543 -0.01185,0.326921 -0.163996,0.164052 -1.252338,0.169267 -1.387284,0.0072 -0.188978,-0.227777 -0.03512,-0.317314 0.643429,-0.369498 0.224643,-0.01722 0.396704,-0.02474 0.520867,-0.01871 z m -0.765987,2.157368 h 0.002 c 0.285876,-0.01066 0.59102,0.01774 0.808539,0.07831 0.344943,0.09581 0.618393,0.38094 0.585554,0.612992 -0.03036,0.215101 -0.06426,0.21416 -1.400904,0.114084 l -1.007701,-0.07152 0.02554,-0.233275 c 0.01774,-0.181949 0.08136,-0.267265 0.285974,-0.369489 0.148203,-0.0741 0.415608,-0.120318 0.701299,-0.131108 z m -2.864786,5.583264 c -0.10006,0.0061 -0.268451,0.05539 -0.583855,0.149835 -0.854953,0.256012 -1.611417,0.419698 -2.41371,0.519333 -0.917998,0.114022 -1.287703,0.21409 -2.090291,0.572124 -1.076678,0.480324 -1.88852,1.084511 -2.258796,1.685707 -0.08938,0.145022 -0.237809,0.343826 -0.326832,0.441003 -0.342916,0.37436 -0.907732,1.431967 -1.196641,2.155665 h 21.476538 c -0.111311,-0.325522 -0.240425,-0.683951 -0.309788,-0.820723 -0.18286,-0.360403 -1.605691,-2.290075 -1.989864,-2.698833 -0.355145,-0.377846 -0.452136,-0.425566 -1.739646,-0.805388 -0.60065,-0.177198 -1.31548,-0.432581 -1.584734,-0.567007 -0.605609,-0.302387 -0.941277,-0.385181 -1.089398,-0.26222 -0.179223,0.148773 -0.133446,0.281906 0.231494,0.631706 l 0.345539,0.333742 -0.660449,0.202619 c -0.987921,0.301436 -1.412167,0.348194 -3.264798,0.357576 -1.656935,0.0092 -1.710529,0.0046 -2.299653,-0.195809 -0.618642,-0.21022 -1.169411,-0.533825 -1.169411,-0.684499 0,-0.04682 0.168839,-0.163712 0.376181,-0.262221 0.477753,-0.226899 0.767316,-0.489306 0.70812,-0.643637 -0.02912,-0.07574 -0.05999,-0.114389 -0.160006,-0.108973 z"
       style="opacity:0.2;stroke-width:0.999902"
       id="path2" />
    <path
       d="m 26.898197,6.1947921 c -0.465522,-0.033555 -0.906818,-0.013579 -1.411973,0.053626 -0.497087,0.066122 -1.037755,0.1527452 -1.203441,0.1907059 -0.165692,0.037961 -0.898358,0.1908986 -1.626452,0.3396952 -2.125224,0.4343263 -3.074444,0.7994742 -4.915078,1.9070597 -0.365978,0.2202314 -0.957706,0.5570164 -1.316632,0.7449458 -1.04166,0.5453993 -1.472337,0.8346403 -1.918372,1.2932343 -2.450108,2.519061 -2.808089,2.925938 -3.628232,4.124029 -0.543398,0.793827 -1.6682649,2.868767 -2.1447487,3.957139 -0.099782,0.227917 -0.289499,0.651558 -0.4229954,0.941613 -0.5911159,1.284379 -0.7664881,1.816039 -1.0902522,3.277775 -0.2474276,1.117065 -0.7168362,2.824264 -1.0068461,3.665125 -0.3399524,0.985665 -0.4185443,1.49786 -0.4170361,2.699685 0.00141,1.090212 0.062032,1.464899 0.2919254,1.775946 0.1416086,0.191607 0.1549081,0.31601 0.1549081,1.364751 0,1.267586 0.064636,1.489892 0.4229942,1.489892 0.4571788,0 1.0079943,0.449655 1.0128043,0.828376 0.00304,0.253376 0.1401439,0.332534 0.6732163,0.381417 0.4809729,0.04398 0.567392,0.08213 0.8161973,0.321807 0.1527366,0.147094 0.4394464,0.337283 0.6374736,0.429086 0.4082783,0.189312 0.5507463,0.361008 0.6672563,0.792627 0.04465,0.165751 0.210798,0.441664 0.369375,0.613844 0.163087,0.177071 0.336346,0.47293 0.399158,0.679386 0.06118,0.200767 0.212239,0.546834 0.339592,0.774743 0.168868,0.302203 0.231363,0.513463 0.232342,0.7807 l 0.0064,0.369492 0.24426,-0.05355 c 0.134631,-0.02905 0.449069,-0.069 0.703007,-0.08945 l 0.4647,-0.03574 0.214474,0.315846 c 0.300577,0.443071 0.641433,0.615819 1.143871,0.578084 0.388613,-0.02938 0.404037,-0.02563 0.601726,0.250292 0.266654,0.372175 0.506095,0.506589 1.012802,0.566165 0.371344,0.04367 0.426492,0.03695 0.500444,-0.101304 0.04569,-0.08534 0.08341,-0.259451 0.08341,-0.381414 0,-0.267656 0.1766,-0.448257 0.321708,-0.327775 0.05365,0.04451 0.163283,0.28581 0.238318,0.53636 0.07511,0.250544 0.179266,0.458886 0.232362,0.458886 0.168993,0 0.456294,-0.723416 0.637472,-1.603121 0.04899,-0.238271 0.129923,-0.435174 0.178728,-0.435046 0.08189,2.19e-4 0.410667,0.245407 2.043474,1.48393 1.125951,0.854062 2.853742,1.994977 3.520982,2.330186 1.68018,0.844105 2.701809,0.981549 4.188239,0.554237 1.011549,-0.290788 2.449184,-0.97997 3.854614,-1.853423 0.600648,-0.373291 1.360585,-0.829165 1.691979,-1.007166 0.331389,-0.178 0.770577,-0.423261 0.971094,-0.548275 0.377986,-0.235664 0.497481,-0.211668 0.500446,0.107286 0.0022,0.230281 0.300458,1.103294 0.43491,1.269379 l 0.131065,0.16687 0.369378,-0.30394 c 0.362582,-0.299692 0.606582,-0.382191 1.161743,-0.381415 0.181921,2.37e-4 0.32137,-0.06462 0.488529,-0.22645 0.128942,-0.124835 0.366205,-0.279681 0.524276,-0.345653 0.260681,-0.108775 0.327842,-0.111094 0.738752,-0.0065 0.546212,0.139969 0.482454,0.143139 0.619598,0.0065 0.07755,-0.07757 0.100463,-0.196719 0.07146,-0.37546 -0.03788,-0.233429 -0.01879,-0.269027 0.166819,-0.339686 0.256712,-0.09767 0.533584,0.05762 0.64938,0.363523 0.08037,0.212149 0.351162,0.542325 0.446829,0.542325 0.03042,0 0.223114,-0.135236 0.428951,-0.29799 0.328847,-0.260028 0.404132,-0.372809 0.601724,-0.923736 0.123697,-0.344842 0.245977,-0.750959 0.274039,-0.905847 0.08888,-0.489706 0.43455,-0.562555 0.875775,-0.18477 0.159984,0.136996 0.380356,0.293699 0.488536,0.351627 0.169693,0.09079 0.208324,0.08864 0.268091,-0.0065 0.03814,-0.06028 0.07096,-0.18247 0.0715,-0.274127 6.07e-4,-0.09168 0.06811,-0.358209 0.154907,-0.590004 0.149687,-0.400162 0.173406,-0.4212 0.39917,-0.39929 0.203123,0.01985 0.265712,0.08558 0.458735,0.446969 0.28911,0.541233 0.401967,0.673436 0.577894,0.673436 0.169891,0 0.440469,-0.413809 0.440869,-0.673436 2.95e-4,-0.196237 -0.1062,-0.571916 -0.274042,-0.971409 -0.134972,-0.321314 -0.131701,-0.500556 0.0119,-0.619791 0.09613,-0.07991 0.155785,-0.06741 0.327671,0.05958 0.114204,0.08455 0.391095,0.244782 0.613639,0.357586 0.369419,0.187249 0.427957,0.198158 0.68513,0.113235 0.154932,-0.05121 0.374857,-0.07031 0.488528,-0.04176 0.264129,0.06636 0.327916,-0.03907 0.333628,-0.524445 0.0065,-0.525296 0.117082,-1.029692 0.238316,-1.102522 0.0563,-0.03381 0.237295,-0.141847 0.405125,-0.244346 l 0.30384,-0.190721 0.351507,0.23242 c 0.192683,0.125361 0.386801,0.202554 0.434908,0.172818 0.108252,-0.0668 0.0523,-0.68576 -0.160936,-1.692332 -0.08345,-0.393418 -0.218074,-1.031661 -0.297918,-1.418315 -0.153158,-0.741517 -0.318941,-3.67407 -0.244294,-4.308731 0.11825,-1.005096 -0.638276,-5.514132 -1.233214,-7.365968 C 47.891449,20.456938 47.728511,19.893162 47.631082,19.52023 47.268986,18.134454 46.492746,16.34171 45.71861,15.110244 45.549275,14.840905 45.356533,14.521142 45.289642,14.401072 44.718403,13.375839 42.311381,10.646092 41.155004,9.7109279 40.823516,9.4429267 40.297886,9.0880276 39.987206,8.9242621 39.67651,8.7605028 39.237569,8.5131699 39.010135,8.3700341 38.782693,8.2268982 38.323155,8.0006894 37.991367,7.8694304 37.659586,7.7381709 37.251508,7.5711992 37.085804,7.4999372 36.078677,7.0667985 34.644815,6.6974878 33.582691,6.5940829 32.102945,6.4500186 30.792676,6.4232464 29.930652,6.5225686 29.157461,6.6116551 29.053698,6.6072813 28.459108,6.4629736 27.851898,6.3156029 27.36372,6.2283453 26.898197,6.1947921 Z M 19.939633,27.583687 c 0.45383,0.0042 0.902705,0.121263 1.358348,0.345641 1.166824,0.574609 1.872675,1.91941 1.668158,3.176459 -0.07158,0.44026 -0.273397,0.959484 -0.375334,0.959484 -0.03137,0 -0.234195,0.163409 -0.446833,0.369499 -0.504444,0.488936 -1.450702,0.952791 -2.156663,1.05485 -0.591361,0.08542 -0.658955,0.08936 -0.977057,0.01189 -0.30068,-0.07319 -0.698064,-0.28311 -0.994939,-0.524448 -0.133116,-0.108215 -0.338477,-0.271725 -0.458735,-0.363537 -0.272212,-0.207776 -0.578689,-0.840422 -0.697054,-1.442219 -0.245422,-1.247906 0.522378,-2.708796 1.709853,-3.265842 0.461523,-0.216487 0.916451,-0.325722 1.370256,-0.321808 z m 15.114602,0.697266 c 0.338087,0.05255 0.66922,0.161268 0.947271,0.309888 0.479938,0.256526 1.046067,0.811863 1.304739,1.287279 0.261131,0.479967 0.451753,1.45328 0.345537,1.75807 -0.04244,0.121681 -0.07737,0.303108 -0.07737,0.399289 0,0.261674 -0.327226,0.927158 -0.631514,1.281301 -0.147784,0.171999 -0.428516,0.412605 -0.625556,0.530398 -0.341361,0.204084 -0.407446,0.210889 -1.376231,0.226459 -0.559218,0.0094 -1.099884,-0.01236 -1.203441,-0.04775 -0.625097,-0.211716 -1.203562,-0.549675 -1.560905,-0.91776 -0.482373,-0.496858 -0.628778,-0.837858 -0.679184,-1.573331 -0.109957,-1.604846 0.947507,-2.950426 2.561797,-3.247963 0.310584,-0.05726 0.656852,-0.05833 0.994928,-0.0064 z m -7.905815,9.779651 c 0.449282,-0.03454 0.68596,-0.0229 0.756617,0.03572 0.133462,0.110797 0.133409,0.182397 -0.01187,0.327776 -0.163983,0.164044 -1.253186,0.168556 -1.388131,0.0065 -0.188976,-0.227773 -0.03512,-0.317318 0.643425,-0.369494 z m -0.244266,2.139488 c 0.286362,-0.01083 0.592283,0.01681 0.810245,0.0774 0.344946,0.09581 0.616688,0.381793 0.583843,0.61384 -0.03036,0.215101 -0.06335,0.213319 -1.400045,0.113245 l -1.006842,-0.07156 0.02395,-0.232407 c 0.01775,-0.181959 0.08136,-0.267262 0.285961,-0.369489 0.14851,-0.07426 0.416639,-0.120441 0.703012,-0.131107 z m -2.865633,5.584106 c -0.10006,0.0061 -0.268451,0.0545 -0.583855,0.149001 -0.854952,0.25601 -1.610565,0.418843 -2.412862,0.518479 -0.917999,0.114022 -1.288552,0.214086 -2.09114,0.57212 -1.076677,0.48033 -1.887674,1.085361 -2.257948,1.686558 -0.08938,0.145027 -0.238655,0.343832 -0.327679,0.441006 -0.47298,0.516338 -1.380548,2.347477 -1.382171,2.783115 v 0.24434 h 21.954003 l -0.226386,-0.697265 c -0.123094,-0.382588 -0.291257,-0.829505 -0.375323,-0.995257 -0.182861,-0.360402 -1.605693,-2.290924 -1.989867,-2.699684 -0.355145,-0.377845 -0.452139,-0.424713 -1.739646,-0.804542 -0.600648,-0.177192 -1.315479,-0.431718 -1.584737,-0.566156 -0.605606,-0.302385 -0.942124,-0.385187 -1.090247,-0.262231 -0.179218,0.148789 -0.132578,0.281908 0.232355,0.63172 l 0.345543,0.333728 -0.661294,0.202639 c -0.98793,0.301432 -1.412165,0.348189 -3.264809,0.357566 -1.656936,0.0092 -1.710517,0.0036 -2.299652,-0.196643 -0.61865,-0.210222 -1.167731,-0.534677 -1.167731,-0.685351 0,-0.04681 0.167991,-0.163719 0.375333,-0.262228 0.477753,-0.226902 0.768163,-0.489305 0.708964,-0.643641 -0.0291,-0.07573 -0.0609,-0.112702 -0.160855,-0.107283 z"
       style="fill:#ffffff;stroke-width:0.999902"
       id="path3" />
    <path
       d="m 20.023051,27.47641 c -0.643576,-0.02267 -0.776654,-6.7e-4 -1.274943,0.19071 -0.730259,0.280462 -1.305802,0.804211 -1.703884,1.5495 -0.290876,0.544548 -0.29194,0.550254 -0.29194,1.412405 0,0.843305 0.0036,0.881428 0.274054,1.448178 0.217796,0.456208 0.272053,0.644228 0.238308,0.852222 -0.03372,0.207441 5.4e-5,0.332095 0.154927,0.566165 0.109006,0.164761 0.196598,0.352976 0.196598,0.423123 0,0.175168 0.21838,0.405257 0.387244,0.405257 0.07653,0 0.26843,-0.06625 0.423008,-0.149 0.420985,-0.225707 0.645292,-0.196842 0.881731,0.11324 0.346271,0.454126 0.438514,0.763013 0.345548,1.132307 -0.04463,0.177587 -0.07737,0.554942 -0.07737,0.834335 0,0.417898 0.02609,0.535953 0.160853,0.679392 0.18901,0.201247 0.413432,0.226728 0.643447,0.06565 0.156834,-0.109874 0.273731,-0.411017 0.625551,-1.615042 0.17299,-0.592033 0.202024,-0.634386 1.102176,-1.412439 0.85235,-0.736742 1.264983,-1.577892 0.983011,-2.008376 -0.09462,-0.144435 -0.103771,-0.245036 -0.04175,-0.512523 0.0423,-0.182196 0.06134,-0.630157 0.04175,-0.995244 C 23.06101,29.886803 23.02,29.716995 22.787521,29.246475 22.454618,28.572683 21.946517,28.074511 21.25045,27.744661 20.812747,27.537247 20.64454,27.498445 20.023169,27.476481 Z m -0.08343,0.107266 c 0.453831,0.0042 0.902706,0.12126 1.358349,0.345639 1.166824,0.574609 1.872674,1.919413 1.668155,3.17646 -0.07159,0.44026 -0.273394,0.959483 -0.375332,0.959483 -0.03137,0 -0.234195,0.16341 -0.446833,0.3695 -0.504444,0.488936 -1.450702,0.952793 -2.156665,1.054848 -0.591361,0.08542 -0.658952,0.08937 -0.977055,0.01189 -0.30068,-0.07319 -0.698067,-0.283111 -0.99494,-0.524447 -0.133114,-0.108216 -0.338477,-0.271725 -0.458735,-0.363538 -0.272212,-0.207776 -0.578689,-0.840422 -0.697054,-1.442216 -0.24542,-1.24791 0.522377,-2.708798 1.709853,-3.265846 0.461524,-0.216486 0.916453,-0.325722 1.370257,-0.321805 z m 14.637994,0.512514 c -0.812821,-0.0012 -1.62869,0.314265 -2.281783,0.953537 -0.910568,0.891261 -1.184171,2.158388 -0.744708,3.426745 0.122767,0.354366 0.138071,0.493508 0.07738,0.667471 -0.154146,0.442318 -0.101105,0.622279 0.345537,1.120404 0.623021,0.694817 1.19736,1.908117 1.346432,2.848674 0.0624,0.393653 0.113064,0.902335 0.113204,1.13231 1.77e-4,0.229971 0.03956,0.456827 0.08943,0.506566 0.125163,0.125204 0.253594,0.115822 0.405118,-0.03571 0.113499,-0.113536 0.125574,-0.253042 0.08943,-1.168076 -0.03548,-0.897938 -0.02448,-1.061494 0.08343,-1.18596 0.206544,-0.238555 0.584503,-0.128635 0.762582,0.220532 0.155807,0.305501 0.315282,0.403888 0.536188,0.333726 0.272788,-0.08658 0.257475,-0.433282 -0.05956,-1.400489 -0.05091,-0.155234 0.18668,-0.373397 0.863861,-0.786668 0.478659,-0.29213 0.510424,-0.320539 0.548096,-0.637675 0.04329,-0.363611 0.06021,-0.40716 0.417044,-0.876052 0.92941,-1.221259 0.787434,-3.024469 -0.333633,-4.159783 -0.63293,-0.640984 -1.445148,-0.958418 -2.257961,-0.959497 z m 0.476608,0.184739 c 0.338084,0.05255 0.669219,0.161272 0.947271,0.309891 0.479937,0.25653 1.046066,0.811861 1.30474,1.287274 0.261129,0.479974 0.451752,1.45329 0.345537,1.758073 -0.04242,0.121681 -0.07738,0.303108 -0.07738,0.39929 0,0.261674 -0.327227,0.927164 -0.631515,1.281302 -0.147783,0.171999 -0.428516,0.41261 -0.625559,0.530403 -0.341357,0.20408 -0.407444,0.210886 -1.376226,0.226457 -0.55922,0.0094 -1.099885,-0.01237 -1.203444,-0.04777 -0.625096,-0.21171 -1.20356,-0.549669 -1.560903,-0.917758 -0.482374,-0.496856 -0.628779,-0.837853 -0.679185,-1.573331 -0.109958,-1.604846 0.947505,-2.950423 2.561798,-3.247962 0.310584,-0.05726 0.656851,-0.05833 0.994928,-0.0064 z m -17.050842,6.519785 c -0.05829,-0.0092 -0.121471,0.02031 -0.190648,0.08942 -0.0922,0.09223 -0.10071,0.157895 -0.04175,0.26818 0.09437,0.176605 0.241927,0.184596 0.375332,0.02369 0.07006,-0.08447 0.07773,-0.152782 0.02395,-0.238395 -0.05521,-0.08753 -0.108434,-0.134407 -0.166831,-0.143016 z m 1.977952,3.641304 c -0.09938,0.01109 -0.201326,0.072 -0.297887,0.178776 -0.166524,0.184058 -0.08075,0.583111 0.142972,0.673435 0.220097,0.08877 0.231153,0.08957 0.375333,-0.01801 0.209403,-0.156081 0.244074,-0.54251 0.0656,-0.7211 -0.08639,-0.08642 -0.186593,-0.124252 -0.285974,-0.113244 z"
       style="fill:#c83771;stroke-width:0.999902"
       id="path4" />
  </g>
  <path
     d="M 7.4285713,2.9999995 C 5.2521429,2.9999995 3.5,4.7527014 3.5,6.929824 V 7.9122804 C 3.5,5.7351575 5.2521429,3.9824555 7.4285713,3.9824555 H 54.571428 c 2.176427,0 3.928572,1.752702 3.928572,3.9298249 V 6.929824 c 0,-2.1771226 -1.752145,-3.9298245 -3.928572,-3.9298245 z"
     style="opacity:0.1;fill:#ffffff;stroke-width:0.999971"
     id="path5" />
</svg>
