<?xml version="1.0" encoding="UTF-8" standalone="no"?>
<svg
   clip-rule="evenodd"
   fill-rule="evenodd"
   stroke-linejoin="round"
   stroke-miterlimit="1.41421"
   viewBox="0 0 62 62"
   version="1.1"
   id="svg10"
   sodipodi:docname="icecat.svg"
   width="62"
   height="62"
   inkscape:version="1.4 (unknown)"
   xmlns:inkscape="http://www.inkscape.org/namespaces/inkscape"
   xmlns:sodipodi="http://sodipodi.sourceforge.net/DTD/sodipodi-0.dtd"
   xmlns:xlink="http://www.w3.org/1999/xlink"
   xmlns="http://www.w3.org/2000/svg"
   xmlns:svg="http://www.w3.org/2000/svg">
  <defs
     id="defs10">
    <linearGradient
       id="linearGradient14"
       inkscape:collect="always">
      <stop
         style="stop-color:#8d5fd3;stop-opacity:1"
         offset="0"
         id="stop14" />
      <stop
         style="stop-color:#c6afe9;stop-opacity:1"
         offset="1"
         id="stop15" />
    </linearGradient>
    <linearGradient
       id="linearGradient10"
       inkscape:collect="always">
      <stop
         style="stop-color:#b4c3cb;stop-opacity:1;"
         offset="0"
         id="stop10" />
      <stop
         style="stop-color:#dfe7ec;stop-opacity:1;"
         offset="1"
         id="stop11" />
    </linearGradient>
    <linearGradient
       inkscape:collect="always"
       xlink:href="#linearGradient10"
       id="linearGradient11"
       x1="31.743649"
       y1="57.560226"
       x2="30.815651"
       y2="1.8340015"
       gradientUnits="userSpaceOnUse" />
    <linearGradient
       inkscape:collect="always"
       xlink:href="#linearGradient10"
       id="linearGradient13"
       x1="43.526478"
       y1="43.876564"
       x2="33.651871"
       y2="53.563496"
       gradientUnits="userSpaceOnUse" />
    <linearGradient
       inkscape:collect="always"
       xlink:href="#linearGradient14"
       id="linearGradient15"
       x1="32.529575"
       y1="29.480631"
       x2="32.712639"
       y2="1.8999995"
       gradientUnits="userSpaceOnUse" />
  </defs>
  <sodipodi:namedview
     id="namedview10"
     pagecolor="#ffffff"
     bordercolor="#000000"
     borderopacity="0.25"
     inkscape:showpageshadow="2"
     inkscape:pageopacity="0.0"
     inkscape:pagecheckerboard="0"
     inkscape:deskcolor="#d1d1d1"
     inkscape:zoom="8.0520833"
     inkscape:cx="6.8305304"
     inkscape:cy="33.842173"
     inkscape:window-width="1920"
     inkscape:window-height="996"
     inkscape:window-x="0"
     inkscape:window-y="0"
     inkscape:window-maximized="1"
     inkscape:current-layer="svg10" />
  <linearGradient
     id="a"
     x2="1"
     gradientTransform="matrix(0.24916062,-53.255352,53.15551,0.24962862,29.402225,54.730719)"
     gradientUnits="userSpaceOnUse"
     x1="-0.052923325"
     y1="0.044296619">
    <stop
       stop-color="#330071"
       offset="0"
       id="stop1" />
    <stop
       stop-color="#9371ff"
       offset="1"
       id="stop2" />
  </linearGradient>
  <linearGradient
     id="b">
    <stop
       stop-color="#d9d9d9"
       offset="0"
       id="stop3" />
    <stop
       stop-color="#f5f3f3"
       offset="1"
       id="stop4" />
  </linearGradient>
  <linearGradient
     id="c"
     x2="1"
     gradientTransform="matrix(-1.3479771,-54.002932,53.901688,-1.3505091,31.022308,59.579005)"
     gradientUnits="userSpaceOnUse"
     xlink:href="#b" />
  <linearGradient
     id="d">
    <stop
       stop-color="#d9d9d9"
       offset="0"
       id="stop5" />
    <stop
       stop-color="#f4f2f2"
       offset="1"
       id="stop6" />
  </linearGradient>
  <linearGradient
     id="e"
     x2="1"
     gradientTransform="matrix(10.439905,-5.9399335,5.9287973,10.459514,3.5955771,15.09794)"
     gradientUnits="userSpaceOnUse"
     xlink:href="#d" />
  <linearGradient
     id="f"
     x2="1"
     gradientTransform="matrix(8.792661,0,0,8.8091764,20.624467,18.857825)"
     gradientUnits="userSpaceOnUse"
     xlink:href="#d" />
  <linearGradient
     id="g"
     x2="1"
     gradientTransform="matrix(20.364721,7.1167608,-7.1034183,20.402972,15.439163,27.375043)"
     gradientUnits="userSpaceOnUse"
     xlink:href="#d" />
  <linearGradient
     id="h"
     x2="1"
     gradientTransform="matrix(20.704397,-27.895203,27.842906,20.743287,31.826236,59.29301)"
     gradientUnits="userSpaceOnUse"
     xlink:href="#b" />
  <g
     id="g10"
     transform="translate(0.99999986,1.1659984)">
    <ellipse
       cx="30.815651"
       cy="29.232248"
       id="circle6"
       rx="27.34688"
       ry="27.398247"
       style="fill:url(#linearGradient15)" />
    <path
       d="m 58.91527,21.80065 -0.672041,4.310149 c 0,0 -0.959518,-7.981102 -2.137164,-10.964857 -1.803036,-4.571638 -2.606208,-4.535004 -2.61125,-4.527424 1.207908,3.070917 0.988518,4.720699 0.988518,4.720699 -3.592202,-6.4715396 -8.894135,-10.9774894 -17.37723,-9.8456332 3.406856,0.7074101 6.320712,1.9226396 7.637054,3.66969 0,0 -2.931509,0 -5.849148,0.8413132 -0.13113,0.0379 10.734996,1.357974 12.956639,12.22051 0,0 -1.191517,-2.486042 -2.664205,-2.909225 0.968342,2.948385 0.719952,8.543241 -0.203,11.324879 -0.118522,0.357494 -0.239564,-1.546197 -2.05773,-2.366035 0.582519,4.172457 -0.03404,10.791795 -2.928987,12.614639 -0.225694,0.141482 1.814382,-6.533438 0.411041,-3.952654 -8.0834,12.397362 -17.638228,5.721179 -21.93399,2.782901 2.201467,0.478765 6.379971,-0.07579 8.229659,-1.451454 0.0025,-0.0013 0.0051,-0.0038 0.0076,-0.0051 2.009817,-1.374397 3.198811,-2.377404 4.266763,-2.139916 1.069213,0.238751 1.781601,-0.834997 0.950691,-1.787474 -0.830909,-0.95374 -2.849552,-2.264975 -5.580584,-1.549986 -1.925339,0.50403 -4.312155,2.635103 -7.954791,0.477502 -2.795337,-1.657361 -3.058856,-3.034284 -3.084074,-3.988025 0.06935,-0.337283 0.156348,-0.653091 0.259738,-0.941108 0.32152,-0.899421 1.297429,-1.171016 1.839601,-1.384502 0.921691,0.157904 1.714775,0.444657 2.548207,0.872893 0.01009,-0.277911 0.01387,-0.645512 -0.0013,-1.063641 0.07943,-0.159168 0.03026,-0.637933 -0.09835,-1.222809 C 23.783812,24.952368 23.66403,24.34728 23.4749,23.796511 h 0.0013 c 0.0038,-0.0013 0.0063,-0.0025 0.01009,-0.0038 0.0051,-0.0025 0.0088,-0.0063 0.01135,-0.01137 0.0013,-0.0013 0.0013,-0.0025 0.0025,-0.0025 0.0051,-0.0076 0.0088,-0.01516 0.01261,-0.02653 0.058,-0.261489 0.680866,-0.765518 1.456298,-1.308708 0.695998,-0.486345 1.513037,-1.003007 2.156078,-1.402188 0.569911,-0.353705 1.003647,-0.616458 1.096952,-0.685935 0.03404,-0.02653 0.07692,-0.05685 0.122303,-0.09222 0.0088,-0.0076 0.01639,-0.0139 0.02523,-0.02021 0.0063,-0.0051 0.01135,-0.0088 0.01639,-0.01263 0.306391,-0.243804 0.764085,-0.704884 0.85991,-1.67631 v -0.0076 c 0.0025,-0.02779 0.0051,-0.05685 0.0076,-0.0859 0.0013,-0.02148 0.0025,-0.04169 0.0051,-0.06316 0.0013,-0.01516 0.0025,-0.03158 0.0025,-0.048 0.0013,-0.0379 0.0025,-0.07706 0.0038,-0.117481 v -0.0063 c 0.0013,-0.09474 0,-0.192011 -0.0063,-0.295597 -0.0038,-0.05684 -0.0063,-0.108638 -0.01639,-0.15664 0,-0.0025 -0.0013,-0.0038 -0.0013,-0.0076 -0.0013,-0.0051 -0.0025,-0.01011 -0.0038,-0.01389 -0.0025,-0.0088 -0.0051,-0.01642 -0.0076,-0.02527 v -0.0013 c -0.0025,-0.01011 -0.0063,-0.01895 -0.01009,-0.02653 v -0.0013 c -0.09963,-0.232435 -0.471587,-0.320861 -2.00858,-0.347389 h -0.0038 c -0.62791,-0.01011 -1.447472,-0.01011 -2.521728,-0.0076 -1.88247,0.0076 -2.923945,-1.840529 -3.255551,-2.556782 0.455171,-2.518885 1.771514,-4.313938 3.932635,-5.5316945 0.04161,-0.022738 0.03277,-0.041687 -0.01513,-0.055582 0.422389,-0.2551729 -5.111543,-0.00632 -7.657227,3.2326115 -2.259469,-0.562138 -4.227677,-0.524241 -5.924801,-0.126323 -0.326563,-0.0088 -0.732562,-0.04927 -1.214212,-0.150325 C 9.4225719,11.132653 7.8061442,9.2428575 7.7204055,6.9867244 c 0,0 -0.00504,0.00505 -0.015131,0.012632 -0.00126,-0.021475 -0.00378,-0.04295 -0.00504,-0.064425 0,0 -3.4383764,2.6439454 -2.9239438,9.8519496 -0.00126,0.116218 -0.00378,0.226119 -0.00757,0.333494 C 3.8382051,18.382344 3.3767288,19.444722 3.3426854,19.67842 2.5180803,21.358519 1.6808666,23.886247 1,27.723947 c 0,0 0.4766065,-1.510826 1.4323416,-3.222506 -0.7035622,2.153811 -1.2558207,5.505167 -0.9317785,10.530305 0,0 0.087,-1.114171 0.389607,-2.718476 0.2370424,3.116395 1.2759944,6.9642 3.8998525,11.489099 5.0384124,8.687249 12.7826404,13.074455 21.3426464,13.747758 1.519341,0.12506 3.061378,0.127586 4.610979,0.0101 0.142478,-0.0101 -0.142479,0.01137 0,0 1.753862,-0.123797 3.947766,-0.420656 5.709193,-0.846365 24.081243,-5.82476 21.46369,-34.913212 21.46369,-34.913212 z"
       fill-rule="nonzero"
       id="path6"
       style="fill:url(#linearGradient11)"
       sodipodi:nodetypes="cccccccccccccccccccccccccccccccccccccccccccccccccccccccccccccccccccccccccccccccc" />
    <path
       d="M 4.7145056,17.133007 C 6.1871948,14.406951 7.5716235,12.619478 10.576263,12.086394 8.8867048,10.471983 8.4050547,9.5750876 7.6271015,6.8149248 4.6212017,10.072801 4.6413754,13.457001 4.7145056,17.133007 Z"
       fill="url(#e)"
       id="path7"
       style="fill:url(#e);stroke-width:1.26204" />
    <path
       d="m 23.447163,23.945619 c 1.751341,-2.307926 7.228534,-3.557262 5.620932,-6.738081 -3.772505,-0.963847 -6.136625,0.82868 -7.635793,-2.718477 -1.294907,4.998611 0.448868,7.406332 2.014861,9.456558 z"
       fill="url(#f)"
       id="path8"
       style="fill:url(#f);stroke-width:1.26204" />
    <path
       d="m 20.298785,27.209811 c -7.376055,0.735202 -6.103843,4.703015 -5.581845,8.672091 l 1.888774,-1.575251 c 1.325169,3.860438 9.14883,3.242717 13.484942,1.892322 1.975773,-0.615194 3.732158,-0.464869 4.496241,-0.150325 2.152295,0.462343 2.008556,-1.364291 1.066692,-1.908744 -5.150631,-5.875293 -9.909132,5.416741 -16.257583,-4.173719 -0.388345,-0.58614 -0.0063,-1.54746 0.902779,-2.756374 z"
       fill="url(#g)"
       id="path9"
       style="fill:url(#g);stroke-width:1.26204" />
    <path
       d="m 55.031809,26.441766 c -0.916649,5.126197 -3.954071,8.76178 -6.593059,12.80665 0.445085,-1.145752 0.683389,-2.468356 0.707345,-4.157298 -0.838475,1.877164 -1.665602,2.497411 -1.665602,2.497411 0,0 1.661818,-3.495364 0.02143,-6.829035 -0.955735,5.346 -1.180169,4.164878 -4.2302,8.654405 0,0 0.587563,-1.613147 0.132392,-2.45446 -0.887649,1.716733 -3.481247,4.042344 -5.119109,4.84197 -0.210563,0.103585 0.581259,-0.780678 0.153826,-1.947905 -1.600033,2.078018 -6.30684,4.390996 -8.378438,3.894546 l -1.958123,5.807079 c 1.064169,1.021955 2.299816,1.66494 3.627505,1.994644 -3.327419,2.998913 -6.414014,5.421793 -7.436575,5.176726 l -0.264781,0.247594 c 10.335303,3.144185 24.956282,-2.71595 28.266049,-11.366565 -1.21421,1.093959 -2.20651,1.335236 -4.128067,2.024961 2.031252,-0.636669 4.726978,-5.022612 6.218581,-10.446931 -0.968344,2.166443 -4.416807,4.811652 -4.416807,4.811652 0.08953,0.296859 6.024408,-10.649049 5.063631,-15.555444 z"
       fill-rule="nonzero"
       id="path10"
       style="fill:url(#linearGradient13)" />
  </g>
</svg>
