<?xml version="1.0" encoding="UTF-8" standalone="no"?>
<svg
   width="62"
   height="62"
   version="1.1"
   id="svg3"
   sodipodi:docname="muse-dash.svg"
   inkscape:version="1.4.2 (unknown)"
   xmlns:inkscape="http://www.inkscape.org/namespaces/inkscape"
   xmlns:sodipodi="http://sodipodi.sourceforge.net/DTD/sodipodi-0.dtd"
   xmlns="http://www.w3.org/2000/svg"
   xmlns:svg="http://www.w3.org/2000/svg">
  <defs
     id="defs3" />
  <sodipodi:namedview
     id="namedview3"
     pagecolor="#ffffff"
     bordercolor="#000000"
     borderopacity="0.25"
     inkscape:showpageshadow="2"
     inkscape:pageopacity="0.0"
     inkscape:pagecheckerboard="0"
     inkscape:deskcolor="#d1d1d1"
     showgrid="true"
     inkscape:zoom="3.9635417"
     inkscape:cx="40.746386"
     inkscape:cy="48.819974"
     inkscape:current-layer="svg3">
    <inkscape:grid
       id="grid3"
       units="px"
       originx="0"
       originy="0"
       spacingx="1"
       spacingy="1"
       empcolor="#0099e5"
       empopacity="0.30196078"
       color="#0099e5"
       opacity="0.14901961"
       empspacing="5"
       enabled="true"
       visible="true" />
  </sodipodi:namedview>
  <g
     id="g3"
     transform="matrix(0.96875,0,0,0.96875,-3.875,-3.875)"
     style="stroke-width:1.03224">
    <path
       style="opacity:0.2;stroke-width:1.03224"
       d="M 53.6,60.977778 C 53.6,62.48889 55.291506,64 56.8,64 h 8 C 66.4,64 68,62.48889 68,60.977778 V 12.622222 C 68,12.622222 68,9.6 64.8,9.6 H 51.2 c -3.2,0 -4,3.022222 -4,3.022222 L 44,35.2 40.8,14.133333 C 40.8,14.133333 40,9.6 35.2,9.6 h -12 c -1.6,0 -1.6,1.511111 -1.6,1.511111 0,0 3.2,6.044444 3.2,7.555556 0,1.511111 -8,4.533333 -8,6.044443 0,1.511112 6.4,4.533335 6.4,6.044445 C 23.2,32.266667 4,39.28889 4,40.8 c 0,1.511112 17.6,8.08889 17.6,9.6 0,1.51111 -11.2,10.577778 -11.2,12.08889 0,0 0,1.51111 1.6,1.51111 H 34.4 C 36,64 36,62.48889 36,62.48889 V 44.71111 c 0,-1.51111 0,-3.022222 1.6,-3.022222 1.193221,0 1.6,3.022222 1.6,3.022222 l 3.2,16.266668 c 0,0 0,3.022222 1.6,3.022222 1.6,0 1.6,-3.022222 1.6,-3.022222 0,0 2.852946,-13.04473 4.8,-19.644445 0.590224,-2.000616 1.6,-6.044443 3.2,-6.044443 z"
       id="path1" />
    <path
       style="fill:#ffcc00;stroke-width:1.03224"
       d="M 53.6,59.377778 C 53.6,60.88889 55.291506,62.4 56.8,62.4 h 8 c 1.6,0 3.2,-1.51111 3.2,-3.022222 V 11.022222 C 68,11.022222 68,8 64.8,8 H 51.2 c -3.2,0 -4,3.022222 -4,3.022222 L 44,33.6 40.8,12.533333 C 40.8,12.533333 40,8 35.2,8 h -12 c -1.6,0 -1.6,1.511111 -1.6,1.511111 0,0 3.2,6.044444 3.2,7.555556 0,1.511111 -8,4.533333 -8,6.044443 0,1.511112 6.4,4.533335 6.4,6.044445 C 23.2,30.666667 4,37.68889 4,39.2 c 0,1.511112 17.6,8.08889 17.6,9.6 0,1.51111 -11.2,10.577778 -11.2,12.08889 0,0 0,1.51111 1.6,1.51111 H 34.4 C 36,62.4 36,60.88889 36,60.88889 V 43.11111 c 0,-1.51111 0,-3.022222 1.6,-3.022222 1.193221,0 1.6,3.022222 1.6,3.022222 l 3.2,16.266668 c 0,0 0,3.022222 1.6,3.022222 1.6,0 1.6,-3.022222 1.6,-3.022222 0,0 2.852946,-13.04473 4.8,-19.644445 0.590224,-2.000616 1.6,-6.044443 3.2,-6.044443 z"
       id="path2" />
    <path
       style="opacity:0.2;fill:#ffffff;stroke-width:1.03224"
       d="m 23.2,8 c -1.6,0 -1.6,1.5125 -1.6,1.5125 0,0 0.268,0.541063 0.328125,0.65625 C 22.155176,9.8634885 22.534702,9.6 23.2,9.6 h 12 c 4.8,0 5.6,4.534374 5.6,4.534374 L 44,35.2 47.2,12.621875 c 0,0 0.8,-3.021875 4,-3.021875 h 13.6 c 3.2,0 3.2,3.021875 3.2,3.021875 v -1.6 C 68,11.021875 68,8 64.8,8 H 51.2 c -3.2,0 -4,3.021875 -4,3.021875 L 44,33.6 40.8,12.534374 C 40.8,12.534374 40,8 35.2,8 Z m 1.35,9.575 c -1.315536,1.605546 -7.75,4.180445 -7.75,5.537499 0,0.244184 0.207278,0.53653 0.487501,0.846875 C 18.983067,22.347021 24.8,19.957704 24.8,18.665626 24.8,18.417221 24.694512,18.021419 24.55,17.575 Z M 22.596875,29.790626 C 19.434283,32.055128 4,37.84328 4,39.2 4,39.393606 4.3024656,39.673864 4.8062499,40.012499 8.4390733,37.644506 23.2,32.08149 23.2,30.75625 c 0,-0.274455 -0.257574,-0.609583 -0.603125,-0.965624 z M 21.04375,49.775 C 18.811275,52.592066 10.4,59.576467 10.4,60.887501 c 0,0 0.0086,0.512461 0.325,0.940624 C 12.503986,59.264248 21.6,51.763766 21.6,50.4 c 0,-0.155056 -0.223635,-0.374186 -0.55625,-0.625 z"
       id="path3" />
  </g>
</svg>
