<?xml version="1.0" encoding="UTF-8" standalone="no"?>
<svg
   width="64"
   height="64"
   viewBox="0 0 64 64"
   fill="none"
   version="1.1"
   id="svg23"
   sodipodi:docname="folder-OpenSUSE.svg"
   inkscape:version="1.4.2 (unknown)"
   xmlns:inkscape="http://www.inkscape.org/namespaces/inkscape"
   xmlns:sodipodi="http://sodipodi.sourceforge.net/DTD/sodipodi-0.dtd"
   xmlns:xlink="http://www.w3.org/1999/xlink"
   xmlns="http://www.w3.org/2000/svg"
   xmlns:svg="http://www.w3.org/2000/svg">
  <sodipodi:namedview
     id="namedview23"
     pagecolor="#ffffff"
     bordercolor="#000000"
     borderopacity="0.25"
     inkscape:showpageshadow="2"
     inkscape:pageopacity="0.0"
     inkscape:pagecheckerboard="0"
     inkscape:deskcolor="#d1d1d1"
     inkscape:zoom="11.313709"
     inkscape:cx="35.576308"
     inkscape:cy="39.377007"
     inkscape:window-width="1920"
     inkscape:window-height="1000"
     inkscape:window-x="0"
     inkscape:window-y="0"
     inkscape:window-maximized="1"
     inkscape:current-layer="svg23"
     showgrid="false">
    <inkscape:grid
       id="grid1"
       units="px"
       originx="0"
       originy="0"
       spacingx="1"
       spacingy="1"
       empcolor="#0099e5"
       empopacity="0.30196078"
       color="#0099e5"
       opacity="0.14901961"
       empspacing="5"
       enabled="true"
       visible="false" />
  </sodipodi:namedview>
  <defs
     id="defs23">
    <linearGradient
       id="linearGradient27"
       x1="40.6957"
       y1="46"
       x2="40.6957"
       y2="42"
       gradientUnits="userSpaceOnUse">
      <stop
         offset="0.34068099"
         stop-color="#2E2E41"
         id="stop26"
         style="stop-color:#3a85de;stop-opacity:1;" />
      <stop
         offset="1"
         stop-color="#566C80"
         id="stop27"
         style="stop-color:#253d5a;stop-opacity:1;" />
    </linearGradient>
    <linearGradient
       id="linearGradient25"
       x1="56"
       y1="34"
       x2="48.4736"
       y2="8.1952"
       gradientUnits="userSpaceOnUse">
      <stop
         stop-color="#2E2E41"
         id="stop24"
         offset="0"
         style="stop-color:#4a7ab5;stop-opacity:1;" />
      <stop
         offset="1"
         stop-color="#566C80"
         id="stop25"
         style="stop-color:#4a7ab5;stop-opacity:1;" />
    </linearGradient>
    <linearGradient
       id="linearGradient7"
       x1="56"
       y1="60"
       x2="31.6269"
       y2="18.2176"
       gradientUnits="userSpaceOnUse">
      <stop
         offset="0.12675899"
         stop-color="#2E2E41"
         id="stop6"
         style="stop-color:#5294e2;stop-opacity:1;" />
      <stop
         offset="0.87736899"
         stop-color="#566C80"
         id="stop7"
         style="stop-color:#5294e2;stop-opacity:1;" />
    </linearGradient>
    <linearGradient
       id="paint0_linear_328_683"
       x1="56"
       y1="34"
       x2="48.4736"
       y2="8.1952"
       gradientUnits="userSpaceOnUse">
      <stop
         stop-color="#2E2E41"
         id="stop8" />
      <stop
         offset="1"
         stop-color="#566C80"
         id="stop9" />
    </linearGradient>
    <linearGradient
       id="paint1_linear_328_683"
       x1="50"
       y1="54"
       x2="1.21951"
       y2="14.9756"
       gradientUnits="userSpaceOnUse"
       gradientTransform="translate(-59.39697,1.979899)">
      <stop
         stop-color="#5200FF"
         id="stop10" />
      <stop
         offset="0.906064"
         stop-color="#0085FF"
         id="stop11" />
    </linearGradient>
    <linearGradient
       id="paint2_linear_328_683"
       x1="54"
       y1="54"
       x2="10.8713"
       y2="18.7129"
       gradientUnits="userSpaceOnUse"
       gradientTransform="translate(49.921739,-2.8284271)">
      <stop
         offset="0.377885"
         stop-color="#FF7E07"
         id="stop12" />
      <stop
         offset="1"
         stop-color="#FFE607"
         id="stop13" />
    </linearGradient>
    <linearGradient
       id="paint3_linear_328_683"
       x1="52"
       y1="54"
       x2="14.0499"
       y2="14.0526"
       gradientUnits="userSpaceOnUse"
       gradientTransform="matrix(1,0,0,0.71052632,0,12.631579)">
      <stop
         offset="0.295664"
         stop-color="#71706E"
         id="stop14" />
      <stop
         offset="1"
         stop-color="#B9AA99"
         id="stop15" />
    </linearGradient>
    <linearGradient
       id="paint4_linear_328_683"
       x1="21.75"
       y1="22"
       x2="21.75"
       y2="24"
       gradientUnits="userSpaceOnUse">
      <stop
         stop-color="white"
         id="stop16" />
      <stop
         offset="0.705"
         stop-color="#E6E6E6"
         id="stop17" />
    </linearGradient>
    <linearGradient
       id="paint5_linear_328_683"
       x1="20.5"
       y1="26"
       x2="20.5"
       y2="28"
       gradientUnits="userSpaceOnUse">
      <stop
         stop-color="white"
         id="stop18" />
      <stop
         offset="0.705"
         stop-color="#E6E6E6"
         id="stop19" />
    </linearGradient>
    <linearGradient
       id="paint6_linear_328_683"
       x1="56"
       y1="60"
       x2="31.6269"
       y2="18.2176"
       gradientUnits="userSpaceOnUse">
      <stop
         offset="0.126759"
         stop-color="#2E2E41"
         id="stop20" />
      <stop
         offset="0.877369"
         stop-color="#566C80"
         id="stop21" />
    </linearGradient>
    <linearGradient
       id="paint7_linear_328_683"
       x1="40.6957"
       y1="46"
       x2="40.6957"
       y2="42"
       gradientUnits="userSpaceOnUse">
      <stop
         offset="0.340681"
         stop-color="#2E2E41"
         id="stop22" />
      <stop
         offset="1"
         stop-color="#566C80"
         id="stop23" />
    </linearGradient>
    <linearGradient
       inkscape:collect="always"
       xlink:href="#linearGradient7"
       id="linearGradient2-8-1-3"
       gradientUnits="userSpaceOnUse"
       x1="56"
       y1="60"
       x2="10"
       y2="22" />
    <linearGradient
       inkscape:collect="always"
       xlink:href="#linearGradient27"
       id="linearGradient3-2-3-6"
       gradientUnits="userSpaceOnUse"
       x1="41"
       y1="45.909904"
       x2="41"
       y2="41.909904"
       gradientTransform="translate(0,-15.909903)" />
  </defs>
  <rect
     style="opacity:0.2;fill:#4d4d4d;fill-opacity:1;stroke-width:0.48202"
     width="56"
     height="4.4542842"
     x="3.3000009"
     y="-38.372002"
     rx="7.0117254"
     ry="1.0271422"
     id="rect1-9-5" />
  <g
     id="g1">
    <g
       id="g27"
       transform="matrix(1.1666667,0,0,1.1707317,-5.3333344,-11.235773)">
      <g
         id="g6-7-4"
         transform="translate(0,-2)">
        <rect
           style="opacity:0.2;fill:#4d4d4d;fill-opacity:1;stroke-width:0.835088"
           width="48"
           height="41"
           x="8"
           y="18.943056"
           rx="6"
           ry="7.4027348"
           id="rect1-8-7" />
        <g
           id="g1-9-7-4-6"
           transform="translate(0,-1)">
          <path
             d="m 8,26 c 0,-3.3137 2.6863,-6 6,-6 h 36 c 3.3137,0 6,2.6863 6,6 v 8 H 8 Z"
             fill="url(#paint0_linear_328_683)"
             id="path1-3-5-5-5"
             style="fill:#4877b1;fill-opacity:1" />
          <path
             d="M 12,27.105173 C 12,25.535549 12.7909,24 15,24 h 34 c 2.2091,0 3,1.535549 3,3.105173 V 48.157895 C 52,49.727518 50.2091,51 48,51 H 16 c -2.2091,0 -4,-1.272482 -4,-2.842105 z"
             fill="url(#paint3_linear_328_683)"
             id="path4-6-9-0-6"
             style="fill:#e5e5e5;fill-opacity:1;stroke-width:0.842927"
             sodipodi:nodetypes="sssssssss" />
          <path
             d="m 8,34 c 0,-1.1046 0.89543,-2 2,-2 h 44 c 1.1046,0 2,0.8954 2,2 v 19 c 0,4 -3,7 -7,7 H 15 C 10.978049,60 8,57 8,53 Z"
             fill="url(#paint6_linear_328_683)"
             id="path7-0-2-3-9"
             sodipodi:nodetypes="sssssssss"
             style="fill:url(#linearGradient2-8-1-3)" />
          <path
             d="m 22,28.090097 c 0,-1.1046 0.8954,-2 2,-2 h 16 c 1.1046,0 2,0.8954 2,2 0,1.1046 -0.8954,2 -2,2 H 24 c -1.1046,0 -2,-0.8954 -2,-2 z"
             fill="url(#paint7_linear_328_683)"
             id="path8-6-2-6-3"
             style="fill:url(#linearGradient3-2-3-6)" />
        </g>
      </g>
      <g
         id="g25"
         transform="matrix(0.8181819,0,0,0.8181819,7.4545429,-12.45455)" />
    </g>
    <path
       style="color:#000000;clip-rule:nonzero;display:inline;overflow:visible;visibility:visible;opacity:0.2;isolation:auto;mix-blend-mode:normal;color-interpolation:sRGB;color-interpolation-filters:linearRGB;solid-color:#000000;solid-opacity:1;fill:#cccccc;fill-opacity:1;fill-rule:nonzero;stroke:none;stroke-width:1.05282;stroke-linecap:butt;stroke-linejoin:miter;stroke-miterlimit:4;stroke-dasharray:none;stroke-dashoffset:0;stroke-opacity:1;marker:none;color-rendering:auto;image-rendering:auto;shape-rendering:auto;text-rendering:auto;enable-background:accumulate"
       d="m 10.814062,8.7001162 c -0.9436204,0 -1.7257394,0.2158374 -2.5413996,0.5196773 C 7.4570011,9.5236354 6.7765438,10.071449 6.1608059,10.61554 5.5450679,11.159631 5.08588,11.819443 4.7420288,12.540197 4.3981788,13.260945 4.1720475,13.885292 4.0943899,14.715462 L 4,15.724507 C 4,14.890684 4.1898994,14.096705 4.5337494,13.375955 4.8776006,12.655204 5.3748873,12.006413 5.9906253,11.462322 6.6063632,10.918231 7.3405892,10.478808 8.1562505,10.174967 8.9719107,9.8711271 9.8704416,9.7033245 10.814062,9.7033245 h 42.37188 c 0.943611,0 1.842143,0.1678026 2.657805,0.4716425 0.815662,0.303841 1.54989,0.743264 2.165632,1.287355 0.615732,0.544091 1.113023,1.192882 1.456874,1.913633 C 59.810104,14.096705 60,14.890684 60,15.724507 L 59.90561,14.715462 C 59.82795,13.885292 59.589518,13.236505 59.245667,12.515757 58.901816,11.795004 58.455621,11.160299 57.839889,10.616207 57.224147,10.072116 56.584526,9.5414409 55.768864,9.2375991 54.953202,8.9337602 54.129553,8.7001162 53.185942,8.7001162 Z"
       id="path824-2-6"
       inkscape:connector-curvature="0"
       sodipodi:nodetypes="ssssscsssssssscssssss" />
  </g>
  <path
     style="color:#eff0f1;font-size:20.4884px;font-family:TrebuchetMS-Bold;fill:#2e2e41;fill-opacity:1;fill-rule:evenodd;stroke:none;stroke-width:0.150335;stroke-miterlimit:4"
     d="m 31.999999,29 c -5.798667,0 -10.5,4.70085 -10.5,10.5 0,5.79915 4.701333,10.5 10.5,10.5 C 37.798642,50 42.5,45.29915 42.5,39.5 42.5,33.70085 37.798642,29 31.999999,29 Z m 0.0517,1.45425 c 4.996138,0 9.049595,4.05027 9.049595,9.04575 0,4.996364 -4.054028,9.04575 -9.049596,9.04575 -2.69787,0 -5.118592,-1.1823 -6.77586,-3.055247 0.681608,-0.528886 1.82154,-0.399694 3.225455,-0.239653 0.672933,0.0756 1.439934,0.16296 2.231605,0.18144 2.211648,0.021 4.591317,-0.390999 6.06019,-1.032526 0.949624,-0.416518 1.557442,-0.690646 1.937464,-1.036726 0.13713,-0.11361 0.20916,-0.3002 0.282488,-0.494782 l 0.05084,-0.13209 c 0.06003,-0.15729 0.15099,-0.496064 0.18963,-0.680676 0.021,-0.07936 0.0273,-0.16758 -0.03128,-0.212918 l -0.204965,0.03714 c -0.644379,0.386487 -2.25454,1.122516 -3.762897,1.152502 -1.869208,0.03736 -5.636398,-1.881688 -6.029379,-2.08457 l -0.03717,-0.04726 c -0.09416,-0.224779 -0.657996,-1.56324 -0.777329,-1.844807 2.711553,1.785674 4.959813,2.774041 6.682735,2.927632 1.915796,0.17073 3.410174,-0.8757 4.049245,-1.322602 0.1239,-0.08632 0.21998,-0.15267 0.259162,-0.1659 l 0.04308,-0.07052 c -0.106955,-0.67336 -1.111105,-3.93183 -1.867967,-4.71439 -0.209788,-0.21473 -0.376696,-0.423492 -0.715487,-0.622616 -2.739633,-1.596796 -9.24406,-2.558364 -9.548623,-2.602906 l -0.0512,0.021 -0.021,0.04306 c 0,0 -0.026,1.35062 -0.02764,1.500516 -0.223062,-0.07328 -0.91532,-0.300532 -1.906632,-0.572338 1.29345,-1.600366 3.27573,-3.02043 6.744822,-3.02043 z m 2.389993,4.787895 c 0.04724,-7.57e-4 0.09388,-0.0015 0.138226,0 1.534597,0.05375 2.740343,1.347697 2.687865,2.881217 -0.02793,0.741576 -0.340088,1.427336 -0.881813,1.93368 -0.543502,0.508708 -1.249449,0.774082 -1.995554,0.750208 -1.532105,-0.05692 -2.737794,-1.349946 -2.687815,-2.8812 0.0273,-0.743146 0.340621,-1.432742 0.885594,-1.937792 0.508864,-0.477208 1.160095,-0.735784 1.852566,-0.746113 z m -0.0735,0.819591 c -0.446936,0.02796 -0.868847,0.20895 -1.198891,0.518214 -0.376258,0.353286 -0.598345,0.8316 -0.615071,1.349946 -0.0344,1.070636 0.802356,1.971558 1.871968,2.01085 0.519754,0.021 1.012807,-0.16548 1.392277,-0.517938 0.378475,-0.354883 0.598944,-0.837673 0.614841,-1.353936 0.0353,-1.071818 -0.80556,-1.9697 -1.875737,-2.007136 -0.06637,-0.0044 -0.125384,-0.0066 -0.189421,0 z m 0.510493,0.97093 c 0.47525,0 0.85863,0.2583 0.8586,0.576284 0,0.316426 -0.38335,0.575964 -0.8586,0.575964 -0.47691,0 -0.862509,-0.260422 -0.862509,-0.575964 0,-0.317984 0.385599,-0.576284 0.862509,-0.576284 z"
     id="path2445"
     class="ColorScheme-Text "
     inkscape:connector-curvature="0" />
</svg>
